<svg width="50" height="22" viewBox="0 0 50 22" fill="none" xmlns="http://www.w3.org/2000/svg">
<path d="M37.5 11C37.5 16.799 32.799 21.5 27 21.5C21.201 21.5 16.5 16.799 16.5 11C16.5 5.20101 21.201 0.5 27 0.5C32.799 0.5 37.5 5.20101 37.5 11Z" stroke="white"/>
<path d="M50 10.9999L45 8.11319L45 13.8867L50 10.9999ZM45.4976 10.4999C45.4597 10.4999 45.4219 10.4999 45.384 10.4999C45.3461 10.4999 45.3082 10.4999 45.2703 10.4999C45.2323 10.4999 45.1944 10.4999 45.1564 10.4999C45.1184 10.4999 45.0804 10.4999 45.0424 10.4999C45.0043 10.4999 44.9663 10.4999 44.9282 10.4999C44.8901 10.4999 44.852 10.4999 44.8138 10.4999C44.7757 10.4999 44.7375 10.4999 44.6994 10.4999C44.6612 10.4999 44.623 10.4999 44.5847 10.4999C44.5465 10.4999 44.5083 10.4999 44.47 10.4999C44.4317 10.4999 44.3934 10.4999 44.3551 10.4999C44.3167 10.4999 44.2784 10.4999 44.24 10.4999C44.2017 10.4999 44.1633 10.4999 44.1248 10.4999C44.0864 10.4999 44.048 10.4999 44.0095 10.4999C43.9711 10.4999 43.9326 10.4999 43.8941 10.4999C43.8556 10.4999 43.817 10.4999 43.7785 10.4999C43.7399 10.4999 43.7013 10.4999 43.6628 10.4999C43.6242 10.4999 43.5855 10.4999 43.5469 10.4999C43.5083 10.4999 43.4696 10.4999 43.4309 10.4999C43.3922 10.4999 43.3535 10.4999 43.3148 10.4999C43.2761 10.4999 43.2373 10.4999 43.1986 10.4999C43.1598 10.4999 43.121 10.4999 43.0822 10.4999C43.0434 10.4999 43.0046 10.4999 42.9657 10.4999C42.9269 10.4999 42.888 10.4999 42.8491 10.4999C42.8102 10.4999 42.7713 10.4999 42.7324 10.4999C42.6934 10.4999 42.6545 10.4999 42.6155 10.4999C42.5766 10.4999 42.5376 10.4999 42.4986 10.4999C42.4595 10.4999 42.4205 10.4999 42.3815 10.4999C42.3424 10.4999 42.3034 10.4999 42.2643 10.4999C42.2252 10.4999 42.1861 10.4999 42.147 10.4999C42.1078 10.4999 42.0687 10.4999 42.0295 10.4999C41.9904 10.4999 41.9512 10.4999 41.912 10.4999C41.8728 10.4999 41.8336 10.4999 41.7944 10.4999C41.7551 10.4999 41.7159 10.4999 41.6766 10.4999C41.6373 10.4999 41.5981 10.4999 41.5588 10.4999C41.5194 10.4999 41.4801 10.4999 41.4408 10.4999C41.4015 10.4999 41.3621 10.4999 41.3227 10.4999C41.2834 10.4999 41.244 10.4999 41.2046 10.4999C41.1652 10.4999 41.1257 10.4999 41.0863 10.4999C41.0469 10.4999 41.0074 10.4999 40.9679 10.4999C40.9285 10.4999 40.889 10.4999 40.8495 10.4999C40.81 10.4999 40.7704 10.4999 40.7309 10.4999C40.6914 10.4999 40.6518 10.4999 40.6122 10.4999C40.5727 10.4999 40.5331 10.4999 40.4935 10.4999C40.4539 10.4999 40.4143 10.4999 40.3747 10.4999C40.335 10.4999 40.2954 10.4999 40.2557 10.4999C40.2161 10.4999 40.1764 10.4999 40.1367 10.4999C40.097 10.4999 40.0573 10.4999 40.0176 10.4999C39.9779 10.4999 39.9382 10.4999 39.8984 10.4999C39.8587 10.4999 39.8189 10.4999 39.7792 10.4999C39.7394 10.4999 39.6996 10.4999 39.6598 10.4999C39.62 10.4999 39.5802 10.4999 39.5404 10.4999C39.5005 10.4999 39.4607 10.4999 39.4208 10.4999C39.381 10.4999 39.3411 10.4999 39.3013 10.4999C39.2614 10.4999 39.2215 10.4999 39.1816 10.4999C39.1417 10.4999 39.1018 10.4999 39.0618 10.4999C39.0219 10.4999 38.982 10.4999 38.942 10.4999C38.9021 10.4999 38.8621 10.4999 38.8221 10.4999C38.7821 10.4999 38.7422 10.4999 38.7022 10.4999C38.6622 10.4999 38.6222 10.4999 38.5821 10.4999C38.5421 10.4999 38.5021 10.4999 38.462 10.4999C38.422 10.4999 38.3819 10.4999 38.3419 10.4999C38.3018 10.4999 38.2617 10.4999 38.2216 10.4999C38.1815 10.4999 38.1414 10.4999 38.1013 10.4999C38.0612 10.4999 38.0211 10.4999 37.981 10.4999C37.9408 10.4999 37.9007 10.4999 37.8606 10.4999C37.8204 10.4999 37.7803 10.4999 37.7401 10.4999C37.6999 10.4999 37.6597 10.4999 37.6195 10.4999C37.5794 10.4999 37.5392 10.4999 37.499 10.4999C37.4588 10.4999 37.4185 10.4999 37.3783 10.4999C37.3381 10.4999 37.2979 10.4999 37.2576 10.4999C37.2174 10.4999 37.1771 10.4999 37.1369 10.4999C37.0966 10.4999 37.0563 10.4999 37.0161 10.4999C36.9758 10.4999 36.9355 10.4999 36.8952 10.4999C36.8549 10.4999 36.8146 10.4999 36.7743 10.4999C36.734 10.4999 36.6937 10.4999 36.6534 10.4999C36.6131 10.4999 36.5727 10.4999 36.5324 10.4999C36.4921 10.4999 36.4517 10.4999 36.4114 10.4999C36.371 10.4999 36.3307 10.4999 36.2903 10.4999C36.2499 10.4999 36.2096 10.4999 36.1692 10.4999C36.1288 10.4999 36.0884 10.4999 36.048 10.4999C36.0076 10.4999 35.9672 10.4999 35.9268 10.4999C35.8864 10.4999 35.846 10.4999 35.8056 10.4999C35.7652 10.4999 35.7248 10.4999 35.6844 10.4999C35.6439 10.4999 35.6035 10.4999 35.5631 10.4999C35.5226 10.4999 35.4822 10.4999 35.4418 10.4999C35.4013 10.4999 35.3609 10.4999 35.3204 10.4999C35.2799 10.4999 35.2395 10.4999 35.199 10.4999C35.1586 10.4999 35.1181 10.4999 35.0776 10.4999C35.0371 10.4999 34.9967 10.4999 34.9562 10.4999C34.9157 10.4999 34.8752 10.4999 34.8347 10.4999C34.7943 10.4999 34.7538 10.4999 34.7133 10.4999C34.6728 10.4999 34.6323 10.4999 34.5918 10.4999C34.5513 10.4999 34.5108 10.4999 34.4702 10.4999C34.4297 10.4999 34.3892 10.4999 34.3487 10.4999C34.3082 10.4999 34.2677 10.4999 34.2272 10.4999C34.1866 10.4999 34.1461 10.4999 34.1056 10.4999C34.0651 10.4999 34.0245 10.4999 33.984 10.4999C33.9435 10.4999 33.903 10.4999 33.8624 10.4999C33.8219 10.4999 33.7814 10.4999 33.7408 10.4999C33.7003 10.4999 33.6598 10.4999 33.6192 10.4999C33.5787 10.4999 33.5381 10.4999 33.4976 10.4999C33.4571 10.4999 33.4165 10.4999 33.376 10.4999C33.3354 10.4999 33.2949 10.4999 33.2543 10.4999C33.2138 10.4999 33.1733 10.4999 33.1327 10.4999C33.0922 10.4999 33.0516 10.4999 33.0111 10.4999C32.9705 10.4999 32.93 10.4999 32.8894 10.4999C32.8489 10.4999 32.8084 10.4999 32.7678 10.4999C32.7273 10.4999 32.6867 10.4999 32.6462 10.4999C32.6056 10.4999 32.5651 10.4999 32.5246 10.4999C32.484 10.4999 32.4435 10.4999 32.4029 10.4999C32.3624 10.4999 32.3219 10.4999 32.2813 10.4999C32.2408 10.4999 32.2002 10.4999 32.1597 10.4999C32.1192 10.4999 32.0786 10.4999 32.0381 10.4999C31.9976 10.4999 31.9571 10.4999 31.9165 10.4999C31.876 10.4999 31.8355 10.4999 31.795 10.4999C31.7544 10.4999 31.7139 10.4999 31.6734 10.4999C31.6329 10.4999 31.5924 10.4999 31.5519 10.4999C31.5114 10.4999 31.4709 10.4999 31.4303 10.4999C31.3898 10.4999 31.3493 10.4999 31.3088 10.4999C31.2683 10.4999 31.2278 10.4999 31.1874 10.4999C31.1469 10.4999 31.1064 10.4999 31.0659 10.4999C31.0254 10.4999 30.9849 10.4999 30.9445 10.4999C30.904 10.4999 30.8635 10.4999 30.823 10.4999C30.7826 10.4999 30.7421 10.4999 30.7017 10.4999C30.6612 10.4999 30.6207 10.4999 30.5803 10.4999C30.5398 10.4999 30.4994 10.4999 30.459 10.4999C30.4185 10.4999 30.3781 10.4999 30.3377 10.4999C30.2972 10.4999 30.2568 10.4999 30.2164 10.4999C30.176 10.4999 30.1356 10.4999 30.0952 10.4999C30.0548 10.4999 30.0144 10.4999 29.974 10.4999C29.9336 10.4999 29.8932 10.4999 29.8528 10.4999C29.8124 10.4999 29.772 10.4999 29.7317 10.4999C29.6913 10.4999 29.6509 10.4999 29.6106 10.4999C29.5702 10.4999 29.5299 10.4999 29.4895 10.4999C29.4492 10.4999 29.4089 10.4999 29.3685 10.4999C29.3282 10.4999 29.2879 10.4999 29.2476 10.4999C29.2073 10.4999 29.167 10.4999 29.1267 10.4999C29.0864 10.4999 29.0461 10.4999 29.0058 10.4999C28.9655 10.4999 28.9252 10.4999 28.885 10.4999C28.8447 10.4999 28.8045 10.4999 28.7642 10.4999C28.724 10.4999 28.6837 10.4999 28.6435 10.4999C28.6033 10.4999 28.563 10.4999 28.5228 10.4999C28.4826 10.4999 28.4424 10.4999 28.4022 10.4999C28.362 10.4999 28.3218 10.4999 28.2817 10.4999C28.2415 10.4999 28.2013 10.4999 28.1612 10.4999C28.121 10.4999 28.0809 10.4999 28.0407 10.4999C28.0006 10.4999 27.9605 10.4999 27.9203 10.4999C27.8802 10.4999 27.8401 10.4999 27.8 10.4999C27.7599 10.4999 27.7198 10.4999 27.6798 10.4999C27.6397 10.4999 27.5996 10.4999 27.5596 10.4999C27.5195 10.4999 27.4795 10.4999 27.4394 10.4999C27.3994 10.4999 27.3594 10.4999 27.3194 10.4999C27.2794 10.4999 27.2394 10.4999 27.1994 10.4999C27.1594 10.4999 27.1194 10.4999 27.0795 10.4999C27.0395 10.4999 26.9996 10.4999 26.9596 10.4999C26.9197 10.4999 26.8798 10.4999 26.8399 10.4999C26.7999 10.4999 26.76 10.4999 26.7202 10.4999C26.6803 10.4999 26.6404 10.4999 26.6005 10.4999C26.5607 10.4999 26.5208 10.4999 26.481 10.4999C26.4412 10.4999 26.4013 10.4999 26.3615 10.4999C26.3217 10.4999 26.2819 10.4999 26.2421 10.4999C26.2024 10.4999 26.1626 10.4999 26.1228 10.4999C26.0831 10.4999 26.0433 10.4999 26.0036 10.4999C25.9639 10.4999 25.9242 10.4999 25.8845 10.4999C25.8448 10.4999 25.8051 10.4999 25.7654 10.4999C25.7258 10.4999 25.6861 10.4999 25.6465 10.4999C25.6068 10.4999 25.5672 10.4999 25.5276 10.4999C25.488 10.4999 25.4484 10.4999 25.4088 10.4999C25.3692 10.4999 25.3297 10.4999 25.2901 10.4999C25.2506 10.4999 25.2111 10.4999 25.1715 10.4999C25.132 10.4999 25.0925 10.4999 25.053 10.4999C25.0136 10.4999 24.9741 10.4999 24.9346 10.4999C24.8952 10.4999 24.8557 10.4999 24.8163 10.4999C24.7769 10.4999 24.7375 10.4999 24.6981 10.4999C24.6587 10.4999 24.6194 10.4999 24.58 10.4999C24.5407 10.4999 24.5013 10.4999 24.462 10.4999C24.4227 10.4999 24.3834 10.4999 24.3441 10.4999C24.3048 10.4999 24.2656 10.4999 24.2263 10.4999C24.1871 10.4999 24.1479 10.4999 24.1086 10.4999C24.0694 10.4999 24.0302 10.4999 23.9911 10.4999C23.9519 10.4999 23.9127 10.4999 23.8736 10.4999C23.8345 10.4999 23.7954 10.4999 23.7563 10.4999C23.7172 10.4999 23.6781 10.4999 23.639 10.4999C23.5999 10.4999 23.5609 10.4999 23.5219 10.4999C23.4829 10.4999 23.4439 10.4999 23.4049 10.4999C23.3659 10.4999 23.3269 10.4999 23.288 10.4999C23.249 10.4999 23.2101 10.4999 23.1712 10.4999C23.1323 10.4999 23.0934 10.4999 23.0546 10.4999C23.0157 10.4999 22.9768 10.4999 22.938 10.4999C22.8992 10.4999 22.8604 10.4999 22.8216 10.4999C22.7828 10.4999 22.7441 10.4999 22.7053 10.4999C22.6666 10.4999 22.6279 10.4999 22.5892 10.4999C22.5505 10.4999 22.5118 10.4999 22.4731 10.4999C22.4345 10.4999 22.3958 10.4999 22.3572 10.4999C22.3186 10.4999 22.28 10.4999 22.2415 10.4999C22.2029 10.4999 22.1643 10.4999 22.1258 10.4999C22.0873 10.4999 22.0488 10.4999 22.0103 10.4999C21.9718 10.4999 21.9334 10.4999 21.8949 10.4999C21.8565 10.4999 21.8181 10.4999 21.7797 10.4999C21.7413 10.4999 21.7029 10.4999 21.6646 10.4999C21.6263 10.4999 21.5879 10.4999 21.5497 10.4999C21.5114 10.4999 21.4731 10.4999 21.4348 10.4999C21.3966 10.4999 21.3584 10.4999 21.3202 10.4999C21.282 10.4999 21.2438 10.4999 21.2056 10.4999C21.1675 10.4999 21.1293 10.4999 21.0912 10.4999C21.0531 10.4999 21.0151 10.4999 20.977 10.4999C20.9389 10.4999 20.9009 10.4999 20.8629 10.4999C20.8249 10.4999 20.7869 10.4999 20.749 10.4999C20.711 10.4999 20.6731 10.4999 20.6352 10.4999C20.5973 10.4999 20.5594 10.4999 20.5215 10.4999C20.4837 10.4999 20.4459 10.4999 20.4081 10.4999C20.3703 10.4999 20.3325 10.4999 20.2947 10.4999C20.257 10.4999 20.2193 10.4999 20.1816 10.4999C20.1439 10.4999 20.1062 10.4999 20.0686 10.4999C20.0309 10.4999 19.9933 10.4999 19.9557 10.4999C19.9181 10.4999 19.8805 10.4999 19.843 10.4999C19.8055 10.4999 19.768 10.4999 19.7305 10.4999C19.693 10.4999 19.6555 10.4999 19.6181 10.4999C19.5807 10.4999 19.5433 10.4999 19.5059 10.4999C19.4685 10.4999 19.4312 10.4999 19.3939 10.4999C19.3566 10.4999 19.3193 10.4999 19.282 10.4999C19.2448 10.4999 19.2075 10.4999 19.1703 10.4999C19.1331 10.4999 19.096 10.4999 19.0588 10.4999C19.0217 10.4999 18.9846 10.4999 18.9475 10.4999C18.9104 10.4999 18.8733 10.4999 18.8363 10.4999C18.7993 10.4999 18.7623 10.4999 18.7253 10.4999C18.6883 10.4999 18.6514 10.4999 18.6145 10.4999C18.5776 10.4999 18.5407 10.4999 18.5038 10.4999C18.467 10.4999 18.4302 10.4999 18.3934 10.4999C18.3566 10.4999 18.3198 10.4999 18.2831 10.4999C18.2464 10.4999 18.2097 10.4999 18.173 10.4999C18.1364 10.4999 18.0997 10.4999 18.0631 10.4999C18.0265 10.4999 17.9899 10.4999 17.9534 10.4999C17.9168 10.4999 17.8803 10.4999 17.8439 10.4999C17.8074 10.4999 17.7709 10.4999 17.7345 10.4999C17.6981 10.4999 17.6617 10.4999 17.6254 10.4999C17.589 10.4999 17.5527 10.4999 17.5164 10.4999C17.4801 10.4999 17.4439 10.4999 17.4076 10.4999C17.3714 10.4999 17.3352 10.4999 17.2991 10.4999C17.2629 10.4999 17.2268 10.4999 17.1907 10.4999C17.1546 10.4999 17.1185 10.4999 17.0825 10.4999C17.0465 10.4999 17.0105 10.4999 16.9745 10.4999C16.9386 10.4999 16.9026 10.4999 16.8667 10.4999C16.8309 10.4999 16.795 10.4999 16.7592 10.4999C16.7234 10.4999 16.6876 10.4999 16.6518 10.4999C16.616 10.4999 16.5803 10.4999 16.5446 10.4999C16.509 10.4999 16.4733 10.4999 16.4377 10.4999C16.4021 10.4999 16.3665 10.4999 16.3309 10.4999C16.2954 10.4999 16.2599 10.4999 16.2244 10.4999C16.1889 10.4999 16.1535 10.4999 16.1181 10.4999C16.0827 10.4999 16.0473 10.4999 16.012 10.4999C15.9766 10.4999 15.9413 10.4999 15.906 10.4999C15.8708 10.4999 15.8356 10.4999 15.8004 10.4999C15.7652 10.4999 15.73 10.4999 15.6949 10.4999C15.6598 10.4999 15.6247 10.4999 15.5896 10.4999C15.5546 10.4999 15.5196 10.4999 15.4846 10.4999C15.4496 10.4999 15.4147 10.4999 15.3798 10.4999C15.3449 10.4999 15.3101 10.4999 15.2752 10.4999C15.2404 10.4999 15.2056 10.4999 15.1709 10.4999C15.1361 10.4999 15.1014 10.4999 15.0667 10.4999C15.0321 10.4999 14.9974 10.4999 14.9628 10.4999C14.9282 10.4999 14.8937 10.4999 14.8592 10.4999C14.8246 10.4999 14.7902 10.4999 14.7557 10.4999C14.7213 10.4999 14.6869 10.4999 14.6525 10.4999C14.6181 10.4999 14.5838 10.4999 14.5495 10.4999C14.5152 10.4999 14.481 10.4999 14.4468 10.4999C14.4126 10.4999 14.3784 10.4999 14.3443 10.4999C14.3101 10.4999 14.276 10.4999 14.242 10.4999C14.2079 10.4999 14.1739 10.4999 14.14 10.4999C14.106 10.4999 14.0721 10.4999 14.0382 10.4999C14.0043 10.4999 13.9704 10.4999 13.9366 10.4999C13.9028 10.4999 13.869 10.4999 13.8353 10.4999C13.8016 10.4999 13.7679 10.4999 13.7342 10.4999C13.7006 10.4999 13.667 10.4999 13.6334 10.4999C13.5999 10.4999 13.5664 10.4999 13.5329 10.4999C13.4994 10.4999 13.466 10.4999 13.4326 10.4999C13.3992 10.4999 13.3658 10.4999 13.3325 10.4999C13.2992 10.4999 13.2659 10.4999 13.2327 10.4999C13.1995 10.4999 13.1663 10.4999 13.1331 10.4999C13.1 10.4999 13.0669 10.4999 13.0338 10.4999C13.0008 10.4999 12.9677 10.4999 12.9348 10.4999C12.9018 10.4999 12.8689 10.4999 12.836 10.4999C12.8031 10.4999 12.7703 10.4999 12.7375 10.4999C12.7047 10.4999 12.6719 10.4999 12.6392 10.4999C12.6065 10.4999 12.5738 10.4999 12.5412 10.4999C12.5086 10.4999 12.476 10.4999 12.4435 10.4999C12.4109 10.4999 12.3784 10.4999 12.346 10.4999C12.3135 10.4999 12.2811 10.4999 12.2488 10.4999C12.2164 10.4999 12.1841 10.4999 12.1518 10.4999C12.1196 10.4999 12.0873 10.4999 12.0552 10.4999C12.023 10.4999 11.9909 10.4999 11.9588 10.4999C11.9267 10.4999 11.8946 10.4999 11.8627 10.4999C11.8307 10.4999 11.7987 10.4999 11.7668 10.4999C11.7349 10.4999 11.703 10.4999 11.6712 10.4999C11.6394 10.4999 11.6077 10.4999 11.5759 10.4999C11.5442 10.4999 11.5126 10.4999 11.4809 10.4999C11.4493 10.4999 11.4177 10.4999 11.3862 10.4999C11.3547 10.4999 11.3232 10.4999 11.2917 10.4999C11.2603 10.4999 11.2289 10.4999 11.1976 10.4999C11.1662 10.4999 11.1349 10.4999 11.1037 10.4999C11.0724 10.4999 11.0412 10.4999 11.0101 10.4999C10.9789 10.4999 10.9478 10.4999 10.9168 10.4999C10.8857 10.4999 10.8547 10.4999 10.8238 10.4999C10.7928 10.4999 10.7619 10.4999 10.731 10.4999C10.7002 10.4999 10.6694 10.4999 10.6386 10.4999C10.6078 10.4999 10.5771 10.4999 10.5464 10.4999C10.5158 10.4999 10.4852 10.4999 10.4546 10.4999C10.424 10.4999 10.3935 10.4999 10.363 10.4999C10.3326 10.4999 10.3022 10.4999 10.2718 10.4999C10.2414 10.4999 10.2111 10.4999 10.1808 10.4999C10.1506 10.4999 10.1204 10.4999 10.0902 10.4999C10.06 10.4999 10.0299 10.4999 9.99984 10.4999C9.96977 10.4999 9.93975 10.4999 9.90979 10.4999C9.87983 10.4999 9.84991 10.4999 9.82005 10.4999C9.79018 10.4999 9.76037 10.4999 9.73061 10.4999C9.70085 10.4999 9.67115 10.4999 9.64149 10.4999C9.61183 10.4999 9.58223 10.4999 9.55267 10.4999C9.52312 10.4999 9.49362 10.4999 9.46417 10.4999C9.43472 10.4999 9.40532 10.4999 9.37598 10.4999C9.34663 10.4999 9.31734 10.4999 9.2881 10.4999C9.25886 10.4999 9.22967 10.4999 9.20053 10.4999C9.1714 10.4999 9.14232 10.4999 9.11329 10.4999C9.08426 10.4999 9.05529 10.4999 9.02637 10.4999C8.99744 10.4999 8.96857 10.4999 8.93976 10.4999C8.91095 10.4999 8.88218 10.4999 8.85348 10.4999C8.82477 10.4999 8.79612 10.4999 8.76752 10.4999C8.73891 10.4999 8.71037 10.4999 8.68188 10.4999C8.65339 10.4999 8.62495 10.4999 8.59657 10.4999C8.56819 10.4999 8.53986 10.4999 8.51159 10.4999C8.48331 10.4999 8.4551 10.4999 8.42693 10.4999C8.39877 10.4999 8.37066 10.4999 8.34261 10.4999C8.31456 10.4999 8.28656 10.4999 8.25862 10.4999C8.23068 10.4999 8.20279 10.4999 8.17496 10.4999C8.14713 10.4999 8.11936 10.4999 8.09164 10.4999C8.06392 10.4999 8.03626 10.4999 8.00865 10.4999C7.98104 10.4999 7.9535 10.4999 7.926 10.4999C7.89851 10.4999 7.87107 10.4999 7.84369 10.4999C7.81631 10.4999 7.78899 10.4999 7.76172 10.4999C7.73446 10.4999 7.70725 10.4999 7.6801 10.4999C7.65295 10.4999 7.62585 10.4999 7.59882 10.4999C7.57178 10.4999 7.5448 10.4999 7.51788 10.4999C7.49096 10.4999 7.46409 10.4999 7.43729 10.4999C7.41048 10.4999 7.38373 10.4999 7.35704 10.4999C7.33035 10.4999 7.30372 10.4999 7.27715 10.4999C7.25058 10.4999 7.22406 10.4999 7.19761 10.4999C7.17115 10.4999 7.14475 10.4999 7.11842 10.4999C7.09208 10.4999 7.0658 10.4999 7.03958 10.4999C7.01336 10.4999 6.9872 10.4999 6.9611 10.4999C6.935 10.4999 6.90896 10.4999 6.88298 10.4999C6.85699 10.4999 6.83107 10.4999 6.80521 10.4999C6.77935 10.4999 6.75355 10.4999 6.72781 10.4999C6.70206 10.4999 6.67638 10.4999 6.65076 10.4999C6.62514 10.4999 6.59958 10.4999 6.57408 10.4999C6.54858 10.4999 6.52314 10.4999 6.49776 10.4999C6.47239 10.4999 6.44707 10.4999 6.42181 10.4999C6.39656 10.4999 6.37136 10.4999 6.34623 10.4999C6.32109 10.4999 6.29602 10.4999 6.27102 10.4999C6.246 10.4999 6.22105 10.4999 6.19617 10.4999C6.17128 10.4999 6.14646 10.4999 6.1217 10.4999C6.09693 10.4999 6.07223 10.4999 6.0476 10.4999C6.02296 10.4999 5.99838 10.4999 5.97387 10.4999C5.94936 10.4999 5.9249 10.4999 5.90052 10.4999C5.87613 10.4999 5.85181 10.4999 5.82755 10.4999C5.80328 10.4999 5.77909 10.4999 5.75495 10.4999C5.73082 10.4999 5.70675 10.4999 5.68274 10.4999C5.65873 10.4999 5.63479 10.4999 5.61091 10.4999C5.58703 10.4999 5.56321 10.4999 5.53946 10.4999C5.51571 10.4999 5.49202 10.4999 5.4684 10.4999C5.44477 10.4999 5.42122 10.4999 5.39772 10.4999C5.37423 10.4999 5.3508 10.4999 5.32743 10.4999C5.30407 10.4999 5.28077 10.4999 5.25753 10.4999C5.2343 10.4999 5.21113 10.4999 5.18803 10.4999C5.16492 10.4999 5.14188 10.4999 5.11891 10.4999C5.09594 10.4999 5.07303 10.4999 5.05019 10.4999C5.02734 10.4999 5.00457 10.4999 4.98186 10.4999C4.95915 10.4999 4.9365 10.4999 4.91393 10.4999C4.89135 10.4999 4.86884 10.4999 4.84639 10.4999C4.82395 10.4999 4.80157 10.4999 4.77926 10.4999C4.75695 10.4999 4.7347 10.4999 4.71253 10.4999C4.69035 10.4999 4.66824 10.4999 4.6462 10.4999C4.62415 10.4999 4.60218 10.4999 4.58027 10.4999C4.55836 10.4999 4.53652 10.4999 4.51475 10.4999C4.49298 10.4999 4.47128 10.4999 4.44964 10.4999C4.428 10.4999 4.40643 10.4999 4.38493 10.4999C4.36343 10.4999 4.342 10.4999 4.32064 10.4999C4.29927 10.4999 4.27798 10.4999 4.25675 10.4999C4.23553 10.4999 4.21437 10.4999 4.19328 10.4999C4.17219 10.4999 4.15117 10.4999 4.13022 10.4999C4.10927 10.4999 4.08839 10.4999 4.06758 10.4999C4.04677 10.4999 4.02603 10.4999 4.00536 10.4999C3.98468 10.4999 3.96408 10.4999 3.94355 10.4999C3.92302 10.4999 3.90256 10.4999 3.88217 10.4999C3.86177 10.4999 3.84145 10.4999 3.8212 10.4999C3.80095 10.4999 3.78077 10.4999 3.76066 10.4999C3.74055 10.4999 3.72051 10.4999 3.70055 10.4999C3.68058 10.4999 3.66068 10.4999 3.64085 10.4999C3.62103 10.4999 3.60128 10.4999 3.58159 10.4999C3.56191 10.4999 3.5423 10.4999 3.52276 10.4999C3.50322 10.4999 3.48375 10.4999 3.46436 10.4999C3.44496 10.4999 3.42564 10.4999 3.40638 10.4999C3.38713 10.4999 3.36795 10.4999 3.34885 10.4999C3.32974 10.4999 3.3107 10.4999 3.29174 10.4999C3.27278 10.4999 3.25389 10.4999 3.23507 10.4999C3.21626 10.4999 3.19751 10.4999 3.17884 10.4999C3.16018 10.4999 3.14158 10.4999 3.12305 10.4999C3.10453 10.4999 3.08608 10.4999 3.06771 10.4999C3.04933 10.4999 3.03102 10.4999 3.0128 10.4999C2.99457 10.4999 2.97641 10.4999 2.95834 10.4999C2.94025 10.4999 2.92225 10.4999 2.90432 10.4999C2.88638 10.4999 2.86853 10.4999 2.85074 10.4999C2.83296 10.4999 2.81525 10.4999 2.79762 10.4999C2.77999 10.4999 2.76243 10.4999 2.74495 10.4999C2.72746 10.4999 2.71006 10.4999 2.69272 10.4999C2.67539 10.4999 2.65813 10.4999 2.64095 10.4999C2.62377 10.4999 2.60666 10.4999 2.58963 10.4999C2.57261 10.4999 2.55565 10.4999 2.53877 10.4999C2.5219 10.4999 2.50509 10.4999 2.48837 10.4999C2.47164 10.4999 2.45499 10.4999 2.43842 10.4999C2.42185 10.4999 2.40535 10.4999 2.38894 10.4999C2.37252 10.4999 2.35617 10.4999 2.33991 10.4999C2.32365 10.4999 2.30746 10.4999 2.29135 10.4999C2.27524 10.4999 2.2592 10.4999 2.24325 10.4999C2.22729 10.4999 2.21142 10.4999 2.19562 10.4999C2.17982 10.4999 2.1641 10.4999 2.14845 10.4999C2.13281 10.4999 2.11724 10.4999 2.10176 10.4999C2.08627 10.4999 2.07086 10.4999 2.05553 10.4999C2.0402 10.4999 2.02495 10.4999 2.00977 10.4999C1.9946 10.4999 1.97951 10.4999 1.96449 10.4999C1.94948 10.4999 1.93454 10.4999 1.91969 10.4999C1.90483 10.4999 1.89005 10.4999 1.87535 10.4999C1.86065 10.4999 1.84604 10.4999 1.8315 10.4999C1.81696 10.4999 1.8025 10.4999 1.78812 10.4999C1.77375 10.4999 1.75945 10.4999 1.74523 10.4999C1.73101 10.4999 1.71687 10.4999 1.70282 10.4999C1.68876 10.4999 1.67478 10.4999 1.66088 10.4999C1.64699 10.4999 1.63317 10.4999 1.61944 10.4999C1.60571 10.4999 1.59206 10.4999 1.57848 10.4999C1.56491 10.4999 1.55142 10.4999 1.53801 10.4999C1.5246 10.4999 1.51128 10.4999 1.49803 10.4999C1.48478 10.4999 1.47162 10.4999 1.45854 10.4999C1.44546 10.4999 1.43246 10.4999 1.41954 10.4999C1.40662 10.4999 1.39379 10.4999 1.38103 10.4999C1.36828 10.4999 1.35561 10.4999 1.34303 10.4999C1.33044 10.4999 1.31793 10.4999 1.30551 10.4999C1.29309 10.4999 1.28075 10.4999 1.2685 10.4999C1.25624 10.4999 1.24407 10.4999 1.23198 10.4999C1.21989 10.4999 1.20789 10.4999 1.19596 10.4999C1.18404 10.4999 1.17221 10.4999 1.16045 10.4999C1.1487 10.4999 1.13703 10.4999 1.12545 10.4999C1.11386 10.4999 1.10236 10.4999 1.09094 10.4999C1.07953 10.4999 1.06819 10.4999 1.05695 10.4999C1.0457 10.4999 1.03453 10.4999 1.02346 10.4999C1.01238 10.4999 1.00139 10.4999 0.990479 10.4999C0.979572 10.4999 0.96875 10.4999 0.958012 10.4999C0.947277 10.4999 0.936623 10.4999 0.92606 10.4999C0.915493 10.4999 0.905014 10.4999 0.894619 10.4999C0.884224 10.4999 0.873917 10.4999 0.863693 10.4999C0.853474 10.4999 0.843334 10.4999 0.833286 10.4999C0.823238 10.4999 0.813274 10.4999 0.803398 10.4999C0.793522 10.4999 0.783733 10.4999 0.774029 10.4999C0.764328 10.4999 0.754711 10.4999 0.745182 10.4999C0.735653 10.4999 0.726212 10.4999 0.716858 10.4999C0.707504 10.4999 0.698238 10.4999 0.68906 10.4999C0.679882 10.4999 0.670788 10.4999 0.661785 10.4999C0.652782 10.4999 0.643868 10.4999 0.63504 10.4999C0.626213 10.4999 0.617474 10.4999 0.608822 10.4999C0.60017 10.4999 0.59161 10.4999 0.583138 10.4999C0.574661 10.4999 0.566277 10.4999 0.55798 10.4999C0.549686 10.4999 0.541477 10.4999 0.53336 10.4999C0.525242 10.4999 0.517212 10.4999 0.509274 10.4999C0.501331 10.4999 0.493481 10.4999 0.485722 10.4999C0.477963 10.4999 0.470291 10.4999 0.462708 10.4999C0.455128 10.4999 0.447636 10.4999 0.440235 10.4999C0.432835 10.4999 0.425522 10.4999 0.418301 10.4999C0.411079 10.4999 0.40395 10.4999 0.396912 10.4999C0.38987 10.4999 0.382923 10.4999 0.376064 10.4999C0.369206 10.4999 0.362438 10.4999 0.355763 10.4999C0.349087 10.4999 0.342499 10.4999 0.336006 10.4999C0.329514 10.4999 0.323109 10.4999 0.316799 10.4999C0.310486 10.4999 0.304268 10.4999 0.298142 10.4999C0.292011 10.4999 0.285976 10.4999 0.280033 10.4999C0.27409 10.4999 0.268238 10.4999 0.262478 10.4999C0.256718 10.4999 0.251053 10.4999 0.245476 10.4999C0.239903 10.4999 0.234421 10.4999 0.229031 10.4999C0.22364 10.4999 0.218346 10.4999 0.213142 10.4999C0.207939 10.4999 0.202827 10.4999 0.197811 10.4999C0.192795 10.4999 0.18787 10.4999 0.183041 10.4999C0.178211 10.4999 0.173473 10.4999 0.168831 10.4999C0.164188 10.4999 0.159641 10.4999 0.155186 10.4999C0.15073 10.4999 0.14637 10.4999 0.142101 10.4999C0.137837 10.4999 0.133663 10.4999 0.129585 10.4999C0.125507 10.4999 0.121525 10.4999 0.117634 10.4999C0.113747 10.4999 0.109955 10.4999 0.106255 10.4999C0.102554 10.4999 0.0989533 10.4999 0.0954438 10.4999C0.0919342 10.4999 0.0885201 10.4999 0.0852051 10.4999C0.0818863 10.4999 0.0786629 10.4999 0.0755387 10.4999C0.0724106 10.4999 0.0693779 10.4999 0.0664444 10.4999C0.0635109 10.4999 0.0606728 10.4999 0.05793 10.4999C0.0551873 10.4999 0.0525399 10.4999 0.0499917 10.4999C0.0474396 10.4999 0.0449868 10.4999 0.0426293 10.4999C0.0402718 10.4999 0.0380135 10.4999 0.0358506 10.4999C0.0336876 10.4999 0.0316201 10.4999 0.0296517 10.4999C0.0276833 10.4999 0.0258141 10.4999 0.0240365 10.4999C0.0222626 10.4999 0.020588 10.4999 0.0190087 10.4999C0.0174294 10.4999 0.0159493 10.4999 0.0145646 10.4999C0.0131798 10.4999 0.0118981 10.4999 0.0107079 10.4999C0.00952153 10.4999 0.00843434 10.4999 0.00744252 10.4999C0.0064507 10.4999 0.00555806 10.4999 0.0047646 10.4999C0.00397114 10.4999 0.00327687 10.4999 0.00268178 10.4999C0.00208668 10.4999 0.00159077 10.4999 0.00119404 10.4999C0.000793501 10.4999 0.000495954 10.4999 0.00029759 10.4999C9.92258e-05 10.4999 4.37114e-08 10.4999 0 10.9999C-4.37114e-08 11.4999 9.91384e-05 11.4999 0.000297503 11.4999C0.000495867 11.4999 0.000793413 11.4999 0.00119396 11.4999C0.00159069 11.4999 0.0020866 11.4999 0.00268169 11.4999C0.00327678 11.4999 0.00397106 11.4999 0.00476451 11.4999C0.00555797 11.4999 0.00645061 11.4999 0.00744243 11.4999C0.00843425 11.4999 0.00952144 11.4999 0.0107078 11.4999C0.011898 11.4999 0.0131797 11.4999 0.0145645 11.4999C0.0159492 11.4999 0.0174293 11.4999 0.0190086 11.4999C0.0205879 11.4999 0.0222625 11.4999 0.0240364 11.4999C0.025814 11.4999 0.0276832 11.4999 0.0296516 11.4999C0.03162 11.4999 0.0336875 11.4999 0.0358505 11.4999C0.0380134 11.4999 0.0402717 11.4999 0.0426292 11.4999C0.0449867 11.4999 0.0474395 11.4999 0.0499916 11.4999C0.0525398 11.4999 0.0551872 11.4999 0.0579299 11.4999C0.0606727 11.4999 0.0635109 11.4999 0.0664444 11.4999C0.0693779 11.4999 0.0724105 11.4999 0.0755386 11.4999C0.0786628 11.4999 0.0818862 11.4999 0.085205 11.4999C0.08852 11.4999 0.0919342 11.4999 0.0954437 11.4999C0.0989532 11.4999 0.102554 11.4999 0.106255 11.4999C0.109955 11.4999 0.113747 11.4999 0.117634 11.4999C0.121525 11.4999 0.125507 11.4999 0.129585 11.4999C0.133663 11.4999 0.137836 11.4999 0.142101 11.4999C0.14637 11.4999 0.15073 11.4999 0.155186 11.4999C0.159641 11.4999 0.164188 11.4999 0.168831 11.4999C0.173473 11.4999 0.178211 11.4999 0.183041 11.4999C0.18787 11.4999 0.192795 11.4999 0.197811 11.4999C0.202827 11.4999 0.207939 11.4999 0.213142 11.4999C0.218346 11.4999 0.22364 11.4999 0.229031 11.4999C0.234421 11.4999 0.239902 11.4999 0.245476 11.4999C0.251053 11.4999 0.256718 11.4999 0.262478 11.4999C0.268238 11.4999 0.27409 11.4999 0.280033 11.4999C0.285976 11.4999 0.292011 11.4999 0.298141 11.4999C0.304268 11.4999 0.310486 11.4999 0.316799 11.4999C0.323109 11.4999 0.329514 11.4999 0.336006 11.4999C0.342499 11.4999 0.349087 11.4999 0.355762 11.4999C0.362438 11.4999 0.369205 11.4999 0.376064 11.4999C0.382923 11.4999 0.38987 11.4999 0.396912 11.4999C0.40395 11.4999 0.411079 11.4999 0.418301 11.4999C0.425522 11.4999 0.432835 11.4999 0.440235 11.4999C0.447636 11.4999 0.455128 11.4999 0.462707 11.4999C0.470291 11.4999 0.477962 11.4999 0.485722 11.4999C0.493481 11.4999 0.501331 11.4999 0.509273 11.4999C0.517212 11.4999 0.525242 11.4999 0.533359 11.4999C0.541477 11.4999 0.549686 11.4999 0.55798 11.4999C0.566277 11.4999 0.574661 11.4999 0.583137 11.4999C0.59161 11.4999 0.60017 11.4999 0.608822 11.4999C0.617474 11.4999 0.626213 11.4999 0.63504 11.4999C0.643867 11.4999 0.652782 11.4999 0.661785 11.4999C0.670788 11.4999 0.679882 11.4999 0.68906 11.4999C0.698238 11.4999 0.707504 11.4999 0.716858 11.4999C0.726212 11.4999 0.735653 11.4999 0.745182 11.4999C0.754711 11.4999 0.764328 11.4999 0.774029 11.4999C0.783733 11.4999 0.793522 11.4999 0.803398 11.4999C0.813274 11.4999 0.823238 11.4999 0.833286 11.4999C0.843334 11.4999 0.853474 11.4999 0.863693 11.4999C0.873917 11.4999 0.884224 11.4999 0.894619 11.4999C0.905014 11.4999 0.915493 11.4999 0.92606 11.4999C0.936623 11.4999 0.947277 11.4999 0.958012 11.4999C0.96875 11.4999 0.979572 11.4999 0.990478 11.4999C1.00139 11.4999 1.01238 11.4999 1.02346 11.4999C1.03453 11.4999 1.0457 11.4999 1.05695 11.4999C1.06819 11.4999 1.07952 11.4999 1.09094 11.4999C1.10236 11.4999 1.11386 11.4999 1.12545 11.4999C1.13703 11.4999 1.1487 11.4999 1.16045 11.4999C1.17221 11.4999 1.18404 11.4999 1.19596 11.4999C1.20789 11.4999 1.21989 11.4999 1.23198 11.4999C1.24407 11.4999 1.25624 11.4999 1.2685 11.4999C1.28075 11.4999 1.29309 11.4999 1.30551 11.4999C1.31793 11.4999 1.33044 11.4999 1.34303 11.4999C1.35561 11.4999 1.36828 11.4999 1.38103 11.4999C1.39379 11.4999 1.40662 11.4999 1.41954 11.4999C1.43246 11.4999 1.44546 11.4999 1.45854 11.4999C1.47162 11.4999 1.48478 11.4999 1.49803 11.4999C1.51128 11.4999 1.5246 11.4999 1.53801 11.4999C1.55142 11.4999 1.56491 11.4999 1.57848 11.4999C1.59206 11.4999 1.60571 11.4999 1.61944 11.4999C1.63317 11.4999 1.64699 11.4999 1.66088 11.4999C1.67478 11.4999 1.68876 11.4999 1.70282 11.4999C1.71687 11.4999 1.73101 11.4999 1.74523 11.4999C1.75945 11.4999 1.77375 11.4999 1.78812 11.4999C1.8025 11.4999 1.81696 11.4999 1.8315 11.4999C1.84603 11.4999 1.86065 11.4999 1.87535 11.4999C1.89005 11.4999 1.90483 11.4999 1.91969 11.4999C1.93454 11.4999 1.94948 11.4999 1.96449 11.4999C1.97951 11.4999 1.9946 11.4999 2.00977 11.4999C2.02495 11.4999 2.0402 11.4999 2.05553 11.4999C2.07086 11.4999 2.08627 11.4999 2.10176 11.4999C2.11724 11.4999 2.13281 11.4999 2.14845 11.4999C2.1641 11.4999 2.17982 11.4999 2.19562 11.4999C2.21142 11.4999 2.22729 11.4999 2.24325 11.4999C2.2592 11.4999 2.27524 11.4999 2.29135 11.4999C2.30746 11.4999 2.32365 11.4999 2.33991 11.4999C2.35617 11.4999 2.37252 11.4999 2.38894 11.4999C2.40535 11.4999 2.42185 11.4999 2.43842 11.4999C2.45499 11.4999 2.47164 11.4999 2.48837 11.4999C2.50509 11.4999 2.5219 11.4999 2.53877 11.4999C2.55565 11.4999 2.57261 11.4999 2.58963 11.4999C2.60666 11.4999 2.62377 11.4999 2.64095 11.4999C2.65813 11.4999 2.67539 11.4999 2.69272 11.4999C2.71006 11.4999 2.72746 11.4999 2.74495 11.4999C2.76243 11.4999 2.77999 11.4999 2.79762 11.4999C2.81525 11.4999 2.83296 11.4999 2.85074 11.4999C2.86853 11.4999 2.88638 11.4999 2.90432 11.4999C2.92225 11.4999 2.94025 11.4999 2.95834 11.4999C2.97641 11.4999 2.99457 11.4999 3.0128 11.4999C3.03102 11.4999 3.04933 11.4999 3.06771 11.4999C3.08608 11.4999 3.10453 11.4999 3.12305 11.4999C3.14158 11.4999 3.16018 11.4999 3.17884 11.4999C3.19751 11.4999 3.21626 11.4999 3.23507 11.4999C3.25389 11.4999 3.27278 11.4999 3.29174 11.4999C3.3107 11.4999 3.32974 11.4999 3.34885 11.4999C3.36795 11.4999 3.38713 11.4999 3.40638 11.4999C3.42564 11.4999 3.44496 11.4999 3.46436 11.4999C3.48375 11.4999 3.50322 11.4999 3.52276 11.4999C3.5423 11.4999 3.56191 11.4999 3.58159 11.4999C3.60128 11.4999 3.62103 11.4999 3.64085 11.4999C3.66068 11.4999 3.68058 11.4999 3.70055 11.4999C3.72051 11.4999 3.74055 11.4999 3.76066 11.4999C3.78077 11.4999 3.80095 11.4999 3.8212 11.4999C3.84145 11.4999 3.86177 11.4999 3.88217 11.4999C3.90256 11.4999 3.92302 11.4999 3.94355 11.4999C3.96408 11.4999 3.98468 11.4999 4.00536 11.4999C4.02603 11.4999 4.04677 11.4999 4.06758 11.4999C4.08839 11.4999 4.10927 11.4999 4.13022 11.4999C4.15117 11.4999 4.17219 11.4999 4.19328 11.4999C4.21437 11.4999 4.23553 11.4999 4.25675 11.4999C4.27798 11.4999 4.29927 11.4999 4.32064 11.4999C4.342 11.4999 4.36343 11.4999 4.38493 11.4999C4.40643 11.4999 4.428 11.4999 4.44964 11.4999C4.47128 11.4999 4.49298 11.4999 4.51475 11.4999C4.53652 11.4999 4.55836 11.4999 4.58027 11.4999C4.60218 11.4999 4.62415 11.4999 4.6462 11.4999C4.66824 11.4999 4.69035 11.4999 4.71253 11.4999C4.7347 11.4999 4.75695 11.4999 4.77926 11.4999C4.80157 11.4999 4.82395 11.4999 4.84639 11.4999C4.86884 11.4999 4.89135 11.4999 4.91393 11.4999C4.9365 11.4999 4.95915 11.4999 4.98186 11.4999C5.00457 11.4999 5.02734 11.4999 5.05019 11.4999C5.07303 11.4999 5.09594 11.4999 5.11891 11.4999C5.14188 11.4999 5.16492 11.4999 5.18803 11.4999C5.21113 11.4999 5.2343 11.4999 5.25753 11.4999C5.28077 11.4999 5.30407 11.4999 5.32743 11.4999C5.3508 11.4999 5.37423 11.4999 5.39772 11.4999C5.42122 11.4999 5.44477 11.4999 5.4684 11.4999C5.49202 11.4999 5.51571 11.4999 5.53946 11.4999C5.56321 11.4999 5.58703 11.4999 5.61091 11.4999C5.63479 11.4999 5.65873 11.4999 5.68274 11.4999C5.70675 11.4999 5.73082 11.4999 5.75495 11.4999C5.77909 11.4999 5.80328 11.4999 5.82755 11.4999C5.85181 11.4999 5.87613 11.4999 5.90052 11.4999C5.9249 11.4999 5.94936 11.4999 5.97387 11.4999C5.99838 11.4999 6.02296 11.4999 6.0476 11.4999C6.07223 11.4999 6.09693 11.4999 6.1217 11.4999C6.14646 11.4999 6.17128 11.4999 6.19617 11.4999C6.22105 11.4999 6.246 11.4999 6.27102 11.4999C6.29602 11.4999 6.32109 11.4999 6.34623 11.4999C6.37136 11.4999 6.39656 11.4999 6.42181 11.4999C6.44707 11.4999 6.47239 11.4999 6.49776 11.4999C6.52314 11.4999 6.54858 11.4999 6.57408 11.4999C6.59958 11.4999 6.62514 11.4999 6.65076 11.4999C6.67638 11.4999 6.70206 11.4999 6.72781 11.4999C6.75355 11.4999 6.77935 11.4999 6.80521 11.4999C6.83107 11.4999 6.85699 11.4999 6.88298 11.4999C6.90896 11.4999 6.935 11.4999 6.9611 11.4999C6.9872 11.4999 7.01336 11.4999 7.03958 11.4999C7.0658 11.4999 7.09208 11.4999 7.11842 11.4999C7.14475 11.4999 7.17115 11.4999 7.19761 11.4999C7.22406 11.4999 7.25058 11.4999 7.27715 11.4999C7.30372 11.4999 7.33035 11.4999 7.35704 11.4999C7.38373 11.4999 7.41048 11.4999 7.43729 11.4999C7.46409 11.4999 7.49096 11.4999 7.51788 11.4999C7.5448 11.4999 7.57178 11.4999 7.59882 11.4999C7.62585 11.4999 7.65295 11.4999 7.6801 11.4999C7.70725 11.4999 7.73446 11.4999 7.76172 11.4999C7.78899 11.4999 7.81631 11.4999 7.84369 11.4999C7.87107 11.4999 7.89851 11.4999 7.926 11.4999C7.95349 11.4999 7.98104 11.4999 8.00865 11.4999C8.03626 11.4999 8.06392 11.4999 8.09164 11.4999C8.11936 11.4999 8.14713 11.4999 8.17496 11.4999C8.20279 11.4999 8.23068 11.4999 8.25862 11.4999C8.28656 11.4999 8.31456 11.4999 8.34261 11.4999C8.37066 11.4999 8.39877 11.4999 8.42693 11.4999C8.4551 11.4999 8.48331 11.4999 8.51159 11.4999C8.53986 11.4999 8.56819 11.4999 8.59657 11.4999C8.62495 11.4999 8.65339 11.4999 8.68188 11.4999C8.71037 11.4999 8.73891 11.4999 8.76752 11.4999C8.79612 11.4999 8.82477 11.4999 8.85348 11.4999C8.88218 11.4999 8.91095 11.4999 8.93976 11.4999C8.96857 11.4999 8.99744 11.4999 9.02637 11.4999C9.05529 11.4999 9.08426 11.4999 9.11329 11.4999C9.14232 11.4999 9.1714 11.4999 9.20053 11.4999C9.22967 11.4999 9.25886 11.4999 9.2881 11.4999C9.31734 11.4999 9.34663 11.4999 9.37598 11.4999C9.40532 11.4999 9.43472 11.4999 9.46417 11.4999C9.49362 11.4999 9.52312 11.4999 9.55267 11.4999C9.58223 11.4999 9.61183 11.4999 9.64149 11.4999C9.67115 11.4999 9.70085 11.4999 9.73061 11.4999C9.76037 11.4999 9.79018 11.4999 9.82005 11.4999C9.84991 11.4999 9.87983 11.4999 9.90979 11.4999C9.93975 11.4999 9.96977 11.4999 9.99984 11.4999C10.0299 11.4999 10.06 11.4999 10.0902 11.4999C10.1204 11.4999 10.1506 11.4999 10.1808 11.4999C10.2111 11.4999 10.2414 11.4999 10.2718 11.4999C10.3022 11.4999 10.3326 11.4999 10.363 11.4999C10.3935 11.4999 10.424 11.4999 10.4546 11.4999C10.4852 11.4999 10.5158 11.4999 10.5464 11.4999C10.5771 11.4999 10.6078 11.4999 10.6386 11.4999C10.6694 11.4999 10.7002 11.4999 10.731 11.4999C10.7619 11.4999 10.7928 11.4999 10.8238 11.4999C10.8547 11.4999 10.8857 11.4999 10.9168 11.4999C10.9478 11.4999 10.9789 11.4999 11.0101 11.4999C11.0412 11.4999 11.0724 11.4999 11.1037 11.4999C11.1349 11.4999 11.1662 11.4999 11.1976 11.4999C11.2289 11.4999 11.2603 11.4999 11.2917 11.4999C11.3232 11.4999 11.3547 11.4999 11.3862 11.4999C11.4177 11.4999 11.4493 11.4999 11.4809 11.4999C11.5126 11.4999 11.5442 11.4999 11.5759 11.4999C11.6077 11.4999 11.6394 11.4999 11.6712 11.4999C11.703 11.4999 11.7349 11.4999 11.7668 11.4999C11.7987 11.4999 11.8307 11.4999 11.8627 11.4999C11.8946 11.4999 11.9267 11.4999 11.9588 11.4999C11.9909 11.4999 12.023 11.4999 12.0552 11.4999C12.0873 11.4999 12.1196 11.4999 12.1518 11.4999C12.1841 11.4999 12.2164 11.4999 12.2488 11.4999C12.2811 11.4999 12.3135 11.4999 12.346 11.4999C12.3784 11.4999 12.4109 11.4999 12.4435 11.4999C12.476 11.4999 12.5086 11.4999 12.5412 11.4999C12.5738 11.4999 12.6065 11.4999 12.6392 11.4999C12.6719 11.4999 12.7047 11.4999 12.7375 11.4999C12.7703 11.4999 12.8031 11.4999 12.836 11.4999C12.8689 11.4999 12.9018 11.4999 12.9348 11.4999C12.9677 11.4999 13.0008 11.4999 13.0338 11.4999C13.0669 11.4999 13.1 11.4999 13.1331 11.4999C13.1663 11.4999 13.1995 11.4999 13.2327 11.4999C13.2659 11.4999 13.2992 11.4999 13.3325 11.4999C13.3658 11.4999 13.3992 11.4999 13.4326 11.4999C13.466 11.4999 13.4994 11.4999 13.5329 11.4999C13.5664 11.4999 13.5999 11.4999 13.6334 11.4999C13.667 11.4999 13.7006 11.4999 13.7342 11.4999C13.7679 11.4999 13.8016 11.4999 13.8353 11.4999C13.869 11.4999 13.9028 11.4999 13.9366 11.4999C13.9704 11.4999 14.0043 11.4999 14.0382 11.4999C14.0721 11.4999 14.106 11.4999 14.14 11.4999C14.1739 11.4999 14.2079 11.4999 14.242 11.4999C14.276 11.4999 14.3101 11.4999 14.3443 11.4999C14.3784 11.4999 14.4126 11.4999 14.4468 11.4999C14.481 11.4999 14.5152 11.4999 14.5495 11.4999C14.5838 11.4999 14.6181 11.4999 14.6525 11.4999C14.6869 11.4999 14.7213 11.4999 14.7557 11.4999C14.7902 11.4999 14.8246 11.4999 14.8592 11.4999C14.8937 11.4999 14.9282 11.4999 14.9628 11.4999C14.9974 11.4999 15.0321 11.4999 15.0667 11.4999C15.1014 11.4999 15.1361 11.4999 15.1709 11.4999C15.2056 11.4999 15.2404 11.4999 15.2752 11.4999C15.3101 11.4999 15.3449 11.4999 15.3798 11.4999C15.4147 11.4999 15.4496 11.4999 15.4846 11.4999C15.5196 11.4999 15.5546 11.4999 15.5896 11.4999C15.6247 11.4999 15.6598 11.4999 15.6949 11.4999C15.73 11.4999 15.7652 11.4999 15.8004 11.4999C15.8356 11.4999 15.8708 11.4999 15.906 11.4999C15.9413 11.4999 15.9766 11.4999 16.012 11.4999C16.0473 11.4999 16.0827 11.4999 16.1181 11.4999C16.1535 11.4999 16.1889 11.4999 16.2244 11.4999C16.2599 11.4999 16.2954 11.4999 16.3309 11.4999C16.3665 11.4999 16.4021 11.4999 16.4377 11.4999C16.4733 11.4999 16.509 11.4999 16.5446 11.4999C16.5803 11.4999 16.616 11.4999 16.6518 11.4999C16.6876 11.4999 16.7234 11.4999 16.7592 11.4999C16.795 11.4999 16.8309 11.4999 16.8667 11.4999C16.9026 11.4999 16.9386 11.4999 16.9745 11.4999C17.0105 11.4999 17.0465 11.4999 17.0825 11.4999C17.1185 11.4999 17.1546 11.4999 17.1907 11.4999C17.2268 11.4999 17.2629 11.4999 17.2991 11.4999C17.3352 11.4999 17.3714 11.4999 17.4076 11.4999C17.4439 11.4999 17.4801 11.4999 17.5164 11.4999C17.5527 11.4999 17.589 11.4999 17.6254 11.4999C17.6617 11.4999 17.6981 11.4999 17.7345 11.4999C17.7709 11.4999 17.8074 11.4999 17.8439 11.4999C17.8803 11.4999 17.9168 11.4999 17.9534 11.4999C17.9899 11.4999 18.0265 11.4999 18.0631 11.4999C18.0997 11.4999 18.1364 11.4999 18.173 11.4999C18.2097 11.4999 18.2464 11.4999 18.2831 11.4999C18.3198 11.4999 18.3566 11.4999 18.3934 11.4999C18.4302 11.4999 18.467 11.4999 18.5038 11.4999C18.5407 11.4999 18.5776 11.4999 18.6145 11.4999C18.6514 11.4999 18.6883 11.4999 18.7253 11.4999C18.7623 11.4999 18.7993 11.4999 18.8363 11.4999C18.8733 11.4999 18.9104 11.4999 18.9475 11.4999C18.9846 11.4999 19.0217 11.4999 19.0588 11.4999C19.096 11.4999 19.1331 11.4999 19.1703 11.4999C19.2075 11.4999 19.2448 11.4999 19.282 11.4999C19.3193 11.4999 19.3566 11.4999 19.3939 11.4999C19.4312 11.4999 19.4685 11.4999 19.5059 11.4999C19.5433 11.4999 19.5807 11.4999 19.6181 11.4999C19.6555 11.4999 19.693 11.4999 19.7305 11.4999C19.768 11.4999 19.8055 11.4999 19.843 11.4999C19.8805 11.4999 19.9181 11.4999 19.9557 11.4999C19.9933 11.4999 20.0309 11.4999 20.0686 11.4999C20.1062 11.4999 20.1439 11.4999 20.1816 11.4999C20.2193 11.4999 20.257 11.4999 20.2947 11.4999C20.3325 11.4999 20.3703 11.4999 20.4081 11.4999C20.4459 11.4999 20.4837 11.4999 20.5215 11.4999C20.5594 11.4999 20.5973 11.4999 20.6352 11.4999C20.6731 11.4999 20.711 11.4999 20.749 11.4999C20.7869 11.4999 20.8249 11.4999 20.8629 11.4999C20.9009 11.4999 20.9389 11.4999 20.977 11.4999C21.0151 11.4999 21.0531 11.4999 21.0912 11.4999C21.1293 11.4999 21.1675 11.4999 21.2056 11.4999C21.2438 11.4999 21.282 11.4999 21.3202 11.4999C21.3584 11.4999 21.3966 11.4999 21.4348 11.4999C21.4731 11.4999 21.5114 11.4999 21.5497 11.4999C21.5879 11.4999 21.6263 11.4999 21.6646 11.4999C21.7029 11.4999 21.7413 11.4999 21.7797 11.4999C21.8181 11.4999 21.8565 11.4999 21.8949 11.4999C21.9334 11.4999 21.9718 11.4999 22.0103 11.4999C22.0488 11.4999 22.0873 11.4999 22.1258 11.4999C22.1643 11.4999 22.2029 11.4999 22.2415 11.4999C22.28 11.4999 22.3186 11.4999 22.3572 11.4999C22.3958 11.4999 22.4345 11.4999 22.4731 11.4999C22.5118 11.4999 22.5505 11.4999 22.5892 11.4999C22.6279 11.4999 22.6666 11.4999 22.7053 11.4999C22.7441 11.4999 22.7828 11.4999 22.8216 11.4999C22.8604 11.4999 22.8992 11.4999 22.938 11.4999C22.9768 11.4999 23.0157 11.4999 23.0546 11.4999C23.0934 11.4999 23.1323 11.4999 23.1712 11.4999C23.2101 11.4999 23.249 11.4999 23.288 11.4999C23.3269 11.4999 23.3659 11.4999 23.4049 11.4999C23.4439 11.4999 23.4829 11.4999 23.5219 11.4999C23.5609 11.4999 23.5999 11.4999 23.639 11.4999C23.6781 11.4999 23.7172 11.4999 23.7563 11.4999C23.7954 11.4999 23.8345 11.4999 23.8736 11.4999C23.9127 11.4999 23.9519 11.4999 23.9911 11.4999C24.0302 11.4999 24.0694 11.4999 24.1086 11.4999C24.1479 11.4999 24.1871 11.4999 24.2263 11.4999C24.2656 11.4999 24.3048 11.4999 24.3441 11.4999C24.3834 11.4999 24.4227 11.4999 24.462 11.4999C24.5013 11.4999 24.5407 11.4999 24.58 11.4999C24.6194 11.4999 24.6587 11.4999 24.6981 11.4999C24.7375 11.4999 24.7769 11.4999 24.8163 11.4999C24.8557 11.4999 24.8952 11.4999 24.9346 11.4999C24.9741 11.4999 25.0136 11.4999 25.053 11.4999C25.0925 11.4999 25.132 11.4999 25.1715 11.4999C25.211 11.4999 25.2506 11.4999 25.2901 11.4999C25.3297 11.4999 25.3692 11.4999 25.4088 11.4999C25.4484 11.4999 25.488 11.4999 25.5276 11.4999C25.5672 11.4999 25.6068 11.4999 25.6465 11.4999C25.6861 11.4999 25.7258 11.4999 25.7654 11.4999C25.8051 11.4999 25.8448 11.4999 25.8845 11.4999C25.9242 11.4999 25.9639 11.4999 26.0036 11.4999C26.0433 11.4999 26.0831 11.4999 26.1228 11.4999C26.1626 11.4999 26.2024 11.4999 26.2421 11.4999C26.2819 11.4999 26.3217 11.4999 26.3615 11.4999C26.4013 11.4999 26.4412 11.4999 26.481 11.4999C26.5208 11.4999 26.5607 11.4999 26.6005 11.4999C26.6404 11.4999 26.6803 11.4999 26.7202 11.4999C26.76 11.4999 26.7999 11.4999 26.8399 11.4999C26.8798 11.4999 26.9197 11.4999 26.9596 11.4999C26.9996 11.4999 27.0395 11.4999 27.0795 11.4999C27.1194 11.4999 27.1594 11.4999 27.1994 11.4999C27.2394 11.4999 27.2794 11.4999 27.3194 11.4999C27.3594 11.4999 27.3994 11.4999 27.4394 11.4999C27.4795 11.4999 27.5195 11.4999 27.5596 11.4999C27.5996 11.4999 27.6397 11.4999 27.6798 11.4999C27.7198 11.4999 27.7599 11.4999 27.8 11.4999C27.8401 11.4999 27.8802 11.4999 27.9203 11.4999C27.9605 11.4999 28.0006 11.4999 28.0407 11.4999C28.0809 11.4999 28.121 11.4999 28.1612 11.4999C28.2013 11.4999 28.2415 11.4999 28.2817 11.4999C28.3218 11.4999 28.362 11.4999 28.4022 11.4999C28.4424 11.4999 28.4826 11.4999 28.5228 11.4999C28.563 11.4999 28.6033 11.4999 28.6435 11.4999C28.6837 11.4999 28.724 11.4999 28.7642 11.4999C28.8045 11.4999 28.8447 11.4999 28.885 11.4999C28.9252 11.4999 28.9655 11.4999 29.0058 11.4999C29.0461 11.4999 29.0864 11.4999 29.1267 11.4999C29.167 11.4999 29.2073 11.4999 29.2476 11.4999C29.2879 11.4999 29.3282 11.4999 29.3685 11.4999C29.4089 11.4999 29.4492 11.4999 29.4895 11.4999C29.5299 11.4999 29.5702 11.4999 29.6106 11.4999C29.6509 11.4999 29.6913 11.4999 29.7317 11.4999C29.772 11.4999 29.8124 11.4999 29.8528 11.4999C29.8932 11.4999 29.9336 11.4999 29.974 11.4999C30.0144 11.4999 30.0548 11.4999 30.0952 11.4999C30.1356 11.4999 30.176 11.4999 30.2164 11.4999C30.2568 11.4999 30.2972 11.4999 30.3377 11.4999C30.3781 11.4999 30.4185 11.4999 30.459 11.4999C30.4994 11.4999 30.5398 11.4999 30.5803 11.4999C30.6207 11.4999 30.6612 11.4999 30.7017 11.4999C30.7421 11.4999 30.7826 11.4999 30.823 11.4999C30.8635 11.4999 30.904 11.4999 30.9445 11.4999C30.9849 11.4999 31.0254 11.4999 31.0659 11.4999C31.1064 11.4999 31.1469 11.4999 31.1874 11.4999C31.2278 11.4999 31.2683 11.4999 31.3088 11.4999C31.3493 11.4999 31.3898 11.4999 31.4303 11.4999C31.4708 11.4999 31.5114 11.4999 31.5519 11.4999C31.5924 11.4999 31.6329 11.4999 31.6734 11.4999C31.7139 11.4999 31.7544 11.4999 31.795 11.4999C31.8355 11.4999 31.876 11.4999 31.9165 11.4999C31.9571 11.4999 31.9976 11.4999 32.0381 11.4999C32.0786 11.4999 32.1192 11.4999 32.1597 11.4999C32.2002 11.4999 32.2408 11.4999 32.2813 11.4999C32.3219 11.4999 32.3624 11.4999 32.4029 11.4999C32.4435 11.4999 32.484 11.4999 32.5246 11.4999C32.5651 11.4999 32.6056 11.4999 32.6462 11.4999C32.6867 11.4999 32.7273 11.4999 32.7678 11.4999C32.8084 11.4999 32.8489 11.4999 32.8894 11.4999C32.93 11.4999 32.9705 11.4999 33.0111 11.4999C33.0516 11.4999 33.0922 11.4999 33.1327 11.4999C33.1733 11.4999 33.2138 11.4999 33.2543 11.4999C33.2949 11.4999 33.3354 11.4999 33.376 11.4999C33.4165 11.4999 33.4571 11.4999 33.4976 11.4999C33.5381 11.4999 33.5787 11.4999 33.6192 11.4999C33.6598 11.4999 33.7003 11.4999 33.7408 11.4999C33.7814 11.4999 33.8219 11.4999 33.8624 11.4999C33.903 11.4999 33.9435 11.4999 33.984 11.4999C34.0245 11.4999 34.0651 11.4999 34.1056 11.4999C34.1461 11.4999 34.1866 11.4999 34.2272 11.4999C34.2677 11.4999 34.3082 11.4999 34.3487 11.4999C34.3892 11.4999 34.4297 11.4999 34.4702 11.4999C34.5108 11.4999 34.5513 11.4999 34.5918 11.4999C34.6323 11.4999 34.6728 11.4999 34.7133 11.4999C34.7538 11.4999 34.7943 11.4999 34.8347 11.4999C34.8752 11.4999 34.9157 11.4999 34.9562 11.4999C34.9967 11.4999 35.0371 11.4999 35.0776 11.4999C35.1181 11.4999 35.1586 11.4999 35.199 11.4999C35.2395 11.4999 35.2799 11.4999 35.3204 11.4999C35.3609 11.4999 35.4013 11.4999 35.4418 11.4999C35.4822 11.4999 35.5226 11.4999 35.5631 11.4999C35.6035 11.4999 35.6439 11.4999 35.6844 11.4999C35.7248 11.4999 35.7652 11.4999 35.8056 11.4999C35.846 11.4999 35.8864 11.4999 35.9268 11.4999C35.9672 11.4999 36.0076 11.4999 36.048 11.4999C36.0884 11.4999 36.1288 11.4999 36.1692 11.4999C36.2096 11.4999 36.2499 11.4999 36.2903 11.4999C36.3307 11.4999 36.371 11.4999 36.4114 11.4999C36.4517 11.4999 36.4921 11.4999 36.5324 11.4999C36.5727 11.4999 36.6131 11.4999 36.6534 11.4999C36.6937 11.4999 36.734 11.4999 36.7743 11.4999C36.8146 11.4999 36.8549 11.4999 36.8952 11.4999C36.9355 11.4999 36.9758 11.4999 37.0161 11.4999C37.0563 11.4999 37.0966 11.4999 37.1369 11.4999C37.1771 11.4999 37.2174 11.4999 37.2576 11.4999C37.2979 11.4999 37.3381 11.4999 37.3783 11.4999C37.4185 11.4999 37.4588 11.4999 37.499 11.4999C37.5392 11.4999 37.5794 11.4999 37.6195 11.4999C37.6597 11.4999 37.6999 11.4999 37.7401 11.4999C37.7803 11.4999 37.8204 11.4999 37.8606 11.4999C37.9007 11.4999 37.9408 11.4999 37.981 11.4999C38.0211 11.4999 38.0612 11.4999 38.1013 11.4999C38.1414 11.4999 38.1815 11.4999 38.2216 11.4999C38.2617 11.4999 38.3018 11.4999 38.3419 11.4999C38.3819 11.4999 38.422 11.4999 38.462 11.4999C38.5021 11.4999 38.5421 11.4999 38.5821 11.4999C38.6222 11.4999 38.6622 11.4999 38.7022 11.4999C38.7422 11.4999 38.7821 11.4999 38.8221 11.4999C38.8621 11.4999 38.9021 11.4999 38.942 11.4999C38.982 11.4999 39.0219 11.4999 39.0618 11.4999C39.1018 11.4999 39.1417 11.4999 39.1816 11.4999C39.2215 11.4999 39.2614 11.4999 39.3013 11.4999C39.3411 11.4999 39.381 11.4999 39.4208 11.4999C39.4607 11.4999 39.5005 11.4999 39.5404 11.4999C39.5802 11.4999 39.62 11.4999 39.6598 11.4999C39.6996 11.4999 39.7394 11.4999 39.7792 11.4999C39.8189 11.4999 39.8587 11.4999 39.8984 11.4999C39.9382 11.4999 39.9779 11.4999 40.0176 11.4999C40.0573 11.4999 40.097 11.4999 40.1367 11.4999C40.1764 11.4999 40.2161 11.4999 40.2557 11.4999C40.2954 11.4999 40.335 11.4999 40.3747 11.4999C40.4143 11.4999 40.4539 11.4999 40.4935 11.4999C40.5331 11.4999 40.5727 11.4999 40.6122 11.4999C40.6518 11.4999 40.6914 11.4999 40.7309 11.4999C40.7704 11.4999 40.81 11.4999 40.8495 11.4999C40.889 11.4999 40.9285 11.4999 40.9679 11.4999C41.0074 11.4999 41.0469 11.4999 41.0863 11.4999C41.1257 11.4999 41.1652 11.4999 41.2046 11.4999C41.244 11.4999 41.2834 11.4999 41.3227 11.4999C41.3621 11.4999 41.4015 11.4999 41.4408 11.4999C41.4801 11.4999 41.5194 11.4999 41.5588 11.4999C41.5981 11.4999 41.6373 11.4999 41.6766 11.4999C41.7159 11.4999 41.7551 11.4999 41.7944 11.4999C41.8336 11.4999 41.8728 11.4999 41.912 11.4999C41.9512 11.4999 41.9904 11.4999 42.0295 11.4999C42.0687 11.4999 42.1078 11.4999 42.147 11.4999C42.1861 11.4999 42.2252 11.4999 42.2643 11.4999C42.3034 11.4999 42.3424 11.4999 42.3815 11.4999C42.4205 11.4999 42.4595 11.4999 42.4986 11.4999C42.5376 11.4999 42.5766 11.4999 42.6155 11.4999C42.6545 11.4999 42.6934 11.4999 42.7324 11.4999C42.7713 11.4999 42.8102 11.4999 42.8491 11.4999C42.888 11.4999 42.9269 11.4999 42.9657 11.4999C43.0046 11.4999 43.0434 11.4999 43.0822 11.4999C43.121 11.4999 43.1598 11.4999 43.1986 11.4999C43.2373 11.4999 43.2761 11.4999 43.3148 11.4999C43.3535 11.4999 43.3922 11.4999 43.4309 11.4999C43.4696 11.4999 43.5083 11.4999 43.5469 11.4999C43.5855 11.4999 43.6242 11.4999 43.6628 11.4999C43.7013 11.4999 43.7399 11.4999 43.7785 11.4999C43.817 11.4999 43.8556 11.4999 43.8941 11.4999C43.9326 11.4999 43.9711 11.4999 44.0095 11.4999C44.048 11.4999 44.0864 11.4999 44.1248 11.4999C44.1633 11.4999 44.2017 11.4999 44.24 11.4999C44.2784 11.4999 44.3167 11.4999 44.3551 11.4999C44.3934 11.4999 44.4317 11.4999 44.47 11.4999C44.5083 11.4999 44.5465 11.4999 44.5847 11.4999C44.623 11.4999 44.6612 11.4999 44.6994 11.4999C44.7375 11.4999 44.7757 11.4999 44.8138 11.4999C44.852 11.4999 44.8901 11.4999 44.9282 11.4999C44.9663 11.4999 45.0043 11.4999 45.0424 11.4999C45.0804 11.4999 45.1184 11.4999 45.1564 11.4999C45.1944 11.4999 45.2323 11.4999 45.2703 11.4999C45.3082 11.4999 45.3461 11.4999 45.384 11.4999C45.4219 11.4999 45.4597 11.4999 45.4976 11.4999L45.4976 10.4999Z" fill="white"/>
</svg>
