<svg width="40" height="30" viewBox="0 0 40 30" fill="none" xmlns="http://www.w3.org/2000/svg">
<g opacity="0.3" filter="url(#filter0_d)">
<path d="M25.5 11C25.5 16.799 20.799 21.5 15 21.5C9.20101 21.5 4.5 16.799 4.5 11C4.5 5.20101 9.20101 0.5 15 0.5C20.799 0.5 25.5 5.20101 25.5 11Z" stroke="white"/>
<path d="M11 11L16 13.8868V8.11325L11 11ZM15.4993 11.5C15.5176 11.5 15.5358 11.5 15.5541 11.5C15.5723 11.5 15.5906 11.5 15.6089 11.5C15.6271 11.5 15.6454 11.5 15.6637 11.5C15.682 11.5 15.7002 11.5 15.7185 11.5C15.7368 11.5 15.7551 11.5 15.7734 11.5C15.7917 11.5 15.8101 11.5 15.8284 11.5C15.8467 11.5 15.865 11.5 15.8833 11.5C15.9017 11.5 15.92 11.5 15.9384 11.5C15.9567 11.5 15.9751 11.5 15.9934 11.5C16.0118 11.5 16.0301 11.5 16.0485 11.5C16.0669 11.5 16.0852 11.5 16.1036 11.5C16.122 11.5 16.1404 11.5 16.1588 11.5C16.1772 11.5 16.1956 11.5 16.214 11.5C16.2324 11.5 16.2508 11.5 16.2692 11.5C16.2876 11.5 16.306 11.5 16.3245 11.5C16.3429 11.5 16.3613 11.5 16.3798 11.5C16.3982 11.5 16.4166 11.5 16.4351 11.5C16.4535 11.5 16.472 11.5 16.4904 11.5C16.5089 11.5 16.5274 11.5 16.5458 11.5C16.5643 11.5 16.5828 11.5 16.6013 11.5C16.6197 11.5 16.6382 11.5 16.6567 11.5C16.6752 11.5 16.6937 11.5 16.7122 11.5C16.7307 11.5 16.7492 11.5 16.7677 11.5C16.7862 11.5 16.8047 11.5 16.8232 11.5C16.8418 11.5 16.8603 11.5 16.8788 11.5C16.8973 11.5 16.9159 11.5 16.9344 11.5C16.9529 11.5 16.9715 11.5 16.99 11.5C17.0086 11.5 17.0271 11.5 17.0457 11.5C17.0642 11.5 17.0828 11.5 17.1013 11.5C17.1199 11.5 17.1385 11.5 17.157 11.5C17.1756 11.5 17.1942 11.5 17.2128 11.5C17.2313 11.5 17.2499 11.5 17.2685 11.5C17.2871 11.5 17.3057 11.5 17.3243 11.5C17.3429 11.5 17.3615 11.5 17.3801 11.5C17.3987 11.5 17.4173 11.5 17.4359 11.5C17.4545 11.5 17.4731 11.5 17.4917 11.5C17.5103 11.5 17.5289 11.5 17.5476 11.5C17.5662 11.5 17.5848 11.5 17.6034 11.5C17.6221 11.5 17.6407 11.5 17.6593 11.5C17.678 11.5 17.6966 11.5 17.7152 11.5C17.7339 11.5 17.7525 11.5 17.7712 11.5C17.7898 11.5 17.8085 11.5 17.8271 11.5C17.8458 11.5 17.8644 11.5 17.8831 11.5C17.9017 11.5 17.9204 11.5 17.9391 11.5C17.9577 11.5 17.9764 11.5 17.9951 11.5C18.0137 11.5 18.0324 11.5 18.0511 11.5C18.0698 11.5 18.0884 11.5 18.1071 11.5C18.1258 11.5 18.1445 11.5 18.1632 11.5C18.1818 11.5 18.2005 11.5 18.2192 11.5C18.2379 11.5 18.2566 11.5 18.2753 11.5C18.294 11.5 18.3127 11.5 18.3314 11.5C18.3501 11.5 18.3688 11.5 18.3875 11.5C18.4062 11.5 18.4249 11.5 18.4436 11.5C18.4623 11.5 18.481 11.5 18.4997 11.5C18.5184 11.5 18.5371 11.5 18.5558 11.5C18.5745 11.5 18.5933 11.5 18.612 11.5C18.6307 11.5 18.6494 11.5 18.6681 11.5C18.6868 11.5 18.7056 11.5 18.7243 11.5C18.743 11.5 18.7617 11.5 18.7804 11.5C18.7992 11.5 18.8179 11.5 18.8366 11.5C18.8553 11.5 18.8741 11.5 18.8928 11.5C18.9115 11.5 18.9303 11.5 18.949 11.5C18.9677 11.5 18.9864 11.5 19.0052 11.5C19.0239 11.5 19.0426 11.5 19.0614 11.5C19.0801 11.5 19.0988 11.5 19.1176 11.5C19.1363 11.5 19.1551 11.5 19.1738 11.5C19.1925 11.5 19.2113 11.5 19.23 11.5C19.2487 11.5 19.2675 11.5 19.2862 11.5C19.3049 11.5 19.3237 11.5 19.3424 11.5C19.3612 11.5 19.3799 11.5 19.3986 11.5C19.4174 11.5 19.4361 11.5 19.4549 11.5C19.4736 11.5 19.4923 11.5 19.5111 11.5C19.5298 11.5 19.5486 11.5 19.5673 11.5C19.586 11.5 19.6048 11.5 19.6235 11.5C19.6423 11.5 19.661 11.5 19.6797 11.5C19.6985 11.5 19.7172 11.5 19.7359 11.5C19.7547 11.5 19.7734 11.5 19.7922 11.5C19.8109 11.5 19.8296 11.5 19.8484 11.5C19.8671 11.5 19.8858 11.5 19.9046 11.5C19.9233 11.5 19.942 11.5 19.9608 11.5C19.9795 11.5 19.9982 11.5 20.017 11.5C20.0357 11.5 20.0544 11.5 20.0732 11.5C20.0919 11.5 20.1106 11.5 20.1293 11.5C20.1481 11.5 20.1668 11.5 20.1855 11.5C20.2042 11.5 20.223 11.5 20.2417 11.5C20.2604 11.5 20.2791 11.5 20.2979 11.5C20.3166 11.5 20.3353 11.5 20.354 11.5C20.3727 11.5 20.3914 11.5 20.4102 11.5C20.4289 11.5 20.4476 11.5 20.4663 11.5C20.485 11.5 20.5037 11.5 20.5224 11.5C20.5411 11.5 20.5598 11.5 20.5785 11.5C20.5973 11.5 20.616 11.5 20.6347 11.5C20.6534 11.5 20.6721 11.5 20.6908 11.5C20.7094 11.5 20.7281 11.5 20.7468 11.5C20.7655 11.5 20.7842 11.5 20.8029 11.5C20.8216 11.5 20.8403 11.5 20.859 11.5C20.8776 11.5 20.8963 11.5 20.915 11.5C20.9337 11.5 20.9524 11.5 20.971 11.5C20.9897 11.5 21.0084 11.5 21.027 11.5C21.0457 11.5 21.0644 11.5 21.083 11.5C21.1017 11.5 21.1204 11.5 21.139 11.5C21.1577 11.5 21.1763 11.5 21.195 11.5C21.2136 11.5 21.2323 11.5 21.2509 11.5C21.2696 11.5 21.2882 11.5 21.3069 11.5C21.3255 11.5 21.3441 11.5 21.3628 11.5C21.3814 11.5 21.4 11.5 21.4187 11.5C21.4373 11.5 21.4559 11.5 21.4745 11.5C21.4932 11.5 21.5118 11.5 21.5304 11.5C21.549 11.5 21.5676 11.5 21.5862 11.5C21.6048 11.5 21.6234 11.5 21.642 11.5C21.6606 11.5 21.6792 11.5 21.6978 11.5C21.7164 11.5 21.735 11.5 21.7536 11.5C21.7722 11.5 21.7907 11.5 21.8093 11.5C21.8279 11.5 21.8465 11.5 21.865 11.5C21.8836 11.5 21.9022 11.5 21.9207 11.5C21.9393 11.5 21.9578 11.5 21.9764 11.5C21.9949 11.5 22.0135 11.5 22.032 11.5C22.0506 11.5 22.0691 11.5 22.0876 11.5C22.1062 11.5 22.1247 11.5 22.1432 11.5C22.1618 11.5 22.1803 11.5 22.1988 11.5C22.2173 11.5 22.2358 11.5 22.2543 11.5C22.2728 11.5 22.2913 11.5 22.3098 11.5C22.3283 11.5 22.3468 11.5 22.3653 11.5C22.3838 11.5 22.4023 11.5 22.4207 11.5C22.4392 11.5 22.4577 11.5 22.4762 11.5C22.4946 11.5 22.5131 11.5 22.5315 11.5C22.55 11.5 22.5685 11.5 22.5869 11.5C22.6053 11.5 22.6238 11.5 22.6422 11.5C22.6607 11.5 22.6791 11.5 22.6975 11.5C22.7159 11.5 22.7344 11.5 22.7528 11.5C22.7712 11.5 22.7896 11.5 22.808 11.5C22.8264 11.5 22.8448 11.5 22.8632 11.5C22.8816 11.5 22.8999 11.5 22.9183 11.5C22.9367 11.5 22.9551 11.5 22.9734 11.5C22.9918 11.5 23.0102 11.5 23.0285 11.5C23.0469 11.5 23.0652 11.5 23.0836 11.5C23.1019 11.5 23.1202 11.5 23.1386 11.5C23.1569 11.5 23.1752 11.5 23.1935 11.5C23.2119 11.5 23.2302 11.5 23.2485 11.5C23.2668 11.5 23.2851 11.5 23.3034 11.5C23.3217 11.5 23.3399 11.5 23.3582 11.5C23.3765 11.5 23.3948 11.5 23.413 11.5C23.4313 11.5 23.4496 11.5 23.4678 11.5C23.4861 11.5 23.5043 11.5 23.5225 11.5C23.5408 11.5 23.559 11.5 23.5772 11.5C23.5954 11.5 23.6137 11.5 23.6319 11.5C23.6501 11.5 23.6683 11.5 23.6865 11.5C23.7047 11.5 23.7229 11.5 23.741 11.5C23.7592 11.5 23.7774 11.5 23.7955 11.5C23.8137 11.5 23.8319 11.5 23.85 11.5C23.8682 11.5 23.8863 11.5 23.9044 11.5C23.9226 11.5 23.9407 11.5 23.9588 11.5C23.9769 11.5 23.9951 11.5 24.0132 11.5C24.0313 11.5 24.0494 11.5 24.0674 11.5C24.0855 11.5 24.1036 11.5 24.1217 11.5C24.1397 11.5 24.1578 11.5 24.1759 11.5C24.1939 11.5 24.212 11.5 24.23 11.5C24.248 11.5 24.2661 11.5 24.2841 11.5C24.3021 11.5 24.3201 11.5 24.3381 11.5C24.3561 11.5 24.3741 11.5 24.3921 11.5C24.4101 11.5 24.4281 11.5 24.4461 11.5C24.464 11.5 24.482 11.5 24.5 11.5C24.5179 11.5 24.5359 11.5 24.5538 11.5C24.5717 11.5 24.5897 11.5 24.6076 11.5C24.6255 11.5 24.6434 11.5 24.6613 11.5C24.6792 11.5 24.6971 11.5 24.715 11.5C24.7329 11.5 24.7507 11.5 24.7686 11.5C24.7865 11.5 24.8043 11.5 24.8222 11.5C24.84 11.5 24.8579 11.5 24.8757 11.5C24.8935 11.5 24.9113 11.5 24.9291 11.5C24.9469 11.5 24.9647 11.5 24.9825 11.5C25.0003 11.5 25.0181 11.5 25.0359 11.5C25.0536 11.5 25.0714 11.5 25.0892 11.5C25.1069 11.5 25.1246 11.5 25.1424 11.5C25.1601 11.5 25.1778 11.5 25.1955 11.5C25.2133 11.5 25.231 11.5 25.2486 11.5C25.2663 11.5 25.284 11.5 25.3017 11.5C25.3194 11.5 25.337 11.5 25.3547 11.5C25.3723 11.5 25.39 11.5 25.4076 11.5C25.4252 11.5 25.4428 11.5 25.4604 11.5C25.4781 11.5 25.4957 11.5 25.5132 11.5C25.5308 11.5 25.5484 11.5 25.566 11.5C25.5835 11.5 25.6011 11.5 25.6186 11.5C25.6362 11.5 25.6537 11.5 25.6712 11.5C25.6888 11.5 25.7063 11.5 25.7238 11.5C25.7413 11.5 25.7588 11.5 25.7763 11.5C25.7937 11.5 25.8112 11.5 25.8287 11.5C25.8461 11.5 25.8636 11.5 25.881 11.5C25.8984 11.5 25.9159 11.5 25.9333 11.5C25.9507 11.5 25.9681 11.5 25.9855 11.5C26.0029 11.5 26.0202 11.5 26.0376 11.5C26.055 11.5 26.0723 11.5 26.0897 11.5C26.107 11.5 26.1244 11.5 26.1417 11.5C26.159 11.5 26.1763 11.5 26.1936 11.5C26.2109 11.5 26.2282 11.5 26.2455 11.5C26.2627 11.5 26.28 11.5 26.2972 11.5C26.3145 11.5 26.3317 11.5 26.349 11.5C26.3662 11.5 26.3834 11.5 26.4006 11.5C26.4178 11.5 26.435 11.5 26.4522 11.5C26.4693 11.5 26.4865 11.5 26.5037 11.5C26.5208 11.5 26.5379 11.5 26.5551 11.5C26.5722 11.5 26.5893 11.5 26.6064 11.5C26.6235 11.5 26.6406 11.5 26.6577 11.5C26.6748 11.5 26.6918 11.5 26.7089 11.5C26.7259 11.5 26.743 11.5 26.76 11.5C26.777 11.5 26.794 11.5 26.811 11.5C26.828 11.5 26.845 11.5 26.862 11.5C26.879 11.5 26.8959 11.5 26.9129 11.5C26.9298 11.5 26.9468 11.5 26.9637 11.5C26.9806 11.5 26.9975 11.5 27.0144 11.5C27.0313 11.5 27.0482 11.5 27.065 11.5C27.0819 11.5 27.0988 11.5 27.1156 11.5C27.1324 11.5 27.1493 11.5 27.1661 11.5C27.1829 11.5 27.1997 11.5 27.2165 11.5C27.2333 11.5 27.25 11.5 27.2668 11.5C27.2836 11.5 27.3003 11.5 27.317 11.5C27.3338 11.5 27.3505 11.5 27.3672 11.5C27.3839 11.5 27.4006 11.5 27.4172 11.5C27.4339 11.5 27.4506 11.5 27.4672 11.5C27.4839 11.5 27.5005 11.5 27.5171 11.5C27.5337 11.5 27.5503 11.5 27.5669 11.5C27.5835 11.5 27.6001 11.5 27.6167 11.5C27.6332 11.5 27.6498 11.5 27.6663 11.5C27.6828 11.5 27.6993 11.5 27.7158 11.5C27.7323 11.5 27.7488 11.5 27.7653 11.5C27.7818 11.5 27.7982 11.5 27.8147 11.5C27.8311 11.5 27.8475 11.5 27.8639 11.5C27.8804 11.5 27.8968 11.5 27.9131 11.5C27.9295 11.5 27.9459 11.5 27.9622 11.5C27.9786 11.5 27.9949 11.5 28.0112 11.5C28.0276 11.5 28.0439 11.5 28.0602 11.5C28.0765 11.5 28.0927 11.5 28.109 11.5C28.1253 11.5 28.1415 11.5 28.1577 11.5C28.174 11.5 28.1902 11.5 28.2064 11.5C28.2226 11.5 28.2387 11.5 28.2549 11.5C28.2711 11.5 28.2872 11.5 28.3034 11.5C28.3195 11.5 28.3356 11.5 28.3517 11.5C28.3678 11.5 28.3839 11.5 28.4 11.5C28.416 11.5 28.4321 11.5 28.4481 11.5C28.4642 11.5 28.4802 11.5 28.4962 11.5C28.5122 11.5 28.5282 11.5 28.5442 11.5C28.5601 11.5 28.5761 11.5 28.592 11.5C28.608 11.5 28.6239 11.5 28.6398 11.5C28.6557 11.5 28.6716 11.5 28.6875 11.5C28.7034 11.5 28.7192 11.5 28.7351 11.5C28.7509 11.5 28.7667 11.5 28.7825 11.5C28.7983 11.5 28.8141 11.5 28.8299 11.5C28.8457 11.5 28.8614 11.5 28.8772 11.5C28.8929 11.5 28.9086 11.5 28.9243 11.5C28.94 11.5 28.9557 11.5 28.9714 11.5C28.9871 11.5 29.0027 11.5 29.0184 11.5C29.034 11.5 29.0496 11.5 29.0652 11.5C29.0808 11.5 29.0964 11.5 29.112 11.5C29.1275 11.5 29.1431 11.5 29.1586 11.5C29.1741 11.5 29.1897 11.5 29.2051 11.5C29.2206 11.5 29.2361 11.5 29.2516 11.5C29.267 11.5 29.2825 11.5 29.2979 11.5C29.3133 11.5 29.3287 11.5 29.3441 11.5C29.3595 11.5 29.3749 11.5 29.3902 11.5C29.4056 11.5 29.4209 11.5 29.4362 11.5C29.4516 11.5 29.4669 11.5 29.4821 11.5C29.4974 11.5 29.5127 11.5 29.5279 11.5C29.5432 11.5 29.5584 11.5 29.5736 11.5C29.5888 11.5 29.604 11.5 29.6192 11.5C29.6343 11.5 29.6495 11.5 29.6646 11.5C29.6797 11.5 29.6949 11.5 29.71 11.5C29.725 11.5 29.7401 11.5 29.7552 11.5C29.7702 11.5 29.7853 11.5 29.8003 11.5C29.8153 11.5 29.8303 11.5 29.8453 11.5C29.8603 11.5 29.8752 11.5 29.8902 11.5C29.9051 11.5 29.92 11.5 29.9349 11.5C29.9499 11.5 29.9647 11.5 29.9796 11.5C29.9945 11.5 30.0093 11.5 30.0241 11.5C30.039 11.5 30.0538 11.5 30.0686 11.5C30.0834 11.5 30.0981 11.5 30.1129 11.5C30.1276 11.5 30.1423 11.5 30.1571 11.5C30.1718 11.5 30.1865 11.5 30.2011 11.5C30.2158 11.5 30.2304 11.5 30.2451 11.5C30.2597 11.5 30.2743 11.5 30.2889 11.5C30.3035 11.5 30.3181 11.5 30.3326 11.5C30.3472 11.5 30.3617 11.5 30.3762 11.5C30.3907 11.5 30.4052 11.5 30.4197 11.5C30.4341 11.5 30.4486 11.5 30.463 11.5C30.4774 11.5 30.4919 11.5 30.5062 11.5C30.5206 11.5 30.535 11.5 30.5493 11.5C30.5637 11.5 30.578 11.5 30.5923 11.5C30.6066 11.5 30.6209 11.5 30.6352 11.5C30.6494 11.5 30.6637 11.5 30.6779 11.5C30.6921 11.5 30.7063 11.5 30.7205 11.5C30.7347 11.5 30.7488 11.5 30.763 11.5C30.7771 11.5 30.7912 11.5 30.8053 11.5C30.8194 11.5 30.8335 11.5 30.8475 11.5C30.8616 11.5 30.8756 11.5 30.8896 11.5C30.9036 11.5 30.9176 11.5 30.9316 11.5C30.9456 11.5 30.9595 11.5 30.9734 11.5C30.9874 11.5 31.0013 11.5 31.0151 11.5C31.029 11.5 31.0429 11.5 31.0567 11.5C31.0706 11.5 31.0844 11.5 31.0982 11.5C31.112 11.5 31.1257 11.5 31.1395 11.5C31.1532 11.5 31.167 11.5 31.1807 11.5C31.1944 11.5 31.2081 11.5 31.2217 11.5C31.2354 11.5 31.249 11.5 31.2626 11.5C31.2762 11.5 31.2898 11.5 31.3034 11.5C31.317 11.5 31.3305 11.5 31.3441 11.5C31.3576 11.5 31.3711 11.5 31.3846 11.5C31.3981 11.5 31.4115 11.5 31.425 11.5C31.4384 11.5 31.4518 11.5 31.4652 11.5C31.4786 11.5 31.492 11.5 31.5053 11.5C31.5187 11.5 31.532 11.5 31.5453 11.5C31.5586 11.5 31.5719 11.5 31.5851 11.5C31.5984 11.5 31.6116 11.5 31.6248 11.5C31.638 11.5 31.6512 11.5 31.6644 11.5C31.6775 11.5 31.6907 11.5 31.7038 11.5C31.7169 11.5 31.73 11.5 31.7431 11.5C31.7561 11.5 31.7692 11.5 31.7822 11.5C31.7952 11.5 31.8082 11.5 31.8212 11.5C31.8342 11.5 31.8471 11.5 31.86 11.5C31.873 11.5 31.8859 11.5 31.8988 11.5C31.9116 11.5 31.9245 11.5 31.9373 11.5C31.9502 11.5 31.963 11.5 31.9757 11.5C31.9885 11.5 32.0013 11.5 32.014 11.5C32.0268 11.5 32.0395 11.5 32.0522 11.5C32.0648 11.5 32.0775 11.5 32.0902 11.5C32.1028 11.5 32.1154 11.5 32.128 11.5C32.1406 11.5 32.1532 11.5 32.1657 11.5C32.1782 11.5 32.1908 11.5 32.2032 11.5C32.2157 11.5 32.2282 11.5 32.2407 11.5C32.2531 11.5 32.2655 11.5 32.2779 11.5C32.2903 11.5 32.3027 11.5 32.315 11.5C32.3274 11.5 32.3397 11.5 32.352 11.5C32.3643 11.5 32.3765 11.5 32.3888 11.5C32.401 11.5 32.4132 11.5 32.4254 11.5C32.4376 11.5 32.4498 11.5 32.4619 11.5C32.4741 11.5 32.4862 11.5 32.4983 11.5C32.5104 11.5 32.5225 11.5 32.5345 11.5C32.5465 11.5 32.5586 11.5 32.5706 11.5C32.5825 11.5 32.5945 11.5 32.6065 11.5C32.6184 11.5 32.6303 11.5 32.6422 11.5C32.6541 11.5 32.6659 11.5 32.6778 11.5C32.6896 11.5 32.7014 11.5 32.7132 11.5C32.725 11.5 32.7368 11.5 32.7485 11.5C32.7602 11.5 32.7719 11.5 32.7836 11.5C32.7953 11.5 32.807 11.5 32.8186 11.5C32.8302 11.5 32.8418 11.5 32.8534 11.5C32.865 11.5 32.8765 11.5 32.888 11.5C32.8996 11.5 32.9111 11.5 32.9225 11.5C32.934 11.5 32.9454 11.5 32.9569 11.5C32.9683 11.5 32.9797 11.5 32.991 11.5C33.0024 11.5 33.0137 11.5 33.025 11.5C33.0364 11.5 33.0476 11.5 33.0589 11.5C33.0702 11.5 33.0814 11.5 33.0926 11.5C33.1038 11.5 33.115 11.5 33.1261 11.5C33.1373 11.5 33.1484 11.5 33.1595 11.5C33.1706 11.5 33.1816 11.5 33.1927 11.5C33.2037 11.5 33.2147 11.5 33.2257 11.5C33.2367 11.5 33.2477 11.5 33.2586 11.5C33.2695 11.5 33.2804 11.5 33.2913 11.5C33.3022 11.5 33.313 11.5 33.3239 11.5C33.3347 11.5 33.3455 11.5 33.3562 11.5C33.367 11.5 33.3777 11.5 33.3884 11.5C33.3991 11.5 33.4098 11.5 33.4205 11.5C33.4311 11.5 33.4418 11.5 33.4524 11.5C33.463 11.5 33.4735 11.5 33.4841 11.5C33.4946 11.5 33.5051 11.5 33.5156 11.5C33.5261 11.5 33.5365 11.5 33.547 11.5C33.5574 11.5 33.5678 11.5 33.5782 11.5C33.5885 11.5 33.5989 11.5 33.6092 11.5C33.6195 11.5 33.6298 11.5 33.6401 11.5C33.6503 11.5 33.6605 11.5 33.6707 11.5C33.6809 11.5 33.6911 11.5 33.7013 11.5C33.7114 11.5 33.7215 11.5 33.7316 11.5C33.7417 11.5 33.7517 11.5 33.7618 11.5C33.7718 11.5 33.7818 11.5 33.7917 11.5C33.8017 11.5 33.8117 11.5 33.8216 11.5C33.8315 11.5 33.8414 11.5 33.8512 11.5C33.8611 11.5 33.8709 11.5 33.8807 11.5C33.8905 11.5 33.9002 11.5 33.91 11.5C33.9197 11.5 33.9294 11.5 33.9391 11.5C33.9487 11.5 33.9584 11.5 33.968 11.5C33.9776 11.5 33.9872 11.5 33.9968 11.5C34.0063 11.5 34.0158 11.5 34.0253 11.5C34.0348 11.5 34.0443 11.5 34.0537 11.5C34.0632 11.5 34.0726 11.5 34.082 11.5C34.0913 11.5 34.1007 11.5 34.11 11.5C34.1193 11.5 34.1286 11.5 34.1378 11.5C34.1471 11.5 34.1563 11.5 34.1655 11.5C34.1747 11.5 34.1839 11.5 34.193 11.5C34.2021 11.5 34.2112 11.5 34.2203 11.5C34.2294 11.5 34.2384 11.5 34.2474 11.5C34.2565 11.5 34.2654 11.5 34.2744 11.5C34.2833 11.5 34.2923 11.5 34.3011 11.5C34.31 11.5 34.3189 11.5 34.3277 11.5C34.3365 11.5 34.3453 11.5 34.3541 11.5C34.3629 11.5 34.3716 11.5 34.3803 11.5C34.389 11.5 34.3977 11.5 34.4063 11.5C34.4149 11.5 34.4236 11.5 34.4321 11.5C34.4407 11.5 34.4493 11.5 34.4578 11.5C34.4663 11.5 34.4748 11.5 34.4832 11.5C34.4917 11.5 34.5001 11.5 34.5085 11.5C34.5169 11.5 34.5252 11.5 34.5335 11.5C34.5419 11.5 34.5502 11.5 34.5584 11.5C34.5667 11.5 34.5749 11.5 34.5831 11.5C34.5913 11.5 34.5995 11.5 34.6076 11.5C34.6157 11.5 34.6238 11.5 34.6319 11.5C34.64 11.5 34.648 11.5 34.656 11.5C34.664 11.5 34.672 11.5 34.6799 11.5C34.6879 11.5 34.6958 11.5 34.7037 11.5C34.7115 11.5 34.7194 11.5 34.7272 11.5C34.735 11.5 34.7428 11.5 34.7505 11.5C34.7583 11.5 34.766 11.5 34.7737 11.5C34.7813 11.5 34.789 11.5 34.7966 11.5C34.8042 11.5 34.8118 11.5 34.8193 11.5C34.8269 11.5 34.8344 11.5 34.8419 11.5C34.8494 11.5 34.8568 11.5 34.8642 11.5C34.8717 11.5 34.879 11.5 34.8864 11.5C34.8937 11.5 34.9011 11.5 34.9083 11.5C34.9156 11.5 34.9229 11.5 34.9301 11.5C34.9373 11.5 34.9445 11.5 34.9516 11.5C34.9588 11.5 34.9659 11.5 34.973 11.5C34.9801 11.5 34.9871 11.5 34.9941 11.5C35.0012 11.5 35.0081 11.5 35.0151 11.5C35.022 11.5 35.0289 11.5 35.0358 11.5C35.0427 11.5 35.0496 11.5 35.0564 11.5C35.0632 11.5 35.07 11.5 35.0767 11.5C35.0834 11.5 35.0902 11.5 35.0968 11.5C35.1035 11.5 35.1102 11.5 35.1168 11.5C35.1234 11.5 35.1299 11.5 35.1365 11.5C35.143 11.5 35.1495 11.5 35.156 11.5C35.1625 11.5 35.1689 11.5 35.1753 11.5C35.1817 11.5 35.1881 11.5 35.1944 11.5C35.2007 11.5 35.207 11.5 35.2133 11.5C35.2196 11.5 35.2258 11.5 35.232 11.5C35.2382 11.5 35.2443 11.5 35.2505 11.5C35.2566 11.5 35.2627 11.5 35.2687 11.5C35.2748 11.5 35.2808 11.5 35.2868 11.5C35.2928 11.5 35.2987 11.5 35.3046 11.5C35.3106 11.5 35.3164 11.5 35.3223 11.5C35.3281 11.5 35.3339 11.5 35.3397 11.5C35.3455 11.5 35.3512 11.5 35.3569 11.5C35.3626 11.5 35.3683 11.5 35.3739 11.5C35.3795 11.5 35.3851 11.5 35.3907 11.5C35.3962 11.5 35.4018 11.5 35.4073 11.5C35.4127 11.5 35.4182 11.5 35.4236 11.5C35.429 11.5 35.4344 11.5 35.4397 11.5C35.4451 11.5 35.4504 11.5 35.4557 11.5C35.4609 11.5 35.4662 11.5 35.4714 11.5C35.4766 11.5 35.4817 11.5 35.4869 11.5C35.492 11.5 35.4971 11.5 35.5021 11.5C35.5072 11.5 35.5122 11.5 35.5172 11.5C35.5222 11.5 35.5271 11.5 35.532 11.5C35.5369 11.5 35.5418 11.5 35.5466 11.5C35.5515 11.5 35.5563 11.5 35.561 11.5C35.5658 11.5 35.5705 11.5 35.5752 11.5C35.5799 11.5 35.5845 11.5 35.5892 11.5C35.5938 11.5 35.5983 11.5 35.6029 11.5C35.6074 11.5 35.6119 11.5 35.6164 11.5C35.6209 11.5 35.6253 11.5 35.6297 11.5C35.6341 11.5 35.6384 11.5 35.6427 11.5C35.6471 11.5 35.6513 11.5 35.6556 11.5C35.6598 11.5 35.664 11.5 35.6682 11.5C35.6724 11.5 35.6765 11.5 35.6806 11.5C35.6847 11.5 35.6887 11.5 35.6927 11.5C35.6968 11.5 35.7007 11.5 35.7047 11.5C35.7086 11.5 35.7125 11.5 35.7164 11.5C35.7202 11.5 35.7241 11.5 35.7279 11.5C35.7317 11.5 35.7354 11.5 35.7391 11.5C35.7428 11.5 35.7465 11.5 35.7501 11.5C35.7538 11.5 35.7574 11.5 35.7609 11.5C35.7645 11.5 35.768 11.5 35.7715 11.5C35.775 11.5 35.7784 11.5 35.7818 11.5C35.7852 11.5 35.7886 11.5 35.7919 11.5C35.7953 11.5 35.7986 11.5 35.8018 11.5C35.8051 11.5 35.8083 11.5 35.8114 11.5C35.8146 11.5 35.8178 11.5 35.8209 11.5C35.8239 11.5 35.827 11.5 35.83 11.5C35.833 11.5 35.836 11.5 35.839 11.5C35.8419 11.5 35.8448 11.5 35.8477 11.5C35.8505 11.5 35.8533 11.5 35.8561 11.5C35.8589 11.5 35.8617 11.5 35.8644 11.5C35.8671 11.5 35.8697 11.5 35.8724 11.5C35.875 11.5 35.8776 11.5 35.8801 11.5C35.8827 11.5 35.8852 11.5 35.8876 11.5C35.8901 11.5 35.8925 11.5 35.8949 11.5C35.8973 11.5 35.8997 11.5 35.902 11.5C35.9043 11.5 35.9066 11.5 35.9088 11.5C35.911 11.5 35.9132 11.5 35.9153 11.5C35.9175 11.5 35.9196 11.5 35.9217 11.5C35.9237 11.5 35.9258 11.5 35.9278 11.5C35.9297 11.5 35.9317 11.5 35.9336 11.5C35.9355 11.5 35.9374 11.5 35.9392 11.5C35.941 11.5 35.9428 11.5 35.9446 11.5C35.9463 11.5 35.948 11.5 35.9497 11.5C35.9513 11.5 35.953 11.5 35.9545 11.5C35.9561 11.5 35.9577 11.5 35.9592 11.5C35.9607 11.5 35.9621 11.5 35.9636 11.5C35.965 11.5 35.9664 11.5 35.9677 11.5C35.969 11.5 35.9703 11.5 35.9716 11.5C35.9728 11.5 35.9741 11.5 35.9752 11.5C35.9764 11.5 35.9775 11.5 35.9786 11.5C35.9797 11.5 35.9808 11.5 35.9818 11.5C35.9828 11.5 35.9837 11.5 35.9847 11.5C35.9856 11.5 35.9865 11.5 35.9873 11.5C35.9882 11.5 35.989 11.5 35.9897 11.5C35.9905 11.5 35.9912 11.5 35.9919 11.5C35.9925 11.5 35.9932 11.5 35.9938 11.5C35.9944 11.5 35.9949 11.5 35.9954 11.5C35.9959 11.5 35.9964 11.5 35.9968 11.5C35.9972 11.5 35.9976 11.5 35.998 11.5C35.9983 11.5 35.9986 11.5 35.9989 11.5C35.9991 11.5 35.9993 11.5 35.9995 11.5C35.9997 11.5 35.9998 11.5 35.9999 11.5C36 11.5 36 11.5 36 11C36 10.5 36 10.5 35.9999 10.5C35.9998 10.5 35.9997 10.5 35.9995 10.5C35.9993 10.5 35.9991 10.5 35.9989 10.5C35.9986 10.5 35.9983 10.5 35.998 10.5C35.9976 10.5 35.9972 10.5 35.9968 10.5C35.9964 10.5 35.9959 10.5 35.9954 10.5C35.9949 10.5 35.9944 10.5 35.9938 10.5C35.9932 10.5 35.9925 10.5 35.9919 10.5C35.9912 10.5 35.9905 10.5 35.9897 10.5C35.989 10.5 35.9882 10.5 35.9873 10.5C35.9865 10.5 35.9856 10.5 35.9847 10.5C35.9837 10.5 35.9828 10.5 35.9818 10.5C35.9808 10.5 35.9797 10.5 35.9786 10.5C35.9775 10.5 35.9764 10.5 35.9752 10.5C35.9741 10.5 35.9728 10.5 35.9716 10.5C35.9703 10.5 35.969 10.5 35.9677 10.5C35.9664 10.5 35.965 10.5 35.9636 10.5C35.9621 10.5 35.9607 10.5 35.9592 10.5C35.9577 10.5 35.9561 10.5 35.9545 10.5C35.953 10.5 35.9513 10.5 35.9497 10.5C35.948 10.5 35.9463 10.5 35.9446 10.5C35.9428 10.5 35.941 10.5 35.9392 10.5C35.9374 10.5 35.9355 10.5 35.9336 10.5C35.9317 10.5 35.9297 10.5 35.9278 10.5C35.9258 10.5 35.9237 10.5 35.9217 10.5C35.9196 10.5 35.9175 10.5 35.9153 10.5C35.9132 10.5 35.911 10.5 35.9088 10.5C35.9066 10.5 35.9043 10.5 35.902 10.5C35.8997 10.5 35.8973 10.5 35.8949 10.5C35.8925 10.5 35.8901 10.5 35.8876 10.5C35.8852 10.5 35.8827 10.5 35.8801 10.5C35.8776 10.5 35.875 10.5 35.8724 10.5C35.8697 10.5 35.8671 10.5 35.8644 10.5C35.8617 10.5 35.8589 10.5 35.8561 10.5C35.8533 10.5 35.8505 10.5 35.8477 10.5C35.8448 10.5 35.8419 10.5 35.839 10.5C35.836 10.5 35.833 10.5 35.83 10.5C35.827 10.5 35.8239 10.5 35.8209 10.5C35.8178 10.5 35.8146 10.5 35.8114 10.5C35.8083 10.5 35.8051 10.5 35.8018 10.5C35.7986 10.5 35.7953 10.5 35.7919 10.5C35.7886 10.5 35.7852 10.5 35.7818 10.5C35.7784 10.5 35.775 10.5 35.7715 10.5C35.768 10.5 35.7645 10.5 35.7609 10.5C35.7574 10.5 35.7538 10.5 35.7501 10.5C35.7465 10.5 35.7428 10.5 35.7391 10.5C35.7354 10.5 35.7317 10.5 35.7279 10.5C35.7241 10.5 35.7202 10.5 35.7164 10.5C35.7125 10.5 35.7086 10.5 35.7047 10.5C35.7007 10.5 35.6968 10.5 35.6927 10.5C35.6887 10.5 35.6847 10.5 35.6806 10.5C35.6765 10.5 35.6724 10.5 35.6682 10.5C35.664 10.5 35.6598 10.5 35.6556 10.5C35.6513 10.5 35.6471 10.5 35.6427 10.5C35.6384 10.5 35.6341 10.5 35.6297 10.5C35.6253 10.5 35.6209 10.5 35.6164 10.5C35.6119 10.5 35.6074 10.5 35.6029 10.5C35.5983 10.5 35.5938 10.5 35.5892 10.5C35.5845 10.5 35.5799 10.5 35.5752 10.5C35.5705 10.5 35.5658 10.5 35.561 10.5C35.5563 10.5 35.5515 10.5 35.5466 10.5C35.5418 10.5 35.5369 10.5 35.532 10.5C35.5271 10.5 35.5222 10.5 35.5172 10.5C35.5122 10.5 35.5072 10.5 35.5021 10.5C35.4971 10.5 35.492 10.5 35.4869 10.5C35.4817 10.5 35.4766 10.5 35.4714 10.5C35.4662 10.5 35.4609 10.5 35.4557 10.5C35.4504 10.5 35.4451 10.5 35.4397 10.5C35.4344 10.5 35.429 10.5 35.4236 10.5C35.4182 10.5 35.4127 10.5 35.4073 10.5C35.4018 10.5 35.3962 10.5 35.3907 10.5C35.3851 10.5 35.3795 10.5 35.3739 10.5C35.3683 10.5 35.3626 10.5 35.3569 10.5C35.3512 10.5 35.3455 10.5 35.3397 10.5C35.3339 10.5 35.3281 10.5 35.3223 10.5C35.3164 10.5 35.3106 10.5 35.3046 10.5C35.2987 10.5 35.2928 10.5 35.2868 10.5C35.2808 10.5 35.2748 10.5 35.2687 10.5C35.2627 10.5 35.2566 10.5 35.2505 10.5C35.2443 10.5 35.2382 10.5 35.232 10.5C35.2258 10.5 35.2196 10.5 35.2133 10.5C35.207 10.5 35.2007 10.5 35.1944 10.5C35.1881 10.5 35.1817 10.5 35.1753 10.5C35.1689 10.5 35.1625 10.5 35.156 10.5C35.1495 10.5 35.143 10.5 35.1365 10.5C35.1299 10.5 35.1234 10.5 35.1168 10.5C35.1102 10.5 35.1035 10.5 35.0968 10.5C35.0902 10.5 35.0834 10.5 35.0767 10.5C35.07 10.5 35.0632 10.5 35.0564 10.5C35.0496 10.5 35.0427 10.5 35.0358 10.5C35.0289 10.5 35.022 10.5 35.0151 10.5C35.0081 10.5 35.0012 10.5 34.9941 10.5C34.9871 10.5 34.9801 10.5 34.973 10.5C34.9659 10.5 34.9588 10.5 34.9516 10.5C34.9445 10.5 34.9373 10.5 34.9301 10.5C34.9229 10.5 34.9156 10.5 34.9083 10.5C34.9011 10.5 34.8937 10.5 34.8864 10.5C34.879 10.5 34.8717 10.5 34.8642 10.5C34.8568 10.5 34.8494 10.5 34.8419 10.5C34.8344 10.5 34.8269 10.5 34.8193 10.5C34.8118 10.5 34.8042 10.5 34.7966 10.5C34.789 10.5 34.7813 10.5 34.7737 10.5C34.766 10.5 34.7583 10.5 34.7505 10.5C34.7428 10.5 34.735 10.5 34.7272 10.5C34.7194 10.5 34.7115 10.5 34.7037 10.5C34.6958 10.5 34.6879 10.5 34.6799 10.5C34.672 10.5 34.664 10.5 34.656 10.5C34.648 10.5 34.64 10.5 34.6319 10.5C34.6238 10.5 34.6157 10.5 34.6076 10.5C34.5995 10.5 34.5913 10.5 34.5831 10.5C34.5749 10.5 34.5667 10.5 34.5584 10.5C34.5502 10.5 34.5419 10.5 34.5335 10.5C34.5252 10.5 34.5169 10.5 34.5085 10.5C34.5001 10.5 34.4917 10.5 34.4832 10.5C34.4748 10.5 34.4663 10.5 34.4578 10.5C34.4493 10.5 34.4407 10.5 34.4321 10.5C34.4236 10.5 34.4149 10.5 34.4063 10.5C34.3977 10.5 34.389 10.5 34.3803 10.5C34.3716 10.5 34.3629 10.5 34.3541 10.5C34.3453 10.5 34.3365 10.5 34.3277 10.5C34.3189 10.5 34.31 10.5 34.3011 10.5C34.2923 10.5 34.2833 10.5 34.2744 10.5C34.2654 10.5 34.2565 10.5 34.2474 10.5C34.2384 10.5 34.2294 10.5 34.2203 10.5C34.2112 10.5 34.2021 10.5 34.193 10.5C34.1839 10.5 34.1747 10.5 34.1655 10.5C34.1563 10.5 34.1471 10.5 34.1378 10.5C34.1286 10.5 34.1193 10.5 34.11 10.5C34.1007 10.5 34.0913 10.5 34.082 10.5C34.0726 10.5 34.0632 10.5 34.0537 10.5C34.0443 10.5 34.0348 10.5 34.0253 10.5C34.0158 10.5 34.0063 10.5 33.9968 10.5C33.9872 10.5 33.9776 10.5 33.968 10.5C33.9584 10.5 33.9487 10.5 33.9391 10.5C33.9294 10.5 33.9197 10.5 33.91 10.5C33.9002 10.5 33.8905 10.5 33.8807 10.5C33.8709 10.5 33.8611 10.5 33.8512 10.5C33.8414 10.5 33.8315 10.5 33.8216 10.5C33.8117 10.5 33.8017 10.5 33.7917 10.5C33.7818 10.5 33.7718 10.5 33.7618 10.5C33.7517 10.5 33.7417 10.5 33.7316 10.5C33.7215 10.5 33.7114 10.5 33.7013 10.5C33.6911 10.5 33.6809 10.5 33.6707 10.5C33.6605 10.5 33.6503 10.5 33.6401 10.5C33.6298 10.5 33.6195 10.5 33.6092 10.5C33.5989 10.5 33.5885 10.5 33.5782 10.5C33.5678 10.5 33.5574 10.5 33.547 10.5C33.5365 10.5 33.5261 10.5 33.5156 10.5C33.5051 10.5 33.4946 10.5 33.4841 10.5C33.4735 10.5 33.463 10.5 33.4524 10.5C33.4418 10.5 33.4311 10.5 33.4205 10.5C33.4098 10.5 33.3991 10.5 33.3884 10.5C33.3777 10.5 33.367 10.5 33.3562 10.5C33.3455 10.5 33.3347 10.5 33.3239 10.5C33.313 10.5 33.3022 10.5 33.2913 10.5C33.2804 10.5 33.2695 10.5 33.2586 10.5C33.2477 10.5 33.2367 10.5 33.2257 10.5C33.2147 10.5 33.2037 10.5 33.1927 10.5C33.1816 10.5 33.1706 10.5 33.1595 10.5C33.1484 10.5 33.1373 10.5 33.1261 10.5C33.115 10.5 33.1038 10.5 33.0926 10.5C33.0814 10.5 33.0702 10.5 33.0589 10.5C33.0476 10.5 33.0364 10.5 33.025 10.5C33.0137 10.5 33.0024 10.5 32.991 10.5C32.9797 10.5 32.9683 10.5 32.9569 10.5C32.9454 10.5 32.934 10.5 32.9225 10.5C32.9111 10.5 32.8996 10.5 32.888 10.5C32.8765 10.5 32.865 10.5 32.8534 10.5C32.8418 10.5 32.8302 10.5 32.8186 10.5C32.807 10.5 32.7953 10.5 32.7836 10.5C32.7719 10.5 32.7602 10.5 32.7485 10.5C32.7368 10.5 32.725 10.5 32.7132 10.5C32.7014 10.5 32.6896 10.5 32.6778 10.5C32.6659 10.5 32.6541 10.5 32.6422 10.5C32.6303 10.5 32.6184 10.5 32.6065 10.5C32.5945 10.5 32.5825 10.5 32.5706 10.5C32.5586 10.5 32.5465 10.5 32.5345 10.5C32.5225 10.5 32.5104 10.5 32.4983 10.5C32.4862 10.5 32.4741 10.5 32.4619 10.5C32.4498 10.5 32.4376 10.5 32.4254 10.5C32.4132 10.5 32.401 10.5 32.3888 10.5C32.3765 10.5 32.3643 10.5 32.352 10.5C32.3397 10.5 32.3274 10.5 32.315 10.5C32.3027 10.5 32.2903 10.5 32.2779 10.5C32.2655 10.5 32.2531 10.5 32.2407 10.5C32.2282 10.5 32.2157 10.5 32.2032 10.5C32.1908 10.5 32.1782 10.5 32.1657 10.5C32.1532 10.5 32.1406 10.5 32.128 10.5C32.1154 10.5 32.1028 10.5 32.0902 10.5C32.0775 10.5 32.0648 10.5 32.0522 10.5C32.0395 10.5 32.0268 10.5 32.014 10.5C32.0013 10.5 31.9885 10.5 31.9757 10.5C31.963 10.5 31.9502 10.5 31.9373 10.5C31.9245 10.5 31.9116 10.5 31.8988 10.5C31.8859 10.5 31.873 10.5 31.86 10.5C31.8471 10.5 31.8342 10.5 31.8212 10.5C31.8082 10.5 31.7952 10.5 31.7822 10.5C31.7692 10.5 31.7561 10.5 31.7431 10.5C31.73 10.5 31.7169 10.5 31.7038 10.5C31.6907 10.5 31.6775 10.5 31.6644 10.5C31.6512 10.5 31.638 10.5 31.6248 10.5C31.6116 10.5 31.5984 10.5 31.5851 10.5C31.5719 10.5 31.5586 10.5 31.5453 10.5C31.532 10.5 31.5187 10.5 31.5053 10.5C31.492 10.5 31.4786 10.5 31.4652 10.5C31.4518 10.5 31.4384 10.5 31.425 10.5C31.4115 10.5 31.3981 10.5 31.3846 10.5C31.3711 10.5 31.3576 10.5 31.3441 10.5C31.3305 10.5 31.317 10.5 31.3034 10.5C31.2898 10.5 31.2762 10.5 31.2626 10.5C31.249 10.5 31.2354 10.5 31.2217 10.5C31.2081 10.5 31.1944 10.5 31.1807 10.5C31.167 10.5 31.1532 10.5 31.1395 10.5C31.1257 10.5 31.112 10.5 31.0982 10.5C31.0844 10.5 31.0706 10.5 31.0567 10.5C31.0429 10.5 31.029 10.5 31.0151 10.5C31.0013 10.5 30.9874 10.5 30.9734 10.5C30.9595 10.5 30.9456 10.5 30.9316 10.5C30.9176 10.5 30.9036 10.5 30.8896 10.5C30.8756 10.5 30.8616 10.5 30.8475 10.5C30.8335 10.5 30.8194 10.5 30.8053 10.5C30.7912 10.5 30.7771 10.5 30.763 10.5C30.7488 10.5 30.7347 10.5 30.7205 10.5C30.7063 10.5 30.6921 10.5 30.6779 10.5C30.6637 10.5 30.6494 10.5 30.6352 10.5C30.6209 10.5 30.6066 10.5 30.5923 10.5C30.578 10.5 30.5637 10.5 30.5493 10.5C30.535 10.5 30.5206 10.5 30.5062 10.5C30.4919 10.5 30.4774 10.5 30.463 10.5C30.4486 10.5 30.4341 10.5 30.4197 10.5C30.4052 10.5 30.3907 10.5 30.3762 10.5C30.3617 10.5 30.3472 10.5 30.3326 10.5C30.3181 10.5 30.3035 10.5 30.2889 10.5C30.2743 10.5 30.2597 10.5 30.2451 10.5C30.2304 10.5 30.2158 10.5 30.2011 10.5C30.1865 10.5 30.1718 10.5 30.1571 10.5C30.1423 10.5 30.1276 10.5 30.1129 10.5C30.0981 10.5 30.0834 10.5 30.0686 10.5C30.0538 10.5 30.039 10.5 30.0241 10.5C30.0093 10.5 29.9945 10.5 29.9796 10.5C29.9647 10.5 29.9499 10.5 29.9349 10.5C29.92 10.5 29.9051 10.5 29.8902 10.5C29.8752 10.5 29.8603 10.5 29.8453 10.5C29.8303 10.5 29.8153 10.5 29.8003 10.5C29.7853 10.5 29.7702 10.5 29.7552 10.5C29.7401 10.5 29.725 10.5 29.71 10.5C29.6949 10.5 29.6797 10.5 29.6646 10.5C29.6495 10.5 29.6343 10.5 29.6192 10.5C29.604 10.5 29.5888 10.5 29.5736 10.5C29.5584 10.5 29.5432 10.5 29.5279 10.5C29.5127 10.5 29.4974 10.5 29.4821 10.5C29.4669 10.5 29.4516 10.5 29.4362 10.5C29.4209 10.5 29.4056 10.5 29.3902 10.5C29.3749 10.5 29.3595 10.5 29.3441 10.5C29.3287 10.5 29.3133 10.5 29.2979 10.5C29.2825 10.5 29.267 10.5 29.2516 10.5C29.2361 10.5 29.2206 10.5 29.2051 10.5C29.1897 10.5 29.1741 10.5 29.1586 10.5C29.1431 10.5 29.1275 10.5 29.112 10.5C29.0964 10.5 29.0808 10.5 29.0652 10.5C29.0496 10.5 29.034 10.5 29.0184 10.5C29.0027 10.5 28.9871 10.5 28.9714 10.5C28.9557 10.5 28.94 10.5 28.9243 10.5C28.9086 10.5 28.8929 10.5 28.8772 10.5C28.8614 10.5 28.8457 10.5 28.8299 10.5C28.8141 10.5 28.7983 10.5 28.7825 10.5C28.7667 10.5 28.7509 10.5 28.7351 10.5C28.7192 10.5 28.7034 10.5 28.6875 10.5C28.6716 10.5 28.6557 10.5 28.6398 10.5C28.6239 10.5 28.608 10.5 28.592 10.5C28.5761 10.5 28.5601 10.5 28.5442 10.5C28.5282 10.5 28.5122 10.5 28.4962 10.5C28.4802 10.5 28.4642 10.5 28.4481 10.5C28.4321 10.5 28.416 10.5 28.4 10.5C28.3839 10.5 28.3678 10.5 28.3517 10.5C28.3356 10.5 28.3195 10.5 28.3034 10.5C28.2872 10.5 28.2711 10.5 28.2549 10.5C28.2387 10.5 28.2226 10.5 28.2064 10.5C28.1902 10.5 28.174 10.5 28.1577 10.5C28.1415 10.5 28.1253 10.5 28.109 10.5C28.0927 10.5 28.0765 10.5 28.0602 10.5C28.0439 10.5 28.0276 10.5 28.0112 10.5C27.9949 10.5 27.9786 10.5 27.9622 10.5C27.9459 10.5 27.9295 10.5 27.9131 10.5C27.8968 10.5 27.8804 10.5 27.8639 10.5C27.8475 10.5 27.8311 10.5 27.8147 10.5C27.7982 10.5 27.7818 10.5 27.7653 10.5C27.7488 10.5 27.7323 10.5 27.7158 10.5C27.6993 10.5 27.6828 10.5 27.6663 10.5C27.6498 10.5 27.6332 10.5 27.6167 10.5C27.6001 10.5 27.5835 10.5 27.5669 10.5C27.5503 10.5 27.5337 10.5 27.5171 10.5C27.5005 10.5 27.4839 10.5 27.4672 10.5C27.4506 10.5 27.4339 10.5 27.4172 10.5C27.4006 10.5 27.3839 10.5 27.3672 10.5C27.3505 10.5 27.3338 10.5 27.317 10.5C27.3003 10.5 27.2836 10.5 27.2668 10.5C27.25 10.5 27.2333 10.5 27.2165 10.5C27.1997 10.5 27.1829 10.5 27.1661 10.5C27.1493 10.5 27.1324 10.5 27.1156 10.5C27.0988 10.5 27.0819 10.5 27.065 10.5C27.0482 10.5 27.0313 10.5 27.0144 10.5C26.9975 10.5 26.9806 10.5 26.9637 10.5C26.9468 10.5 26.9298 10.5 26.9129 10.5C26.8959 10.5 26.879 10.5 26.862 10.5C26.845 10.5 26.828 10.5 26.811 10.5C26.794 10.5 26.777 10.5 26.76 10.5C26.743 10.5 26.7259 10.5 26.7089 10.5C26.6918 10.5 26.6748 10.5 26.6577 10.5C26.6406 10.5 26.6235 10.5 26.6064 10.5C26.5893 10.5 26.5722 10.5 26.5551 10.5C26.5379 10.5 26.5208 10.5 26.5037 10.5C26.4865 10.5 26.4693 10.5 26.4522 10.5C26.435 10.5 26.4178 10.5 26.4006 10.5C26.3834 10.5 26.3662 10.5 26.349 10.5C26.3317 10.5 26.3145 10.5 26.2972 10.5C26.28 10.5 26.2627 10.5 26.2455 10.5C26.2282 10.5 26.2109 10.5 26.1936 10.5C26.1763 10.5 26.159 10.5 26.1417 10.5C26.1244 10.5 26.107 10.5 26.0897 10.5C26.0723 10.5 26.055 10.5 26.0376 10.5C26.0202 10.5 26.0029 10.5 25.9855 10.5C25.9681 10.5 25.9507 10.5 25.9333 10.5C25.9159 10.5 25.8984 10.5 25.881 10.5C25.8636 10.5 25.8461 10.5 25.8287 10.5C25.8112 10.5 25.7937 10.5 25.7763 10.5C25.7588 10.5 25.7413 10.5 25.7238 10.5C25.7063 10.5 25.6888 10.5 25.6712 10.5C25.6537 10.5 25.6362 10.5 25.6186 10.5C25.6011 10.5 25.5835 10.5 25.566 10.5C25.5484 10.5 25.5308 10.5 25.5132 10.5C25.4957 10.5 25.4781 10.5 25.4604 10.5C25.4428 10.5 25.4252 10.5 25.4076 10.5C25.39 10.5 25.3723 10.5 25.3547 10.5C25.337 10.5 25.3194 10.5 25.3017 10.5C25.284 10.5 25.2663 10.5 25.2486 10.5C25.231 10.5 25.2133 10.5 25.1955 10.5C25.1778 10.5 25.1601 10.5 25.1424 10.5C25.1246 10.5 25.1069 10.5 25.0892 10.5C25.0714 10.5 25.0536 10.5 25.0359 10.5C25.0181 10.5 25.0003 10.5 24.9825 10.5C24.9647 10.5 24.9469 10.5 24.9291 10.5C24.9113 10.5 24.8935 10.5 24.8757 10.5C24.8579 10.5 24.84 10.5 24.8222 10.5C24.8043 10.5 24.7865 10.5 24.7686 10.5C24.7507 10.5 24.7329 10.5 24.715 10.5C24.6971 10.5 24.6792 10.5 24.6613 10.5C24.6434 10.5 24.6255 10.5 24.6076 10.5C24.5897 10.5 24.5717 10.5 24.5538 10.5C24.5359 10.5 24.5179 10.5 24.5 10.5C24.482 10.5 24.464 10.5 24.4461 10.5C24.4281 10.5 24.4101 10.5 24.3921 10.5C24.3741 10.5 24.3561 10.5 24.3381 10.5C24.3201 10.5 24.3021 10.5 24.2841 10.5C24.2661 10.5 24.248 10.5 24.23 10.5C24.212 10.5 24.1939 10.5 24.1759 10.5C24.1578 10.5 24.1397 10.5 24.1217 10.5C24.1036 10.5 24.0855 10.5 24.0674 10.5C24.0494 10.5 24.0313 10.5 24.0132 10.5C23.9951 10.5 23.9769 10.5 23.9588 10.5C23.9407 10.5 23.9226 10.5 23.9044 10.5C23.8863 10.5 23.8682 10.5 23.85 10.5C23.8319 10.5 23.8137 10.5 23.7955 10.5C23.7774 10.5 23.7592 10.5 23.741 10.5C23.7229 10.5 23.7047 10.5 23.6865 10.5C23.6683 10.5 23.6501 10.5 23.6319 10.5C23.6137 10.5 23.5954 10.5 23.5772 10.5C23.559 10.5 23.5408 10.5 23.5225 10.5C23.5043 10.5 23.4861 10.5 23.4678 10.5C23.4496 10.5 23.4313 10.5 23.413 10.5C23.3948 10.5 23.3765 10.5 23.3582 10.5C23.3399 10.5 23.3217 10.5 23.3034 10.5C23.2851 10.5 23.2668 10.5 23.2485 10.5C23.2302 10.5 23.2119 10.5 23.1935 10.5C23.1752 10.5 23.1569 10.5 23.1386 10.5C23.1202 10.5 23.1019 10.5 23.0836 10.5C23.0652 10.5 23.0469 10.5 23.0285 10.5C23.0102 10.5 22.9918 10.5 22.9734 10.5C22.9551 10.5 22.9367 10.5 22.9183 10.5C22.8999 10.5 22.8816 10.5 22.8632 10.5C22.8448 10.5 22.8264 10.5 22.808 10.5C22.7896 10.5 22.7712 10.5 22.7528 10.5C22.7344 10.5 22.7159 10.5 22.6975 10.5C22.6791 10.5 22.6607 10.5 22.6422 10.5C22.6238 10.5 22.6053 10.5 22.5869 10.5C22.5685 10.5 22.55 10.5 22.5315 10.5C22.5131 10.5 22.4946 10.5 22.4762 10.5C22.4577 10.5 22.4392 10.5 22.4207 10.5C22.4023 10.5 22.3838 10.5 22.3653 10.5C22.3468 10.5 22.3283 10.5 22.3098 10.5C22.2913 10.5 22.2728 10.5 22.2543 10.5C22.2358 10.5 22.2173 10.5 22.1988 10.5C22.1803 10.5 22.1618 10.5 22.1432 10.5C22.1247 10.5 22.1062 10.5 22.0876 10.5C22.0691 10.5 22.0506 10.5 22.032 10.5C22.0135 10.5 21.9949 10.5 21.9764 10.5C21.9578 10.5 21.9393 10.5 21.9207 10.5C21.9022 10.5 21.8836 10.5 21.865 10.5C21.8465 10.5 21.8279 10.5 21.8093 10.5C21.7907 10.5 21.7722 10.5 21.7536 10.5C21.735 10.5 21.7164 10.5 21.6978 10.5C21.6792 10.5 21.6606 10.5 21.642 10.5C21.6234 10.5 21.6048 10.5 21.5862 10.5C21.5676 10.5 21.549 10.5 21.5304 10.5C21.5118 10.5 21.4932 10.5 21.4745 10.5C21.4559 10.5 21.4373 10.5 21.4187 10.5C21.4 10.5 21.3814 10.5 21.3628 10.5C21.3441 10.5 21.3255 10.5 21.3069 10.5C21.2882 10.5 21.2696 10.5 21.2509 10.5C21.2323 10.5 21.2136 10.5 21.195 10.5C21.1763 10.5 21.1577 10.5 21.139 10.5C21.1204 10.5 21.1017 10.5 21.083 10.5C21.0644 10.5 21.0457 10.5 21.027 10.5C21.0084 10.5 20.9897 10.5 20.971 10.5C20.9524 10.5 20.9337 10.5 20.915 10.5C20.8963 10.5 20.8776 10.5 20.859 10.5C20.8403 10.5 20.8216 10.5 20.8029 10.5C20.7842 10.5 20.7655 10.5 20.7468 10.5C20.7281 10.5 20.7094 10.5 20.6908 10.5C20.6721 10.5 20.6534 10.5 20.6347 10.5C20.616 10.5 20.5973 10.5 20.5785 10.5C20.5598 10.5 20.5411 10.5 20.5224 10.5C20.5037 10.5 20.485 10.5 20.4663 10.5C20.4476 10.5 20.4289 10.5 20.4102 10.5C20.3914 10.5 20.3727 10.5 20.354 10.5C20.3353 10.5 20.3166 10.5 20.2979 10.5C20.2791 10.5 20.2604 10.5 20.2417 10.5C20.223 10.5 20.2042 10.5 20.1855 10.5C20.1668 10.5 20.1481 10.5 20.1293 10.5C20.1106 10.5 20.0919 10.5 20.0732 10.5C20.0544 10.5 20.0357 10.5 20.017 10.5C19.9982 10.5 19.9795 10.5 19.9608 10.5C19.942 10.5 19.9233 10.5 19.9046 10.5C19.8858 10.5 19.8671 10.5 19.8484 10.5C19.8296 10.5 19.8109 10.5 19.7922 10.5C19.7734 10.5 19.7547 10.5 19.7359 10.5C19.7172 10.5 19.6985 10.5 19.6797 10.5C19.661 10.5 19.6423 10.5 19.6235 10.5C19.6048 10.5 19.586 10.5 19.5673 10.5C19.5486 10.5 19.5298 10.5 19.5111 10.5C19.4923 10.5 19.4736 10.5 19.4549 10.5C19.4361 10.5 19.4174 10.5 19.3986 10.5C19.3799 10.5 19.3612 10.5 19.3424 10.5C19.3237 10.5 19.3049 10.5 19.2862 10.5C19.2675 10.5 19.2487 10.5 19.23 10.5C19.2113 10.5 19.1925 10.5 19.1738 10.5C19.1551 10.5 19.1363 10.5 19.1176 10.5C19.0988 10.5 19.0801 10.5 19.0614 10.5C19.0426 10.5 19.0239 10.5 19.0052 10.5C18.9864 10.5 18.9677 10.5 18.949 10.5C18.9303 10.5 18.9115 10.5 18.8928 10.5C18.8741 10.5 18.8553 10.5 18.8366 10.5C18.8179 10.5 18.7992 10.5 18.7804 10.5C18.7617 10.5 18.743 10.5 18.7243 10.5C18.7056 10.5 18.6868 10.5 18.6681 10.5C18.6494 10.5 18.6307 10.5 18.612 10.5C18.5933 10.5 18.5745 10.5 18.5558 10.5C18.5371 10.5 18.5184 10.5 18.4997 10.5C18.481 10.5 18.4623 10.5 18.4436 10.5C18.4249 10.5 18.4062 10.5 18.3875 10.5C18.3688 10.5 18.3501 10.5 18.3314 10.5C18.3127 10.5 18.294 10.5 18.2753 10.5C18.2566 10.5 18.2379 10.5 18.2192 10.5C18.2005 10.5 18.1818 10.5 18.1632 10.5C18.1445 10.5 18.1258 10.5 18.1071 10.5C18.0884 10.5 18.0698 10.5 18.0511 10.5C18.0324 10.5 18.0137 10.5 17.9951 10.5C17.9764 10.5 17.9577 10.5 17.9391 10.5C17.9204 10.5 17.9017 10.5 17.8831 10.5C17.8644 10.5 17.8458 10.5 17.8271 10.5C17.8085 10.5 17.7898 10.5 17.7712 10.5C17.7525 10.5 17.7339 10.5 17.7152 10.5C17.6966 10.5 17.678 10.5 17.6593 10.5C17.6407 10.5 17.6221 10.5 17.6034 10.5C17.5848 10.5 17.5662 10.5 17.5476 10.5C17.5289 10.5 17.5103 10.5 17.4917 10.5C17.4731 10.5 17.4545 10.5 17.4359 10.5C17.4173 10.5 17.3987 10.5 17.3801 10.5C17.3615 10.5 17.3429 10.5 17.3243 10.5C17.3057 10.5 17.2871 10.5 17.2685 10.5C17.2499 10.5 17.2313 10.5 17.2128 10.5C17.1942 10.5 17.1756 10.5 17.157 10.5C17.1385 10.5 17.1199 10.5 17.1013 10.5C17.0828 10.5 17.0642 10.5 17.0457 10.5C17.0271 10.5 17.0086 10.5 16.99 10.5C16.9715 10.5 16.9529 10.5 16.9344 10.5C16.9159 10.5 16.8973 10.5 16.8788 10.5C16.8603 10.5 16.8418 10.5 16.8232 10.5C16.8047 10.5 16.7862 10.5 16.7677 10.5C16.7492 10.5 16.7307 10.5 16.7122 10.5C16.6937 10.5 16.6752 10.5 16.6567 10.5C16.6382 10.5 16.6197 10.5 16.6013 10.5C16.5828 10.5 16.5643 10.5 16.5458 10.5C16.5274 10.5 16.5089 10.5 16.4904 10.5C16.472 10.5 16.4535 10.5 16.4351 10.5C16.4166 10.5 16.3982 10.5 16.3798 10.5C16.3613 10.5 16.3429 10.5 16.3245 10.5C16.306 10.5 16.2876 10.5 16.2692 10.5C16.2508 10.5 16.2324 10.5 16.214 10.5C16.1956 10.5 16.1772 10.5 16.1588 10.5C16.1404 10.5 16.122 10.5 16.1036 10.5C16.0852 10.5 16.0669 10.5 16.0485 10.5C16.0301 10.5 16.0118 10.5 15.9934 10.5C15.9751 10.5 15.9567 10.5 15.9384 10.5C15.92 10.5 15.9017 10.5 15.8833 10.5C15.865 10.5 15.8467 10.5 15.8284 10.5C15.8101 10.5 15.7917 10.5 15.7734 10.5C15.7551 10.5 15.7368 10.5 15.7185 10.5C15.7002 10.5 15.682 10.5 15.6637 10.5C15.6454 10.5 15.6271 10.5 15.6089 10.5C15.5906 10.5 15.5723 10.5 15.5541 10.5C15.5358 10.5 15.5176 10.5 15.4993 10.5V11.5Z" fill="white"/>
</g>
<defs>
<filter id="filter0_d" x="0" y="0" width="40" height="30" filterUnits="userSpaceOnUse" color-interpolation-filters="sRGB">
<feFlood flood-opacity="0" result="BackgroundImageFix"/>
<feColorMatrix in="SourceAlpha" type="matrix" values="0 0 0 0 0 0 0 0 0 0 0 0 0 0 0 0 0 0 127 0"/>
<feOffset dy="4"/>
<feGaussianBlur stdDeviation="2"/>
<feColorMatrix type="matrix" values="0 0 0 0 0 0 0 0 0 0 0 0 0 0 0 0 0 0 0.25 0"/>
<feBlend mode="normal" in2="BackgroundImageFix" result="effect1_dropShadow"/>
<feBlend mode="normal" in="SourceGraphic" in2="effect1_dropShadow" result="shape"/>
</filter>
</defs>
</svg>
