<svg width="8" height="12" viewBox="0 0 8 12" fill="none" xmlns="http://www.w3.org/2000/svg">
<g clip-path="url(#clip0)">
<path fill-rule="evenodd" clip-rule="evenodd" d="M7.58501 5.04878C6.74064 3.83773 5.90582 2.58435 4.98513 1.58493C4.46753 1.02291 4.00957 0.578467 3.53015 0.0705305C3.06503 0.110508 2.49258 0.0446629 2.1181 0.164592C2.69771 0.684287 3.18191 1.29804 3.74243 1.8342C4.05728 1.74484 4.35066 1.63667 4.65835 1.54025C4.74183 1.77306 4.07397 1.75895 3.9094 1.93767C3.86408 2.07876 4.0382 2.24337 4.13837 2.36095C4.49377 2.77012 4.91118 3.20281 5.31667 3.66606C5.85811 4.28452 7.01494 5.11227 6.7478 6.14461C6.63331 6.5867 6.12287 6.97235 5.80802 7.45677C5.48125 7.96001 5.26419 8.48205 4.97797 8.87476C4.05966 9.82479 3.29639 10.923 2.3447 11.8424C2.6023 11.9577 3.0865 11.8401 3.43235 11.8636C3.9738 10.9959 4.96366 10.4315 5.54326 9.60845C6.01077 8.94296 6.28268 8.19281 6.67862 7.53908C6.90761 7.16048 7.27254 6.57494 7.67087 6.11639C8.1503 5.57083 8.09306 5.77541 7.58501 5.04878ZM3.32979 0.71956C3.49437 0.750131 3.79491 0.637256 3.87362 0.757186C3.70904 0.728966 3.4085 0.841841 3.32979 0.71956ZM4.67266 2.07876C4.74183 2.00116 4.99467 1.97529 4.99944 2.12109C4.91595 2.21515 4.72275 2.17753 4.67266 2.07876Z" fill="#EFA424"/>
<path fill-rule="evenodd" clip-rule="evenodd" d="M2.77876 2.34454C2.59271 1.86482 2.11567 1.44154 1.7078 1.03472C1.31662 0.646713 0.956456 0.0588231 0.319605 0.00238556C0.197959 0.256354 0.436481 0.41626 0.605831 0.529135C0.441251 0.606737 0.288597 0.199917 -1.32757e-05 0.225784C0.205115 0.877166 0.822885 1.26047 1.2403 1.74489C2.46152 3.16758 3.86403 4.50797 5.11388 5.9777C3.48717 7.92008 1.78174 9.78957 0.39116 11.9507C0.636837 11.8542 0.968381 12.0635 1.26176 11.9812C1.67917 11.8636 2.28025 10.8501 2.5784 10.4974C3.83779 9.0018 5.16635 7.29222 6.47345 6.04589C5.21167 4.85835 4.05246 3.34395 2.77876 2.34454ZM0.818113 11.6708C0.989849 11.6402 1.00416 11.4615 1.19259 11.4451C1.19021 11.5391 1.20929 11.612 1.25222 11.6567C1.15204 11.6732 0.89444 11.8072 0.818113 11.6708Z" fill="#984217"/>
</g>
<defs>
<clipPath id="clip0">
<rect width="8" height="12" fill="white" transform="translate(8 12) rotate(-180)"/>
</clipPath>
</defs>
</svg>
