<svg width="81" height="8" viewBox="0 0 81 8" fill="none" xmlns="http://www.w3.org/2000/svg">
<path d="M80.3536 4.35355C80.5488 4.15829 80.5488 3.84171 80.3536 3.64645L77.1716 0.464466C76.9763 0.269204 76.6597 0.269204 76.4645 0.464466C76.2692 0.659728 76.2692 0.976311 76.4645 1.17157L79.2929 4L76.4645 6.82843C76.2692 7.02369 76.2692 7.34027 76.4645 7.53553C76.6597 7.7308 76.9763 7.7308 77.1716 7.53553L80.3536 4.35355ZM0 4.5H0.519481V3.5H0V4.5ZM6.75325 4.5H7.79221V3.5H6.75325V4.5ZM14.026 4.5H15.0649V3.5H14.026V4.5ZM21.2987 4.5H22.3377V3.5H21.2987V4.5ZM28.5714 4.5H29.6104V3.5H28.5714V4.5ZM35.8442 4.5H36.8831V3.5H35.8442V4.5ZM43.1169 4.5H44.1558V3.5H43.1169V4.5ZM50.3896 4.5H51.4286V3.5H50.3896V4.5ZM57.6623 4.5H58.7013V3.5H57.6623V4.5ZM64.9351 4.5H65.974V3.5H64.9351V4.5ZM72.2078 4.5H73.2467V3.5H72.2078V4.5ZM79.4805 4.5H80V3.5H79.4805V4.5Z" fill="black"/>
</svg>
