<svg width="58" height="60" viewBox="0 0 58 60" fill="none" xmlns="http://www.w3.org/2000/svg">
<g clip-path="url(#clip0)">
<path d="M28.2967 34.4402C27.7187 34.1625 27.0284 34.4098 26.7539 34.9945L26.5616 35.4023C26.2871 35.9859 26.5315 36.6856 27.1095 36.9633C27.2705 37.0406 27.4396 37.077 27.6064 37.077C28.0395 37.077 28.4542 36.8309 28.6522 36.409L28.8445 36.0012C29.119 35.4176 28.8735 34.718 28.2967 34.4402Z" fill="black"/>
<path d="M15.32 27.6504C14.8683 27.1934 14.1351 27.1934 13.6822 27.6504C12.7221 28.6219 11.1596 28.6219 10.2006 27.6504C9.74893 27.1934 9.01577 27.1934 8.56291 27.6504C8.11004 28.1074 8.1112 28.8492 8.56291 29.3074C9.49412 30.2496 10.7184 30.7207 11.9414 30.7207C13.1645 30.7207 14.3888 30.2496 15.32 29.3074C15.7717 28.8504 15.7717 28.1086 15.32 27.6504Z" fill="black"/>
<path d="M54.3508 3.11245C50.2715 -1.01489 43.643 -1.02661 39.5464 3.07378C38.2677 2.43159 36.9103 1.88081 35.4799 1.4273C30.7844 -0.0609861 26.9438 -0.00590801 26.6114 0.00229512C20.3303 0.00698262 14.8508 2.673 12.3096 6.96323C11.9738 7.52925 11.6946 8.11636 11.4699 8.71987C10.2735 9.87417 4.87154 15.5226 4.87154 23.5312C4.87154 28.8656 2.33503 31.6511 0.823553 32.8371C0.258341 33.28 -0.0474296 33.9761 0.0058486 34.698C0.0579686 35.421 0.462188 36.0632 1.08531 36.4183C1.65516 36.7417 2.29565 37.0535 2.9153 37.3535C3.46314 37.6195 4.24147 37.9968 4.62136 38.2429V40.33C4.62136 40.616 4.56693 40.8949 4.46153 41.1585L4.17429 41.8734C3.78049 42.8519 3.92527 43.9734 4.54955 44.8171V45.0738C4.54955 45.8343 4.8808 46.5374 5.43096 47.0144V48.3902C5.43096 51.3374 7.80068 53.7363 10.7148 53.7363H14.1338C14.7732 53.7363 15.2921 53.2113 15.2921 52.5644C15.2921 51.9175 14.7732 51.3925 14.1338 51.3925H10.7148C9.0782 51.3925 7.74624 50.0449 7.74624 48.389V46.3675C7.74624 45.8976 7.46943 45.4746 7.0432 45.2894L6.9934 45.2683C6.9158 45.2343 6.86484 45.1581 6.86484 45.0726V44.4117C6.86484 44.1492 6.77797 43.8937 6.61698 43.6874L6.41313 43.4249C6.26604 43.2351 6.23013 42.9785 6.31932 42.7546L6.60655 42.0398C6.82546 41.4937 6.93665 40.9183 6.93665 40.3289V37.8351C6.93665 36.7066 5.80043 36.1546 3.91716 35.2406C3.4226 35.0003 2.91414 34.7542 2.46475 34.5105C4.32717 32.973 7.18798 29.6179 7.18798 23.5324C7.18798 19.1285 9.12569 15.4582 10.8063 13.1027C10.8978 15.1441 11.5081 17.2781 12.6374 19.4156C15.6094 25.0394 20.7843 27.396 24.9424 29.2898C28.8989 31.0921 31.1377 32.2265 31.1562 34.5843C31.169 36.3152 30.7752 37.5902 29.9864 38.3707C29.0749 39.2718 27.8657 39.2496 27.8576 39.2496C27.4696 39.2226 27.1048 39.3937 26.8685 39.7066C26.6322 40.0195 26.5778 40.432 26.7052 40.8046C26.7388 40.9042 27.5599 43.2574 29.4374 45.5496C31.784 48.4148 34.7467 49.9277 38.05 49.9617L41.1609 59.1914C41.3254 59.6789 41.7748 59.9847 42.2566 59.9847C42.3806 59.9847 42.5068 59.9648 42.6307 59.9214C43.2365 59.7128 43.5596 59.0472 43.3523 58.4343L40.2888 49.3453C46.0649 46.2128 50.1267 41.3554 52.0621 35.2359C53.606 30.3585 53.679 24.8859 52.3749 19.7015C53.0895 19.2621 53.752 18.7371 54.3496 18.1324C58.4428 13.9898 58.4428 7.25269 54.3508 3.11245ZM49.8569 34.5199C48.0396 40.2632 44.1387 44.7843 38.5677 47.6085C35.7509 47.7363 33.2943 46.5585 31.2628 44.1046C30.4439 43.1156 29.8509 42.0972 29.4629 41.3261C30.1231 41.1175 30.8829 40.7449 31.5651 40.0828C32.8472 38.8394 33.4889 36.9832 33.4704 34.5656C33.4402 30.5906 29.7733 28.9207 25.8921 27.1535C21.8545 25.3148 17.2784 23.23 14.6794 18.3105C13.0648 15.2542 12.6849 12.348 13.5455 9.80034C13.5489 9.79097 13.5524 9.78042 13.5559 9.77104C13.7447 9.21909 13.9902 8.68354 14.296 8.16792C16.4236 4.57612 21.148 2.34487 26.6264 2.34487C26.638 2.34487 26.6484 2.34487 26.66 2.34487C26.6959 2.3437 30.3455 2.25581 34.7884 3.66323C40.7011 5.53706 45.056 9.02925 47.7327 14.0414C51.1159 20.3765 51.9104 28.0312 49.8569 34.5199ZM51.6834 17.3589C51.1668 15.8355 50.5298 14.3507 49.77 12.9281C47.8694 9.36909 45.1232 6.44761 41.6787 4.27729C44.8893 1.55386 49.6959 1.71675 52.713 4.76948C55.9028 7.99683 55.9028 13.248 52.713 16.4742C52.3922 16.7988 52.0482 17.0941 51.6834 17.3589Z" fill="black"/>
<path d="M29.7027 54.8802L26.0752 48.5227L25.9524 44.1821C25.8493 40.547 23.0707 37.5833 19.4883 37.288C16.8534 37.0712 14.325 38.5489 13.1934 40.9653L13.1367 41.0872C11.6368 44.2899 12.7185 48.1653 15.6535 50.1013L19.2648 52.4825L23.2097 59.3966C23.424 59.7728 23.8131 59.9825 24.2139 59.9825C24.4108 59.9825 24.6088 59.9321 24.7918 59.8255C25.3455 59.502 25.5354 58.786 25.2158 58.2247L21.711 52.0829L23.1078 51.2673L24.5046 50.4516L27.7001 56.0509C28.0198 56.611 28.7275 56.8032 29.2823 56.4798C29.8336 56.1563 30.0224 55.4403 29.7027 54.8802ZM20.1647 50.2806L16.9171 48.1384C14.9481 46.8399 14.2219 44.2395 15.2284 42.0903L15.2852 41.9684C15.9604 40.527 17.414 39.6095 18.9741 39.6095C19.0818 39.6095 19.1907 39.6141 19.3007 39.6223C21.7052 39.8204 23.5688 41.8091 23.6383 44.2477L23.7494 48.1864L20.1647 50.2806Z" fill="black"/>
<path d="M31.4389 57.9996C31.2234 57.7816 30.9246 57.6562 30.62 57.6562C30.3142 57.6562 30.0166 57.7816 29.8011 57.9996C29.5857 58.2176 29.4618 58.5199 29.4618 58.8281C29.4618 59.1363 29.5857 59.4387 29.8011 59.6566C30.0166 59.8746 30.3142 60 30.62 60C30.9246 60 31.2234 59.8746 31.4389 59.6566C31.6543 59.4387 31.7782 59.1363 31.7782 58.8281C31.7782 58.5199 31.6531 58.2176 31.4389 57.9996Z" fill="black"/>
<path d="M21.9496 6.86723C21.6983 6.27192 21.0184 5.99653 20.43 6.25082C18.3881 7.13442 16.9148 8.6227 16.2824 10.4438C15.6489 12.2684 15.8863 14.3157 16.9704 16.3664C17.1789 16.7614 17.5785 16.9864 17.992 16.9864C18.1761 16.9864 18.3626 16.9418 18.5363 16.8481C19.1004 16.5434 19.3135 15.8332 19.0112 15.2625C18.2305 13.786 18.0475 12.4254 18.4657 11.2207C18.8803 10.0278 19.9007 9.02816 21.3381 8.4059C21.9276 8.15043 22.2009 7.46254 21.9496 6.86723Z" fill="black"/>
<path d="M24.7733 5.39062H24.7085C24.0691 5.39414 23.5537 5.92148 23.5572 6.56953C23.5607 7.21406 24.0784 7.73438 24.7154 7.73438C24.7177 7.73438 24.7201 7.73438 24.7224 7.73438H24.7733C25.4127 7.73438 25.9316 7.20938 25.9316 6.5625C25.9316 5.91562 25.4138 5.39062 24.7733 5.39062Z" fill="black"/>
</g>
<defs>
<clipPath id="clip0">
<rect x="0.00012207" width="57.42" height="60" fill="white"/>
</clipPath>
</defs>
</svg>
