<svg width="56" height="60" viewBox="0 0 56 60" fill="none" xmlns="http://www.w3.org/2000/svg">
<path d="M58.5304 57.6562H52.7677C53.383 57.0002 53.8927 56.2211 54.2553 55.3344C55.035 53.4296 55.0114 51.3409 54.1892 49.454C54.069 49.1779 53.9323 48.9129 53.7834 48.657C54.1022 48.5856 54.417 48.4771 54.7221 48.3315C56.2616 47.5964 57.2181 46.0752 57.2181 44.3623C57.2181 44.0212 57.0706 43.6976 56.8141 43.4751L47.8668 35.716L44.5031 25.6636C43.1011 21.4746 39.4291 18.5371 35.1381 18.0414C36.407 16.7152 37.1895 14.9153 37.1895 12.9341V11.3983C37.1895 9.12276 36.1588 7.08571 34.5428 5.73119C34.5428 5.72524 34.5437 5.71929 34.5437 5.71334V4.71725C34.5437 2.11624 32.438 0 29.85 0C27.262 0 25.1568 2.11624 25.1568 4.71725V5.71334C25.1568 5.71929 25.1573 5.72524 25.1577 5.73119C23.5412 7.08571 22.5105 9.12276 22.5105 11.3983V12.9341C22.5105 14.9153 23.293 16.7152 24.5624 18.0414C20.2709 18.5367 16.5989 21.4741 15.1974 25.6636L11.8337 35.716L2.88636 43.4751C2.62947 43.6976 2.4819 44.0212 2.4819 44.3623C2.4819 46.0752 3.43839 47.5964 4.97835 48.3315C5.28352 48.4775 5.59826 48.5856 5.91663 48.6574C5.76769 48.9129 5.63105 49.1779 5.51081 49.454C4.68867 51.3413 4.66544 53.4296 5.44476 55.3348C5.80732 56.2211 6.317 57.0002 6.93234 57.6562H1.16603C0.521989 57.6562 1.52588e-05 58.1812 1.52588e-05 58.828C1.52588e-05 59.4753 0.521989 59.9999 1.16603 59.9999H58.5304C59.1744 59.9999 59.6964 59.4753 59.6964 58.828C59.6964 58.1812 59.1744 57.6562 58.5304 57.6562ZM38.7454 35.9165L39.2128 37.0371C39.9702 38.854 41.1736 40.4717 42.693 41.7164L44.9363 43.5534L38.7454 41.2453V35.9165ZM29.85 2.34375C31.0479 2.34375 32.0377 3.24508 32.1893 4.4078C31.4542 4.15878 30.668 4.02145 29.85 4.02145C29.0324 4.02145 28.2463 4.15878 27.5112 4.4078C27.6624 3.24508 28.6526 2.34375 29.85 2.34375ZM24.8425 11.3983C24.8425 8.62334 27.0889 6.36565 29.85 6.36565C32.6111 6.36565 34.8575 8.62334 34.8575 11.3983V12.9341C34.8575 15.709 32.6111 17.9667 29.85 17.9667C27.0889 17.9667 24.8425 15.709 24.8425 12.9341V11.3983ZM4.8695 44.8512L13.5987 37.2811C13.7572 37.1438 13.8756 36.9662 13.9426 36.7671L17.4078 26.4106C18.6285 22.7618 22.0222 20.31 25.8528 20.31H33.8477C37.6778 20.31 41.0715 22.7618 42.2927 26.4106L45.7579 36.7671C45.8244 36.9662 45.9433 37.1438 46.1014 37.2811L54.831 44.8512C54.6925 45.4467 54.299 45.9388 53.721 46.2148C52.9918 46.5627 52.1824 46.4648 51.5566 45.9521L44.1665 39.8995C42.9426 38.8975 41.9734 37.5942 41.3635 36.1312L38.7454 29.853V26.7379C38.7454 26.0911 38.223 25.5661 37.5794 25.5661C36.9354 25.5661 36.4134 26.0911 36.4134 26.7379V40.8883H23.2821V30.1039C23.2821 30.1002 23.2821 30.0961 23.2821 30.092V26.7379C23.2821 26.0911 22.7601 25.5661 22.1161 25.5661C21.472 25.5661 20.95 26.0911 20.95 26.7379V29.8654L18.3365 36.1312C17.7266 37.5942 16.7574 38.8975 15.534 39.8995L8.14345 45.9521C7.51763 46.4648 6.70825 46.5632 5.97903 46.2148C5.40149 45.9388 5.00796 45.4467 4.8695 44.8512ZM20.95 41.2472L14.7642 43.5534L17.007 41.7164C18.5265 40.4717 19.7298 38.854 20.4873 37.0371L20.95 35.9284V41.2472ZM7.60143 54.4436C7.06489 53.1316 7.08083 51.6933 7.64698 50.3942C8.21314 49.0951 9.2539 48.1077 10.5771 47.6142L22.3301 43.232H37.3699L49.1234 47.6142C50.4466 48.1077 51.4869 49.0946 52.053 50.3942C52.6192 51.6933 52.6351 53.1316 52.0986 54.4436C51.3033 56.3872 49.4878 57.5861 47.527 57.6562H47.1918C46.6397 57.6397 46.0799 57.5344 45.532 57.3293L35.0438 53.4072H36.6006C37.0374 53.4072 37.4373 53.1623 37.6373 52.7718C37.8372 52.3818 37.8035 51.9121 37.5498 51.5551L36.3984 49.9328L45.0647 52.4409C45.1726 52.472 45.281 52.4871 45.3881 52.4871C45.8946 52.4871 46.361 52.1525 46.5081 51.6393C46.6862 51.0172 46.3291 50.3676 45.7101 50.1887L32.5651 46.3847C30.8817 45.6303 28.9445 45.4856 27.0926 46.0674L18.0569 48.9092C17.4424 49.1029 17.0999 49.7602 17.2921 50.3777C17.4848 50.9952 18.1388 51.3395 18.7533 51.1463L27.789 48.3045C29.0753 47.8998 30.4203 47.9969 31.5922 48.5151C31.6341 48.5375 31.6787 48.5572 31.7243 48.5751C32.5428 48.9637 33.2697 49.5615 33.8231 50.3406L34.336 51.0634H31.1335C30.9946 51.0634 30.8571 51.0886 30.7268 51.1371L14.168 57.3293C13.6214 57.5339 13.0626 57.6392 12.5115 57.6562H12.1708C10.2109 57.5852 8.39669 56.3863 7.60143 54.4436ZM29.85 53.9661L39.7183 57.6562H19.9817L29.85 53.9661Z" fill="black"/>
</svg>
