<svg width="58" height="40" viewBox="0 0 58 40" fill="none" xmlns="http://www.w3.org/2000/svg">
<path d="M38.4509 40C35.1251 39.9781 31.8392 39.432 28.6853 38.3773L28.6251 38.357L28.565 38.3773C25.4103 39.4305 22.1251 39.9758 18.7993 39.9961C14.9017 39.9961 11.4431 39.1602 8.51965 37.5102C4.77746 35.3984 1.9298 31.9484 0.055585 27.2563C-0.0272275 27.0477 -0.0155087 26.8141 0.0883975 26.6148C0.191523 26.4148 0.376679 26.2711 0.595429 26.2203C3.21262 25.6898 5.89934 25.4203 8.5759 25.4203C8.88527 25.4203 9.19933 25.4242 9.50949 25.4312L9.79465 25.4375L9.68996 25.1719C7.97355 20.8172 7.6259 15.5617 8.65715 9.55C8.66027 9.53281 8.66418 9.51484 8.66808 9.49766C8.75324 9.15234 9.06105 8.91094 9.41574 8.91094C9.47824 8.91094 9.53996 8.91875 9.60168 8.93359C13.0978 9.92266 16.3993 11.4625 19.4095 13.5086L19.6204 13.6523L19.6962 13.4086C21.0845 8.96016 23.929 4.52656 28.1525 0.230469C28.2978 0.0820313 28.4931 0 28.7017 0C28.8736 0 29.0368 0.0554687 29.1728 0.160937C33.2814 3.53047 36.4228 7.95234 38.254 12.9461L38.3353 13.168L38.5337 13.0398C41.3548 11.2234 44.4236 9.84219 47.654 8.93281C47.6657 8.92969 47.6837 8.92656 47.7009 8.92344C47.7446 8.91563 47.79 8.91172 47.8337 8.91172C48.2095 8.91172 48.5282 9.18047 48.5923 9.55156C49.6251 15.5703 49.2775 20.8266 47.5595 25.1734L47.4548 25.4391L47.74 25.4328C48.0493 25.4258 48.3634 25.4219 48.6736 25.4219C51.3493 25.4219 54.0361 25.6914 56.6595 26.2234C56.8736 26.2734 57.0587 26.418 57.1618 26.618C57.2657 26.818 57.2775 27.0523 57.1946 27.2602C55.3204 31.9523 52.4728 35.4023 48.7306 37.5141C45.8071 39.1633 42.3486 40 38.4509 40ZM17.2892 38.4523L17.4712 38.4625C17.8564 38.4781 18.2478 38.4859 18.6337 38.4859C21.615 38.4859 24.5681 38.032 27.4118 37.1375L27.6134 37.0742L27.5282 36.8805C25.5353 32.3508 20.6509 26.9508 8.69543 26.9508C5.77512 26.9508 3.30402 27.2977 2.09074 27.5039L1.84855 27.5453L1.95012 27.7688C4.96184 34.4141 10.122 38.0062 17.29 38.4492V38.4523H17.2892ZM48.5564 26.9508C36.5993 26.9508 31.715 32.3492 29.7228 36.8773L29.6376 37.0711L29.8392 37.1344C32.6853 38.0289 35.6415 38.4828 38.6251 38.4828C38.9431 38.4828 39.2642 38.4773 39.5829 38.4672V38.4711L39.7829 38.4633C47.0423 38.0664 52.265 34.4688 55.3064 27.7695L55.4079 27.5461L55.1657 27.5047C53.6798 27.2516 51.3282 26.9508 48.5564 26.9508ZM47.0017 10.7352C43.9212 11.7391 41.0071 13.1813 38.3407 15.0211C33.5907 18.3633 30.5923 22.5555 29.4282 27.4828L29.4189 27.5242L29.4275 27.5656C29.7907 29.2852 29.954 31.0477 29.9126 32.8047L29.8986 33.3969L30.2532 32.9219C31.5892 31.1344 33.247 29.6617 35.1798 28.5461L35.2017 28.5336L35.2196 28.5156C35.3173 28.418 35.44 28.3484 35.5743 28.3164L35.5962 28.3109L35.6165 28.3008C38.7415 26.6828 42.1071 25.7523 45.6204 25.5367L45.7345 25.5297L45.7814 25.4258C47.5782 21.4461 48.072 16.5555 47.2493 10.8891L47.2173 10.6664L47.0017 10.7352ZM10.004 10.8984C9.18058 16.5594 9.67355 21.4445 11.4689 25.4195L11.515 25.5211L11.6267 25.5297C14.7118 25.7773 17.4954 26.4234 19.8993 27.45C22.8454 28.7078 25.2337 30.5469 26.9978 32.9148L27.3532 33.3914L27.3392 32.7969C27.2978 31.0398 27.4611 29.2773 27.8251 27.5578L27.8345 27.5148L27.8236 27.4727C26.6095 22.6242 23.6861 18.3742 19.5923 15.507C16.7493 13.4281 13.6056 11.8188 10.2532 10.7281L10.0056 10.6477V10.8984H10.004ZM28.6306 1.94297C24.7243 6.06641 22.1486 10.2914 20.9759 14.5L20.9415 14.6242L21.0446 14.7016C24.3454 17.1867 26.9064 20.5266 28.4493 24.3602L28.6243 24.7945L28.8001 24.3609C30.4673 20.2531 33.2657 16.7328 36.8915 14.182L37.0032 14.1031L36.9634 13.9719C35.1321 7.93125 30.7095 3.53828 28.8931 1.93047L28.7564 1.80937L28.6306 1.94297Z" fill="black"/>
</svg>
