<svg width="147" height="11" viewBox="0 0 147 11" fill="none" xmlns="http://www.w3.org/2000/svg">
<path fill-rule="evenodd" clip-rule="evenodd" d="M2.67761 9.37098C2.74091 9.27135 2.98258 9.36316 3.11493 9.33972C3.05355 9.43935 2.80996 9.34558 2.67761 9.37098Z" fill="white"/>
<path fill-rule="evenodd" clip-rule="evenodd" d="M3.75938 8.24382C3.79775 8.15982 3.95311 8.13051 4.02216 8.20865C4.0164 8.32977 3.81309 8.30633 3.75938 8.24382Z" fill="white"/>
<path fill-rule="evenodd" clip-rule="evenodd" d="M19.591 8.03479C19.3436 8.02698 19.0961 8.02112 18.8487 8.0133C18.9523 7.91563 19.5085 7.85702 19.591 8.03479Z" fill="white"/>
<path fill-rule="evenodd" clip-rule="evenodd" d="M34.0512 8.40985C34.1203 8.20864 34.3984 8.23403 34.6688 8.24966C34.5979 8.44892 34.3197 8.42547 34.0512 8.40985Z" fill="white"/>
<path fill-rule="evenodd" clip-rule="evenodd" d="M21.0372 7.89803C21.1523 7.89412 21.1715 7.82966 21.3882 7.86287C21.1082 8.01915 20.3621 7.92147 21.0372 7.89803Z" fill="white"/>
<path fill-rule="evenodd" clip-rule="evenodd" d="M6.66714 7.39404C6.68057 7.1772 6.93759 7.22604 7.15241 7.22995C7.08528 7.38623 6.87813 7.39209 6.66714 7.39404Z" fill="white"/>
<path fill-rule="evenodd" clip-rule="evenodd" d="M8.20159 7.25926C8.18433 7.31982 7.75277 7.32373 7.5437 7.32959C7.62234 7.15378 7.99061 7.29247 8.20159 7.25926Z" fill="white"/>
<path fill-rule="evenodd" clip-rule="evenodd" d="M33.1056 7.84726C32.816 7.91563 32.4439 7.89805 32.183 7.99768C32.0718 7.99768 32.1312 7.96252 32.1408 7.90782C32.394 7.76912 32.8294 7.82577 33.1938 7.80428C33.4394 7.80233 33.2437 7.88633 33.1056 7.84726Z" fill="white"/>
<path fill-rule="evenodd" clip-rule="evenodd" d="M8.51616 5.35453C8.85374 5.39165 9.53273 5.32914 9.65165 5.43267C9.25461 5.33109 8.75783 5.59091 8.51616 5.35453Z" fill="white"/>
<path fill-rule="evenodd" clip-rule="evenodd" d="M7.86018 5.37996C7.88128 5.28229 8.09227 5.35066 8.12104 5.38778C8.10186 5.48545 7.88895 5.41513 7.86018 5.37996Z" fill="white"/>
<path fill-rule="evenodd" clip-rule="evenodd" d="M0.657898 0.273521C0.719276 0.160216 0.926425 0.271567 1.00698 0.283288C0.972459 0.322359 0.957114 0.380965 0.959032 0.459106C0.807506 0.447385 0.797916 0.298917 0.657898 0.273521Z" fill="white"/>
<path fill-rule="evenodd" clip-rule="evenodd" d="M31.7342 8.34344C32.3211 8.22428 33.1843 8.41768 33.353 8.30242C33.3051 8.33563 33.0615 8.40596 32.956 8.42354C32.6568 8.47042 31.9356 8.54075 31.7342 8.34344Z" fill="white"/>
<path fill-rule="evenodd" clip-rule="evenodd" d="M38.6335 9.37098C38.6948 9.27135 38.9384 9.36316 39.0708 9.33972C39.0075 9.43935 38.7639 9.34558 38.6335 9.37098Z" fill="white"/>
<path fill-rule="evenodd" clip-rule="evenodd" d="M39.7133 8.24382C39.7536 8.15982 39.9071 8.13051 39.9761 8.20865C39.9723 8.32977 39.769 8.30633 39.7133 8.24382Z" fill="white"/>
<path fill-rule="evenodd" clip-rule="evenodd" d="M55.545 8.03479C55.2975 8.02698 55.0501 8.02112 54.8027 8.0133C54.9082 7.91563 55.4625 7.85702 55.545 8.03479Z" fill="white"/>
<path fill-rule="evenodd" clip-rule="evenodd" d="M70.0052 8.40985C70.0742 8.20864 70.3524 8.23403 70.6228 8.24966C70.5537 8.44892 70.2756 8.42547 70.0052 8.40985Z" fill="white"/>
<path fill-rule="evenodd" clip-rule="evenodd" d="M56.9911 7.89803C57.1062 7.89412 57.1254 7.82966 57.3421 7.86287C57.0621 8.01915 56.316 7.92147 56.9911 7.89803Z" fill="white"/>
<path fill-rule="evenodd" clip-rule="evenodd" d="M42.623 7.39404C42.6364 7.1772 42.8935 7.22604 43.1083 7.22995C43.0412 7.38623 42.834 7.39209 42.623 7.39404Z" fill="white"/>
<path fill-rule="evenodd" clip-rule="evenodd" d="M44.1555 7.25926C44.1382 7.31982 43.7048 7.32373 43.4976 7.32959C43.5763 7.15378 43.9464 7.29247 44.1555 7.25926Z" fill="white"/>
<path fill-rule="evenodd" clip-rule="evenodd" d="M69.0596 7.84726C68.7699 7.91563 68.3978 7.89805 68.137 7.99768C68.0238 7.99768 68.0852 7.96252 68.0948 7.90782C68.348 7.76912 68.7834 7.82577 69.1478 7.80428C69.3933 7.80233 69.1977 7.88633 69.0596 7.84726Z" fill="white"/>
<path fill-rule="evenodd" clip-rule="evenodd" d="M44.472 5.35453C44.8096 5.39165 45.4886 5.32914 45.6056 5.43267C45.2086 5.33109 44.7137 5.59091 44.472 5.35453Z" fill="white"/>
<path fill-rule="evenodd" clip-rule="evenodd" d="M43.816 5.37996C43.8371 5.28229 44.0481 5.35066 44.0769 5.38778C44.0558 5.48545 43.8448 5.41513 43.816 5.37996Z" fill="white"/>
<path fill-rule="evenodd" clip-rule="evenodd" d="M36.6137 0.273521C36.6751 0.160216 36.8823 0.271567 36.9628 0.283288C36.9283 0.322359 36.9129 0.380965 36.9149 0.459106C36.7633 0.447385 36.7518 0.298917 36.6137 0.273521Z" fill="white"/>
<path fill-rule="evenodd" clip-rule="evenodd" d="M67.69 8.34344C68.277 8.22428 69.1401 8.41768 69.3089 8.30242C69.2609 8.33563 69.0173 8.40596 68.9118 8.42354C68.6126 8.47042 67.8914 8.54075 67.69 8.34344Z" fill="white"/>
<path fill-rule="evenodd" clip-rule="evenodd" d="M74.338 9.37098C74.3994 9.27135 74.643 9.36316 74.7754 9.33972C74.7121 9.43935 74.4704 9.34558 74.338 9.37098Z" fill="white"/>
<path fill-rule="evenodd" clip-rule="evenodd" d="M75.4179 8.24382C75.4582 8.15982 75.6116 8.13051 75.6807 8.20865C75.6768 8.32977 75.4716 8.30633 75.4179 8.24382Z" fill="white"/>
<path fill-rule="evenodd" clip-rule="evenodd" d="M91.2495 8.03479C91.0021 8.02698 90.7547 8.02112 90.5073 8.0133C90.6127 7.91563 91.167 7.85702 91.2495 8.03479Z" fill="white"/>
<path fill-rule="evenodd" clip-rule="evenodd" d="M105.71 8.40985C105.779 8.20864 106.057 8.23403 106.327 8.24966C106.258 8.44892 105.98 8.42547 105.71 8.40985Z" fill="white"/>
<path fill-rule="evenodd" clip-rule="evenodd" d="M92.6957 7.89803C92.8108 7.89412 92.83 7.82966 93.0468 7.86287C92.7686 8.01915 92.0206 7.92147 92.6957 7.89803Z" fill="white"/>
<path fill-rule="evenodd" clip-rule="evenodd" d="M78.3276 7.39404C78.341 7.1772 78.598 7.22604 78.8129 7.22995C78.7457 7.38623 78.5386 7.39209 78.3276 7.39404Z" fill="white"/>
<path fill-rule="evenodd" clip-rule="evenodd" d="M79.8601 7.25926C79.8429 7.31982 79.4113 7.32373 79.2022 7.32959C79.2809 7.15378 79.6511 7.29247 79.8601 7.25926Z" fill="white"/>
<path fill-rule="evenodd" clip-rule="evenodd" d="M104.764 7.84726C104.476 7.91563 104.102 7.89805 103.842 7.99768C103.728 7.99768 103.79 7.96252 103.799 7.90782C104.053 7.76912 104.488 7.82577 104.852 7.80428C105.098 7.80233 104.902 7.88633 104.764 7.84726Z" fill="white"/>
<path fill-rule="evenodd" clip-rule="evenodd" d="M80.1766 5.35453C80.5142 5.39165 81.1932 5.32914 81.3121 5.43267C80.9131 5.33109 80.4183 5.59091 80.1766 5.35453Z" fill="white"/>
<path fill-rule="evenodd" clip-rule="evenodd" d="M79.5206 5.37996C79.5417 5.28229 79.7527 5.35066 79.7815 5.38778C79.7623 5.48545 79.5494 5.41513 79.5206 5.37996Z" fill="white"/>
<path fill-rule="evenodd" clip-rule="evenodd" d="M72.3183 0.273521C72.3797 0.160216 72.5868 0.271567 72.6674 0.283288C72.6329 0.322359 72.6175 0.380965 72.6194 0.459106C72.4679 0.447385 72.4564 0.298917 72.3183 0.273521Z" fill="white"/>
<path fill-rule="evenodd" clip-rule="evenodd" d="M103.395 8.34344C103.982 8.22428 104.845 8.41768 105.013 8.30242C104.966 8.33563 104.722 8.40596 104.616 8.42354C104.317 8.47042 103.596 8.54075 103.395 8.34344Z" fill="white"/>
<path fill-rule="evenodd" clip-rule="evenodd" d="M4.0164 9.94335C4.44029 9.30455 4.71266 8.76734 5.2056 8.06407C5.18066 7.88045 5.35712 8.11487 5.42617 7.98203C5.44535 7.87654 5.2267 8.00156 5.29958 7.84528C5.69662 7.38816 6.09749 6.93299 6.55974 6.5462C6.55207 6.46806 6.48686 6.44266 6.38712 6.45243C6.65373 6.01094 7.25408 5.63391 7.256 5.0967C7.25792 4.67474 6.39671 3.74683 6.16654 3.37371C5.74841 2.68998 5.51057 2.059 5.16724 1.60774C5.1634 1.51006 5.20752 1.46708 5.30342 1.4788C4.75294 1.28736 4.68964 0.625122 4.33096 0.248096C5.48755 0.15042 6.93376 0.367259 8.09035 0.26763C9.18556 1.85583 9.75714 3.94608 11.0979 5.29791C9.92593 6.90369 8.75975 8.51924 7.4689 10C6.29505 9.95702 5.14038 9.93163 4.0164 9.94335Z" fill="#74BFD5"/>
<path fill-rule="evenodd" clip-rule="evenodd" d="M15.8642 9.92966C15.8067 9.79487 15.9755 9.70696 16.0484 9.62296C16.8885 8.65793 17.836 7.57178 18.6262 6.49149C18.7873 6.4661 18.9465 6.43875 19.1518 6.46219C19.1077 6.36061 18.8775 6.43679 18.7605 6.40554C19.0712 6.05391 19.4337 5.75697 19.7502 5.4112C19.4683 4.88962 19.0137 4.52431 18.607 4.08673C17.4735 2.86578 16.1596 1.62531 15.0376 0.466879C16.735 0.494227 18.4479 0.537205 20.0648 0.4786C21.2751 2.04336 22.1574 3.92068 23.5134 5.34478C22.1708 6.70638 21.229 8.5036 19.8883 9.8691C18.5322 9.87301 17.2433 9.9492 15.8642 9.92966Z" fill="#74BFD5"/>
<path fill-rule="evenodd" clip-rule="evenodd" d="M73.8931 8.02306C73.7435 8.42157 73.3599 8.7732 73.0319 9.11116C72.7173 9.43349 72.4277 9.92187 71.9156 9.96875C71.8177 9.75777 72.0095 9.62493 72.1457 9.53116C72.0134 9.4667 71.8906 9.80466 71.6585 9.78317C71.8235 9.24205 72.3203 8.92362 72.654 8.5212C73.6361 7.33933 74.7639 6.22583 75.7689 5.00489C74.4627 3.38934 73.0913 1.8363 71.9731 0.0429831C72.1707 0.123076 72.4373 -0.0507851 72.6732 0.0175877C73.0089 0.115263 73.4922 0.957224 73.732 1.25025C74.7447 2.49073 75.8131 3.91288 76.8642 4.94628C75.8514 5.93281 74.9192 7.19282 73.8931 8.02306Z" fill="#74BFD5"/>
<path fill-rule="evenodd" clip-rule="evenodd" d="M111.381 9.94335C111.805 9.30455 112.078 8.76734 112.571 8.06407C112.546 7.88045 112.722 8.11487 112.791 7.98203C112.81 7.87654 112.592 8.00156 112.665 7.84528C113.062 7.38816 113.463 6.93299 113.925 6.5462C113.917 6.46806 113.852 6.44266 113.752 6.45243C114.019 6.01094 114.619 5.63391 114.621 5.0967C114.623 4.67474 113.762 3.74683 113.532 3.37371C113.113 2.68998 112.876 2.059 112.532 1.60774C112.528 1.51006 112.573 1.46708 112.668 1.4788C112.118 1.28736 112.055 0.625122 111.696 0.248096C112.853 0.15042 114.299 0.367259 115.455 0.26763C116.553 1.85583 117.122 3.94608 118.463 5.29791C117.289 6.90369 116.125 8.51924 114.834 10C113.66 9.95702 112.503 9.93163 111.381 9.94335Z" fill="#74BFD5"/>
<path fill-rule="evenodd" clip-rule="evenodd" d="M9.04362 10C8.76742 9.99219 8.49122 9.98437 8.21311 9.97656C8.15556 9.87888 8.35121 9.63469 8.49122 9.44911C9.38887 8.26724 10.4879 6.97206 11.3913 5.74917C11.3894 5.58898 11.5045 5.75698 11.6119 5.66517C11.5793 5.43661 11.5467 5.34675 11.539 5.17289C11.5639 5.03419 11.3395 5.13381 11.3261 5.03419C10.3575 3.56906 9.70535 1.80113 8.74441 0.330142C8.86524 0.230514 9.16638 0.326236 9.35626 0.302794C10.3748 1.93592 11.4182 3.54171 12.546 5.0713C12.4424 5.30963 12.5287 5.48349 12.6611 5.60852C11.4719 7.08928 10.3441 8.63841 9.04362 10Z" fill="#EFA424"/>
<path fill-rule="evenodd" clip-rule="evenodd" d="M10.0928 9.98633C10.0334 9.82223 10.3422 9.65423 10.5014 9.46279C11.282 8.52706 12.0243 7.44482 12.8586 6.50323C13.1828 6.13597 13.599 5.79215 13.7218 5.32526C12.5498 3.63939 11.1075 1.98281 10.1024 0.277401C10.5647 0.259819 10.931 0.324286 11.3683 0.359448C11.9898 0.406333 12.7436 0.224656 13.2902 0.414146C13.6009 0.521589 14.1111 1.32253 14.3912 1.64876C15.4538 2.88338 16.618 4.12776 17.6576 5.2608C16.4032 6.89002 14.8995 8.24771 13.7218 9.95703C12.4654 9.916 11.2667 9.93749 10.0928 9.98633Z" fill="#EFA424"/>
<path fill-rule="evenodd" clip-rule="evenodd" d="M4.00873 8.6521C3.59443 9.11899 3.22425 9.4882 2.83872 9.91016C2.4647 9.87695 2.00437 9.93164 1.70323 9.83202C2.16932 9.40029 2.55868 8.89043 3.00943 8.44503C3.26261 8.51926 3.49853 8.60912 3.74596 8.68921C3.81309 8.49582 3.27604 8.50754 3.14369 8.35907C3.10725 8.24186 3.24727 8.10512 3.32782 8.00744C3.61361 7.66753 3.94927 7.30809 4.27534 6.92324C4.71074 6.40947 5.641 5.72184 5.42618 4.86425C5.33411 4.49699 4.92365 4.17661 4.67046 3.77419C4.40769 3.35614 4.23315 2.92246 4.00298 2.59623C3.26453 1.80701 2.65267 0.894722 1.88545 0.130901C2.0926 0.0351791 2.48196 0.132854 2.76008 0.113319C3.19548 0.834164 3.99147 1.30301 4.45756 1.98673C4.8335 2.53958 5.05215 3.16274 5.37055 3.70582C5.55469 4.02033 5.84815 4.50676 6.16846 4.88769C6.55399 5.34286 6.50604 5.17486 6.09941 5.77654C5.42234 6.78064 4.75102 7.82186 4.00873 8.6521Z" fill="#EFA424"/>
<path fill-rule="evenodd" clip-rule="evenodd" d="M44.9976 10C44.7214 9.99219 44.4432 9.98437 44.167 9.97656C44.1114 9.87888 44.3051 9.63469 44.4452 9.44911C45.3428 8.26724 46.4399 6.97206 47.3453 5.74917C47.3433 5.58898 47.4584 5.75698 47.5658 5.66517C47.5332 5.43661 47.5006 5.34675 47.4929 5.17289C47.5179 5.03419 47.2935 5.13381 47.28 5.03419C46.3133 3.56906 45.6593 1.80113 44.7003 0.330142C44.8211 0.230514 45.1222 0.326236 45.3121 0.302794C46.3325 1.93592 47.374 3.54171 48.5018 5.0713C48.3983 5.30963 48.4846 5.48349 48.6169 5.60852C47.4277 7.08928 46.2999 8.63841 44.9976 10Z" fill="#EFA424"/>
<path fill-rule="evenodd" clip-rule="evenodd" d="M46.0467 9.98633C45.9873 9.82223 46.2961 9.65423 46.4553 9.46279C47.2359 8.52706 47.9782 7.44482 48.8107 6.50323C49.1348 6.13597 49.551 5.79215 49.6738 5.32526C48.5019 3.63939 47.0595 1.98281 46.0544 0.277401C46.5167 0.259819 46.883 0.324286 47.3203 0.359448C47.9418 0.406333 48.6956 0.224656 49.2422 0.414146C49.553 0.521589 50.0632 1.32253 50.3432 1.64876C51.4058 2.88338 52.5701 4.12776 53.6096 5.2608C52.3572 6.89002 50.8534 8.24771 49.6776 9.95703C48.4194 9.916 47.2206 9.93749 46.0467 9.98633Z" fill="#EFA424"/>
<path fill-rule="evenodd" clip-rule="evenodd" d="M39.9646 8.6521C39.5503 9.11899 39.1801 9.4882 38.7946 9.91016C38.4206 9.87695 37.9602 9.93164 37.6591 9.83202C38.1252 9.40029 38.5145 8.89043 38.9653 8.44503C39.2166 8.51926 39.4544 8.60912 39.7018 8.68921C39.769 8.49582 39.2319 8.50754 39.0996 8.35907C39.0631 8.24186 39.2031 8.10512 39.2837 8.00744C39.5695 7.66753 39.9051 7.30809 40.2312 6.92324C40.6666 6.40947 41.5969 5.72184 41.382 4.86425C41.29 4.49699 40.8795 4.17661 40.6263 3.77419C40.3635 3.35614 40.189 2.92246 39.9588 2.59623C39.2204 1.80701 38.6066 0.894722 37.8413 0.130901C38.0485 0.0351791 38.4378 0.132854 38.7159 0.113319C39.1513 0.834164 39.9473 1.30301 40.4115 1.98673C40.7874 2.53958 41.0061 3.16274 41.3245 3.70582C41.5086 4.02033 41.8021 4.50676 42.1224 4.88769C42.5079 5.34286 42.46 5.17486 42.0534 5.77654C41.3763 6.78064 40.705 7.82186 39.9646 8.6521Z" fill="#EFA424"/>
<path fill-rule="evenodd" clip-rule="evenodd" d="M80.7022 10C80.426 9.99219 80.1498 9.98437 79.8717 9.97656C79.816 9.87888 80.0098 9.63469 80.1498 9.44911C81.0474 8.26724 82.1465 6.97206 83.0499 5.74917C83.0479 5.58898 83.163 5.75698 83.2704 5.66517C83.2378 5.43661 83.2052 5.34675 83.1976 5.17289C83.2225 5.03419 82.9981 5.13381 82.9847 5.03419C82.018 3.56906 81.3639 1.80113 80.4049 0.330142C80.5257 0.230514 80.8268 0.326236 81.0167 0.302794C82.0352 1.93592 83.0786 3.54171 84.2064 5.0713C84.1029 5.30963 84.1892 5.48349 84.3215 5.60852C83.1323 7.08928 82.0045 8.63841 80.7022 10Z" fill="#EFA424"/>
<path fill-rule="evenodd" clip-rule="evenodd" d="M81.7513 9.98633C81.6919 9.82223 82.0007 9.65423 82.1599 9.46279C82.9405 8.52706 83.6828 7.44482 84.5152 6.50323C84.8394 6.13597 85.2556 5.79215 85.3784 5.32526C84.2064 3.63939 82.7641 1.98281 81.759 0.277401C82.2212 0.259819 82.5876 0.324286 83.0249 0.359448C83.6464 0.406333 84.4002 0.224656 84.9468 0.414146C85.2575 0.521589 85.7677 1.32253 86.0478 1.64876C87.1104 2.88338 88.2746 4.12776 89.3142 5.2608C88.0598 6.88807 86.5561 8.24575 85.3784 9.95507C84.124 9.916 82.9252 9.93749 81.7513 9.98633Z" fill="#EFA424"/>
<path fill-rule="evenodd" clip-rule="evenodd" d="M75.6692 8.6521C75.253 9.11899 74.8847 9.4882 74.4972 9.91016C74.1232 9.87695 73.6629 9.93164 73.3618 9.83202C73.8278 9.40029 74.2172 8.89043 74.668 8.44503C74.9211 8.51926 75.1571 8.60912 75.4045 8.68921C75.4716 8.49582 74.9346 8.50754 74.8022 8.35907C74.7658 8.24186 74.9058 8.10512 74.9864 8.00744C75.2721 7.66753 75.6078 7.30809 75.9339 6.92324C76.3693 6.40947 77.2995 5.72184 77.0847 4.86425C76.9926 4.49699 76.5822 4.17661 76.329 3.77419C76.0662 3.35614 75.8917 2.92246 75.6615 2.59623C74.9231 1.80701 74.3112 0.894722 73.544 0.130901C73.7511 0.0351791 74.1405 0.132854 74.4186 0.113319C74.854 0.834164 75.65 1.30301 76.1142 1.98673C76.4901 2.53958 76.7088 3.16274 77.0272 3.70582C77.2113 4.02033 77.5048 4.50676 77.8251 4.88769C78.2106 5.34286 78.1627 5.17486 77.756 5.77654C77.0809 6.78064 76.4096 7.82186 75.6692 8.6521Z" fill="#EFA424"/>
<path fill-rule="evenodd" clip-rule="evenodd" d="M116.407 10C116.131 9.99219 115.852 9.98437 115.576 9.97656C115.519 9.87888 115.714 9.63469 115.854 9.44911C116.752 8.26724 117.851 6.97206 118.754 5.74917C118.753 5.58898 118.868 5.75698 118.975 5.66517C118.942 5.43661 118.91 5.34675 118.902 5.17289C118.927 5.03419 118.703 5.13381 118.689 5.03419C117.721 3.56906 117.068 1.80113 116.109 0.330142C116.23 0.230514 116.531 0.326236 116.721 0.302794C117.742 1.93592 118.783 3.54171 119.911 5.0713C119.807 5.30963 119.894 5.48349 120.028 5.60852C118.837 7.08928 117.709 8.63841 116.407 10Z" fill="#EFA424"/>
<path fill-rule="evenodd" clip-rule="evenodd" d="M117.458 9.98633C117.398 9.82223 117.707 9.65423 117.866 9.46279C118.647 8.52706 119.389 7.44482 120.224 6.50323C120.548 6.13597 120.964 5.79215 121.087 5.32526C119.915 3.63939 118.473 1.98281 117.467 0.277401C117.932 0.259819 118.296 0.324286 118.733 0.359448C119.355 0.406333 120.109 0.224656 120.655 0.414146C120.966 0.521589 121.476 1.32253 121.756 1.64876C122.819 2.88338 123.983 4.12776 125.023 5.2608C123.768 6.88807 122.265 8.24575 121.087 9.95507C119.83 9.916 118.63 9.93749 117.458 9.98633Z" fill="#EFA424"/>
<path fill-rule="evenodd" clip-rule="evenodd" d="M111.374 8.6521C110.958 9.11899 110.589 9.4882 110.204 9.91016C109.83 9.87695 109.369 9.93164 109.068 9.83202C109.534 9.40029 109.924 8.89043 110.374 8.44503C110.628 8.51926 110.864 8.60912 111.111 8.68921C111.178 8.49582 110.641 8.50754 110.509 8.35907C110.472 8.24186 110.612 8.10512 110.693 8.00744C110.979 7.66753 111.314 7.30809 111.64 6.92324C112.076 6.40947 113.006 5.72184 112.791 4.86425C112.699 4.49699 112.289 4.17661 112.035 3.77419C111.773 3.35614 111.598 2.92246 111.368 2.59623C110.63 1.80701 110.016 0.894722 109.25 0.130901C109.458 0.0351791 109.847 0.132854 110.125 0.113319C110.56 0.834164 111.356 1.30301 111.823 1.98673C112.199 2.53958 112.417 3.16274 112.736 3.70582C112.92 4.02033 113.213 4.50676 113.533 4.88769C113.919 5.34286 113.871 5.17486 113.464 5.77654C112.785 6.78064 112.114 7.82186 111.374 8.6521Z" fill="#EFA424"/>
<path fill-rule="evenodd" clip-rule="evenodd" d="M26.7147 9.70898C26.4672 9.70312 26.2179 9.69531 25.9724 9.68945C25.9551 9.47456 26.1949 9.36712 26.3368 9.21084C27.3668 8.06999 28.5579 6.78459 29.4997 5.51676C28.3719 3.91879 27.5529 2.01998 26.4519 0.39662C26.6015 0.298944 26.9333 0.394667 27.152 0.373178C28.2223 2.15673 29.3616 3.87581 30.5047 5.59099C29.1544 6.87249 27.9806 8.34153 26.7147 9.70898Z" fill="#984217"/>
<path fill-rule="evenodd" clip-rule="evenodd" d="M37.3752 6.85876C36.934 7.27877 36.6559 7.8824 36.1016 8.28482C35.6029 8.64622 35.2979 9.26939 34.759 9.55656C33.8786 10.0274 31.506 9.48818 30.2573 9.68158C30.1729 9.55851 30.4376 9.40418 30.5757 9.24595C31.2547 8.46064 31.8416 7.50928 32.5724 6.63216C32.7987 6.36062 33.3128 5.88982 33.3454 5.58703C33.3876 5.16898 32.8198 4.57316 32.5513 4.22934C32.2176 3.79567 31.9203 3.32878 31.669 2.95761C31.0495 2.04142 30.4414 1.21313 29.9926 0.416099C30.9152 0.564566 33.704 0.281307 34.5729 0.375075C34.7187 0.457123 34.7494 0.673962 34.9124 0.783359C35.1215 0.925964 35.5166 0.910336 35.6892 1.11936C36.913 2.60012 36.9762 3.12757 38.3668 4.26451C38.4205 4.32507 38.4186 4.43056 38.3611 4.48721C38.5836 4.47549 38.6776 4.58684 38.7926 4.67865C38.6871 5.5714 37.9257 6.33327 37.3752 6.85876Z" fill="#984217"/>
<path fill-rule="evenodd" clip-rule="evenodd" d="M2.23453 8.02306C2.08684 8.42157 1.70131 8.7732 1.37333 9.11116C1.05877 9.43349 0.76914 9.91991 0.257019 9.96875C0.159199 9.75777 0.351004 9.62493 0.487186 9.53116C0.35484 9.46475 0.230167 9.8027 0 9.78317C0.164953 9.24205 0.661729 8.92362 0.997388 8.5212C1.97943 7.33933 3.10725 6.22583 4.11231 5.00489C2.80611 3.38934 1.4347 1.8363 0.316479 0.0429831C0.514039 0.123076 0.780648 -0.0507851 1.01657 0.0175877C1.35223 0.115263 1.83558 0.957224 2.07534 1.25025C3.08807 2.49073 4.15642 3.91288 5.20752 4.94628C4.19095 5.93281 3.25877 7.19282 2.23453 8.02306Z" fill="#984217"/>
<path fill-rule="evenodd" clip-rule="evenodd" d="M62.6686 9.70898C62.4193 9.70312 62.1718 9.69531 61.9263 9.68945C61.909 9.47456 62.1469 9.36712 62.2888 9.21084C63.3188 8.06999 64.5099 6.78459 65.4517 5.51676C64.3239 3.91879 63.5049 2.01998 62.4039 0.39662C62.5516 0.298944 62.8853 0.394667 63.104 0.373178C64.1724 2.15673 65.3136 3.87581 66.4548 5.59099C65.1084 6.87249 63.9345 8.34153 62.6686 9.70898Z" fill="#984217"/>
<path fill-rule="evenodd" clip-rule="evenodd" d="M73.3292 6.85876C72.888 7.27877 72.6099 7.8824 72.0556 8.28482C71.5569 8.64622 71.2519 9.26939 70.7129 9.55656C69.8345 10.0274 67.4599 9.48818 66.2113 9.68158C66.1269 9.55851 66.3915 9.40418 66.5296 9.24595C67.2086 8.46064 67.7956 7.50928 68.5264 6.63216C68.7546 6.36062 69.2667 5.88982 69.2974 5.58703C69.3396 5.16898 68.7719 4.57316 68.5053 4.22934C68.1715 3.79567 67.8742 3.32878 67.6229 2.95761C67.0034 2.04142 66.3954 1.21313 65.9466 0.416099C66.8692 0.564566 69.658 0.281307 70.5269 0.375075C70.6727 0.457123 70.7034 0.673962 70.8664 0.783359C71.0755 0.925964 71.4706 0.910336 71.6432 1.11936C72.8688 2.60012 72.9302 3.12757 74.3189 4.26451C74.3745 4.32507 74.3707 4.43056 74.3131 4.48721C74.5356 4.47549 74.6296 4.58684 74.7447 4.67865C74.6411 5.5714 73.8797 6.33327 73.3292 6.85876Z" fill="#984217"/>
<path fill-rule="evenodd" clip-rule="evenodd" d="M39.9722 9.94335C40.3961 9.30455 40.6685 8.76734 41.1614 8.06407C41.1365 7.88045 41.313 8.11487 41.382 7.98203C41.4012 7.87654 41.1825 8.00156 41.2554 7.84528C41.6525 7.38816 42.0533 6.93299 42.5156 6.5462C42.5079 6.46806 42.4427 6.44266 42.343 6.45243C42.6096 6.01094 43.2099 5.63391 43.2118 5.0967C43.2138 4.67474 42.3525 3.74683 42.1224 3.37371C41.7023 2.68998 41.4664 2.059 41.1231 1.60774C41.1173 1.51006 41.1633 1.46708 41.2573 1.4788C40.7068 1.28736 40.6436 0.625122 40.2849 0.248096C41.4415 0.15042 42.8877 0.367259 44.0443 0.26763C45.1395 1.85583 45.7111 3.94608 47.0518 5.29791C45.8799 6.90369 44.7156 8.51924 43.4228 10C42.2509 9.95702 41.0943 9.93163 39.9722 9.94335Z" fill="#984217"/>
<path fill-rule="evenodd" clip-rule="evenodd" d="M51.8201 9.92966C51.7626 9.79487 51.9294 9.70696 52.0042 9.62296C52.8443 8.65793 53.7938 7.57178 54.5821 6.49149C54.7432 6.4661 54.9024 6.43875 55.1096 6.46219C55.0654 6.36061 54.8353 6.43679 54.7163 6.40554C55.0271 6.05391 55.3896 5.75697 55.7061 5.4112C55.4241 4.88962 54.9695 4.52431 54.5648 4.08673C53.4293 2.86383 52.1155 1.62335 50.9934 0.466879C52.6909 0.494227 54.4037 0.537205 56.0206 0.4786C57.2309 2.04336 58.1132 3.92068 59.4693 5.34478C58.1266 6.70638 57.1849 8.5036 55.8442 9.8691C54.4862 9.87301 53.1973 9.9492 51.8201 9.92966Z" fill="#984217"/>
<path fill-rule="evenodd" clip-rule="evenodd" d="M38.1885 8.02306C38.0388 8.42157 37.6552 8.7732 37.3272 9.11116C37.0127 9.43349 36.7231 9.92187 36.2109 9.96875C36.1112 9.75777 36.3049 9.62493 36.4411 9.53116C36.3088 9.4667 36.186 9.80466 35.9539 9.78317C36.1189 9.24205 36.6156 8.92362 36.9513 8.5212C37.9333 7.33933 39.0612 6.22583 40.0643 5.00489C38.7581 3.38934 37.3867 1.8363 36.2685 0.0429831C36.466 0.123076 36.7327 -0.0507851 36.9686 0.0175877C37.3042 0.115263 37.7876 0.957224 38.0273 1.25025C39.0401 2.49073 40.1084 3.91288 41.1576 4.94628C40.1449 5.93281 39.2146 7.19282 38.1885 8.02306Z" fill="#984217"/>
<path fill-rule="evenodd" clip-rule="evenodd" d="M98.3732 9.70898C98.1239 9.70312 97.8764 9.69531 97.6309 9.68945C97.6137 9.47456 97.8534 9.36712 97.9934 9.21084C99.0234 8.06999 100.215 6.78459 101.156 5.51676C100.028 3.91879 99.2095 2.01998 98.1085 0.39662C98.2562 0.298944 98.588 0.394667 98.8086 0.373178C99.877 2.15673 101.018 3.87581 102.159 5.59099C100.813 6.87249 99.6391 8.34153 98.3732 9.70898Z" fill="#984217"/>
<path fill-rule="evenodd" clip-rule="evenodd" d="M109.034 6.85876C108.593 7.27877 108.314 7.8824 107.76 8.28482C107.261 8.64622 106.956 9.26939 106.418 9.55656C105.539 10.0274 103.164 9.48818 101.916 9.68158C101.831 9.55851 102.096 9.40418 102.234 9.24595C102.913 8.46064 103.5 7.50928 104.231 6.63216C104.459 6.36062 104.971 5.88982 105.002 5.58703C105.044 5.16898 104.476 4.57316 104.21 4.22934C103.876 3.79567 103.579 3.32878 103.328 2.95761C102.708 2.04142 102.1 1.21313 101.651 0.416099C102.574 0.564566 105.363 0.281307 106.231 0.375075C106.377 0.457123 106.408 0.673962 106.571 0.783359C106.78 0.925964 107.175 0.910336 107.348 1.11936C108.573 2.60012 108.635 3.12757 110.025 4.26451C110.079 4.32507 110.077 4.43056 110.02 4.48721C110.242 4.47549 110.336 4.58684 110.451 4.67865C110.346 5.5714 109.584 6.33327 109.034 6.85876Z" fill="#984217"/>
<path fill-rule="evenodd" clip-rule="evenodd" d="M75.6768 9.94335C76.1007 9.30455 76.3731 8.76734 76.866 8.06407C76.8411 7.88045 77.0195 8.11487 77.0866 7.98203C77.1058 7.87654 76.8871 8.00156 76.96 7.84528C77.3571 7.38816 77.7579 6.93299 78.2202 6.5462C78.2125 6.46806 78.1473 6.44266 78.0476 6.45243C78.3142 6.01094 78.9145 5.63391 78.9165 5.0967C78.9184 4.67474 78.0572 3.74683 77.827 3.37371C77.4069 2.68998 77.171 2.059 76.8258 1.60774C76.8219 1.51006 76.866 1.46708 76.962 1.4788C76.4115 1.28736 76.3482 0.625123 75.9895 0.248096C77.1461 0.150421 78.5923 0.36726 79.7489 0.267631C80.846 1.85583 81.4157 3.94608 82.7564 5.29791C81.5825 6.90565 80.4183 8.5212 79.1274 10.002C77.9555 9.95702 76.7989 9.93163 75.6768 9.94335Z" fill="#984217"/>
<path fill-rule="evenodd" clip-rule="evenodd" d="M87.5247 9.92966C87.4671 9.79487 87.634 9.70696 87.7088 9.62296C88.5489 8.65793 89.4984 7.57178 90.2867 6.49149C90.4478 6.4661 90.607 6.43875 90.8141 6.46219C90.77 6.36061 90.5399 6.43679 90.4209 6.40554C90.7317 6.05391 91.0942 5.75697 91.4107 5.4112C91.1287 4.88962 90.6741 4.52431 90.2675 4.08673C89.132 2.86383 87.8181 1.62335 86.6961 0.466879C88.3936 0.494227 90.1064 0.537205 91.7233 0.4786C92.9336 2.04336 93.8159 3.92068 95.172 5.34478C93.8293 6.70638 92.8876 8.5036 91.5468 9.8691C90.1927 9.87301 88.9018 9.9492 87.5247 9.92966Z" fill="#984217"/>
<path fill-rule="evenodd" clip-rule="evenodd" d="M134.078 9.70898C133.828 9.70312 133.581 9.69531 133.335 9.68945C133.318 9.47456 133.558 9.36712 133.7 9.21084C134.73 8.06999 135.921 6.78459 136.863 5.51676C135.735 3.91879 134.916 2.01998 133.815 0.39662C133.965 0.298944 134.296 0.394667 134.515 0.373178C135.585 2.15673 136.725 3.87581 137.868 5.59099C136.518 6.87249 135.344 8.34153 134.078 9.70898Z" fill="#984217"/>
<path fill-rule="evenodd" clip-rule="evenodd" d="M144.738 6.85876C144.297 7.27877 144.019 7.8824 143.465 8.28482C142.966 8.64622 142.661 9.26939 142.122 9.55656C141.244 10.0274 138.869 9.48818 137.62 9.68158C137.536 9.55851 137.801 9.40418 137.939 9.24595C138.618 8.46064 139.205 7.50928 139.936 6.63216C140.164 6.36062 140.676 5.88982 140.709 5.58703C140.751 5.16898 140.183 4.57316 139.916 4.22934C139.583 3.79567 139.285 3.32878 139.034 2.95761C138.415 2.04142 137.806 1.21313 137.358 0.416099C138.28 0.564566 141.069 0.281307 141.938 0.375075C142.084 0.457123 142.114 0.673962 142.277 0.783359C142.487 0.925964 142.882 0.910336 143.054 1.11936C144.28 2.60012 144.341 3.12757 145.73 4.26451C145.786 4.32507 145.782 4.43056 145.724 4.48721C145.947 4.47549 146.041 4.58684 146.156 4.67865C146.052 5.5714 145.289 6.33327 144.738 6.85876Z" fill="#984217"/>
<path fill-rule="evenodd" clip-rule="evenodd" d="M123.229 9.92966C123.172 9.79487 123.341 9.70696 123.413 9.62296C124.253 8.65793 125.203 7.57178 125.991 6.49149C126.152 6.4661 126.312 6.43875 126.517 6.46219C126.473 6.36061 126.243 6.43679 126.124 6.40554C126.434 6.05391 126.799 5.75697 127.113 5.4112C126.831 4.88962 126.377 4.52431 125.972 4.08673C124.837 2.86383 123.523 1.62335 122.401 0.466879C124.098 0.494227 125.811 0.537205 127.428 0.4786C128.638 2.04336 129.52 3.92068 130.877 5.34478C129.534 6.70638 128.592 8.5036 127.251 9.8691C125.897 9.87301 124.608 9.9492 123.229 9.92966Z" fill="#984217"/>
<path fill-rule="evenodd" clip-rule="evenodd" d="M109.6 8.02306C109.45 8.42157 109.066 8.7732 108.738 9.11116C108.424 9.43349 108.134 9.92187 107.622 9.96875C107.524 9.75777 107.716 9.62493 107.852 9.53116C107.72 9.4667 107.597 9.80466 107.365 9.78317C107.53 9.24205 108.027 8.92362 108.362 8.5212C109.344 7.33933 110.472 6.22583 111.477 5.00489C110.171 3.38934 108.8 1.8363 107.681 0.0429831C107.879 0.123076 108.146 -0.0507851 108.382 0.0175877C108.717 0.115263 109.201 0.957224 109.44 1.25025C110.453 2.49073 111.521 3.91288 112.573 4.94628C111.556 5.93281 110.624 7.19282 109.6 8.02306Z" fill="#984217"/>
<path fill-rule="evenodd" clip-rule="evenodd" d="M20.8512 9.85352C20.8013 9.73631 21.0296 9.49993 21.1715 9.32998C22.1765 8.12271 23.4463 6.8627 24.3382 5.50306C23.2852 3.76053 22.0864 2.1567 20.9816 0.463009C22.4681 0.507939 24.014 0.373147 25.3548 0.412217C26.4787 2.102 27.4167 3.96955 28.6212 5.58315C27.3821 6.892 26.2467 8.30634 25.0958 9.71091C23.6554 9.73044 22.2705 9.80858 20.8512 9.85352Z" fill="#EA390E"/>
<path fill-rule="evenodd" clip-rule="evenodd" d="M27.5011 9.73439C27.4148 9.63672 27.6814 9.4316 27.8195 9.29681C28.5675 8.57987 29.2868 7.70665 30.0291 6.86665C30.4357 6.40757 30.8212 6.0872 31.0303 5.47184C30.0367 3.81527 29.1429 2.06493 28.111 0.44547C28.3757 0.459145 28.8782 0.445469 29.2465 0.433748C30.5354 1.99265 31.529 3.83676 32.6453 5.56366C31.6537 6.98581 30.5124 8.24582 29.5572 9.70314C28.8821 9.72658 28.2357 9.77737 27.5011 9.73439Z" fill="#EA390E"/>
<path fill-rule="evenodd" clip-rule="evenodd" d="M56.8051 9.85352C56.7553 9.73631 56.9835 9.49993 57.1254 9.32998C58.1305 8.12271 59.3983 6.8627 60.2921 5.50306C59.2391 3.76053 58.0403 2.1567 56.9355 0.463009C58.424 0.507939 59.968 0.373147 61.3087 0.412217C62.4327 2.102 63.3706 3.96955 64.5752 5.58315C63.3361 6.892 62.1987 8.30634 61.0498 9.71091C59.6112 9.73044 58.2264 9.80858 56.8051 9.85352Z" fill="#EA390E"/>
<path fill-rule="evenodd" clip-rule="evenodd" d="M63.455 9.73439C63.3687 9.63672 63.6353 9.4316 63.7734 9.29681C64.5195 8.57987 65.2426 7.70665 65.983 6.86665C66.3896 6.40757 66.7752 6.0872 66.9842 5.47184C65.9907 3.81527 65.0968 2.06493 64.0649 0.44547C64.3296 0.459145 64.8322 0.445469 65.2004 0.433748C66.4894 1.99265 67.4829 3.83676 68.5992 5.56366C67.6076 6.98581 66.4663 8.24582 65.5111 9.70314C64.8379 9.72658 64.1896 9.77737 63.455 9.73439Z" fill="#EA390E"/>
<path fill-rule="evenodd" clip-rule="evenodd" d="M92.5097 9.85352C92.4598 9.73631 92.6881 9.49993 92.83 9.32998C93.8351 8.12271 95.1048 6.8627 95.9967 5.50306C94.9437 3.76053 93.7449 2.1567 92.6401 0.463009C94.1285 0.507939 95.6725 0.373147 97.0133 0.412217C98.1372 2.102 99.0752 3.96955 100.28 5.58315C99.0406 6.892 97.9051 8.30634 96.7543 9.71091C95.3158 9.73044 93.931 9.80858 92.5097 9.85352Z" fill="#EA390E"/>
<path fill-rule="evenodd" clip-rule="evenodd" d="M99.1596 9.73439C99.0733 9.63672 99.3399 9.4316 99.478 9.29681C100.226 8.57987 100.947 7.70665 101.688 6.86665C102.094 6.40757 102.48 6.0872 102.689 5.47184C101.695 3.81527 100.801 2.06493 99.7695 0.44547C100.034 0.459145 100.537 0.445469 100.907 0.433748C102.196 1.99265 103.187 3.83676 104.306 5.56366C103.316 6.98581 102.173 8.24582 101.218 9.70314C100.542 9.72658 99.8942 9.77737 99.1596 9.73439Z" fill="#EA390E"/>
<path fill-rule="evenodd" clip-rule="evenodd" d="M128.216 9.85352C128.166 9.73631 128.395 9.49993 128.537 9.32998C129.542 8.12271 130.811 6.8627 131.703 5.50306C130.65 3.76053 129.451 2.1567 128.347 0.463009C129.833 0.507939 131.379 0.373147 132.72 0.412217C133.844 2.102 134.782 3.96955 135.986 5.58315C134.747 6.892 133.612 8.30634 132.461 9.71091C131.02 9.73044 129.636 9.80858 128.216 9.85352Z" fill="#EA390E"/>
<path fill-rule="evenodd" clip-rule="evenodd" d="M134.864 9.73439C134.778 9.63672 135.044 9.4316 135.182 9.29681C135.929 8.57987 136.652 7.70665 137.392 6.86665C137.799 6.40757 138.184 6.0872 138.393 5.47184C137.4 3.81527 136.506 2.06493 135.474 0.44547C135.739 0.459145 136.241 0.445469 136.611 0.433748C137.9 1.99265 138.894 3.83676 140.01 5.56366C139.019 6.98581 137.877 8.24582 136.922 9.70314C136.247 9.72658 135.599 9.77737 134.864 9.73439Z" fill="#EA390E"/>
<path fill-rule="evenodd" clip-rule="evenodd" d="M110.043 9.37098C110.106 9.27135 110.348 9.36316 110.48 9.33972C110.417 9.43935 110.175 9.34558 110.043 9.37098Z" fill="white"/>
<path fill-rule="evenodd" clip-rule="evenodd" d="M111.122 8.24382C111.163 8.15982 111.316 8.13051 111.385 8.20865C111.381 8.32977 111.178 8.30633 111.122 8.24382Z" fill="white"/>
<path fill-rule="evenodd" clip-rule="evenodd" d="M126.956 8.03479C126.709 8.02698 126.461 8.02112 126.214 8.0133C126.317 7.91563 126.874 7.85702 126.956 8.03479Z" fill="white"/>
<path fill-rule="evenodd" clip-rule="evenodd" d="M141.416 8.40985C141.485 8.20864 141.763 8.23403 142.034 8.24966C141.963 8.44892 141.685 8.42547 141.416 8.40985Z" fill="white"/>
<path fill-rule="evenodd" clip-rule="evenodd" d="M128.402 7.89803C128.517 7.89412 128.536 7.82966 128.753 7.86287C128.473 8.01915 127.725 7.92147 128.402 7.89803Z" fill="white"/>
<path fill-rule="evenodd" clip-rule="evenodd" d="M114.032 7.39404C114.046 7.1772 114.303 7.22604 114.517 7.22995C114.45 7.38623 114.243 7.39209 114.032 7.39404Z" fill="white"/>
<path fill-rule="evenodd" clip-rule="evenodd" d="M115.567 7.25926C115.549 7.31982 115.116 7.32373 114.909 7.32959C114.985 7.15378 115.356 7.29247 115.567 7.25926Z" fill="white"/>
<path fill-rule="evenodd" clip-rule="evenodd" d="M140.469 7.84726C140.181 7.91563 139.807 7.89805 139.546 7.99768C139.435 7.99768 139.494 7.96252 139.504 7.90782C139.757 7.76912 140.192 7.82577 140.557 7.80428C140.802 7.80233 140.607 7.88633 140.469 7.84726Z" fill="white"/>
<path fill-rule="evenodd" clip-rule="evenodd" d="M115.881 5.35453C116.219 5.39165 116.898 5.32914 117.015 5.43267C116.618 5.33109 116.123 5.59091 115.881 5.35453Z" fill="white"/>
<path fill-rule="evenodd" clip-rule="evenodd" d="M115.225 5.37996C115.246 5.28229 115.457 5.35066 115.486 5.38778C115.467 5.48545 115.254 5.41513 115.225 5.37996Z" fill="white"/>
<path fill-rule="evenodd" clip-rule="evenodd" d="M108.023 0.273521C108.084 0.160216 108.291 0.271567 108.372 0.283288C108.337 0.322359 108.322 0.380965 108.324 0.459106C108.173 0.447385 108.161 0.298917 108.023 0.273521Z" fill="white"/>
<path fill-rule="evenodd" clip-rule="evenodd" d="M139.099 8.34344C139.686 8.22428 140.549 8.41768 140.718 8.30242C140.67 8.33563 140.427 8.40596 140.321 8.42354C140.022 8.47042 139.301 8.54075 139.099 8.34344Z" fill="white"/>
</svg>
