<svg width="68" height="60" viewBox="0 0 68 60" fill="none" xmlns="http://www.w3.org/2000/svg">
<path d="M39.2142 33.2448C38.4829 33.2448 37.8894 33.8176 37.8894 34.5234C37.8894 35.2293 38.4829 35.8021 39.2142 35.8021C39.9455 35.8021 40.539 35.2293 40.539 34.5234C40.539 33.8176 39.9455 33.2448 39.2142 33.2448Z" fill="black"/>
<path d="M51.0341 40.1304C49.7928 38.9322 46.7802 35.6895 44.4048 30.4315C42.6375 26.3397 38.5293 23.6967 33.9349 23.6967C29.3418 23.6967 25.2335 26.3397 23.4662 30.4328C20.4854 37.0321 16.413 40.5242 16.3746 40.5562C16.3693 40.56 16.3653 40.5639 16.36 40.5677C13.9581 42.643 12.5803 45.6172 12.5803 48.7257C12.5803 52.526 14.4549 55.8314 17.7086 57.9259C20.7398 59.8772 24.4956 60.4628 28.013 59.5319C29.7763 59.0652 31.8165 58.8197 33.915 58.8197C36.0479 58.8197 38.1186 59.0742 39.9031 59.5562C43.3171 60.4782 47.0663 59.9731 50.1597 58.0001C53.4492 55.9017 55.3569 52.5656 55.3569 48.727C55.3583 45.35 53.7831 42.2223 51.0341 40.1304ZM48.6998 55.8647C46.3125 57.3876 43.3661 57.8351 40.6172 57.0922C38.6035 56.5488 36.2851 56.2611 33.915 56.2611C31.5833 56.2611 29.3007 56.5385 27.3135 57.0653C24.5354 57.8006 21.5718 57.339 19.1792 55.7982C16.6819 54.1896 15.2313 51.6769 15.2313 48.7257C15.2313 46.3461 16.2858 44.0687 18.1233 42.4781C18.4055 42.2389 22.7058 38.5243 25.9012 31.4442C25.9039 31.4378 25.9065 31.4314 25.9105 31.4238C27.2631 28.2833 30.4135 26.2528 33.9362 26.2528C37.4615 26.2528 40.6119 28.282 41.9645 31.4225C41.9671 31.4289 41.9698 31.4353 41.9738 31.443C44.5691 37.1907 47.9089 40.739 49.2258 41.9985C49.2642 42.0343 49.3039 42.0689 49.345 42.0996C51.4845 43.7043 52.71 46.1185 52.71 48.7257C52.7087 51.7012 51.2328 54.2484 48.6998 55.8647Z" fill="black"/>
<path d="M42.8229 38.3351C42.4242 37.7431 41.6028 37.5756 40.9894 37.9617C40.376 38.3479 40.2025 39.1394 40.6025 39.7315C42.6189 42.7185 44.5293 44.7081 45.4898 45.6288C46.0091 46.1262 46.8477 46.1236 47.363 45.6224C47.8784 45.1212 47.8757 44.3117 47.3564 43.8143C46.4714 42.9653 44.7055 41.1252 42.8229 38.3351Z" fill="black"/>
<path d="M29.6212 17.4618C30.8943 15.3149 31.4256 12.4621 31.0772 9.63751C30.4055 4.13659 26.4748 -0.470536 22.0844 0.0383827C20.1012 0.264711 18.3392 1.52166 17.1203 3.57524C15.8485 5.72088 15.3173 8.57364 15.6644 11.4008C16.7613 20.3836 25.4256 24.5368 29.6212 17.4618ZM19.4189 4.84626C20.1436 3.62383 21.2749 2.55996 22.7335 2.55996C25.3408 2.55996 27.9573 5.93826 28.4461 9.93801C28.7283 12.2307 28.3189 14.5106 27.3213 16.1921C24.2677 21.3401 19.0161 17.0002 18.2941 11.1003C18.0133 8.80637 18.4226 6.52646 19.4189 4.84626Z" fill="black"/>
<path d="M16.931 31.2155C17.3152 28.9369 16.8488 26.4166 15.6194 24.1188C14.3887 21.821 12.5286 19.995 10.3811 18.9784C8.09982 17.8979 5.76419 17.843 3.80349 18.8212C1.84278 19.7994 0.539171 21.6701 0.131132 24.0906C-0.251736 26.3693 0.21327 28.8896 1.44269 31.1886C2.67343 33.4865 4.53345 35.3111 6.68096 36.3277C8.81257 37.3366 11.1747 37.5258 13.2586 36.4863C15.2206 35.5068 16.5242 33.6348 16.931 31.2155ZM12.0438 34.2127C10.8475 34.8099 9.35839 34.7447 7.84944 34.0312C6.208 33.2537 4.76927 31.8267 3.79819 30.0135C2.82711 28.2003 2.45351 26.2414 2.74762 24.4998C3.01655 22.8989 3.82468 21.6893 5.02098 21.0921C6.34446 20.4323 7.87593 20.6395 9.21531 21.2737C10.8567 22.0511 12.2955 23.4781 13.2666 25.2926C14.2376 27.1058 14.6112 29.0647 14.3171 30.8063C14.0469 32.406 13.2401 33.6156 12.0438 34.2127Z" fill="black"/>
<path d="M43.851 21.0614C47.8678 21.0614 51.5336 16.8289 52.1973 11.4264C52.9034 5.67106 49.8974 0.0281982 45.1255 0.0281982C41.1087 0.0281982 37.4429 4.26066 36.7805 9.66313C36.0744 15.4287 39.087 21.0614 43.851 21.0614ZM39.4116 9.96234C39.9018 5.9626 42.5183 2.5843 45.1255 2.5843C45.2487 2.5843 45.3533 2.58942 45.4487 2.6022C46.861 2.75437 47.9553 3.94483 48.5991 5.16214C49.4748 6.81677 49.8272 8.99054 49.5662 11.1247C49.0575 15.2676 46.2118 18.8224 43.5278 18.4861C43.5225 18.4861 43.5185 18.4848 43.5132 18.4848C42.3089 18.348 41.1656 17.4158 40.3787 15.9274C39.503 14.2715 39.1506 12.0978 39.4116 9.96234Z" fill="black"/>
<path d="M67.6988 24.0944C66.8616 19.1139 62.1969 16.7343 57.4488 18.9822C53.0068 21.0857 50.1041 26.5035 50.8977 31.2206C51.7455 36.2599 56.4566 38.5526 61.1477 36.3315C65.5924 34.2281 68.4924 28.8102 67.6988 24.0944ZM59.9819 34.035C58.4729 34.7485 56.9838 34.8137 55.7875 34.2165C54.5912 33.6194 53.7844 32.4098 53.5142 30.8088C52.9087 27.208 55.2152 22.8873 58.616 21.2762C61.7333 19.8006 64.5259 21.1892 65.0837 24.5023C65.6891 28.098 63.3893 32.4225 59.9819 34.035Z" fill="black"/>
</svg>
