<svg width="34" height="11" viewBox="0 0 34 11" fill="none" xmlns="http://www.w3.org/2000/svg">
<path fill-rule="evenodd" clip-rule="evenodd" d="M14.0051 8.40985C14.0742 8.20864 14.3523 8.23403 14.6227 8.24966C14.5537 8.44892 14.2756 8.42547 14.0051 8.40985Z" fill="white"/>
<path fill-rule="evenodd" clip-rule="evenodd" d="M13.0596 7.84726C12.7699 7.91563 12.3978 7.89805 12.137 7.99768C12.0238 7.99768 12.0852 7.96252 12.0948 7.90782C12.348 7.76912 12.7834 7.82577 13.1478 7.80428C13.3933 7.80233 13.1977 7.88633 13.0596 7.84726Z" fill="white"/>
<path fill-rule="evenodd" clip-rule="evenodd" d="M11.6899 8.34344C12.2769 8.22428 13.14 8.41768 13.3088 8.30242C13.2608 8.33563 13.0172 8.40596 12.9117 8.42354C12.6125 8.47042 11.8913 8.54075 11.6899 8.34344Z" fill="white"/>
<path fill-rule="evenodd" clip-rule="evenodd" d="M18.3381 9.37098C18.3995 9.27135 18.6431 9.36316 18.7755 9.33972C18.7122 9.43935 18.4705 9.34558 18.3381 9.37098Z" fill="white"/>
<path fill-rule="evenodd" clip-rule="evenodd" d="M19.418 8.24382C19.4582 8.15982 19.6117 8.13051 19.6807 8.20865C19.6769 8.32977 19.4717 8.30633 19.418 8.24382Z" fill="white"/>
<path fill-rule="evenodd" clip-rule="evenodd" d="M22.3276 7.39404C22.3411 7.1772 22.5981 7.22604 22.8129 7.22995C22.7458 7.38623 22.5386 7.39209 22.3276 7.39404Z" fill="white"/>
<path fill-rule="evenodd" clip-rule="evenodd" d="M23.8601 7.25926C23.8428 7.31982 23.4112 7.32373 23.2021 7.32959C23.2808 7.15378 23.651 7.29247 23.8601 7.25926Z" fill="white"/>
<path fill-rule="evenodd" clip-rule="evenodd" d="M24.1765 5.35453C24.5141 5.39165 25.1931 5.32914 25.312 5.43267C24.913 5.33109 24.4182 5.59091 24.1765 5.35453Z" fill="white"/>
<path fill-rule="evenodd" clip-rule="evenodd" d="M23.5205 5.37996C23.5416 5.28229 23.7526 5.35066 23.7814 5.38778C23.7622 5.48545 23.5493 5.41513 23.5205 5.37996Z" fill="white"/>
<path fill-rule="evenodd" clip-rule="evenodd" d="M16.3184 0.273521C16.3797 0.160216 16.5869 0.271567 16.6674 0.283288C16.6329 0.322359 16.6176 0.380965 16.6195 0.459106C16.468 0.447385 16.4565 0.298917 16.3184 0.273521Z" fill="white"/>
<path fill-rule="evenodd" clip-rule="evenodd" d="M17.893 8.02306C17.7434 8.42157 17.3598 8.7732 17.0318 9.11116C16.7172 9.43349 16.4276 9.92187 15.9155 9.96875C15.8176 9.75777 16.0095 9.62493 16.1456 9.53116C16.0133 9.4667 15.8905 9.80466 15.6584 9.78317C15.8234 9.24205 16.3202 8.92362 16.6539 8.5212C17.636 7.33933 18.7638 6.22583 19.7689 5.00489C18.4627 3.38934 17.0912 1.8363 15.973 0.0429831C16.1706 0.123076 16.4372 -0.0507851 16.6731 0.0175877C17.0088 0.115263 17.4921 0.957224 17.7319 1.25025C18.7446 2.49073 19.813 3.91288 20.8641 4.94628C19.8513 5.93281 18.9192 7.19282 17.893 8.02306Z" fill="#74BFD5"/>
<path fill-rule="evenodd" clip-rule="evenodd" d="M24.7021 10C24.4259 9.99219 24.1497 9.98437 23.8716 9.97656C23.816 9.87888 24.0097 9.63469 24.1497 9.44911C25.0474 8.26724 26.1464 6.97206 27.0498 5.74917C27.0479 5.58898 27.163 5.75698 27.2704 5.66517C27.2378 5.43661 27.2052 5.34675 27.1975 5.17289C27.2224 5.03419 26.998 5.13381 26.9846 5.03419C26.0179 3.56906 25.3638 1.80113 24.4048 0.330142C24.5256 0.230514 24.8268 0.326236 25.0167 0.302794C26.0352 1.93592 27.0786 3.54171 28.2064 5.0713C28.1028 5.30963 28.1891 5.48349 28.3215 5.60852C27.1323 7.08928 26.0045 8.63841 24.7021 10Z" fill="#EFA424"/>
<path fill-rule="evenodd" clip-rule="evenodd" d="M25.7514 9.98633C25.6919 9.82223 26.0007 9.65423 26.1599 9.46279C26.9406 8.52706 27.6829 7.44482 28.5153 6.50323C28.8395 6.13597 29.2557 5.79215 29.3784 5.32526C28.2065 3.63939 26.7641 1.98281 25.7591 0.277401C26.2213 0.259819 26.5877 0.324286 27.025 0.359448C27.6464 0.406333 28.4002 0.224656 28.9469 0.414146C29.2576 0.521589 29.7678 1.32253 30.0478 1.64876C31.1104 2.88338 32.2747 4.12776 33.3143 5.2608C32.0599 6.88807 30.5561 8.24575 29.3784 9.95507C28.124 9.916 26.9252 9.93749 25.7514 9.98633Z" fill="#EFA424"/>
<path fill-rule="evenodd" clip-rule="evenodd" d="M19.6692 8.6521C19.253 9.11899 18.8848 9.4882 18.4973 9.91016C18.1233 9.87695 17.663 9.93164 17.3618 9.83202C17.8279 9.40029 18.2173 8.89043 18.668 8.44503C18.9212 8.51926 19.1571 8.60912 19.4046 8.68921C19.4717 8.49582 18.9346 8.50754 18.8023 8.35907C18.7658 8.24186 18.9059 8.10512 18.9864 8.00744C19.2722 7.66753 19.6079 7.30809 19.9339 6.92324C20.3693 6.40947 21.2996 5.72184 21.0848 4.86425C20.9927 4.49699 20.5822 4.17661 20.3291 3.77419C20.0663 3.35614 19.8917 2.92246 19.6616 2.59623C18.9231 1.80701 18.3113 0.894722 17.544 0.130901C17.7512 0.0351791 18.1405 0.132854 18.4187 0.113319C18.8541 0.834164 19.6501 1.30301 20.1142 1.98673C20.4902 2.53958 20.7088 3.16274 21.0272 3.70582C21.2114 4.02033 21.5048 4.50676 21.8251 4.88769C22.2107 5.34286 22.1627 5.17486 21.7561 5.77654C21.0809 6.78064 20.4096 7.82186 19.6692 8.6521Z" fill="#EFA424"/>
<path fill-rule="evenodd" clip-rule="evenodd" d="M6.66848 9.70898C6.41913 9.70312 6.17169 9.69531 5.92618 9.68945C5.90892 9.47456 6.14676 9.36712 6.2887 9.21084C7.31869 8.06999 8.5098 6.78459 9.45157 5.51676C8.32375 3.91879 7.50475 2.01998 6.40378 0.39662C6.55147 0.298944 6.88521 0.394667 7.10387 0.373178C8.17223 2.15673 9.31347 3.87581 10.4547 5.59099C9.10824 6.87249 7.93439 8.34153 6.66848 9.70898Z" fill="#984217"/>
<path fill-rule="evenodd" clip-rule="evenodd" d="M17.3291 6.85876C16.888 7.27877 16.6099 7.8824 16.0556 8.28482C15.5569 8.64622 15.2519 9.26939 14.7129 9.55656C13.8344 10.0274 11.4599 9.48818 10.2112 9.68158C10.1268 9.55851 10.3915 9.40418 10.5296 9.24595C11.2086 8.46064 11.7955 7.50928 12.5263 6.63216C12.7546 6.36062 13.2667 5.88982 13.2974 5.58703C13.3396 5.16898 12.7718 4.57316 12.5052 4.22934C12.1715 3.79567 11.8742 3.32878 11.6229 2.95761C11.0034 2.04142 10.3954 1.21313 9.94653 0.416099C10.8691 0.564566 13.658 0.281307 14.5269 0.375075C14.6726 0.457123 14.7033 0.673962 14.8664 0.783359C15.0754 0.925964 15.4705 0.910336 15.6432 1.11936C16.8688 2.60012 16.9302 3.12757 18.3189 4.26451C18.3745 4.32507 18.3707 4.43056 18.3131 4.48721C18.5356 4.47549 18.6296 4.58684 18.7447 4.67865C18.6411 5.5714 17.8796 6.33327 17.3291 6.85876Z" fill="#984217"/>
<path fill-rule="evenodd" clip-rule="evenodd" d="M19.6768 9.94335C20.1006 9.30455 20.373 8.76734 20.866 8.06407C20.841 7.88045 21.0194 8.11487 21.0865 7.98203C21.1057 7.87654 20.8871 8.00156 20.9599 7.84528C21.357 7.38816 21.7579 6.93299 22.2201 6.5462C22.2124 6.46806 22.1472 6.44266 22.0475 6.45243C22.3141 6.01094 22.9144 5.63391 22.9164 5.0967C22.9183 4.67474 22.0571 3.74683 21.8269 3.37371C21.4068 2.68998 21.1709 2.059 20.8257 1.60774C20.8218 1.51006 20.866 1.46708 20.9619 1.4788C20.4114 1.28736 20.3481 0.625123 19.9894 0.248096C21.146 0.150421 22.5922 0.36726 23.7488 0.267631C24.8459 1.85583 25.4156 3.94608 26.7563 5.29791C25.5825 6.90565 24.4182 8.5212 23.1273 10.002C21.9554 9.95702 20.7988 9.93163 19.6768 9.94335Z" fill="#984217"/>
<path fill-rule="evenodd" clip-rule="evenodd" d="M0.805091 9.85352C0.755222 9.73631 0.983467 9.49993 1.1254 9.32998C2.13046 8.12271 3.3983 6.8627 4.29211 5.50306C3.2391 3.76053 2.04032 2.1567 0.935518 0.463009C2.42393 0.507939 3.96796 0.373147 5.30868 0.412217C6.43266 2.102 7.37059 3.96955 8.57513 5.58315C7.33606 6.892 6.19866 8.30634 5.04974 9.71091C3.6112 9.73044 2.22637 9.80858 0.805091 9.85352Z" fill="#EA390E"/>
<path fill-rule="evenodd" clip-rule="evenodd" d="M7.45483 9.73439C7.36852 9.63672 7.63513 9.4316 7.77323 9.29681C8.51936 8.57987 9.24247 7.70665 9.98284 6.86665C10.3895 6.40757 10.775 6.0872 10.9841 5.47184C9.99051 3.81527 9.0967 2.06493 8.06478 0.44547C8.32947 0.459145 8.832 0.445469 9.20027 0.433748C10.4892 1.99265 11.4828 3.83676 12.5991 5.56366C11.6074 6.98581 10.4662 8.24582 9.51099 9.70314C8.83775 9.72658 8.18945 9.77737 7.45483 9.73439Z" fill="#EA390E"/>
</svg>
