<svg xmlns="http://www.w3.org/2000/svg" xmlns:xlink="http://www.w3.org/1999/xlink">
	<defs>
		<style>
		use#use_green{ fill: #3b9946 }
		use#use_red{ fill: #dd2b36 }
		</style>
	</defs>

	<symbol viewBox="0 0 54 54" id="symbol_discount">
		<path style="fill: inherit; fill-rule: evenodd;" d="M353.1,484.175a4.727,4.727,0,0,0-.841,4.835,3.1,3.1,0,0,1-1.468,4.089,4.686,4.686,0,0,0-2.421,4.251,3.071,3.071,0,0,1-2.759,3.334,4.631,4.631,0,0,0-3.71,3.155,3.037,3.037,0,0,1-3.717,2.176,4.582,4.582,0,0,0-4.55,1.679,3.015,3.015,0,0,1-4.227.756,4.559,4.559,0,0,0-4.842,0,3.015,3.015,0,0,1-4.227-.756,4.583,4.583,0,0,0-4.551-1.679,3.037,3.037,0,0,1-3.716-2.176,4.632,4.632,0,0,0-3.71-3.155,3.071,3.071,0,0,1-2.759-3.334,4.686,4.686,0,0,0-2.421-4.251,3.1,3.1,0,0,1-1.468-4.089,4.727,4.727,0,0,0-.841-4.835,3.113,3.113,0,0,1,0-4.351,4.727,4.727,0,0,0,.841-4.835,3.1,3.1,0,0,1,1.468-4.089,4.687,4.687,0,0,0,2.421-4.252,3.071,3.071,0,0,1,2.759-3.333,4.632,4.632,0,0,0,3.71-3.155,3.037,3.037,0,0,1,3.716-2.176,4.581,4.581,0,0,0,4.551-1.679,3.015,3.015,0,0,1,4.227-.756,4.559,4.559,0,0,0,4.842,0,3.015,3.015,0,0,1,4.227.756,4.58,4.58,0,0,0,4.55,1.679,3.037,3.037,0,0,1,3.717,2.176,4.631,4.631,0,0,0,3.71,3.155,3.071,3.071,0,0,1,2.759,3.333,4.687,4.687,0,0,0,2.421,4.252,3.1,3.1,0,0,1,1.468,4.089,4.727,4.727,0,0,0,.841,4.835A3.113,3.113,0,0,1,353.1,484.175Z" transform="translate(-300 -455)"/>
	</symbol>

	<use id="use_green" xlink:href="#symbol_discount" width="54" height="54" x="0" y="0"></use>
	<use id="use_red" xlink:href="#symbol_discount" width="54" height="54" x="100" y="0"></use>

	<view id="green" width="54" height="54" viewBox="0 0 54 54" />
  <view id="red" width="54" height="54" viewBox="100 0 54 54" />
</svg>
