<svg width="86" height="80" viewBox="0 0 86 80" fill="none" xmlns="http://www.w3.org/2000/svg">
<g clip-path="url(#clip0)">
<path d="M78.673 5.64975C73.5056 1.0931 66.5426 -0.858081 59.7603 0.351783C52.7287 1.6085 46.5706 5.81207 42.8373 11.8999C39.1023 5.81207 32.9442 1.6085 25.9126 0.351783C19.1303 -0.856408 12.169 1.09477 7.00151 5.64975C0.786525 11.346 -1.4324 20.9697 0.913703 32.0593C0.92207 32.1011 0.950518 32.1312 0.962231 32.1714C1.02247 32.3521 1.11284 32.5211 1.23332 32.6701C1.2601 32.7019 1.27181 32.742 1.30193 32.7738C1.34209 32.8039 1.38225 32.8307 1.42409 32.8558C1.49772 32.916 1.57469 32.9679 1.65836 33.0114C1.81734 33.0951 1.99137 33.147 2.17042 33.1654C2.21728 33.1704 2.26246 33.1922 2.31099 33.1922C2.36286 33.1855 2.41306 33.1754 2.46327 33.162C2.5118 33.1637 2.55865 33.1637 2.60718 33.1604C2.64901 33.152 2.67913 33.1236 2.72097 33.1118C2.81133 33.0834 2.89835 33.0449 2.98035 32.9997C3.06569 32.9545 3.14601 32.901 3.21964 32.8407C3.25144 32.814 3.2916 32.8039 3.32005 32.7738L8.34358 27.752L8.36031 27.7402C9.4614 26.6358 11.2452 26.6207 12.3647 27.7068C13.4842 28.7928 13.5244 30.5766 12.4551 31.7112L4.21699 39.9493C3.85553 40.3091 3.71329 40.8346 3.84382 41.3282C3.97434 41.8219 4.35922 42.2084 4.85288 42.3406C5.34653 42.4728 5.87197 42.3322 6.23343 41.9708L14.3812 33.823C14.3929 33.813 14.408 33.8096 14.418 33.7979C14.4398 33.7762 14.4531 33.7511 14.4732 33.7293L19.4248 28.7777C19.4365 28.766 19.4549 28.7627 19.4666 28.751C20.5962 27.6683 22.3767 27.6683 23.5045 28.751C24.6107 29.8621 24.6173 31.656 23.5163 32.7738L23.4995 32.7855L8.29505 47.9917C7.93527 48.3531 7.79303 48.8786 7.92523 49.3705C8.05743 49.8625 8.44231 50.2474 8.93429 50.3796C9.42626 50.5118 9.95338 50.3712 10.3132 50.0098L23.5112 36.8268L23.5464 36.7916C24.6742 35.7056 26.4664 35.7324 27.5625 36.8519C28.6586 37.9714 28.6486 39.7619 27.5408 40.868L24.5136 43.8952L24.5119 43.8969V43.8985L13.4792 54.9312C13.1178 55.2927 12.9772 55.8181 13.1094 56.3101C13.2416 56.8021 13.6265 57.187 14.1185 57.3192C14.6104 57.4514 15.1376 57.3108 15.4973 56.9494L26.5317 45.9133C27.6479 44.7988 29.4551 44.7988 30.5713 45.915C31.6858 47.0311 31.6858 48.8384 30.5696 49.9546C30.5629 49.9613 30.5612 49.9696 30.5562 49.9746L19.4901 61.0408C19.4834 61.0475 19.4817 61.0575 19.4733 61.0642C19.4666 61.0726 19.4566 61.0743 19.4482 61.0826C19.3964 61.1529 19.3512 61.2266 19.3127 61.3052C19.2575 61.3788 19.2089 61.4592 19.1688 61.5411C19.142 61.6298 19.1253 61.7202 19.1152 61.8122C19.0567 61.9846 19.0617 62.172 19.1253 62.3427C19.137 62.4347 19.1587 62.5251 19.1889 62.6121C19.234 62.6958 19.2859 62.7744 19.3462 62.8481C19.3863 62.9234 19.4332 62.9937 19.4867 63.0606C19.4934 63.0673 19.5034 63.069 19.5101 63.0773C19.5168 63.084 19.5202 63.0941 19.5285 63.1007C26.5016 69.3643 34.0553 74.9534 42.0842 79.7912C42.5411 80.0706 43.1167 80.0706 43.5736 79.7912C51.6025 74.9534 59.1562 69.3643 66.1293 63.1007C66.1376 63.0941 66.1393 63.084 66.1477 63.0773C66.1544 63.0706 66.1644 63.069 66.1711 63.0606C66.2246 62.9953 66.2715 62.9234 66.3117 62.8481C66.3719 62.7744 66.4238 62.6958 66.469 62.6121C66.5141 62.4364 66.5526 62.259 66.5844 62.08C66.5794 61.9896 66.566 61.9009 66.5443 61.8139C66.5359 61.7219 66.5175 61.6315 66.4907 61.5428C66.4505 61.4591 66.402 61.3805 66.3468 61.3069C66.3083 61.2282 66.2631 61.1546 66.2113 61.0843C66.2046 61.0759 66.1945 61.0743 66.1861 61.0659C66.1795 61.0592 66.1778 61.0492 66.1694 61.0425L55.1033 49.9763C55.0966 49.9696 55.0949 49.9613 55.0899 49.9562C53.9737 48.8418 53.9737 47.0328 55.0882 45.9167C56.2027 44.8005 58.0116 44.8005 59.1278 45.915L70.1621 56.951C70.7194 57.5083 71.623 57.5083 72.1819 56.951C72.7392 56.3938 72.7392 55.4902 72.1819 54.9312L61.1492 43.8969V43.8952L61.1476 43.8935L58.1204 40.8664C57.3992 40.1451 57.1164 39.0926 57.3807 38.1069C57.6451 37.1213 58.4149 36.3515 59.4005 36.0871C60.3862 35.8227 61.4371 36.1039 62.16 36.8251L62.1767 36.8368L75.348 50.0081C75.9069 50.5603 76.8072 50.5587 77.3628 50.0031C77.9183 49.4475 77.92 48.5472 77.3678 47.9883L64.1898 34.822L64.1781 34.8053C64.1697 34.7969 64.158 34.7903 64.148 34.7819L62.1616 32.7822L62.1583 32.7788C61.0438 31.6644 61.0438 29.8571 62.1583 28.7443C63.2728 27.6315 65.0784 27.6298 66.1928 28.7443C66.2046 28.756 66.2213 28.761 66.2347 28.7711L71.0524 33.5888C71.1093 33.6574 71.1712 33.721 71.2465 33.7963L71.2482 33.7979L71.2498 33.7996L79.4311 41.9674C79.7925 42.3289 80.318 42.4695 80.8116 42.3373C81.3053 42.2051 81.6902 41.8185 81.8207 41.3249C81.9512 40.8312 81.809 40.3058 81.4475 39.946L73.2529 31.7698C73.2278 31.738 73.1993 31.7095 73.1726 31.6794L73.1659 31.6677C72.1367 30.5415 72.1819 28.8028 73.2663 27.7302C74.3942 26.6509 76.173 26.6509 77.3008 27.7302L82.3411 32.7705C82.3712 32.8006 82.4114 32.8106 82.4415 32.8374C82.5904 32.9562 82.7595 33.0483 82.9419 33.1085C82.982 33.1202 83.0138 33.1487 83.0556 33.157C83.1527 33.1771 83.2514 33.1871 83.3502 33.1871H83.3518H83.3535C83.5275 33.1855 83.6982 33.152 83.8606 33.0884C83.9057 33.0667 83.9476 33.0432 83.9894 33.0165C84.1032 32.9612 84.2103 32.8909 84.3057 32.8073C84.3224 32.7922 84.3458 32.7872 84.3609 32.7705C84.391 32.7403 84.4011 32.7002 84.4278 32.6684C84.5015 32.583 84.5651 32.4877 84.6153 32.3873C84.647 32.322 84.6738 32.2551 84.6956 32.1865C84.7157 32.1446 84.7324 32.1011 84.7475 32.0576C87.1053 20.9697 84.8863 11.346 78.673 5.64975ZM82.4281 28.8112L79.3307 25.7138C77.0716 23.5568 73.5173 23.5568 71.2582 25.7138C70.552 26.425 70.045 27.3102 69.7873 28.2791L68.2361 26.7278C68.2143 26.7061 68.1842 26.6977 68.1608 26.6776C66.1828 24.7398 63.0954 24.5072 60.8497 26.1271C58.604 27.7469 57.851 30.7507 59.0675 33.239C57.0996 33.6139 55.4748 34.9961 54.7903 36.8787C54.1059 38.7612 54.4607 40.8647 55.7258 42.4176C54.7251 42.6602 53.8097 43.1706 53.0784 43.8952C50.8645 46.1158 50.8528 49.7069 53.0533 51.9409C53.0634 51.9526 53.0667 51.9677 53.0784 51.9777L63.0887 61.9879C56.7767 67.5269 49.9994 72.5136 42.8356 76.8945C35.6718 72.5136 28.8945 67.5269 22.5825 61.9879L32.5928 51.9777C32.6045 51.966 32.6078 51.9509 32.6178 51.9409C34.8184 49.7052 34.8067 46.1158 32.5928 43.8952C31.8615 43.1706 30.9461 42.6602 29.9454 42.4176C31.2105 40.8664 31.567 38.7629 30.8825 36.882C30.1981 35.0011 28.5749 33.6172 26.6087 33.2407C27.6679 31.0603 27.2329 28.4498 25.5243 26.7312C23.2903 24.5959 19.7796 24.5708 17.5155 26.676C17.4904 26.6977 17.4586 26.7061 17.4351 26.7295L15.8722 28.2925C15.6245 27.3219 15.1225 26.4333 14.418 25.7205C12.2008 23.5082 8.61467 23.4932 6.38068 25.6887C6.36897 25.7004 6.35391 25.702 6.3422 25.7138L3.24474 28.8112C1.95623 19.8836 3.96598 12.3048 8.93094 7.75656C13.4709 3.8291 19.5319 2.14566 25.4457 3.16811C32.1593 4.28259 37.8924 8.61501 41.5822 15.3705C41.855 15.7989 42.3286 16.0583 42.8356 16.0583C43.3426 16.0583 43.8162 15.7989 44.089 15.3705C47.7805 8.61501 53.5119 4.28259 60.2255 3.16811C66.1393 2.14566 72.2003 3.8291 76.7403 7.75656C81.7069 12.3048 83.7183 19.8836 82.4281 28.8112Z" fill="#3F0803"/>
</g>
<defs>
<clipPath id="clip0">
<rect width="85.6728" height="80" fill="white"/>
</clipPath>
</defs>
</svg>
