<svg width="80" height="80" viewBox="0 0 80 80" fill="none" xmlns="http://www.w3.org/2000/svg">
<path d="M40 2.65625C45.0422 2.65625 49.9328 3.64375 54.5344 5.58906C58.9812 7.47031 62.975 10.1641 66.4062 13.5938C69.8359 17.0234 72.5297 21.0187 74.4109 25.4641C76.3563 30.0672 77.3438 34.9578 77.3438 40C77.3438 45.0422 76.3563 49.9328 74.4109 54.5344C72.5297 58.9812 69.8359 62.975 66.4062 66.4062C62.9766 69.8359 58.9813 72.5297 54.5359 74.4109C49.9328 76.3563 45.0422 77.3438 40 77.3438C34.9578 77.3438 30.0672 76.3563 25.4656 74.4109C21.0187 72.5297 17.025 69.8359 13.5938 66.4062C10.1641 62.9766 7.47031 58.9813 5.58906 54.5359C3.64375 49.9328 2.65625 45.0422 2.65625 40C2.65625 34.9578 3.64375 30.0672 5.58906 25.4656C7.47031 21.0187 10.1641 17.025 13.5938 13.5938C17.0234 10.1641 21.0187 7.47031 25.4641 5.58906C30.0672 3.64375 34.9578 2.65625 40 2.65625ZM40 0C17.9094 0 0 17.9094 0 40C0 62.0906 17.9094 80 40 80C62.0906 80 80 62.0906 80 40C80 17.9094 62.0906 0 40 0Z" fill="#3F0803"/>
<path d="M13.3923 67.9356C13.0517 67.9356 12.7126 67.806 12.4533 67.5466C11.9345 67.0278 11.9345 66.1872 12.4533 65.6685L65.5408 12.581C66.0595 12.0622 66.9002 12.0622 67.4189 12.581C67.9376 13.0997 67.9376 13.9403 67.4189 14.4591L14.3314 67.5466C14.072 67.806 13.7314 67.9356 13.3923 67.9356Z" fill="#3F0803"/>
<path d="M25.2313 57.5665C23.425 57.5665 21.8219 56.4165 21.2422 54.704L19.8985 50.7618C19.5375 49.7103 19.6125 48.5353 20.1063 47.5384C20.2578 47.229 20.4485 46.9368 20.6735 46.6712C21.1672 46.0884 21.8094 45.6524 22.5328 45.4071L51.6719 35.4774C54.1235 34.6431 56.6625 34.0056 59.2188 33.5837L63.3875 32.8978C63.5938 32.8634 63.8047 32.8462 64.0141 32.8462C65.6407 32.8462 67.0828 33.8821 67.6031 35.4243L68.3875 37.7243C68.9953 39.4931 68.2391 41.4165 66.5891 42.2993L62.8703 44.3009C60.5891 45.5274 58.1891 46.5728 55.7375 47.4087L26.5782 57.3462C26.1453 57.4915 25.6906 57.5665 25.2313 57.5665ZM23.3719 47.8743C22.5297 48.1618 22.0781 49.0806 22.3641 49.9228L23.7078 53.8665C23.7422 53.9681 23.786 54.0665 23.8406 54.1587C24 54.4353 24.236 54.654 24.5235 54.7946C24.5797 54.8212 24.6391 54.8462 24.7 54.8681C24.875 54.9306 25.0547 54.9618 25.2375 54.9618C25.3594 54.9618 25.4828 54.9478 25.6016 54.9196C25.6532 54.9071 25.7047 54.8931 25.7563 54.8743L26.4953 54.6228L24.111 47.6228L23.3719 47.8743ZM28.961 53.7821L33.5953 52.2024L31.211 45.2024L26.5766 46.7821L28.961 53.7821ZM36.061 51.3634L36.7516 51.129L34.3672 44.129L33.6766 44.3634L36.061 51.3634ZM39.2156 50.2884L45.4281 48.1728L45.3828 48.0415C45.0469 47.9118 44.7282 47.7446 44.4297 47.5415C43.4078 46.8431 42.7188 45.7899 42.4891 44.5728C42.275 43.4353 42.486 42.2837 43.086 41.3024L43.0406 41.1712L36.8297 43.2868L39.2156 50.2884ZM45.7688 41.0993C45.9188 41.5384 45.8219 42.0274 45.5172 42.3759C45.2813 42.6446 45.1203 42.9712 45.0516 43.3212C44.836 44.4196 45.5532 45.4884 46.6516 45.7056C47.1063 45.7962 47.4813 46.1243 47.6313 46.5634L47.8922 47.3321L48.5828 47.0978L48.1094 45.7103H48.2672C48.3047 45.4712 48.4078 45.2415 48.5735 45.054C48.8094 44.7853 48.9688 44.4587 49.0391 44.1087C49.2547 43.0103 48.5375 41.9399 47.4391 41.7243C46.9844 41.6337 46.6094 41.3056 46.4594 40.8681L46.1969 40.0993L45.5063 40.3353L45.7688 41.0993ZM51.0469 46.2556L54.8985 44.9431C57.2141 44.1524 59.4813 43.1649 61.6375 42.0056L65.3813 39.9899C65.8844 39.7071 66.111 39.1118 65.9235 38.5634L65.1391 36.2618C64.975 35.7759 64.5219 35.4493 64.0094 35.4493C63.9422 35.4493 63.8766 35.4556 63.811 35.4649L59.6422 36.1509C57.2281 36.5493 54.8297 37.1509 52.5125 37.9399L48.661 39.2524L48.7063 39.3853C49.9781 39.8774 50.986 40.9196 51.4313 42.2149C51.8703 43.5134 51.7078 44.9556 51.0016 46.1212L51.0469 46.2556Z" fill="#3F0803"/>
<path d="M18.9578 40.0358C18.2406 40.0358 17.6562 39.4515 17.6562 38.7343C17.6609 35.0343 20.6734 32.0202 24.375 32.0155C25.2656 32.0155 25.9906 31.2905 25.9906 30.4015C25.9906 29.5108 25.2656 28.7874 24.3766 28.7874C22.0531 28.7843 20.1609 26.8921 20.1578 24.5687V23.3187C20.1578 22.6015 20.7422 22.0171 21.4594 22.0171C22.1766 22.0171 22.7609 22.6015 22.7609 23.3187V24.5687C22.7625 25.4577 23.4859 26.1827 24.3766 26.1827C26.7016 26.1827 28.5953 28.0749 28.5953 30.4015C28.5953 32.728 26.7031 34.6202 24.3766 34.6202C22.1109 34.6233 20.2641 36.4687 20.2625 38.7358C20.2609 39.4515 19.6766 40.0358 18.9578 40.0358Z" fill="#3F0803"/>
<path d="M18.9578 46.2855C18.2406 46.2855 17.6562 45.7012 17.6562 44.984V41.6512C17.6562 40.934 18.2406 40.3496 18.9578 40.3496C19.675 40.3496 20.2594 40.934 20.2594 41.6512V44.984C20.2609 45.7012 19.6766 46.2855 18.9578 46.2855Z" fill="#3F0803"/>
<path d="M22.2923 42.1188C21.5751 42.1188 20.9907 41.5345 20.9907 40.8173V39.4298C20.9938 37.1829 22.8235 35.3517 25.0704 35.3501H26.9454C29.1735 35.347 30.9876 33.5329 30.9907 31.3048V29.1517C30.9907 28.4345 31.5751 27.8501 32.2923 27.8501C33.0095 27.8501 33.5938 28.4345 33.5938 29.1517V31.3048C33.5892 34.9673 30.6079 37.9485 26.9454 37.9532H25.0704C24.2579 37.9548 23.5954 38.6173 23.5938 39.4298V40.8173C23.5938 41.5345 23.0095 42.1188 22.2923 42.1188Z" fill="#3F0803"/>
<path d="M30.6251 27.953C29.9079 27.953 29.3235 27.3687 29.3235 26.6515C29.322 25.5327 28.411 24.6218 27.2923 24.6202C25.1985 24.6171 23.4938 22.9124 23.4907 20.8187V18.3187C23.4907 17.5999 24.0751 17.0171 24.7923 17.0171C25.5095 17.0171 26.0938 17.6015 26.0938 18.3187V20.8187C26.0938 21.478 26.6329 22.0155 27.2923 22.0171C29.8454 22.0202 31.9235 24.0983 31.9267 26.6515C31.9267 27.3687 31.3423 27.953 30.6251 27.953Z" fill="#3F0803"/>
<path d="M21.4578 21.2857C20.7406 21.2857 20.1562 20.7014 20.1562 19.9842V17.4842C20.1562 16.767 20.7406 16.1826 21.4578 16.1826C22.175 16.1826 22.7594 16.767 22.7594 17.4842V19.9842C22.7609 20.7014 22.1766 21.2857 21.4578 21.2857Z" fill="#3F0803"/>
</svg>
