<svg width="60" height="80" viewBox="0 0 60 80" fill="none" xmlns="http://www.w3.org/2000/svg">
<g clip-path="url(#clip0)">
<path d="M40.1021 9.96882C31.3973 5.52194 20.9119 7.22194 14.0109 14.1985C5.98923 22.3063 5.18706 35.236 12.1438 44.2719C12.3895 44.5907 12.7574 44.7579 13.1283 44.7579C13.3957 44.7579 13.6662 44.6719 13.8934 44.4923C14.4374 44.0641 14.5348 43.2719 14.1113 42.7235C7.92586 34.6891 8.64147 23.1923 15.7744 15.9813C21.9119 9.77663 31.2365 8.26413 38.9769 12.2188C39.592 12.5329 40.3416 12.2829 40.6523 11.6626C40.963 11.0407 40.7172 10.2829 40.1021 9.96882Z" fill="#3F0803"/>
<path d="M50.0602 20.0375C49.7496 19.4156 49 19.1672 48.3848 19.4797C47.7697 19.7937 47.5239 20.5515 47.833 21.1734C51.7418 28.9984 50.2457 38.4234 44.1082 44.6265C36.9752 51.8375 25.6027 52.5593 17.6553 46.3078C17.1112 45.8796 16.3276 45.9796 15.9057 46.5281C15.4822 47.0781 15.5811 47.8703 16.1236 48.2968C20.1947 51.5 25.0664 53.0765 29.9211 53.0765C35.7248 53.0765 41.5054 50.825 45.8732 46.4093C52.7728 39.4343 54.4559 28.8359 50.0602 20.0375Z" fill="#3F0803"/>
<path d="M46.8376 15.236C46.5285 14.8828 46.204 14.5328 45.8732 14.1985C45.5424 13.8641 45.1962 13.536 44.8469 13.2235C44.3307 12.7625 43.5424 12.811 43.0865 13.3328C42.6305 13.8547 42.6785 14.6516 43.1947 15.1125C43.5069 15.3907 43.8145 15.6828 44.1097 15.9813C44.4049 16.2797 44.6939 16.5907 44.969 16.9047C45.2148 17.186 45.5594 17.3297 45.9041 17.3297C46.1978 17.3297 46.4914 17.225 46.7295 17.0141C47.2457 16.5547 47.2936 15.7578 46.8376 15.236Z" fill="#3F0803"/>
<path d="M59.3772 32.5643C60.2087 31.1846 60.2087 29.4721 59.3772 28.0924L57.7373 25.3721C57.5209 25.0143 57.4374 24.5877 57.5024 24.1736L57.9908 21.033C58.2396 19.4314 57.5889 17.8455 56.2937 16.8924L53.7512 15.0221C53.4158 14.7752 53.1762 14.4143 53.0789 14.0049L52.3385 10.9111C51.9629 9.33926 50.7636 8.12832 49.2087 7.74707L46.1484 6.99863C45.745 6.9002 45.388 6.65801 45.1422 6.31894L43.2922 3.74863C42.3493 2.4377 40.7806 1.77988 39.1963 2.03301L36.0881 2.52676C35.6786 2.59238 35.2566 2.50801 34.9027 2.28926L32.2118 0.631445C30.847 -0.20918 29.1531 -0.20918 27.7883 0.631445L25.0974 2.28926C24.7435 2.50801 24.3231 2.59238 23.9119 2.52676L20.8053 2.03301C19.2226 1.78145 17.6523 2.43926 16.7095 3.74863L14.8609 6.31894C14.6167 6.65801 14.2597 6.9002 13.8548 6.99863L10.7945 7.74707C9.24115 8.12676 8.04177 9.33926 7.66465 10.9111L6.92431 14.0049C6.82693 14.4127 6.58737 14.7752 6.25197 15.0221L3.70792 16.8924C2.41117 17.8455 1.76202 19.4314 2.01086 21.033L2.49927 24.1752C2.56418 24.5893 2.48072 25.0158 2.26434 25.3736L0.622915 28.0939C-0.208615 29.4736 -0.208615 31.1861 0.622915 32.5658L2.26279 35.2861C2.47917 35.6439 2.56264 36.0705 2.49772 36.4846L2.00931 39.6252C1.76047 41.2252 2.41117 42.8127 3.70638 43.7658L6.24888 45.6361C6.58582 45.883 6.82384 46.2439 6.92122 46.6533L7.66156 49.7471C8.03714 51.3189 9.23652 52.5314 10.7914 52.9111L12.0696 53.2236L3.42353 72.7236C3.23961 73.1377 3.29061 73.6205 3.55645 73.9861C3.8223 74.3518 4.26279 74.5455 4.70947 74.4908L11.6677 73.6502L15.677 79.4611C15.9119 79.8002 16.2937 80.0002 16.7002 80.0002C16.7388 80.0002 16.779 79.9986 16.8177 79.9939C17.2643 79.9518 17.6554 79.6689 17.8393 79.2549L26.6724 59.3361L27.7914 60.0268C28.473 60.4471 29.2381 60.658 30.0031 60.658C30.7682 60.658 31.5333 60.4471 32.2149 60.0268L33.3741 59.3127L42.218 79.2564C42.4019 79.6705 42.7914 79.9533 43.2396 79.9955C43.2783 79.9986 43.3184 80.0018 43.3571 80.0018C43.762 80.0018 44.1453 79.8018 44.3803 79.4627L48.3895 73.6518L55.3478 74.4924C55.7945 74.5455 56.2334 74.3533 56.5008 73.9877C56.7667 73.6221 56.8177 73.1393 56.6337 72.7252L47.9753 53.2096L49.2056 52.9096C50.7589 52.5299 51.9599 51.3174 52.3354 49.7455L53.0758 46.6518C53.1731 46.2439 53.4127 45.883 53.7481 45.6346L56.2906 43.7643C57.5874 42.8111 58.2365 41.2252 57.9877 39.6236L57.4993 36.4814C57.4344 36.0674 57.5178 35.6408 57.7342 35.283L59.3772 32.5643ZM16.4622 76.1924L13.286 71.5877C13.0232 71.2064 12.5719 71.0018 12.1144 71.0564L6.59973 71.7236L14.4792 53.9533C14.6229 54.0596 14.7527 54.1893 14.8594 54.3361L16.7095 56.9064C16.8857 57.1502 17.082 57.3721 17.2983 57.5689L13.1515 66.9221C12.8702 67.558 13.1515 68.3033 13.779 68.5877C13.9444 68.6627 14.1175 68.6986 14.2875 68.6986C14.7636 68.6986 15.2195 68.4205 15.4266 67.9533L19.5595 58.6346C19.966 58.6908 20.3849 58.6908 20.8053 58.6236L23.9135 58.1299C24.099 58.1002 24.2875 58.1033 24.4714 58.133L16.4622 76.1924ZM53.4514 71.7221L47.9367 71.0564C47.4792 71.0002 47.0294 71.2049 46.7651 71.5877L43.5889 76.1924L35.5781 58.1268C35.7466 58.1033 35.9181 58.1033 36.0866 58.1299L39.1932 58.6236C39.6306 58.6939 40.0665 58.6908 40.4884 58.6268L44.6245 67.9533C44.8316 68.4205 45.2875 68.6986 45.7636 68.6986C45.9336 68.6986 46.1067 68.6627 46.2736 68.5877C46.9027 68.3033 47.184 67.5564 46.9011 66.9221L42.7388 57.5346C42.9398 57.3455 43.1252 57.1377 43.2906 56.908L45.1407 54.3377C45.2566 54.1752 45.4004 54.0361 45.5611 53.9252L53.4514 71.7221ZM57.2473 31.2518L55.6059 33.9721C55.082 34.8393 54.8795 35.8705 55.0371 36.8752L55.5255 40.0174C55.6291 40.6783 55.3602 41.333 54.8254 41.7268L52.2813 43.5971C51.4668 44.1955 50.8888 45.0705 50.6507 46.0596L49.9104 49.1533C49.7543 49.8018 49.2597 50.3018 48.6183 50.4596L45.558 51.208C44.5796 51.4471 43.7141 52.033 43.1221 52.8564L41.2721 55.4268C40.8826 55.9674 40.235 56.2393 39.5812 56.1346L36.4745 55.6408C35.4807 55.483 34.4606 55.6877 33.6028 56.2158L30.9119 57.8736C30.3493 58.2205 29.6492 58.2205 29.0866 57.8736L26.3957 56.2143C25.7265 55.8018 24.9599 55.5861 24.1824 55.5861C23.9629 55.5861 23.7419 55.6033 23.524 55.6377L20.4158 56.1314C19.762 56.2361 19.1144 55.9643 18.7249 55.4236L16.8748 52.8533C16.2829 52.0299 15.4174 51.4455 14.439 51.2049L11.3787 50.4564C10.7373 50.2986 10.2427 49.7986 10.0866 49.1502L9.34625 46.0564C9.10978 45.0674 8.53018 44.1924 7.71565 43.5939L5.17315 41.7236C4.63837 41.3299 4.36944 40.6752 4.47299 40.0143L4.9614 36.8736C5.11751 35.8689 4.91503 34.8393 4.39262 33.9705L2.75274 31.2502C2.40962 30.6814 2.40962 29.9736 2.75274 29.4049L4.39417 26.6846C4.91812 25.8174 5.1206 24.7861 4.96295 23.7814L4.47454 20.6393C4.37098 19.9783 4.63992 19.3236 5.17469 18.9299L7.71874 17.0596C8.53327 16.4611 9.11132 15.5861 9.3478 14.5971L10.0881 11.5033C10.2427 10.8549 10.7388 10.3549 11.3803 10.1971L14.4405 9.44863C15.4189 9.20957 16.2844 8.62363 16.8764 7.80019L18.7265 5.22988C19.116 4.68926 19.7636 4.41738 20.4174 4.52207L23.524 5.01582C24.5178 5.17363 25.5379 4.96895 26.3957 4.44082L29.0866 2.78301C29.6492 2.43613 30.3493 2.43613 30.9119 2.78301L33.6028 4.44238C34.4606 4.97207 35.4807 5.17676 36.4745 5.01894L39.5827 4.5252C40.2365 4.42207 40.8841 4.69238 41.2736 5.23301L43.1237 7.80488C43.7157 8.62832 44.5812 9.2127 45.5595 9.45176L48.6198 10.2002C49.2612 10.3564 49.7558 10.858 49.9119 11.5064L50.6523 14.6002C50.8888 15.5893 51.4684 16.4643 52.2829 17.0627L54.8254 18.933C55.3602 19.3268 55.6291 19.9814 55.5255 20.6424L55.0371 23.783C54.881 24.7877 55.0835 25.8174 55.6059 26.6861L57.2458 29.4064C57.5905 29.9752 57.5905 30.683 57.2473 31.2518Z" fill="#3F0803"/>
<path d="M44.5935 26.4063C44.3184 25.5516 43.5997 24.9531 42.7156 24.8484L35.2117 23.9484L32.0464 17.0109C31.6739 16.1938 30.8903 15.6875 30 15.6875C29.1097 15.6875 28.3261 16.1953 27.9536 17.0109L24.7882 23.9484L17.2844 24.8484C16.4003 24.9547 15.6816 25.5516 15.4065 26.4063C15.1314 27.2609 15.3663 28.1719 16.0201 28.7828L21.5688 33.9703L20.0958 41.4625C19.9227 42.3453 20.2612 43.2203 20.9814 43.75C21.3787 44.0422 21.8393 44.1891 22.3029 44.1891C22.6801 44.1891 23.0587 44.0922 23.4065 43.8953L30 40.1641L36.5935 43.8953C37.3694 44.3344 38.2983 44.2797 39.0185 43.75C39.7388 43.2219 40.0773 42.3453 39.9042 41.4625L38.4312 33.9703L43.9784 28.7828C44.6337 28.1719 44.8686 27.2609 44.5935 26.4063ZM36.2257 32.5969C35.9073 32.8938 35.7651 33.3375 35.8485 33.7688L37.3555 41.436L30.6074 37.6172C30.4188 37.5109 30.2086 37.4563 29.9984 37.4563C29.7882 37.4563 29.578 37.5094 29.3895 37.6172L22.6414 41.436L24.1484 33.7688C24.2334 33.3391 24.0896 32.8953 23.7712 32.5969L18.0943 27.2891L25.7743 26.3688C26.2056 26.3172 26.578 26.0422 26.7604 25.6453L30 18.5469L33.2396 25.6453C33.4219 26.0438 33.7944 26.3172 34.2257 26.3688L41.9042 27.2891L36.2257 32.5969Z" fill="#3F0803"/>
</g>
<defs>
<clipPath id="clip0">
<rect width="60" height="80" fill="white"/>
</clipPath>
</defs>
</svg>
