<svg width="70" height="80" viewBox="0 0 70 80" fill="none" xmlns="http://www.w3.org/2000/svg">
<g clip-path="url(#clip0)">
<path d="M22.2532 15.9162C19.8129 16.8371 18.0645 19.1775 18.0645 21.9355C18.0645 22.9984 18.3468 23.9855 18.8049 24.871C16.8678 25.6162 15.4839 27.4823 15.4839 29.6775C15.4839 31.8742 16.8694 33.7388 18.8049 34.4839C18.3484 35.3694 18.0645 36.3581 18.0645 37.4194C18.0645 40.1791 19.8129 42.5194 22.2532 43.4404C22.0597 43.9807 21.9355 44.5549 21.9355 45.1613C21.9355 48.0081 24.25 50.3226 27.0968 50.3226C27.7387 50.3226 28.3484 50.1904 28.9161 49.9759C29.7516 51.7017 31.5048 52.9033 33.5484 52.9033C36.3952 52.9033 38.7097 50.5888 38.7097 47.742V11.613C38.7097 8.76779 36.3952 6.45166 33.5484 6.45166C31.5065 6.45166 29.7532 7.65489 28.9161 9.37908C28.3484 9.16456 27.7387 9.03231 27.0968 9.03231C24.25 9.03231 21.9355 11.3484 21.9355 14.1936C21.9355 14.8017 22.0597 15.3759 22.2532 15.9162ZM26.9726 11.6162C28.1532 11.5613 29.171 12.3033 29.5339 13.3484C29.7113 13.8581 30.2 14.1936 30.7403 14.1936C31.6258 14.1936 32.2565 13.3146 31.9532 12.4823C31.7468 11.9162 31.4436 11.3968 31.0661 10.9388C31.3839 9.78069 32.4774 8.93714 33.7581 9.04198C35.1097 9.15166 36.129 10.3226 36.129 11.6775V47.6791C36.129 49.0339 35.1113 50.2049 33.7613 50.3146C32.4807 50.4178 31.3855 49.5759 31.0694 48.4178C31.4452 47.9597 31.75 47.4404 31.9565 46.8742C32.2597 46.042 31.629 45.163 30.7436 45.163C30.2032 45.163 29.7145 45.4984 29.5371 46.0081C29.1742 47.0533 28.1548 47.7952 26.9758 47.7404C25.6629 47.6791 24.5823 46.5984 24.521 45.2855C24.4661 44.1049 25.2081 43.0872 26.2532 42.7242C26.7629 42.5468 27.0984 42.0581 27.0984 41.5178C27.0984 40.6291 26.2161 40.0017 25.3807 40.3065C24.8032 40.5178 24.2726 40.8323 23.8081 41.221C21.8839 40.863 20.4549 39.0839 20.6678 37.0146C20.8581 35.1565 22.3984 33.6807 24.2613 33.5597C26.179 33.4355 27.8258 34.7178 28.2694 36.4726C28.4113 37.0355 28.929 37.4226 29.5097 37.4226H29.521C30.3661 37.4226 30.9758 36.6226 30.7629 35.8033C30.0419 33.0242 27.5145 30.9678 24.5161 30.9678C23.0581 30.9678 21.7258 31.4726 20.6452 32.292V32.2581C19.2226 32.2581 18.0645 31.1 18.0645 29.6775C18.0645 28.2549 19.2226 27.0968 20.6452 27.0968V27.063C21.7258 27.8823 23.0581 28.3871 24.5161 28.3871C27.5145 28.3871 30.0419 26.3307 30.7613 23.5549C30.9742 22.7371 30.3645 21.9355 29.5194 21.9355H29.5081C28.9274 21.9355 28.4113 22.3226 28.2677 22.8855C27.8226 24.6404 26.1774 25.921 24.2613 25.7984C22.3984 25.6791 20.8581 24.2033 20.6645 22.3468C20.45 20.2759 21.879 18.4952 23.8048 18.1371C24.2694 18.5259 24.8 18.8388 25.3774 19.05C26.2113 19.3549 27.0936 18.7275 27.0936 17.8388C27.0936 17.2984 26.7581 16.8097 26.2484 16.6323C25.2032 16.2694 24.4613 15.25 24.5161 14.071C24.5807 12.7581 25.6597 11.6775 26.9726 11.6162Z" fill="#3F0803"/>
<path d="M52.9017 9.03426C52.2598 9.03426 51.6501 9.16652 51.0824 9.38103C50.2453 7.65523 48.492 6.45361 46.4501 6.45361C43.6033 6.45361 41.2888 8.76974 41.2888 11.6149V47.7439C41.2888 50.5907 43.6033 52.9052 46.4501 52.9052C48.492 52.9052 50.2453 51.7036 51.0824 49.9778C51.6501 50.1923 52.2582 50.3246 52.9017 50.3246C55.7485 50.3246 58.063 48.0101 58.063 45.1633C58.063 44.5568 57.9388 43.9826 57.7453 43.4423C60.1856 42.5214 61.934 40.181 61.934 37.4214C61.934 36.3601 61.6517 35.3714 61.1953 34.4859C63.1308 33.7407 64.5146 31.8762 64.5146 29.6794C64.5146 27.4843 63.1308 25.6181 61.1953 24.873C61.6517 23.9875 61.934 22.9988 61.934 21.9375C61.934 19.1794 60.1856 16.8391 57.7453 15.9165C57.9388 15.3762 58.063 14.802 58.063 14.1955C58.063 11.3488 55.7485 9.03426 52.9017 9.03426ZM59.3324 22.3455C59.1404 24.2036 57.6017 25.6794 55.7388 25.7988C53.8211 25.923 52.1743 24.6423 51.7308 22.8859C51.5888 22.323 51.0711 21.9359 50.4904 21.9359H50.4791C49.634 21.9359 49.0243 22.7359 49.2372 23.5552C49.9566 26.3326 52.484 28.3875 55.4824 28.3875C56.9404 28.3875 58.2727 27.8843 59.3533 27.0633V27.0972C60.7759 27.0972 61.934 28.2552 61.934 29.6778C61.934 31.1004 60.7759 32.2585 59.3533 32.2585V32.2923C58.2727 31.473 56.9404 30.9681 55.4824 30.9681C52.484 30.9681 49.9566 33.0246 49.2372 35.8004C49.0243 36.6181 49.634 37.4197 50.4791 37.4197H50.4904C51.0711 37.4197 51.5872 37.0326 51.7308 36.4697C52.1759 34.7133 53.8243 33.4326 55.742 33.5568C57.6049 33.6778 59.1437 35.1552 59.334 37.0133C59.5453 39.0826 58.1162 40.8601 56.1937 41.2181C55.7291 40.8294 55.1985 40.5165 54.6195 40.3036C53.7856 39.9988 52.9033 40.6262 52.9033 41.5149C52.9033 42.0552 53.2388 42.5439 53.7485 42.7214C54.7937 43.0843 55.5356 44.1036 55.4808 45.2826C55.4195 46.5956 54.3388 47.6762 53.0259 47.7375C51.8453 47.7923 50.8275 47.0504 50.4646 46.0052C50.2872 45.4956 49.7985 45.1601 49.2582 45.1601C48.3727 45.1601 47.742 46.0391 48.0453 46.8714C48.2517 47.4375 48.5549 47.9568 48.9324 48.4149C48.6146 49.5746 47.5211 50.4165 46.2404 50.3117C44.8904 50.202 43.8727 49.031 43.8727 47.6762V11.6778C43.8727 10.323 44.8904 9.152 46.2404 9.04232C47.5211 8.9391 48.6162 9.78103 48.9324 10.9391C48.5566 11.3972 48.2517 11.9165 48.0453 12.4826C47.742 13.3149 48.3727 14.1939 49.2582 14.1939C49.7985 14.1939 50.2872 13.8585 50.4646 13.3488C50.8275 12.3036 51.8469 11.5617 53.0259 11.6165C54.3388 11.6778 55.4195 12.7585 55.4808 14.0714C55.5356 15.252 54.7937 16.2697 53.7485 16.6326C53.2388 16.8101 52.9033 17.2988 52.9033 17.8391C52.9033 18.7278 53.7856 19.3552 54.6195 19.0504C55.1985 18.8391 55.7275 18.5262 56.1937 18.1375C58.1162 18.4972 59.5469 20.2762 59.3324 22.3455Z" fill="#3F0803"/>
<path d="M60.3176 8.04849C54.6176 2.69043 47.2483 -0.141832 39.458 0.00494209C38.7209 0.0194582 38.1402 0.640426 38.1854 1.37591C38.2273 2.06139 38.8015 2.59849 39.4886 2.58559C46.6096 2.45172 53.3418 5.03397 58.5499 9.92752C64.0596 15.1049 67.0951 22.1211 67.0951 29.6775C67.0951 38.784 62.5564 47.2291 54.9515 52.2678C52.3289 54.0065 50.3434 56.4872 49.1209 59.3533H30.8225C29.5822 56.4662 27.5902 53.9678 24.9628 52.213C17.466 47.2033 13.0209 38.9824 12.9047 30.034C12.8967 29.3485 12.3418 28.7936 11.6547 28.7727C10.9193 28.7501 10.3144 29.3453 10.3241 30.0807C10.4531 39.8743 15.3225 48.8759 23.5289 54.3582C25.4241 55.6259 26.937 57.3501 27.9918 59.3533H25.8063C25.0934 59.3533 24.516 59.9307 24.516 60.6436C24.516 61.3565 25.0934 61.934 25.8063 61.934H29.0225C29.2725 62.7694 29.4725 63.6275 29.5741 64.5146H28.387C27.6741 64.5146 27.0967 65.092 27.0967 65.8049C27.0967 66.5178 27.6741 67.0953 28.387 67.0953H29.6773V70.9662C29.6773 71.6807 30.2563 72.2565 30.9676 72.2565H32.258C32.258 76.5259 35.7305 79.9985 39.9999 79.9985C44.2692 79.9985 47.7418 76.5259 47.7418 72.2565H49.0322C49.7451 72.2565 50.3225 71.6791 50.3225 70.9662V67.0953H51.6128C52.3257 67.0953 52.9031 66.5178 52.9031 65.8049C52.9031 65.092 52.3257 64.5146 51.6128 64.5146H50.4128C50.5047 63.6275 50.687 62.7694 50.9305 61.934H54.1918C54.9047 61.934 55.4822 61.3565 55.4822 60.6436C55.4822 59.9307 54.9047 59.3533 54.1918 59.3533H51.9483C52.9886 57.3727 54.4918 55.6678 56.3773 54.4194C64.7031 48.8985 69.6741 39.6485 69.6741 29.6759C69.6757 21.5211 66.2644 13.6356 60.3176 8.04849ZM39.9999 77.4194C37.1531 77.4194 34.8386 75.1049 34.8386 72.2582H45.1612C45.1596 75.1049 42.8451 77.4194 39.9999 77.4194ZM47.7402 69.6775H32.2563V67.0969H47.7402V69.6775ZM47.8322 64.5162H32.1531C32.066 63.6372 31.9273 62.7743 31.716 61.9356H48.2338C48.0289 62.7727 47.9096 63.6404 47.8322 64.5162Z" fill="#3F0803"/>
<path d="M9.03227 9.03421C11.879 9.03421 14.1936 11.3503 14.1936 14.1955C14.1936 14.91 14.7726 15.4858 15.4839 15.4858C16.1968 15.4858 16.7742 14.91 16.7742 14.1955C16.7742 11.3503 19.0887 9.03421 21.9355 9.03421C22.6484 9.03421 23.2258 8.45841 23.2258 7.74389C23.2258 7.03099 22.6484 6.45357 21.9355 6.45357C19.0887 6.45357 16.7742 4.13905 16.7742 1.29228C16.7742 0.579373 16.1968 0.00195312 15.4839 0.00195312C14.7726 0.00195312 14.1936 0.579373 14.1936 1.29228C14.1936 4.13905 11.879 6.45357 9.03227 6.45357C8.32098 6.45357 7.74194 7.03099 7.74194 7.74389C7.74194 8.45679 8.31936 9.03421 9.03227 9.03421ZM15.4839 5.56647C16.0565 6.42776 16.7984 7.17131 17.6613 7.74389C16.8 8.31647 16.0581 9.0584 15.4839 9.92131C14.9113 9.06002 14.1694 8.31808 13.3065 7.74389C14.1694 7.17131 14.9113 6.42776 15.4839 5.56647Z" fill="#3F0803"/>
<path d="M14.1935 21.9356C14.9065 21.9356 15.4839 21.3598 15.4839 20.6453C15.4839 19.9324 14.9065 19.3549 14.1935 19.3549C11.3468 19.3549 9.03226 17.0404 9.03226 14.1936C9.03226 13.4807 8.45484 12.9033 7.74194 12.9033C7.03064 12.9033 6.45161 13.4807 6.45161 14.1936C6.45161 17.0404 4.1371 19.3549 1.29032 19.3549C0.579032 19.3549 0 19.9324 0 20.6453C0 21.3598 0.579032 21.9356 1.29032 21.9356C4.1371 21.9356 6.45161 24.2517 6.45161 27.0969C6.45161 27.8114 7.03064 28.3872 7.74194 28.3872C8.45484 28.3872 9.03226 27.8114 9.03226 27.0969C9.03226 24.2517 11.3468 21.9356 14.1935 21.9356ZM7.74194 22.8227C7.16935 21.9614 6.42742 21.2194 5.56452 20.6453C6.42581 20.0727 7.16774 19.3307 7.74194 18.4678C8.31452 19.3291 9.05645 20.0711 9.91935 20.6453C9.05645 21.2194 8.31452 21.9614 7.74194 22.8227Z" fill="#3F0803"/>
</g>
<defs>
<clipPath id="clip0">
<rect width="69.6758" height="80" fill="white"/>
</clipPath>
</defs>
</svg>
