<svg width="80" height="80" viewBox="0 0 80 80" fill="none" xmlns="http://www.w3.org/2000/svg">
<g clip-path="url(#clip0)">
<path d="M53.8237 32.872C50.6288 32.872 47.8799 30.6163 47.256 27.4817C46.6321 24.3488 48.3093 21.2108 51.261 19.9899C54.2128 18.7672 57.6158 19.8003 59.3902 22.4569C61.1646 25.1136 60.8158 28.654 58.5566 30.9115C57.3055 32.171 55.6015 32.8754 53.8237 32.872ZM53.8237 22.1584C52.2002 22.1584 50.7344 23.1379 50.1122 24.6389C49.49 26.14 49.8338 27.8674 50.9826 29.0163C52.5726 30.5341 55.0732 30.5341 56.6631 29.0163C57.812 27.8674 58.1558 26.14 57.5336 24.6389C56.913 23.1362 55.4489 22.1584 53.8237 22.1584Z" fill="#3F0803"/>
<path d="M43.9639 34.1451L40.1752 37.9321C39.828 38.2676 39.6871 38.7657 39.8096 39.2353C39.932 39.7032 40.2976 40.0688 40.7655 40.1913C41.2335 40.3137 41.7316 40.1745 42.0687 39.8256L45.8574 36.0386C46.3655 35.5137 46.3572 34.6785 45.8406 34.1619C45.3257 33.6437 44.4905 33.6369 43.9639 34.1451Z" fill="#3F0803"/>
<path d="M36.3881 41.7191L35.4405 42.6666C35.0849 43.0004 34.939 43.5019 35.0598 43.9765C35.1822 44.4495 35.5512 44.8201 36.0241 44.9409C36.4971 45.0633 37.0002 44.9174 37.334 44.5602L38.2816 43.6126C38.7897 43.0876 38.7814 42.2524 38.2648 41.7358C37.7482 41.2193 36.913 41.2126 36.3881 41.7191Z" fill="#3F0803"/>
<path d="M79.8681 2.61465L79.7843 1.45407C79.734 0.794947 79.2107 0.269999 78.5499 0.219685L77.3893 0.130796C62.7243 -1.00631 48.4535 5.24274 39.3432 16.7933L33.8002 23.8071C26.9289 19.4046 17.9176 20.3891 12.16 26.1719C11.9067 26.4235 11.7642 26.7639 11.7642 27.1212C11.7642 27.4784 11.905 27.8188 12.1583 28.0704L22.3604 38.2859L22.2162 38.4687C20.9516 40.0687 21.0858 42.3597 22.5264 43.8004L22.5734 43.8457L19.734 46.6834C17.1243 49.3014 17.1243 53.5362 19.734 56.1543L23.8463 60.2666C26.4644 62.8746 30.6992 62.8746 33.3172 60.2666L36.1583 57.4256L36.2036 57.4708C37.6442 58.9132 39.9352 59.0474 41.5352 57.7845L41.718 57.6386L51.9285 67.8423C52.1801 68.0939 52.5206 68.2348 52.8761 68.2331C53.2317 68.2331 53.5738 68.0922 53.8237 67.839C59.6065 62.0796 60.5893 53.0683 56.1868 46.197L63.2057 40.6574C74.7545 31.5471 81.0019 17.2813 79.8681 2.61465ZM15.0447 27.1631C19.8799 23.1144 26.7646 22.613 32.1348 25.9186L24.0359 36.1643L15.0447 27.1631ZM31.4237 58.3664C29.8539 59.9329 27.3113 59.9329 25.7415 58.3664L21.6292 54.2541C20.0644 52.6843 20.0644 50.1417 21.6292 48.5702L24.4702 45.7325L34.2648 55.5253L31.4237 58.3664ZM56.2556 55.5371C56.2606 58.9819 55.0497 62.3178 52.8375 64.9576L43.8363 55.9664L54.0803 47.8692C55.5076 50.1702 56.2606 52.8268 56.2556 55.5371ZM61.547 38.5509L39.8782 55.6813C39.3466 56.1023 38.5834 56.0587 38.1021 55.579L24.4233 41.9035C23.9403 41.4222 23.895 40.6557 24.3193 40.1224L41.448 18.4536C44.6514 14.4067 48.5809 10.9903 53.0354 8.38405L71.6283 26.9635C69.0187 31.4197 65.599 35.3492 61.547 38.5509ZM72.9566 24.5031L55.4925 7.04568C61.2401 4.1744 67.5746 2.67838 73.9998 2.67671C75.0564 2.67671 76.1197 2.71696 77.1814 2.79914L77.1998 2.81591C77.7717 10.296 76.3059 17.7912 72.9566 24.5031Z" fill="#3F0803"/>
<path d="M1.34034 80C0.937828 80 0.557115 79.8188 0.302189 79.5069C0.0472622 79.1949 -0.0533668 78.7857 0.0271364 78.3916C0.335732 76.8872 3.13825 63.6025 6.46739 60.2767C10.1286 56.6155 16.064 56.6155 19.7252 60.2767C23.3865 63.9379 23.3865 69.8733 19.7252 73.5345C16.3995 76.862 3.1198 79.6645 1.61204 79.9731C1.52148 79.9916 1.43091 80 1.34034 80ZM13.0955 60.2113C11.3194 60.2062 9.6154 60.9123 8.36257 62.1719C6.52609 64.0083 4.34579 71.4851 3.09296 76.909C8.51854 75.6645 15.9953 73.4775 17.8301 71.6427C19.7454 69.7274 20.319 66.8477 19.2825 64.3454C18.2443 61.8415 15.8024 60.2113 13.0955 60.2113Z" fill="#3F0803"/>
<path d="M30.1807 73.9271C29.639 73.9271 29.151 73.6001 28.943 73.1003C28.735 72.6005 28.8508 72.0235 29.2332 71.6411L34.9137 65.959C35.4386 65.4508 36.2738 65.4592 36.7904 65.9757C37.3069 66.4923 37.3137 67.3275 36.8072 67.8525L31.1267 73.5346C30.8768 73.7862 30.5346 73.9271 30.1807 73.9271Z" fill="#3F0803"/>
<path d="M40.8946 75.267C40.3529 75.267 39.8648 74.9399 39.6569 74.4401C39.4489 73.9403 39.5646 73.3634 39.947 72.981L45.6275 67.2988C46.1525 66.7906 46.9877 66.799 47.5043 67.3156C48.0208 67.8321 48.0275 68.6674 47.521 69.1923L41.8405 74.8745C41.589 75.1244 41.2485 75.267 40.8946 75.267Z" fill="#3F0803"/>
<path d="M25.4444 78.6617C24.9027 78.6617 24.4146 78.3346 24.2067 77.8348C23.9987 77.3333 24.1144 76.7581 24.4968 76.3757L25.4444 75.4281C25.7798 75.0809 26.278 74.9401 26.7476 75.0625C27.2155 75.1849 27.5811 75.5505 27.7035 76.0185C27.826 76.4864 27.6868 76.9845 27.3379 77.3216L26.3903 78.2692C26.1404 78.5208 25.8 78.6617 25.4444 78.6617Z" fill="#3F0803"/>
<path d="M16.0753 51.1615C15.5336 51.1615 15.0455 50.8344 14.8375 50.3346C14.6296 49.8349 14.7453 49.2579 15.1277 48.8755L20.8082 43.1933C21.3331 42.6852 22.1684 42.6935 22.6849 43.2101C23.2015 43.7267 23.2082 44.5619 22.7017 45.0868L17.0212 50.769C16.7713 51.0206 16.4308 51.1615 16.0753 51.1615Z" fill="#3F0803"/>
<path d="M16.0753 40.4476C15.5336 40.4476 15.0455 40.1206 14.8375 39.6208C14.6296 39.121 14.7453 38.544 15.1277 38.1616L20.8082 32.4795C21.3331 31.9713 22.1684 31.9797 22.6849 32.4962C23.2015 33.0128 23.2082 33.848 22.7017 34.373L17.0212 40.0552C16.7713 40.3067 16.4308 40.4476 16.0753 40.4476Z" fill="#3F0803"/>
<path d="M11.3404 55.896C10.7987 55.896 10.3106 55.569 10.1027 55.0692C9.89471 54.5677 10.0104 53.9924 10.3928 53.6101L11.3404 52.6625C11.6758 52.3153 12.174 52.1744 12.6436 52.2969C13.1115 52.4193 13.4771 52.7849 13.5995 53.2528C13.722 53.7207 13.5828 54.2189 13.2339 54.556L12.2863 55.5036C12.0348 55.7534 11.6943 55.896 11.3404 55.896Z" fill="#3F0803"/>
</g>
<defs>
<clipPath id="clip0">
<rect width="80" height="80" fill="white"/>
</clipPath>
</defs>
</svg>
