<svg width="80" height="80" viewBox="0 0 80 80" fill="none" xmlns="http://www.w3.org/2000/svg">
<g clip-path="url(#clip0)">
<path d="M33.8945 51.4373C33.5735 52.2948 33.2612 53.1341 32.9452 53.9723C32.6464 54.7646 32.3383 55.5537 32.0479 56.3494C31.9959 56.4925 31.935 56.5005 31.8091 56.4757C30.1421 56.1463 28.4742 55.8202 26.8064 55.4949C25.2749 55.1965 23.7431 54.8998 22.2112 54.6035C21.5917 54.4839 20.9727 54.363 20.3516 54.2518C20.2152 54.2274 20.1694 54.1758 20.1728 54.0356C20.198 52.9474 20.208 51.8591 20.2391 50.7709C20.2559 50.1854 20.2857 49.5999 20.2739 49.014C20.2701 48.829 20.3377 48.7899 20.5064 48.8025C21.3861 48.8688 22.2662 48.9263 23.1463 48.9889C23.4023 49.0069 23.6583 49.025 23.9131 49.0535C24.0348 49.0669 24.0767 49.0308 24.1002 48.9079C24.3831 47.4226 24.6731 45.939 24.9614 44.4545C25.2619 42.9088 25.5624 41.3635 25.8629 39.8178C26.1584 38.2998 26.4539 36.7822 26.7497 35.2646C27.1304 33.3109 27.5119 31.3577 27.8921 29.404C28.0764 28.4581 28.2535 27.5104 28.447 26.5665C28.4843 26.3839 28.4272 26.3298 28.2661 26.279C27.2047 25.9424 26.1466 25.5937 25.0861 25.2541C24.9426 25.208 24.8762 25.1832 24.9493 24.9943C25.515 23.5313 26.061 22.0603 26.6188 20.5939C26.7976 20.1234 26.8056 20.1222 27.3096 20.2195C28.7193 20.4915 30.1282 20.7672 31.5376 21.0417C33.5659 21.4371 35.5943 21.8332 37.6226 22.2282C37.9084 22.284 38.1947 22.3377 38.4813 22.3885C38.5737 22.4049 38.6223 22.43 38.6194 22.5442C38.5867 23.7642 38.5611 24.9843 38.5321 26.2043C38.5204 26.692 38.5002 27.1797 38.4939 27.6674C38.4922 27.7865 38.462 27.8252 38.3424 27.8163C37.7741 27.7744 37.2055 27.74 36.6372 27.7009C36.0207 27.659 35.4046 27.6162 34.7885 27.5708C34.7092 27.565 34.7016 27.6027 34.689 27.6661C34.3021 29.6609 33.9117 31.6548 33.5239 33.6492C33.3968 34.3027 33.2801 34.9582 33.1454 35.61C33.1118 35.7728 33.1357 35.8396 33.3082 35.8727C35.0995 36.2173 36.8894 36.5694 38.6798 36.9182C40.1634 37.2073 41.6475 37.4952 43.1315 37.7819C44.6772 38.0807 46.2238 38.3745 47.7682 38.6788C47.9118 38.7069 47.9512 38.6821 47.9785 38.5407C48.4901 35.8924 49.0063 33.245 49.5267 30.5985C49.5515 30.4721 49.5145 30.4377 49.4029 30.4021C48.3159 30.0537 47.2319 29.6953 46.1436 29.3495C45.9732 29.2953 45.9564 29.237 46.0202 29.0746C46.3547 28.2213 46.6737 27.3618 46.9985 26.5048C47.2742 25.7775 47.5538 25.0518 47.8232 24.3224C47.8601 24.2225 47.8992 24.2221 47.9869 24.2393C48.9601 24.4311 49.9342 24.6175 50.9079 24.8067C52.4461 25.1056 53.9842 25.4056 55.5224 25.7049C56.8427 25.9617 58.1623 26.2236 59.4843 26.47C59.6593 26.5027 59.6895 26.5707 59.6857 26.7273C59.653 27.9754 59.6282 29.2236 59.5984 30.4713C59.5884 30.9032 59.5674 31.3346 59.5594 31.7665C59.5573 31.8836 59.5518 31.9268 59.4029 31.9155C58.336 31.834 57.2683 31.7673 56.2006 31.6985C55.7847 31.6716 55.7839 31.675 55.7058 32.0733C55.4347 33.4549 55.164 34.8361 54.8937 36.2177C54.5105 38.1781 54.1269 40.138 53.7454 42.0988C53.4542 43.5967 53.1667 45.0954 52.8763 46.5933C52.585 48.0979 52.2925 49.602 52.0004 51.1062C51.8031 52.1206 51.6092 53.1354 51.404 54.1477C51.37 54.3152 51.3985 54.3815 51.571 54.4356C52.6463 54.7743 53.7161 55.1302 54.7896 55.4735C54.9197 55.515 54.9663 55.5537 54.9118 55.6976C54.3066 57.2874 53.7064 58.8793 53.1084 60.472C53.066 60.5845 53.0034 60.5933 52.8985 60.5727C51.6734 60.331 50.4479 60.0939 49.2224 59.8546C47.1937 59.4593 45.1653 59.0627 43.1365 58.6678C42.5716 58.5578 42.0067 58.4487 41.4401 58.3488C41.2928 58.3228 41.2345 58.2753 41.2391 58.1121C41.2672 57.0872 41.2756 56.0615 41.3067 55.0362C41.3239 54.4574 41.3453 53.8791 41.3461 53.3003C41.347 52.9029 41.3495 52.8907 41.7301 52.9155C42.6933 52.9776 43.6557 53.0519 44.6189 53.1207C44.6676 53.1241 44.7167 53.122 44.7658 53.1228C45.1489 53.1283 45.1464 53.1278 45.219 52.7552C45.5011 51.3051 45.786 49.8559 46.0668 48.4059C46.2959 47.2211 46.5112 46.0338 46.7542 44.852C46.795 44.6535 46.6963 44.664 46.5868 44.6421C45.5791 44.4449 44.5714 44.2501 43.5638 44.0537C41.9161 43.7327 40.2688 43.4095 38.6211 43.0897C37.1236 42.7989 35.6253 42.5105 34.1275 42.2209C33.4606 42.0921 32.7928 41.9666 32.1276 41.8298C31.9711 41.7975 31.9312 41.8491 31.9035 41.9931C31.5825 43.6689 31.2547 45.343 30.929 47.018C30.7347 48.0185 30.545 49.0199 30.3431 50.0188C30.307 50.1976 30.328 50.2832 30.5215 50.344C31.6412 50.6995 32.7584 51.0684 33.8945 51.4373Z" fill="#3F0803"/>
<path d="M62.7488 51.5329C63.9877 51.1754 65.1863 50.8274 66.3867 50.4854C66.4895 50.456 66.5256 50.4203 66.5264 50.3074C66.534 49.4563 66.5382 48.6048 66.5705 47.7541C66.586 47.3465 66.5709 46.9373 66.6397 46.5181C66.9734 47.0028 67.3091 47.4867 67.6407 47.9731C68.0138 48.5204 68.3848 49.0694 68.7537 49.62C68.8364 49.7434 68.9291 49.7614 69.0701 49.7199C70.2167 49.3829 71.3654 49.053 72.5137 48.7219C72.5255 48.7185 72.5401 48.7265 72.5859 48.7353C72.4016 48.9846 72.2279 49.2238 72.0495 49.4601C71.4838 50.2092 70.9193 50.9601 70.3456 51.7029C70.2726 51.7978 70.2839 51.8473 70.3426 51.9329C71.0549 52.9674 71.7637 54.0041 72.473 55.0407C72.4763 55.0457 72.4742 55.0546 72.4751 55.0617C72.452 55.1037 72.4197 55.089 72.3874 55.0768C71.4225 54.7222 70.4576 54.3671 69.4928 54.0125C69.3299 53.9524 69.1549 53.9134 69.0064 53.8286C68.8188 53.722 68.7298 53.8043 68.6236 53.9457C67.898 54.9123 67.1669 55.8746 66.3967 56.892C66.3967 56.638 66.3799 56.4399 66.4001 56.2452C66.4462 55.7928 66.4114 55.3395 66.4332 54.8867C66.4626 54.2806 66.453 53.6725 66.4635 53.0652C66.4651 52.9595 66.4521 52.9015 66.3283 52.8571C65.2363 52.4642 64.1489 52.0592 63.0598 51.6567C62.9704 51.6236 62.8818 51.5862 62.7488 51.5329Z" fill="#3F0803"/>
<path d="M3.81665 40.6373C4.60231 40.4115 5.33383 40.2008 6.06535 39.9905C6.52617 39.8579 6.98615 39.7232 7.44823 39.5956C7.55357 39.5666 7.58924 39.5184 7.58924 39.4072C7.58882 38.9186 7.5968 38.4301 7.60519 37.9416C7.61778 37.2025 7.63289 36.4635 7.64716 35.7244C7.648 35.6917 7.63835 35.6535 7.6992 35.6274C8.00138 36.0711 8.30565 36.5189 8.61119 36.9654C9.02458 37.5689 9.44007 38.1708 9.85263 38.7747C9.90635 38.8536 9.96049 38.8683 10.0558 38.8406C10.9149 38.5905 11.7761 38.3474 12.6369 38.1023C12.9676 38.0079 13.2983 37.9131 13.6836 37.8027C13.407 38.1649 13.1623 38.4847 12.9185 38.8053C12.4052 39.4815 11.8932 40.1588 11.3778 40.8333C11.327 40.9 11.335 40.939 11.3811 41.0062C12.0715 42.0134 12.7577 43.0236 13.4422 44.0347C13.4787 44.0888 13.5589 44.1152 13.5522 44.2151C12.9483 43.9961 12.3502 43.7816 11.7538 43.5625C11.1478 43.3401 10.543 43.1134 9.93741 42.8881C9.86648 42.8616 9.82913 42.8679 9.77205 42.9443C9.08376 43.8618 8.38665 44.7721 7.69081 45.684C7.62869 45.7655 7.5628 45.8439 7.4604 45.9715C7.4604 45.6182 7.45536 45.3109 7.46166 45.0037C7.47173 44.4951 7.49061 43.9868 7.50153 43.4786C7.51076 43.0463 7.50992 42.6132 7.52377 42.1809C7.52755 42.0575 7.4902 42.0017 7.37268 41.9593C6.24875 41.5543 5.12692 41.1426 4.00509 40.7321C3.95431 40.7137 3.90814 40.6839 3.81665 40.6373Z" fill="#3F0803"/>
<path d="M33.89 13.8095C33.6306 13.8951 33.3784 13.9744 33.1291 14.0626C33.0048 14.1062 32.954 14.0756 32.9129 13.9451C32.5041 12.6444 32.0878 11.3459 31.6736 10.047C31.6635 10.0147 31.6505 9.98319 31.6262 9.91646C31.6262 10.1557 31.6232 10.358 31.6266 10.5603C31.6396 11.3484 31.6392 12.1375 31.6757 12.9244C31.6895 13.2224 31.4683 13.1741 31.3219 13.253C31.1456 13.3474 31.125 13.1779 31.0709 13.0981C30.5253 12.3003 29.9868 11.4983 29.4454 10.6975C29.4383 10.687 29.4224 10.6828 29.3951 10.6664C29.4421 10.8343 29.4811 10.9921 29.5306 11.1462C29.9063 12.3183 30.2815 13.4905 30.6646 14.6598C30.7075 14.7907 30.6915 14.8457 30.5589 14.881C30.3641 14.9326 30.1665 14.9821 29.9818 15.0606C29.8089 15.1345 29.7703 15.0556 29.7258 14.9145C29.4702 14.1054 29.2062 13.2987 28.9477 12.4904C28.4961 11.0798 28.0483 9.66843 27.5929 8.25911C27.5484 8.12103 27.5581 8.06689 27.7125 8.03164C27.922 7.98379 28.1251 7.90573 28.327 7.82977C28.4096 7.79871 28.4399 7.81885 28.4885 7.88852C29.061 8.70944 29.6389 9.52657 30.2156 10.345C30.3969 10.6022 30.5778 10.8591 30.7729 11.1361C30.8212 10.9044 30.7687 10.6996 30.7683 10.4948C30.7679 9.75362 30.77 9.01245 30.7675 8.27128C30.7662 7.92965 30.762 7.5876 30.7469 7.24598C30.741 7.11336 30.778 7.04411 30.911 7.00801C31.1053 6.95555 31.2959 6.88714 31.4856 6.81831C31.5888 6.78096 31.6509 6.7881 31.6891 6.90855C31.9665 7.7836 32.2498 8.65739 32.5302 9.53161C32.7106 10.0944 32.8894 10.6576 33.0682 11.2209C33.3423 12.0825 33.6151 12.9433 33.89 13.8095Z" fill="#3F0803"/>
<path d="M63.2983 14.5558C63.5153 14.7401 63.7184 14.9172 63.927 15.0872C64.0143 15.1585 64.0223 15.2169 63.9463 15.3037C63.3995 15.9316 62.8539 16.5607 62.3116 17.1928C61.7652 17.8298 61.2251 18.4716 60.6799 19.1095C60.2334 19.6316 59.7814 20.1491 59.3378 20.6733C59.2534 20.7731 59.1875 20.7689 59.0998 20.69C58.924 20.5322 58.7506 20.3719 58.5668 20.2238C58.4984 20.1684 58.4975 20.1356 58.5496 20.076C58.9189 19.6526 59.2878 19.2283 59.6555 18.8027C59.9811 18.4254 60.3039 18.0464 60.6258 17.6708C60.3635 17.4471 60.1033 17.2385 59.8598 17.0119C59.7658 16.9242 59.7297 16.9481 59.6609 17.0287C59.169 17.6032 58.673 18.174 58.179 18.7469C58.0069 18.9462 57.8328 19.1443 57.6678 19.35C57.6145 19.4167 57.5864 19.3991 57.5369 19.3554C57.3447 19.185 57.1537 19.013 56.9548 18.8514C56.87 18.7825 56.9065 18.7469 56.9586 18.6869C57.2897 18.3041 57.6179 17.918 57.9469 17.5331C58.4069 16.9955 58.8669 16.4579 59.3268 15.9207C59.7826 15.3885 60.2384 14.8563 60.6942 14.3246C60.9922 13.9771 61.2956 13.6342 61.5852 13.28C61.6691 13.1772 61.7153 13.173 61.8097 13.2615C61.9763 13.4181 62.1543 13.5624 62.3314 13.7072C62.4044 13.7668 62.4203 13.805 62.3482 13.8881C61.7568 14.5689 61.1718 15.255 60.5855 15.9404C60.5146 16.0235 60.4487 16.1112 60.3756 16.2031C60.6673 16.4516 60.9573 16.6992 61.2469 16.9464C61.9327 16.1465 62.6142 15.3528 63.2983 14.5558Z" fill="#3F0803"/>
<path d="M21.6643 20.2946C21.6026 20.2912 21.5791 20.2434 21.551 20.2081C20.8086 19.2873 20.0703 18.3627 19.3245 17.444C18.6262 16.5837 17.9207 15.7288 17.2169 14.8726C16.981 14.5859 16.9789 14.5872 17.2752 14.3488C17.3398 14.2968 17.3889 14.23 17.4666 14.1885C17.5677 14.1348 17.634 13.9677 17.741 13.9963C17.8351 14.0215 17.9014 14.1587 17.9752 14.2506C18.4264 14.8109 18.8763 15.372 19.3266 15.9327C19.3354 15.9436 19.3451 15.9537 19.3543 15.9642C19.4798 16.1103 19.5873 16.3436 19.7362 16.3747C19.8525 16.399 20.0187 16.1678 20.1664 16.0553C20.665 15.6759 20.6533 15.6872 20.242 15.2058C19.7203 14.5952 19.2209 13.9656 18.7114 13.3445C18.6421 13.2601 18.6656 13.1955 18.7449 13.1338C18.9145 13.002 19.0916 12.8782 19.2469 12.7313C19.3711 12.6138 19.4395 12.6738 19.5176 12.7708C19.8391 13.1695 20.1601 13.569 20.4829 13.9669C21.0633 14.6816 21.6463 15.3943 22.2258 16.1094C22.8096 16.83 23.388 17.5548 23.9751 18.2725C24.0486 18.3623 24.02 18.3917 23.9462 18.4479C23.7535 18.5948 23.5626 18.7442 23.3821 18.9054C23.3057 18.9738 23.273 18.9507 23.2222 18.8878C22.6107 18.1273 21.998 17.3677 21.3852 16.608C21.2853 16.4842 21.2047 16.4019 21.0457 16.5677C20.8698 16.7507 20.6529 16.8951 20.448 17.0483C20.3482 17.123 20.3473 17.1918 20.4199 17.2804C20.9294 17.9019 21.4381 18.5235 21.9472 19.1455C22.0743 19.3007 22.1986 19.459 22.3304 19.6101C22.3937 19.6827 22.3786 19.7162 22.306 19.7721C22.1083 19.9236 21.9199 20.0864 21.7273 20.245C21.7059 20.2614 21.6844 20.2782 21.6643 20.2946Z" fill="#3F0803"/>
<path d="M13.5821 30.5004C13.1859 30.5285 12.8275 30.3305 12.4602 30.1701C11.2406 29.6384 10.0227 29.102 8.80432 28.5669C8.45556 28.4137 8.11016 28.2526 7.7572 28.1103C7.6443 28.0646 7.64304 28.0113 7.68123 27.9235C7.7807 27.6948 7.88269 27.4665 7.98005 27.2369C8.01027 27.1656 8.04343 27.1702 8.10806 27.1987C8.91302 27.5551 9.71925 27.9076 10.5255 28.2606C11.4274 28.6551 12.3285 29.0512 13.232 29.4416C13.4197 29.5226 13.6173 29.5687 13.8171 29.4672C14.0106 29.3685 14.1272 29.2246 14.1361 28.9942C14.1461 28.7268 14.0118 28.5497 13.7911 28.4477C13.1939 28.1707 12.5903 27.9084 11.9877 27.6432C10.8705 27.1513 9.75282 26.6611 8.63435 26.1726C8.52481 26.1248 8.47906 26.0668 8.55083 25.9552C8.56552 25.9325 8.57727 25.9074 8.58776 25.8822C8.68052 25.6606 8.75858 25.4319 8.88784 25.2271C9.10482 25.3177 9.32348 25.4054 9.53878 25.4998C10.7639 26.0362 11.9927 26.5654 13.2111 27.1165C13.6748 27.3263 14.1764 27.4661 14.5784 27.8039C15.103 28.245 15.3318 28.9497 15.1244 29.5146C14.894 30.1412 14.3413 30.5004 13.5821 30.5004Z" fill="#3F0803"/>
<path d="M49.0656 13.614C49.0345 13.1528 49.2268 12.7813 49.3699 12.4015C49.8126 11.226 50.2709 10.0559 50.7221 8.8837C50.8719 8.49465 51.0196 8.10518 51.1644 7.71403C51.2081 7.59651 51.2639 7.55371 51.3927 7.60868C51.6034 7.69892 51.8195 7.77572 52.0365 7.85085C52.1293 7.88274 52.1301 7.93268 52.1003 8.00949C51.6643 9.13593 51.2282 10.2628 50.7938 11.3901C50.5592 11.999 50.3238 12.6076 50.0993 13.2199C50.0267 13.418 50.0015 13.6312 50.1186 13.826C50.3431 14.1995 50.8341 14.1881 51.0788 13.8025C51.2811 13.4831 51.373 13.1154 51.5081 12.7675C52.0411 11.3964 52.5632 10.0211 53.0933 8.64867C53.2259 8.30579 53.2322 8.3104 53.5663 8.44638C53.7144 8.50682 53.8663 8.5576 54.017 8.61132C54.0942 8.63902 54.1207 8.66882 54.0841 8.76325C53.4211 10.4781 52.7559 12.1925 52.1095 13.9137C51.9098 14.4458 51.5866 14.8487 51.0595 15.0506C50.1014 15.4178 49.1172 14.7539 49.0664 13.7252C49.0635 13.6765 49.0656 13.6274 49.0656 13.614Z" fill="#3F0803"/>
<path d="M16.1673 25.949C15.6599 25.9662 15.257 25.7304 14.8708 25.4509C14.8092 25.406 14.8041 25.3602 14.8494 25.2943C14.9909 25.0899 15.1252 24.8809 15.2637 24.6749C15.3065 24.6111 15.3388 24.593 15.4215 24.6539C15.6036 24.7882 15.7937 24.9212 16.033 24.943C16.3175 24.9691 16.5332 24.8255 16.6902 24.5028C16.8031 24.2707 16.7599 24.0709 16.5551 23.8619C16.2907 23.5916 15.9696 23.4007 15.6477 23.2114C15.4471 23.093 15.2419 23.0876 15.0366 23.2101C14.7701 23.3696 14.4952 23.5161 14.2354 23.6852C13.6668 24.0554 13.0901 24.0554 12.5004 23.7494C12.0207 23.5001 11.5905 23.1891 11.2934 22.7258C10.9132 22.1324 10.94 21.4634 11.358 20.9006C11.695 20.4469 12.4136 20.2173 13.0104 20.3562C13.365 20.4385 13.6428 20.6546 13.9404 20.8393C14.026 20.8926 14.0033 20.9534 13.9605 21.0151C13.8187 21.2191 13.6663 21.4164 13.5341 21.6266C13.4695 21.729 13.42 21.6745 13.3688 21.6375C13.1929 21.5108 13.0116 21.3983 12.793 21.361C12.503 21.311 12.2956 21.4117 12.1403 21.6808C12.0186 21.8919 12.053 22.1487 12.2322 22.354C12.4509 22.6045 12.7212 22.7841 13.0213 22.9205C13.1677 22.9873 13.3155 22.978 13.4632 22.9071C13.7759 22.7564 14.0671 22.568 14.3521 22.3741C14.9552 21.9645 15.5503 22.0174 16.1467 22.3695C16.4858 22.5697 16.8144 22.7871 17.1082 23.0523C17.444 23.3553 17.7012 23.6982 17.7835 24.1637C17.8939 24.7873 17.4041 25.6049 16.7905 25.8324C16.5878 25.9079 16.3805 25.965 16.1673 25.949Z" fill="#3F0803"/>
<path d="M28.2253 15.8261C28.2224 15.9117 28.1385 15.9159 28.0931 15.9415C27.6919 16.1719 27.2857 16.3935 26.8798 16.6164C26.5457 16.7993 26.207 16.9744 25.878 17.1662C25.771 17.2287 25.7311 17.2333 25.6652 17.1145C24.8985 15.7233 24.1241 14.3358 23.3536 12.9466C22.9746 12.2638 22.599 11.5793 22.2234 10.8947C22.1894 10.8326 22.1436 10.781 22.2536 10.721C23.0002 10.3156 23.7426 9.9026 24.4825 9.48585C24.6118 9.41324 24.6806 9.39981 24.7511 9.55971C24.8368 9.75445 24.9555 9.93533 25.0659 10.1187C25.1305 10.2262 25.1352 10.2921 25.0038 10.3626C24.5409 10.611 24.0893 10.8796 23.6255 11.126C23.5114 11.1868 23.516 11.2318 23.568 11.3245C23.869 11.8604 24.1711 12.3955 24.4624 12.9365C24.5275 13.0574 24.5724 13.0557 24.6823 12.9923C25.0659 12.7716 25.4608 12.5706 25.8432 12.3481C25.954 12.2835 25.9901 12.3036 26.0438 12.4065C26.1525 12.6146 26.2734 12.8169 26.3934 13.0192C26.4559 13.1245 26.44 13.1841 26.325 13.245C25.9405 13.4481 25.5662 13.6706 25.1801 13.8708C25.0432 13.9417 25.0483 13.9941 25.1188 14.1163C25.4155 14.6317 25.7059 15.1508 25.9829 15.6771C26.0576 15.8194 26.1227 15.8118 26.2368 15.7468C26.6737 15.4962 27.114 15.2524 27.5501 15.0001C27.6659 14.933 27.7381 14.9288 27.8052 15.0652C27.9211 15.3006 28.0533 15.5281 28.1792 15.7589C28.1918 15.7829 28.2098 15.8038 28.2253 15.8261Z" fill="#3F0803"/>
<path d="M24.2441 63.1121C24.2148 63.1562 24.1925 63.191 24.1686 63.2246C24.0209 63.4328 23.8643 63.6355 23.7283 63.8508C23.6688 63.9448 23.6415 63.9183 23.5731 63.8692C23.1425 63.5578 22.7043 63.2569 22.2779 62.94C22.1696 62.8599 22.1138 62.8502 22.0332 62.9648C21.6836 63.4613 21.3281 63.954 20.9735 64.4471C20.9076 64.5391 20.8812 64.589 21.0117 64.675C21.3919 64.9248 21.7499 65.2081 22.1239 65.4678C22.2024 65.5224 22.2145 65.5409 22.1549 65.6202C21.9938 65.8355 21.8448 66.0596 21.692 66.2812C21.6349 66.3639 21.5867 66.3328 21.5212 66.285C21.1531 66.016 20.7783 65.7557 20.4128 65.4834C20.3234 65.4166 20.2714 65.4204 20.2113 65.5056C19.85 66.0193 19.4924 66.5359 19.1227 67.0434C19.0505 67.1424 19.0694 67.163 19.1588 67.2259C19.5936 67.5315 20.017 67.8529 20.4527 68.1568C20.545 68.2214 20.5668 68.2689 20.5047 68.3536C20.3373 68.5819 20.161 68.804 20.0023 69.0381C19.9495 69.1162 19.9264 69.1057 19.8638 69.0608C19.1521 68.5492 18.4394 68.0393 17.7243 67.5323C17.6185 67.4572 17.6676 67.398 17.7192 67.3258C18.0214 66.9057 18.3223 66.4843 18.6232 66.0638C19.3988 64.9802 20.1748 63.8969 20.9496 62.8133C21.2383 62.4091 21.5262 62.0046 21.812 61.5979C21.896 61.4787 21.9791 61.4682 22.0987 61.5559C22.7778 62.0541 23.461 62.5468 24.143 63.0412C24.1757 63.0639 24.2076 63.0865 24.2441 63.1121Z" fill="#3F0803"/>
<path d="M47.6695 70.3344C48.1194 70.2181 48.5571 70.1115 48.9906 69.9894C49.1312 69.9499 49.1942 69.9583 49.2223 70.1203C49.2588 70.331 49.3201 70.5388 49.3835 70.7436C49.4225 70.8695 49.4284 70.9291 49.2643 70.9652C48.8379 71.0592 48.4194 71.1884 47.9951 71.2938C47.876 71.3236 47.8407 71.3525 47.8781 71.4868C48.0443 72.0811 48.2 72.6779 48.3468 73.2772C48.38 73.412 48.4354 73.4006 48.5374 73.3738C49.0464 73.2378 49.5593 73.1148 50.0663 72.97C50.1943 72.9335 50.2224 72.9776 50.2476 73.0758C50.3126 73.331 50.371 73.5887 50.4486 73.8401C50.4855 73.9597 50.4322 73.9903 50.3412 74.0142C49.6097 74.2052 48.8786 74.3978 48.1462 74.5863C47.724 74.695 47.7232 74.6916 47.6132 74.2744C47.0358 72.082 46.4591 69.8895 45.8787 67.6979C45.8489 67.5858 45.8594 67.5464 45.984 67.5149C46.8041 67.3071 47.6225 67.0914 48.4388 66.869C48.5647 66.8346 48.6196 66.8606 48.649 66.9806C48.7065 67.2165 48.7627 67.4528 48.8295 67.6861C48.8572 67.7835 48.8404 67.8133 48.7384 67.8393C48.2209 67.9698 47.7089 68.1205 47.1898 68.2435C47.0458 68.2775 47.05 68.3383 47.0769 68.4411C47.2317 69.0312 47.3849 69.6217 47.5436 70.211C47.5604 70.2723 47.5557 70.386 47.6695 70.3344Z" fill="#3F0803"/>
<path d="M15.949 63.1218C16.1652 63.3552 16.3817 63.589 16.5958 63.8202C16.2369 64.2382 15.8311 64.571 15.2612 64.6457C14.5897 64.7339 13.995 64.4279 13.6928 63.8294C13.399 63.2473 13.4989 62.5754 13.9643 62.1045C14.9145 61.1439 15.9075 60.2281 16.8887 59.2993C17.1418 59.0601 17.3852 58.8192 17.7163 58.6828C18.3253 58.4323 18.9561 58.5632 19.4295 59.053C19.8379 59.4756 19.9243 60.1429 19.6696 60.7204C19.5118 61.0788 19.2222 61.3189 18.9645 61.5904C18.902 61.6563 18.8633 61.6332 18.8117 61.5803C18.6606 61.4251 18.5112 61.2677 18.3513 61.1216C18.2191 61.0012 18.2179 60.9055 18.3681 60.8043C18.5221 60.7007 18.6258 60.5555 18.7026 60.3872C18.8151 60.1412 18.779 59.9012 18.5977 59.7388C18.3849 59.5478 18.2246 59.5365 17.9539 59.6867C17.7449 59.8025 17.5757 59.9687 17.4058 60.1299C16.6575 60.8409 15.9154 61.5581 15.1739 62.2753C15.0341 62.4105 14.8767 62.5272 14.7579 62.6854C14.5179 63.0064 14.5133 63.2582 14.7533 63.4824C14.9863 63.6998 15.3325 63.6863 15.5986 63.4467C15.7123 63.3447 15.8231 63.2385 15.949 63.1218Z" fill="#3F0803"/>
<path d="M38.4386 68.1898C39.15 68.1898 39.8614 68.1915 40.5724 68.1877C40.6794 68.1873 40.7062 68.207 40.6966 68.3249C40.6777 68.5469 40.6815 68.7723 40.6941 68.9956C40.7025 69.1475 40.6655 69.2008 40.5018 69.1953C39.9856 69.1781 39.469 69.1802 38.9523 69.1718C38.8583 69.1702 38.8004 69.1727 38.7991 69.3011C38.7933 69.9357 38.7773 70.5702 38.7584 71.2044C38.7547 71.3315 38.7786 71.3739 38.923 71.3853C39.3691 71.4205 39.8161 71.3655 40.2614 71.4155C40.3705 71.4276 40.4028 71.4574 40.3994 71.5636C40.3923 71.7802 40.3952 71.9972 40.3982 72.2137C40.3999 72.3572 40.3705 72.4366 40.19 72.4273C39.7581 72.4055 39.325 72.4135 38.8923 72.4017C38.7777 72.3984 38.7404 72.4261 38.7391 72.5482C38.7307 73.4694 38.7102 74.3902 38.7043 75.3114C38.703 75.4793 38.6892 75.5599 38.4865 75.5334C38.2804 75.5066 38.0676 75.5221 37.8582 75.5296C37.7482 75.5334 37.7126 75.4973 37.7155 75.3865C37.7386 74.5153 37.7575 73.644 37.7772 72.7727C37.7868 72.3472 37.7793 71.922 37.7961 71.4961C37.8221 70.8262 37.8024 70.1552 37.8242 69.4853C37.8372 69.0875 37.8456 68.69 37.8406 68.2926C37.8389 68.1659 37.8867 68.1394 37.9992 68.1453C38.1457 68.1533 38.2926 68.1474 38.4395 68.1474C38.4386 68.1621 38.4386 68.1759 38.4386 68.1898Z" fill="#3F0803"/>
<path d="M72.1048 39.3678C72.9412 39.5524 73.7386 39.7304 74.5373 39.9037C75.0586 40.017 75.059 40.0141 75.0598 40.5513C75.0598 40.5794 75.0602 40.6071 75.0598 40.6352C75.0565 40.7645 75.1522 40.9403 75.0514 41.0066C74.9763 41.0557 74.8068 40.9651 74.6804 40.9315C73.4138 40.5979 72.1472 40.2625 70.8806 39.9289C70.5767 39.8487 70.2712 39.9335 69.9661 39.9306C69.5426 39.9264 69.1191 39.9646 68.6952 39.9843C68.3964 39.9981 68.0976 40.0078 67.7992 40.0254C67.7006 40.0313 67.6393 40.0162 67.6372 39.8995C67.633 39.6557 67.6263 39.4123 67.6124 39.1688C67.6066 39.0669 67.6414 39.0438 67.7405 39.0408C68.7003 39.011 69.6601 38.9733 70.6199 38.943C70.7731 38.9384 70.8994 38.8667 71.0363 38.8188C72.0141 38.4785 72.9929 38.1402 73.9716 37.8011C74.2473 37.7054 74.5256 37.616 74.7971 37.5094C74.915 37.4628 74.9499 37.5094 74.9541 37.6064C74.9654 37.864 74.9629 38.1221 74.9788 38.379C74.9868 38.5045 74.9016 38.5091 74.8248 38.5322C73.9539 38.7941 73.0827 39.0547 72.2118 39.317C72.1854 39.3241 72.1619 39.3401 72.1048 39.3678Z" fill="#3F0803"/>
<path d="M54.6368 17.2804C54.6162 17.2657 54.5948 17.2485 54.5713 17.2346C54.3745 17.1192 54.1814 16.9971 53.9791 16.8917C53.8448 16.8217 53.852 16.7604 53.925 16.6391C54.5058 15.6767 55.0775 14.7085 55.6529 13.7428C56.1015 12.9895 56.5477 12.2349 57.0047 11.4866C57.0882 11.3497 57.0756 11.2998 56.9317 11.2276C56.7042 11.1134 56.4944 10.9649 56.2749 10.8352C56.1901 10.7853 56.1552 10.7466 56.2232 10.6442C56.3647 10.4315 56.4914 10.209 56.6161 9.98574C56.6639 9.89971 56.7017 9.90642 56.7772 9.95175C57.6162 10.4575 58.4569 10.9603 59.2996 11.4601C59.376 11.5054 59.3999 11.5222 59.3399 11.6104C59.201 11.8156 59.0704 12.028 58.9588 12.2491C58.8963 12.3729 58.8379 12.3746 58.7372 12.3121C58.5085 12.1702 58.2751 12.0351 58.0481 11.8903C57.9734 11.8425 57.9343 11.8148 57.8735 11.9172C57.0173 13.3592 56.1561 14.7979 55.2965 16.2379C55.1089 16.5526 54.923 16.8682 54.7379 17.1843C54.7128 17.2258 54.6993 17.2745 54.6368 17.2804Z" fill="#3F0803"/>
<path d="M73.8882 32.0156C74.0254 31.9892 74.012 32.1025 74.0271 32.1747C74.1467 32.7442 74.2626 33.3146 74.3788 33.8849C74.4535 34.2513 74.5198 34.6198 74.6067 34.9833C74.6327 35.0915 74.6101 35.11 74.5148 35.1264C74.276 35.1683 74.0372 35.2137 73.8013 35.2712C73.6742 35.3022 73.6263 35.2644 73.6041 35.1402C73.5579 34.8808 73.4945 34.6244 73.448 34.3651C73.4274 34.2509 73.39 34.2308 73.2725 34.2555C71.3398 34.6643 69.4059 35.0668 67.472 35.4705C67.4107 35.4831 67.3477 35.4881 67.2882 35.5058C67.1979 35.5326 67.1639 35.5007 67.148 35.4105C67.1068 35.1784 67.0624 34.9467 67.0065 34.718C66.9772 34.5984 67.0229 34.5694 67.1287 34.548C67.8279 34.407 68.5258 34.2597 69.2242 34.1141C70.5139 33.8459 71.8036 33.5765 73.0937 33.3108C73.1978 33.2894 73.2251 33.2588 73.1961 33.148C73.1298 32.8936 73.0874 32.6326 73.0257 32.377C72.9959 32.2528 73.0102 32.1881 73.155 32.165C73.4018 32.1273 73.6444 32.0673 73.8882 32.0156Z" fill="#3F0803"/>
<path d="M30.8194 67.4059C30.8127 67.3539 30.7569 67.3577 30.7158 67.343C30.4467 67.2477 30.1786 67.1503 29.9079 67.0597C29.8315 67.0341 29.784 67.0186 29.8218 66.9191C29.9171 66.6656 30.0035 66.4083 30.0892 66.1511C30.1169 66.0684 30.1626 66.0675 30.2327 66.0923C31.0183 66.3718 31.8048 66.6492 32.5909 66.9275C32.6501 66.9485 32.7076 66.9728 32.7668 66.993C33.1143 67.1105 33.1172 67.1113 32.993 67.4668C32.9246 67.6628 32.8935 67.9347 32.7525 68.0225C32.6434 68.0905 32.3891 67.9259 32.1998 67.8642C32.0495 67.8156 31.8762 67.6972 31.7574 67.7383C31.6663 67.7698 31.6424 68.0006 31.5912 68.1438C31.297 68.9684 31.0028 69.7931 30.7107 70.6187C30.3607 71.6083 30.0119 72.5979 29.6674 73.5897C29.6317 73.6921 29.6074 73.7177 29.4961 73.6702C29.298 73.5863 29.0886 73.5271 28.883 73.4616C28.7529 73.4201 28.7176 73.3626 28.7697 73.2178C29.1923 72.0406 29.6044 70.8591 30.0203 69.6794C30.2696 68.9718 30.5198 68.2642 30.7691 67.5562C30.7858 67.5117 30.8001 67.4655 30.8194 67.4059Z" fill="#3F0803"/>
<path d="M44.4813 75.14C44.5182 75.2257 44.4632 75.2555 44.3314 75.2626C44.1174 75.2744 43.9054 75.3155 43.6922 75.3407C43.5974 75.352 43.521 75.3621 43.505 75.2131C43.4014 74.2482 43.2851 73.285 43.1722 72.321C43.014 70.9649 42.8591 69.6085 42.6917 68.2537C42.6686 68.0653 42.7089 67.9939 42.8994 67.986C43.0996 67.9776 43.2994 67.9457 43.4983 67.9188C43.6041 67.9045 43.6419 67.9348 43.6545 68.0485C43.824 69.5569 43.9982 71.0644 44.174 72.572C44.2723 73.4113 44.3751 74.2507 44.4813 75.14Z" fill="#3F0803"/>
<path d="M73.1852 29.434C73.1911 29.5041 73.1231 29.4873 73.0854 29.5008C72.3652 29.7572 71.6437 30.0107 70.9231 30.2663C69.4294 30.7963 67.9345 31.3239 66.4438 31.8619C66.2595 31.9282 66.1957 31.8926 66.1521 31.7087C66.1076 31.5203 66.0304 31.339 65.9573 31.159C65.9137 31.0511 65.9326 31.0079 66.0488 30.9676C66.8958 30.6734 67.7393 30.3691 68.5846 30.0699C69.9675 29.5801 71.3516 29.0937 72.7332 28.5997C72.8415 28.5611 72.886 28.5518 72.9234 28.6782C72.9884 28.8981 73.0749 29.1113 73.1517 29.3274C73.1634 29.3597 73.1727 29.3933 73.1852 29.434Z" fill="#3F0803"/>
<path d="M33.1394 74.6413C33.2939 74.039 33.4533 73.4074 33.6179 72.777C33.9117 71.6502 34.2088 70.5241 34.5026 69.3969C34.6407 68.8676 34.7737 68.3367 34.9093 67.8067C34.9403 67.6854 34.9823 67.6123 35.1401 67.6677C35.3483 67.7408 35.5682 67.7806 35.7835 67.8331C35.8674 67.8537 35.9035 67.8717 35.8737 67.985C35.2979 70.1699 34.7296 72.3573 34.1597 74.5439C34.158 74.5506 34.1547 74.5569 34.1526 74.5636C34.1118 74.7101 34.1106 74.9392 34.0208 74.9825C33.91 75.0354 33.7249 74.9334 33.5725 74.8969C33.458 74.8696 33.3438 74.8423 33.2301 74.8125C33.1579 74.7936 33.0924 74.7663 33.1394 74.6413Z" fill="#3F0803"/>
<path d="M27.5209 64.9177C27.0571 64.6164 26.5384 64.4208 26.054 64.1589C25.9 64.0758 25.8429 64.0981 25.767 64.2533C25.1496 65.5137 24.5226 66.7694 23.8981 68.0264C23.4809 68.8662 23.0654 69.7068 22.642 70.5433C22.5845 70.657 22.5933 70.7099 22.7104 70.7602C22.9118 70.8471 23.1145 70.9348 23.3046 71.0435C23.4314 71.1157 23.4713 71.0792 23.5275 70.9629C23.9086 70.176 24.2964 69.392 24.6833 68.6081C24.8378 68.2946 24.8365 68.3013 25.1609 68.4532C25.2923 68.5145 25.3397 68.5669 25.307 68.7315C25.1156 69.6821 24.9465 70.6373 24.7631 71.5896C24.7408 71.7054 24.7589 71.7671 24.8688 71.8174C25.0896 71.919 25.3045 72.034 25.5223 72.1423C25.5983 72.1801 25.6503 72.2292 25.6751 72.0751C25.8455 71.0091 26.0322 69.946 26.2102 68.8813C26.2232 68.8028 26.216 68.7419 26.3268 68.7239C26.8028 68.6475 27.1725 68.3991 27.4474 68.0041C27.8461 67.4317 28.1231 66.8143 28.1684 66.1478C28.1512 65.6035 27.951 65.1972 27.5209 64.9177ZM26.4611 67.66C26.3189 67.7997 26.1329 67.8199 25.9369 67.7553C25.7305 67.6868 25.5483 67.5689 25.3494 67.4858C25.2688 67.4518 25.2793 67.4098 25.3129 67.3435C25.6205 66.7358 25.9248 66.126 26.2299 65.517C26.2538 65.4692 26.2672 65.3978 26.3449 65.4411C26.5921 65.5783 26.8766 65.6543 27.0655 65.8876C27.1494 65.9909 27.1658 66.113 27.1948 66.2536C27.0605 66.7707 26.8603 67.2688 26.4611 67.66Z" fill="#3F0803"/>
<path d="M71.0318 24.4878C70.8463 24.0018 70.5617 23.5662 70.3208 23.1083C70.1769 22.8351 70.1748 22.8418 69.9221 22.979C69.181 23.3819 68.4381 23.7819 67.6948 24.181C66.8114 24.6552 65.9263 25.1261 65.0428 25.6C64.6286 25.822 64.2185 26.0515 63.803 26.271C63.7141 26.3181 63.6725 26.3541 63.7325 26.4565C63.8475 26.653 63.9562 26.854 64.0599 27.0567C64.1128 27.1604 64.1464 27.1897 64.2723 27.1201C65.1011 26.663 65.9384 26.2207 66.7736 25.775C66.8177 25.7515 66.8785 25.6868 66.9142 25.741C67.0019 25.8736 67.0863 26.0138 67.1371 26.1628C67.1694 26.2572 67.0472 26.308 66.986 26.3672C66.3044 27.0261 65.6207 27.6829 64.9329 28.3355C64.8355 28.4278 64.8149 28.5021 64.8854 28.6192C64.9924 28.7967 65.0965 28.978 65.1788 29.1677C65.2573 29.349 65.3202 29.3398 65.4499 29.2084C66.1814 28.4673 66.9222 27.7349 67.6545 26.9946C67.7473 26.901 67.8186 26.8779 67.9383 26.9442C68.1284 27.05 68.3378 27.0987 68.5426 27.0831C68.6144 27.0831 68.6702 27.0848 68.726 27.0823C68.7533 27.081 68.7801 27.0722 68.8074 27.0668C69.5436 26.9237 70.1744 26.5841 70.7002 26.0503C71.1438 25.6008 71.2572 25.0779 71.0318 24.4878ZM69.7236 25.6344C69.4374 25.827 69.1298 25.9915 68.7969 26.096C68.4574 26.2026 68.2312 26.1099 68.0436 25.7964C67.9937 25.7133 67.9475 25.6281 67.9034 25.542C67.7544 25.2504 67.7553 25.2504 68.0381 25.1005C68.5758 24.8151 69.1125 24.5289 69.6502 24.2435C69.6905 24.2221 69.7287 24.1382 69.7782 24.2343C69.9142 24.4979 70.0866 24.7463 70.1169 24.9864C70.1135 25.3339 69.9221 25.5005 69.7236 25.6344Z" fill="#3F0803"/>
<path d="M55.5043 69.9537C55.1534 69.2008 54.7967 68.4503 54.432 67.7041C54.1684 67.1648 53.9464 66.6041 53.6048 66.1038C53.1725 65.4701 52.3773 65.2258 51.6995 65.5398C51.2785 65.7349 50.8668 65.9506 50.4438 66.142C50.3015 66.2062 50.3045 66.2629 50.3653 66.3871C50.7816 67.2391 51.1908 68.0949 51.6013 68.9502C52.2102 70.2181 52.8196 71.4864 53.426 72.7556C53.4701 72.8479 53.5032 72.8718 53.6069 72.8189C54.0568 72.5894 54.5264 72.3959 54.9625 72.1432C55.4346 71.87 55.7049 71.4444 55.7141 70.8455C55.7065 70.5568 55.6398 70.2445 55.5043 69.9537ZM54.3942 71.316C53.9485 71.5775 53.9443 71.5813 53.7236 71.1242C53.0315 69.6897 52.3441 68.2531 51.6525 66.8181C51.6118 66.7338 51.5958 66.6914 51.71 66.6578C51.8216 66.6247 51.9219 66.555 52.0289 66.505C52.3735 66.3447 52.6395 66.4207 52.8523 66.743C53.1549 67.2009 53.3526 67.7121 53.5918 68.2023C53.9326 68.8994 54.2654 69.6007 54.6003 70.3008C54.6729 70.4523 54.7232 70.6105 54.7321 70.775C54.7291 71.0285 54.6007 71.1947 54.3942 71.316Z" fill="#3F0803"/>
<path d="M67.4063 18.779C66.9443 18.2166 66.1229 18.0525 65.459 18.3685C65.153 18.5142 64.9046 18.7337 64.6456 18.938C63.7286 19.6633 62.8162 20.3948 61.9105 21.1347C61.485 21.4822 61.2143 21.9229 61.2151 22.4945C61.2168 23.4031 61.8899 24.0679 62.8003 24.0616C63.3404 24.0578 63.7521 23.78 64.1512 23.4555C64.8974 22.8487 65.6621 22.2649 66.402 21.6505C66.7462 21.3647 67.1293 21.1238 67.4042 20.7519C67.8407 20.1606 67.8546 19.3246 67.4063 18.779ZM66.5246 20.2785C66.138 20.6567 65.6906 20.9651 65.2714 21.3051C64.6591 21.8016 64.0455 22.2964 63.4302 22.7891C63.3391 22.8621 63.243 22.9339 63.1394 22.9859C62.7159 23.1983 62.2375 22.8818 62.2425 22.3988C62.2362 22.1449 62.3999 21.9845 62.5732 21.8452C63.5968 21.0222 64.6251 20.2051 65.6541 19.3879C65.8426 19.2381 66.0474 19.1638 66.2937 19.2591C66.7273 19.4278 66.8595 19.9516 66.5246 20.2785Z" fill="#3F0803"/>
<path d="M47.0305 13.4269C46.9974 12.1586 46.9709 10.8903 46.9441 9.62199C46.9226 8.60424 46.9017 7.5865 46.8861 6.56875C46.8845 6.46299 46.8563 6.42396 46.7489 6.41304C46.5768 6.39542 46.4039 6.37024 46.2373 6.32491C46.1021 6.28798 46.0627 6.33414 46.0165 6.45459C45.6615 7.38085 45.2984 8.30375 44.935 9.22664C44.4141 10.5499 43.8912 11.8724 43.367 13.1944C43.3321 13.2825 43.346 13.314 43.4429 13.33C43.6754 13.3677 43.9063 13.4168 44.1375 13.4622C44.2563 13.4857 44.3067 13.4332 44.3457 13.3207C44.4901 12.9073 44.6517 12.4998 44.7956 12.0864C44.8288 11.992 44.8624 11.9744 44.9564 11.992C45.29 12.0549 45.6249 12.1091 45.9603 12.1636C46.0581 12.1796 46.0946 12.2224 46.0895 12.3273C46.0799 12.5435 46.0866 12.7604 46.0866 12.9774C46.0866 13.1033 46.0866 13.2292 46.0866 13.3547C46.0866 13.8046 46.0862 13.8067 46.534 13.8793C46.7015 13.9066 46.9252 14.0241 47.023 13.9297C47.1224 13.8323 47.0351 13.5998 47.0305 13.4269ZM46.0874 11.0217C46.0866 11.119 46.0858 11.1723 45.954 11.1417C45.7059 11.0838 45.452 11.051 45.1796 11.0045C45.4806 10.1768 45.7765 9.36262 46.0728 8.54843C46.1277 9.37941 46.0929 10.2003 46.0874 11.0217Z" fill="#3F0803"/>
<path d="M38.248 7.15953C38.0532 6.43389 37.4531 5.87108 36.5826 5.97349C36.1419 6.02553 35.6996 6.06498 35.2568 6.09898C35.0944 6.11157 35.0763 6.19005 35.0919 6.32561C35.1859 7.15869 35.2786 7.99219 35.3655 8.82611C35.5221 10.3294 35.6757 11.8328 35.8263 13.3365C35.8381 13.4523 35.8939 13.4742 35.99 13.4628C36.2238 13.4351 36.4571 13.4016 36.6917 13.3835C36.7937 13.3755 36.8097 13.3558 36.7979 13.2484C36.7043 12.4149 36.6313 11.5789 36.5297 10.7466C36.502 10.5187 36.5898 10.4893 36.7744 10.4805C37.0926 10.4654 37.4107 10.4264 37.6902 10.2547C38.2706 9.89926 38.4234 9.33142 38.4498 8.70944C38.4184 8.18357 38.3835 7.66442 38.248 7.15953ZM36.7098 9.48125C36.4143 9.51105 36.4085 9.51147 36.3766 9.22314C36.3006 8.5424 36.2339 7.86041 36.1566 7.17967C36.1424 7.05419 36.1663 7.01348 36.301 7.01935C36.445 7.02565 36.5902 6.98662 36.7354 6.9841C37.0934 6.9778 37.3217 7.15743 37.3972 7.51291C37.4778 7.89315 37.5194 8.27926 37.5257 8.5487C37.5253 9.23531 37.3423 9.41746 36.7098 9.48125Z" fill="#3F0803"/>
<path d="M40.0002 1.17513C42.635 1.17513 45.2682 1.44038 47.8262 1.96415C50.3183 2.47407 52.7697 3.23497 55.1124 4.22586C57.4127 5.1987 59.6312 6.40321 61.707 7.80539C63.763 9.19456 65.6965 10.7898 67.4538 12.547C69.211 14.3043 70.8063 16.2378 72.1954 18.2939C73.5976 20.3692 74.8017 22.5881 75.775 24.8884C76.7659 27.2311 77.5268 29.6826 78.0367 32.1747C78.56 34.7327 78.8257 37.3654 78.8257 40.0006C78.8257 42.6359 78.5605 45.2686 78.0367 47.8266C77.5268 50.3187 76.7659 52.7701 75.775 55.1128C74.8021 57.4131 73.5976 59.6316 72.1954 61.7074C70.8063 63.7635 69.211 65.697 67.4538 67.4542C65.6965 69.2114 63.763 70.8067 61.707 72.1959C59.6316 73.598 57.4127 74.8021 55.1124 75.7754C52.7697 76.7663 50.3183 77.5272 47.8262 78.0371C45.2682 78.5605 42.6354 78.8257 40.0002 78.8257C37.365 78.8257 34.7323 78.5605 32.1743 78.0371C29.6821 77.5272 27.2307 76.7663 24.888 75.7754C22.5877 74.8026 20.3692 73.598 18.2934 72.1959C16.2374 70.8067 14.3039 69.2114 12.5466 67.4542C10.7894 65.697 9.19414 63.7635 7.80497 61.7074C6.40279 59.632 5.19828 57.4131 4.22544 55.1128C3.23455 52.7701 2.47365 50.3187 1.96373 47.8266C1.44038 45.2682 1.17513 42.635 1.17513 40.0002C1.17513 37.3654 1.44038 34.7323 1.96415 32.1743C2.47407 29.6821 3.23497 27.2307 4.22586 24.888C5.1987 22.5877 6.40321 20.3692 7.80539 18.2934C9.19456 16.2374 10.7898 14.3039 12.547 12.5466C14.3043 10.7894 16.2378 9.19414 18.2939 7.80497C20.3692 6.40279 22.5881 5.1987 24.8884 4.22544C27.2311 3.23455 29.6826 2.47365 32.1747 1.96373C34.7323 1.44038 37.365 1.17513 40.0002 1.17513ZM40.0002 0C17.9086 0 0 17.9086 0 40.0002C0 62.0918 17.9086 80.0004 40.0002 80.0004C62.0918 80.0004 80.0004 62.0918 80.0004 40.0002C80.0004 17.9086 62.0914 0 40.0002 0Z" fill="#3F0803"/>
</g>
<defs>
<clipPath id="clip0">
<rect width="80" height="80" fill="white"/>
</clipPath>
</defs>
</svg>
