<svg width="30" height="40" viewBox="0 0 30 40" fill="none" xmlns="http://www.w3.org/2000/svg">
<path d="M30 15C30 21.9698 25.2464 27.8293 18.8043 29.5133C14.3478 30.7609 15.9783 34.0217 15 34.0217C14.0217 34.0217 15.5435 30.7609 11.1957 29.5133C4.75364 27.8293 0 21.9698 0 15C0 6.71573 6.71573 0 15 0C23.2843 0 30 6.71573 30 15Z" fill="#EB483F"/>
<path d="M30 15C30 21.9698 25.2464 27.8293 18.8043 29.5133C14.3478 30.7609 15.9783 34.0217 15 34.0217C14.0217 34.0217 15.5435 30.7609 11.1957 29.5133C4.75364 27.8293 0 21.9698 0 15C0 6.71573 6.71573 0 15 0C23.2843 0 30 6.71573 30 15Z" fill="#EB483F"/>
<path d="M17.8262 15.1086C17.8262 16.6094 16.6096 17.826 15.1088 17.826C13.608 17.826 12.3914 16.6094 12.3914 15.1086C12.3914 13.6079 13.608 12.3912 15.1088 12.3912C16.6096 12.3912 17.8262 13.6079 17.8262 15.1086Z" fill="white"/>
<path d="M16.5222 38.587C16.5222 39.3674 15.8896 40 15.1091 40C14.3287 40 13.6961 39.3674 13.6961 38.587C13.6961 37.8066 14.3287 37.174 15.1091 37.174C15.8896 37.174 16.5222 37.8066 16.5222 38.587Z" fill="#EB483F"/>
</svg>
