<svg width="48" height="48" viewBox="0 0 48 48" fill="none" xmlns="http://www.w3.org/2000/svg">
<circle cx="24" cy="24" r="24" fill="#F5F5F5"/>
<path d="M29.6602 26.1836C30.2227 26.7227 30.5977 27.1328 30.7852 27.4141C30.9961 27.6719 31.1016 27.8242 31.1016 27.8711C31.2891 28.2461 31.2539 28.4922 30.9961 28.6094C30.7617 28.7031 30.6211 28.7383 30.5742 28.7148L28.6406 28.75C28.6406 28.75 28.5469 28.75 28.3594 28.75C28.1719 28.7266 27.9492 28.6328 27.6914 28.4688C27.3164 28.1641 26.9531 27.8125 26.6016 27.4141C26.2734 26.9922 25.9805 26.8047 25.7227 26.8516C25.4648 26.9688 25.3125 27.2148 25.2656 27.5898C25.2188 27.9414 25.207 28.1406 25.2305 28.1875L25.1953 28.2578C25.1953 28.3281 25.1602 28.3984 25.0898 28.4688C25.0195 28.5391 24.9375 28.5742 24.8438 28.5742L23.8242 28.5391C23.7773 28.5859 23.3906 28.5508 22.6641 28.4336C21.9375 28.3164 21.1289 27.8359 20.2383 26.9922C19.3008 25.9375 18.4922 24.7656 17.8125 23.4766C17.1562 22.1641 16.8164 21.4492 16.793 21.332L16.7578 21.2266C16.7344 21.1328 16.7461 21.0625 16.793 21.0156C16.8633 20.9453 16.9453 20.8984 17.0391 20.875H17.2148H19.2891H19.4297C19.5 20.8984 19.5586 20.9336 19.6055 20.9805C19.6758 21.0273 19.7227 21.0859 19.7461 21.1562L20.0273 21.7539C20.168 22.082 20.3555 22.4453 20.5898 22.8438C21.0117 23.5703 21.3398 24.0508 21.5742 24.2852C21.8086 24.5195 21.9961 24.5898 22.1367 24.4961C22.3477 24.3086 22.4531 23.9336 22.4531 23.3711C22.4531 22.7852 22.4531 22.457 22.4531 22.3867L22.418 22.0352C22.3945 21.8008 22.3359 21.5898 22.2422 21.4023C22.1484 21.2852 22.0312 21.2031 21.8906 21.1562C21.7734 21.1094 21.6797 21.0859 21.6094 21.0859C21.5391 21.0859 21.5391 21.0391 21.6094 20.9453C21.6797 20.8516 21.7734 20.7578 21.8906 20.6641C22.1016 20.5938 22.3594 20.5469 22.6641 20.5234C22.9688 20.5 23.3203 20.4883 23.7188 20.4883C24 20.4883 24.2109 20.5 24.3516 20.5234C24.4922 20.5469 24.6211 20.5703 24.7383 20.5938C25.0664 20.6641 25.2305 20.8984 25.2305 21.2969C25.2305 21.6719 25.2188 22.2461 25.1953 23.0195C25.1953 23.3008 25.1953 23.582 25.1953 23.8633C25.2188 24.1445 25.3125 24.3555 25.4766 24.4961C25.5469 24.5664 25.6992 24.5195 25.9336 24.3555C26.168 24.168 26.5195 23.6758 26.9883 22.8789C27.2227 22.457 27.4102 22.0703 27.5508 21.7188L27.7969 21.1562L27.832 21.0859C27.8789 21.0391 27.9258 20.9922 27.9727 20.9453C28.043 20.8984 28.1133 20.875 28.1836 20.875H30.4336C30.457 20.875 30.5742 20.875 30.7852 20.875C30.9961 20.875 31.1367 20.9453 31.207 21.0859C31.3242 21.3906 30.9492 22.1289 30.082 23.3008C29.332 24.2148 28.9219 24.8125 28.8516 25.0938C28.7812 25.3516 29.0508 25.7148 29.6602 26.1836Z" fill="#ADA5A5"/>
</svg>
