<svg width="80" height="80" viewBox="0 0 80 80" fill="none" xmlns="http://www.w3.org/2000/svg">
<path d="M29.7059 80C29.2247 80 28.7716 79.7828 28.4637 79.4031L21.9153 71.3203L11.6356 69.6859C10.9512 69.5766 10.4169 69.0437 10.3091 68.3578L8.67469 58.0781L0.591874 51.5297C0.0528119 51.0938 -0.140938 50.3641 0.105937 49.7141L3.83094 40L0.105937 30.2828C-0.140938 29.6344 0.0543744 28.9047 0.591874 28.4703L8.67469 21.9203L10.3091 11.6406C10.4184 10.9563 10.9512 10.4219 11.6372 10.3125L21.9169 8.67813L28.4653 0.595312C28.77 0.217187 29.22 0.0015625 29.7028 0.0015625C29.8997 0.0015625 30.0919 0.0375 30.2762 0.109375L39.9966 3.83594L49.7091 0.104688C49.8903 0.0359375 50.0841 0 50.2809 0C50.7684 0 51.2216 0.215625 51.5247 0.590625L58.0747 8.67344L68.3544 10.3078C69.0387 10.4172 69.5731 10.95 69.6809 11.6359L71.3153 21.9156L79.3981 28.4641C79.9403 28.9031 80.1356 29.6328 79.8856 30.2797L76.1591 40L79.8903 49.7125C80.1372 50.3625 79.9434 51.0938 79.4044 51.5297L71.3215 58.0781L69.6872 68.3594C69.5778 69.0437 69.045 69.5781 68.3591 69.6875L58.0794 71.3219L51.5309 79.4047C51.2309 79.775 50.7653 79.9969 50.2856 79.9969C50.0919 79.9969 49.8934 79.9594 49.7106 79.8906L39.9966 76.1656L30.2841 79.8906C30.0934 79.9641 29.9012 80 29.7059 80ZM49.7731 76.4859L55.9669 68.8219C56.2169 68.5141 56.5684 68.3109 56.9544 68.25L66.6919 66.7016L68.2403 56.9672C68.3012 56.5766 68.5044 56.2266 68.8137 55.975L76.4762 49.7719L72.945 40.5719C72.8044 40.2031 72.8044 39.7953 72.945 39.4266L76.4762 30.2266L68.8137 24.0234C68.5059 23.7734 68.3028 23.4219 68.2419 23.0344L66.6934 13.2969L56.9591 11.7484C56.57 11.6875 56.2184 11.4844 55.9669 11.175L49.7653 3.5125L40.5622 7.04688C40.3809 7.11719 40.1872 7.15156 39.9903 7.15156C39.7934 7.15156 39.5997 7.11562 39.4169 7.04531L30.2169 3.51406L24.0184 11.1719C23.7684 11.4797 23.4169 11.6828 23.0294 11.7438L13.2919 13.2922L11.7434 23.0266C11.6825 23.4172 11.4794 23.7672 11.17 24.0187L3.50906 30.2203L7.03406 39.425C7.17937 39.7969 7.17937 40.2047 7.03875 40.5797L3.50906 49.7766L11.1731 55.975C11.4809 56.225 11.6841 56.5766 11.745 56.9641L13.2934 66.7016L23.0278 68.25C23.4184 68.3109 23.7684 68.5141 24.02 68.8234L30.2216 76.4859L39.4216 72.9547C39.5997 72.8859 39.7981 72.85 39.9934 72.85C40.1809 72.85 40.3778 72.8859 40.5809 72.9594L49.7731 76.4859Z" fill="black"/>
<path d="M32.3167 33.9199C28.612 33.9199 25.5979 30.9059 25.5979 27.2012C25.5979 23.4965 28.612 20.4824 32.3167 20.4824C36.0213 20.4824 39.0354 23.4965 39.0354 27.2012C39.0354 30.9059 36.0213 33.9199 32.3167 33.9199ZM32.3167 23.6809C30.376 23.6809 28.7963 25.259 28.7963 27.2012C28.7963 29.1434 30.3745 30.7215 32.3167 30.7215C34.2588 30.7215 35.837 29.1434 35.837 27.2012C35.837 25.259 34.2573 23.6809 32.3167 23.6809Z" fill="black"/>
<path d="M47.6741 59.5176C43.9694 59.5176 40.9553 56.5035 40.9553 52.7988C40.9553 49.0941 43.9694 46.0801 47.6741 46.0801C51.3788 46.0801 54.3928 49.0941 54.3928 52.7988C54.3928 56.5035 51.3788 59.5176 47.6741 59.5176ZM47.6741 49.2785C45.7334 49.2785 44.1538 50.8566 44.1538 52.7988C44.1538 54.7395 45.7319 56.3191 47.6741 56.3191C49.6147 56.3191 51.1944 54.741 51.1944 52.7988C51.1928 50.8582 49.6147 49.2785 47.6741 49.2785Z" fill="black"/>
<path d="M27.1961 59.517C26.8586 59.517 26.5367 59.4139 26.2649 59.2201C25.918 58.9732 25.6899 58.6045 25.6196 58.1826C25.5492 57.7607 25.6477 57.3389 25.8961 56.992L51.4946 21.1545C51.793 20.7373 52.2805 20.4873 52.7977 20.4873C53.1321 20.4873 53.4524 20.5904 53.7227 20.7842C54.0696 21.0326 54.2992 21.3998 54.3696 21.8217C54.4399 22.2436 54.3414 22.6654 54.093 23.0139L28.4992 58.8498C28.2008 59.2686 27.7133 59.517 27.1961 59.517Z" fill="black"/>
</svg>
