<svg width="12" height="16" viewBox="0 0 12 16" fill="none" xmlns="http://www.w3.org/2000/svg">
<path d="M6 7.86328C6.53906 7.86328 6.98438 7.6875 7.33594 7.33594C7.6875 6.98438 7.86328 6.53906 7.86328 6C7.86328 5.46094 7.6875 5.01562 7.33594 4.66406C6.98438 4.3125 6.53906 4.13672 6 4.13672C5.46094 4.13672 5.01562 4.3125 4.66406 4.66406C4.3125 5.01562 4.13672 5.46094 4.13672 6C4.13672 6.53906 4.3125 6.98438 4.66406 7.33594C5.01562 7.6875 5.46094 7.86328 6 7.86328ZM6 0.761719C7.5 0.785156 8.74219 1.28906 9.72656 2.27344C10.7109 3.25781 11.2148 4.5 11.2383 6C11.0273 8.13281 10.1602 10.2539 8.63672 12.3633C7.08984 14.4492 6.21094 15.5742 6 15.7383C5.78906 15.5742 4.92188 14.4492 3.39844 12.3633C1.85156 10.2539 0.972656 8.13281 0.761719 6C0.785156 4.5 1.28906 3.25781 2.27344 2.27344C3.25781 1.28906 4.5 0.785156 6 0.761719Z" fill="black"/>
</svg>
