<svg width="48" height="48" viewBox="0 0 48 48" fill="none" xmlns="http://www.w3.org/2000/svg">
<circle cx="24" cy="24" r="24" fill="white"/>
<path d="M31.8398 19.75C31.2539 20.0078 30.6445 20.1836 30.0117 20.2773C30.6914 19.8555 31.1602 19.2578 31.418 18.4844C30.7852 18.8594 30.1055 19.1172 29.3789 19.2578C28.7695 18.6016 27.9727 18.2617 26.9883 18.2383C26.0977 18.2617 25.3477 18.5781 24.7383 19.1875C24.1289 19.7969 23.8125 20.5586 23.7891 21.4727C23.7891 21.7305 23.8242 21.9766 23.8945 22.2109C22.5352 22.1172 21.2812 21.7773 20.1328 21.1914C19.0078 20.6055 18.0469 19.8203 17.25 18.8359C16.9688 19.3281 16.8281 19.8672 16.8281 20.4531C16.8281 21.0156 16.957 21.5312 17.2148 22C17.4727 22.4688 17.8125 22.8438 18.2344 23.125C17.6953 23.1016 17.2148 22.9727 16.793 22.7383V22.7734C16.793 23.5703 17.0273 24.2617 17.4961 24.8477C17.9883 25.4102 18.6094 25.7734 19.3594 25.9375C19.1016 26.0078 18.8203 26.043 18.5156 26.043C18.3047 26.043 18.1055 26.0195 17.918 25.9727C18.1289 26.6289 18.5039 27.168 19.043 27.5898C19.582 27.9883 20.2031 28.1992 20.9062 28.2227C20.3672 28.668 19.7578 29.0078 19.0781 29.2422C18.3984 29.4766 17.6836 29.5938 16.9336 29.5938C16.6758 29.5938 16.418 29.582 16.1602 29.5586C16.8633 30.0039 17.625 30.3555 18.4453 30.6133C19.2891 30.8711 20.168 31 21.082 31C24.0586 30.8828 26.3203 29.8867 27.8672 28.0117C29.4375 26.1367 30.2344 24.0859 30.2578 21.8594L30.2227 21.4375C30.8555 20.9688 31.3945 20.4062 31.8398 19.75Z" fill="#ADA5A5"/>
</svg>
