<svg width="14" height="15" viewBox="0 0 14 15" fill="none" xmlns="http://www.w3.org/2000/svg">
<path d="M5.625 7.99023H4.6875V9.74805L3.16406 10.6562L3.63281 11.4473L5.625 10.3047V7.99023ZM3.13477 4.88477H11.8652V11.7402H8.96484C9.23828 11.1738 9.375 10.5488 9.375 9.86523C9.33594 8.63477 8.90625 7.60938 8.08594 6.78906C7.26562 5.96875 6.24023 5.53906 5.00977 5.5C4.32617 5.5 3.70117 5.63672 3.13477 5.91016V4.88477ZM11.8652 13C12.2363 13 12.5391 12.8828 12.7734 12.6484C13.0078 12.3945 13.125 12.0918 13.125 11.7402V3.00977C13.125 2.63867 13.0078 2.33594 12.7734 2.10156C12.5391 1.86719 12.2363 1.75 11.8652 1.75H11.25V0.490234H9.99023V1.75H5.00977V0.490234H3.75V1.75H3.13477C2.7832 1.75 2.49023 1.87695 2.25586 2.13086C2.00195 2.36523 1.875 2.6582 1.875 3.00977V6.81836C1.48438 7.20898 1.18164 7.66797 0.966797 8.19531C0.751953 8.72266 0.634766 9.2793 0.615234 9.86523C0.654297 11.1152 1.08398 12.1504 1.9043 12.9707C2.72461 13.791 3.75977 14.2207 5.00977 14.2598C5.5957 14.2402 6.15234 14.123 6.67969 13.9082C7.20703 13.6934 7.66602 13.3906 8.05664 13H11.8652ZM5.00977 6.84766C5.86914 6.86719 6.58203 7.16016 7.14844 7.72656C7.71484 8.29297 8.00781 9.00586 8.02734 9.86523C8.00781 10.7246 7.71484 11.4473 7.14844 12.0332C6.58203 12.5996 5.86914 12.8926 5.00977 12.9121C4.15039 12.8926 3.4375 12.5996 2.87109 12.0332C2.28516 11.4473 1.98242 10.7246 1.96289 9.86523C1.98242 9.00586 2.28516 8.29297 2.87109 7.72656C3.4375 7.16016 4.15039 6.86719 5.00977 6.84766Z" fill="black"/>
</svg>
