<svg width="16" height="13" viewBox="0 0 16 13" fill="none" xmlns="http://www.w3.org/2000/svg">
<path d="M1.98828 3.26172L8 6.98828L14.0117 3.26172V1.75L8 5.51172L1.98828 1.75V3.26172ZM1.98828 0.238281H14.0117C14.4336 0.261719 14.7852 0.414062 15.0664 0.695312C15.3477 0.976562 15.4883 1.32812 15.4883 1.75V10.75C15.4883 11.1719 15.3477 11.5234 15.0664 11.8047C14.7852 12.0859 14.4336 12.2383 14.0117 12.2617H1.98828C1.56641 12.2383 1.21484 12.0859 0.933594 11.8047C0.652344 11.5234 0.511719 11.1719 0.511719 10.75V1.75C0.511719 1.32812 0.652344 0.976562 0.933594 0.695312C1.21484 0.414062 1.56641 0.261719 1.98828 0.238281Z" fill="black"/>
</svg>
