<svg width="38" height="40" viewBox="0 0 38 40" fill="none" xmlns="http://www.w3.org/2000/svg">
<path d="M27.8168 36.0344C27.3687 36.0344 27.0039 35.668 27.0039 35.218V31.4039H23.2065C22.7584 31.4039 22.3936 31.0375 22.3936 30.5875C22.3936 30.1375 22.7584 29.7711 23.2065 29.7711H27.0039V25.957C27.0039 25.507 27.3687 25.1406 27.8168 25.1406C28.2648 25.1406 28.6296 25.507 28.6296 25.957V29.7711H32.4271C32.8752 29.7711 33.24 30.1375 33.24 30.5875C33.24 31.0375 32.8752 31.4039 32.4271 31.4039H28.6296V35.218C28.6296 35.668 28.2648 36.0344 27.8168 36.0344Z" fill="black"/>
<path d="M27.823 40C25.1122 40 22.5445 38.8289 20.764 36.7836C18.971 37.1562 17.1345 37.3492 15.3035 37.357C7.93486 37.357 0.726513 33.4547 0.423929 33.2883C0.162571 33.1453 0 32.8711 0 32.5719C0 27.5086 1.57826 22.9016 4.44387 19.6C6.32004 17.4375 8.6886 15.8969 11.3123 15.1266C9.93939 14.3422 8.84028 13.1859 8.11999 11.7633C6.10613 7.78516 7.69062 2.90391 11.6514 0.88125C12.7957 0.296094 14.0216 0 15.2965 0C18.3487 0 21.1031 1.69609 22.4861 4.42734C23.4616 6.35469 23.6311 8.54766 22.9645 10.6031C22.3376 12.5344 21.0424 14.1273 19.2962 15.125C22.5569 16.0797 25.3408 18.1664 27.371 21.1828C27.5227 21.1758 27.6721 21.1719 27.8167 21.1719C30.5571 21.1719 33.1505 22.3695 34.9333 24.457C36.5629 26.3656 37.3555 28.7977 37.1642 31.3055C36.9728 33.8125 35.8208 36.0953 33.9206 37.732C32.2225 39.1945 30.057 40 27.823 40ZM27.8167 22.8039C23.5487 22.8086 20.0725 26.3 20.067 30.5875C20.067 34.8789 23.5432 38.3703 27.816 38.3703C32.0887 38.3703 35.5649 34.8789 35.5649 30.5875C35.5657 26.2953 32.0895 22.8039 27.8167 22.8039ZM1.63115 32.0766C3.45055 32.9898 9.39722 35.7242 15.3027 35.7242C16.7783 35.7188 18.2616 35.5836 19.7154 35.3219C19.2254 34.4781 18.8715 33.568 18.6614 32.6125C17.5647 27.6227 20.6496 22.6664 25.561 21.4477C24.3242 19.8055 22.8237 18.5148 21.0977 17.6094C19.3016 16.6672 17.3523 16.1898 15.3027 16.1898C11.6001 16.1898 8.17911 17.782 5.66976 20.6734C3.16197 23.5625 1.72916 27.6094 1.63115 32.0766ZM15.3027 1.63594C11.7564 1.63594 8.87062 4.53359 8.87062 8.09609C8.87451 11.6539 11.7603 14.5523 15.3027 14.5563C18.8489 14.5563 21.7347 11.6586 21.7347 8.09609C21.7347 4.53359 18.8497 1.63594 15.3027 1.63594Z" fill="black"/>
</svg>
