<svg width="14" height="14" viewBox="0 0 14 14" fill="none" xmlns="http://www.w3.org/2000/svg">
<path d="M11.043 6.33594C10.4805 7.41406 9.78906 8.375 8.96875 9.21875C8.125 10.0391 7.16406 10.7305 6.08594 11.293L4.43359 9.64062C4.19922 9.42969 3.94141 9.37109 3.66016 9.46484C2.81641 9.74609 1.92578 9.88672 0.988281 9.88672C0.777344 9.88672 0.601562 9.95703 0.460938 10.0977C0.320312 10.2383 0.25 10.4141 0.25 10.625V13.2617C0.25 13.4727 0.320312 13.6484 0.460938 13.7891C0.601562 13.9297 0.777344 14 0.988281 14C4.59766 13.9062 7.60938 12.6641 10.0234 10.2734C12.4141 7.85938 13.6562 4.84766 13.75 1.23828C13.75 1.02734 13.6797 0.851562 13.5391 0.710938C13.3984 0.570312 13.2227 0.5 13.0117 0.5H10.375C10.1641 0.5 9.98828 0.570312 9.84766 0.710938C9.70703 0.851562 9.63672 1.02734 9.63672 1.23828C9.63672 2.17578 9.49609 3.06641 9.21484 3.91016C9.12109 4.19141 9.17969 4.44922 9.39062 4.68359L11.043 6.33594Z" fill="black"/>
</svg>
