<svg width="50" height="50" viewBox="0 0 50 50" fill="none" xmlns="http://www.w3.org/2000/svg">
<circle cx="25" cy="25" r="25" fill="#FFCD05"/>
<circle cx="25" cy="25" r="19.5" stroke="white"/>
<path d="M25 24.8633C24.4609 24.8633 24.0156 24.6875 23.6641 24.3359C23.3125 23.9844 23.1367 23.5391 23.1367 23C23.1367 22.4609 23.3125 22.0156 23.6641 21.6641C24.0156 21.3125 24.4609 21.1367 25 21.1367C25.5391 21.1367 25.9844 21.3125 26.3359 21.6641C26.6875 22.0156 26.8633 22.4609 26.8633 23C26.8633 23.5391 26.6875 23.9844 26.3359 24.3359C25.9844 24.6875 25.5391 24.8633 25 24.8633ZM25 17.7617C23.5 17.7852 22.2578 18.2891 21.2734 19.2734C20.2891 20.2578 19.7852 21.5 19.7617 23C19.9727 25.1328 20.8398 27.2539 22.3633 29.3633C23.9102 31.4492 24.7891 32.5742 25 32.7383C25.2109 32.5742 26.0781 31.4492 27.6016 29.3633C29.1484 27.2539 30.0273 25.1328 30.2383 23C30.2148 21.5 29.7109 20.2578 28.7266 19.2734C27.7422 18.2891 26.5 17.7852 25 17.7617Z" fill="#3F0803"/>
</svg>
