<svg width="10" height="11" viewBox="0 0 10 11" fill="none" xmlns="http://www.w3.org/2000/svg">
<path d="M8 7.53906C7.60938 7.55469 7.28125 7.67969 7.01562 7.91406L3.45312 5.85156C3.48438 5.74219 3.5 5.625 3.5 5.5C3.5 5.375 3.48438 5.25781 3.45312 5.14844L6.96875 3.08594C7.25 3.35156 7.59375 3.48438 8 3.48438C8.42188 3.48438 8.77344 3.34375 9.05469 3.0625C9.33594 2.78125 9.47656 2.42969 9.47656 2.00781C9.47656 1.57031 9.33594 1.21094 9.05469 0.929688C8.77344 0.648438 8.42188 0.507812 8 0.507812C7.57812 0.507812 7.22656 0.648438 6.94531 0.929688C6.66406 1.21094 6.51562 1.57031 6.5 2.00781C6.5 2.11719 6.51562 2.23438 6.54688 2.35938L3.03125 4.39844C2.75 4.14844 2.39844 4.02344 1.97656 4.02344C1.57031 4.02344 1.22656 4.16406 0.945312 4.44531C0.664062 4.72656 0.523438 5.07812 0.523438 5.5C0.523438 5.92188 0.664062 6.27344 0.945312 6.55469C1.22656 6.83594 1.57031 6.97656 1.97656 6.97656C2.39844 6.97656 2.75 6.85156 3.03125 6.60156L6.57031 8.66406C6.55469 8.77344 6.54688 8.88281 6.54688 8.99219C6.54688 9.41406 6.6875 9.75781 6.96875 10.0234C7.25 10.3047 7.59375 10.4453 8 10.4453C8.40625 10.4453 8.75 10.3047 9.03125 10.0234C9.3125 9.75781 9.45312 9.42188 9.45312 9.01562C9.45312 8.59375 9.3125 8.25 9.03125 7.98438C8.75 7.70312 8.40625 7.55469 8 7.53906Z" fill="#CCCCCC"/>
</svg>
