<svg width="13" height="12" viewBox="0 0 13 12" fill="none" xmlns="http://www.w3.org/2000/svg">
<path d="M9.86914 5.61328C9.40039 6.51172 8.82422 7.3125 8.14062 8.01562C7.4375 8.69922 6.63672 9.27539 5.73828 9.74414L4.36133 8.36719C4.16602 8.19141 3.95117 8.14258 3.7168 8.2207C3.01367 8.45508 2.27148 8.57227 1.49023 8.57227C1.31445 8.57227 1.16797 8.63086 1.05078 8.74805C0.933594 8.86523 0.875 9.01172 0.875 9.1875V11.3848C0.875 11.5605 0.933594 11.707 1.05078 11.8242C1.16797 11.9414 1.31445 12 1.49023 12C4.49805 11.9219 7.00781 10.8867 9.01953 8.89453C11.0117 6.88281 12.0469 4.37305 12.125 1.36523C12.125 1.18945 12.0664 1.04297 11.9492 0.925781C11.832 0.808594 11.6855 0.75 11.5098 0.75H9.3125C9.13672 0.75 8.99023 0.808594 8.87305 0.925781C8.75586 1.04297 8.69727 1.18945 8.69727 1.36523C8.69727 2.14648 8.58008 2.88867 8.3457 3.5918C8.26758 3.82617 8.31641 4.04102 8.49219 4.23633L9.86914 5.61328Z" fill="black"/>
</svg>
