<svg width="11" height="14" viewBox="0 0 11 14" fill="none" xmlns="http://www.w3.org/2000/svg">
<path d="M5.5 0.134766C4.44531 0.154297 3.56641 0.515625 2.86328 1.21875C2.14062 1.92188 1.76953 2.80078 1.75 3.85547C1.90625 5.35938 2.53125 6.86328 3.625 8.36719C4.71875 9.85156 5.34375 10.6426 5.5 10.7402C5.65625 10.6426 6.28125 9.85156 7.375 8.36719C8.46875 6.86328 9.09375 5.35938 9.25 3.85547C9.23047 2.80078 8.86914 1.92188 8.16602 1.21875C7.44336 0.515625 6.55469 0.154297 5.5 0.134766ZM5.5 2.625C5.85156 2.625 6.14453 2.75195 6.37891 3.00586C6.61328 3.24023 6.73047 3.5332 6.73047 3.88477C6.73047 4.23633 6.61328 4.5293 6.37891 4.76367C6.14453 4.99805 5.85156 5.11523 5.5 5.11523C5.14844 5.11523 4.85547 4.99805 4.62109 4.76367C4.38672 4.5293 4.26953 4.23633 4.26953 3.88477C4.26953 3.5332 4.38672 3.24023 4.62109 3.00586C4.85547 2.75195 5.14844 2.625 5.5 2.625ZM0.490234 10.7402C0.529297 11.4629 1.01758 12.0586 1.95508 12.5273C2.89258 12.9961 4.07422 13.2305 5.5 13.2305C6.92578 13.2305 8.10742 12.9961 9.04492 12.5273C9.98242 12.0586 10.4707 11.4629 10.5098 10.7402C10.4902 10.3496 10.3145 9.98828 9.98242 9.65625C9.63086 9.30469 9.15234 9.01172 8.54688 8.77734L8.16602 9.33398C8.86914 9.62695 9.23047 9.99805 9.25 10.4473C9.23047 10.877 8.86914 11.2383 8.16602 11.5312C7.44336 11.8242 6.55469 11.9707 5.5 11.9707C4.44531 11.9707 3.56641 11.8242 2.86328 11.5312C2.14062 11.2383 1.76953 10.877 1.75 10.4473C1.76953 9.99805 2.13086 9.62695 2.83398 9.33398L2.45312 8.77734C1.84766 9.01172 1.37891 9.30469 1.04688 9.65625C0.695312 9.98828 0.509766 10.3496 0.490234 10.7402Z" fill="black"/>
</svg>
