<svg width="33" height="40" viewBox="0 0 33 40" fill="none" xmlns="http://www.w3.org/2000/svg">
<path d="M31.0445 35.2312C30.8953 34.6344 30.7961 33.0422 30.7461 31.5992C30.4977 25.2805 30.0492 12.7437 20.0492 10.4055C20.1484 10.2563 20.1984 10.107 20.1984 9.95781C20.1984 9.56015 19.9 9.21172 19.4524 9.16172C21.0938 7.56953 22.5867 4.98281 23.2336 1.64922C23.3328 1.25156 23.2336 0.903125 22.9852 0.604687C22.5375 0.0578125 21.6914 0.0078125 20.9953 0.0078125C19.9508 0.0078125 18.5078 0.207031 16.9656 0.405469C15.2742 0.653906 13.4828 0.853125 12.0898 0.853125C11.3438 0.853125 10.7961 0.803125 10.3984 0.653906C10.15 0.554687 9.90078 0.603906 9.70157 0.753125C9.50235 0.902344 9.35313 1.15078 9.35313 1.4C9.35313 4.18594 11.0945 7.27031 13.0344 9.16094C12.6859 9.26015 12.4375 9.55859 12.4375 9.90703C12.4375 10.1062 12.4875 10.2555 12.6367 10.4047C2.73594 12.893 2.28828 25.2805 2.03984 31.5992C1.98984 33.0422 1.94063 34.6836 1.74141 35.2312C0.746094 35.3805 0 36.2258 0 37.2711V37.918C0 39.0617 0.945313 40.007 2.08984 40.007H30.6469C31.7914 40.007 32.7367 39.0617 32.7367 37.9172V37.2703C32.7859 36.2758 32.0399 35.3805 31.0445 35.2312ZM11.0945 2.39531C12.6367 2.54453 15.025 2.24609 17.2141 1.94766C18.7063 1.74844 20.05 1.55 21.0445 1.55C21.343 1.55 21.5422 1.55 21.6914 1.6C20.7461 5.82891 18.4078 8.41562 16.8656 9.1125H15.7211C14.0797 8.36562 11.5422 5.33047 11.0945 2.39531ZM31.1938 37.9672C31.1938 38.2156 30.9945 38.4648 30.6961 38.4648H2.13906C1.89063 38.4648 1.64141 38.2656 1.64141 37.9672V37.3203C1.64141 37.0719 1.84063 36.8227 2.13906 36.8227C3.53203 36.8227 3.58203 35.0812 3.68125 31.6484C3.92969 24.6336 4.42734 11.5492 16.4172 11.5492C28.407 11.5492 28.9047 24.6336 29.1531 31.6484C29.3024 35.0812 29.3524 36.8227 30.6953 36.8227C30.9438 36.8227 31.193 37.0219 31.193 37.3203V37.9672H31.1938Z" fill="black"/>
<path d="M19.254 26.7165C19.1548 26.5672 19.1048 26.418 19.0056 26.2688C18.9064 26.1196 18.7571 26.0204 18.6571 25.8711C18.5079 25.7219 18.3587 25.6227 18.2095 25.5227C18.0603 25.4235 17.911 25.3235 17.7118 25.2243C17.5126 25.125 17.3634 25.025 17.1649 24.9758C16.9657 24.8766 16.7673 24.8266 16.6181 24.7274C16.5189 24.6774 16.4188 24.6774 16.3196 24.6282C16.2204 24.5782 16.1204 24.529 16.0212 24.479C15.922 24.429 15.872 24.3797 15.7728 24.3297C15.7228 24.2797 15.6235 24.1805 15.5735 24.1305C15.5235 24.0313 15.4743 23.9813 15.4243 23.8821C15.3743 23.7829 15.3743 23.6829 15.3251 23.5836C15.3251 23.4844 15.3251 23.3844 15.3251 23.2852C15.3251 23.186 15.3751 23.086 15.4243 22.9868C15.4743 22.8875 15.5235 22.7875 15.5735 22.7383C15.6235 22.6391 15.7228 22.5891 15.822 22.5391C15.9212 22.4891 16.0212 22.4399 16.1204 22.3899C16.2196 22.3399 16.3688 22.3399 16.4688 22.3399C16.5688 22.3399 16.6181 22.3399 16.6681 22.3399C16.7181 22.3399 16.8173 22.3399 16.9165 22.3399C17.0157 22.3399 17.1649 22.3399 17.2649 22.3899C17.3642 22.3899 17.5134 22.4399 17.6134 22.4399C17.7134 22.4399 17.8126 22.4899 17.8618 22.4899C17.961 22.5399 18.061 22.5399 18.1103 22.5891L18.4587 22.6883L18.5087 22.2907L18.6579 21.1961L18.7079 20.9477L18.4595 20.8485C18.3603 20.7985 18.2603 20.7985 18.211 20.7985C18.1618 20.7985 18.0618 20.7485 17.9626 20.7485C17.8634 20.6985 17.7634 20.6985 17.6642 20.6985C17.5649 20.6985 17.4157 20.6485 17.3157 20.6485H17.2165V19.6532V19.3547H16.9181H15.9728H15.6743V19.6532V20.6977L15.5751 20.7477C15.3759 20.7977 15.1774 20.8969 14.9782 20.9961C14.779 21.0954 14.6298 21.1954 14.4806 21.3446C14.3313 21.4938 14.1821 21.643 14.0829 21.7922C13.9837 21.9415 13.8837 22.1407 13.7845 22.3391C13.6853 22.5383 13.6353 22.7368 13.5853 22.936C13.5353 23.1352 13.5353 23.3836 13.5353 23.6329C13.5353 23.8321 13.5353 23.9813 13.5853 24.1797C13.6353 24.379 13.6845 24.5282 13.7845 24.7266C13.8837 24.8758 13.9837 25.025 14.0829 25.1743C14.1821 25.3235 14.3313 25.4227 14.4313 25.5719C14.5806 25.6711 14.7298 25.8204 14.879 25.9204C15.0282 26.0196 15.2274 26.1196 15.3767 26.2188C15.5759 26.318 15.7743 26.418 15.9235 26.4672C16.1228 26.5665 16.3212 26.6165 16.5204 26.7157C16.6196 26.7657 16.7196 26.7657 16.8188 26.8149C16.9181 26.8649 17.0181 26.9141 17.0673 26.9641C17.1665 27.0141 17.2165 27.0633 17.3157 27.1133C17.3657 27.1633 17.4649 27.2625 17.5149 27.3125C17.5649 27.4118 17.6142 27.4618 17.6642 27.561C17.7142 27.6602 17.7142 27.7602 17.7142 27.8594C17.7142 27.9586 17.7142 28.0586 17.7142 28.1579C17.7142 28.2571 17.6642 28.3571 17.6149 28.4563C17.5649 28.5555 17.5157 28.6055 17.4157 28.7047C17.3657 28.7547 17.2665 28.854 17.1673 28.904C17.0681 28.954 16.9681 29.0032 16.8688 29.0032C16.7696 29.0532 16.6696 29.0532 16.5704 29.0532C16.4712 29.0532 16.4212 29.0532 16.322 29.0532C16.2228 29.0532 16.1228 29.0532 16.0735 29.0532C15.9743 29.0532 15.8251 29.0532 15.7251 29.0032C15.6259 29.0032 15.4767 28.9532 15.3767 28.9532C15.2274 28.9032 15.0782 28.9032 14.929 28.854C14.7798 28.804 14.6306 28.7547 14.4813 28.7047C14.4313 28.7047 14.3821 28.6547 14.2821 28.6055C14.2321 28.5555 14.1829 28.5555 14.0829 28.5063L13.6853 28.3071L13.6353 28.7547L13.486 29.9485L13.436 30.1969L13.6353 30.2961C13.7845 30.3461 13.9337 30.4454 14.0829 30.4954C14.2321 30.5454 14.3813 30.5946 14.5806 30.6446C14.7298 30.6946 14.929 30.7438 15.0782 30.7938C15.2774 30.8438 15.4267 30.8438 15.6251 30.893H15.7243V31.8883V32.1868H16.0228H16.9181H17.2165V31.8883V30.8438H17.3157C17.5149 30.7938 17.7634 30.6946 17.9626 30.5954C18.1618 30.4961 18.311 30.3961 18.5095 30.2469C18.6587 30.0977 18.8079 29.9485 18.9571 29.7993C19.0564 29.65 19.2056 29.4508 19.2556 29.2524C19.3548 29.0532 19.4048 28.8547 19.4548 28.6055C19.5048 28.4063 19.5048 28.1579 19.5048 27.9586C19.5048 27.561 19.4548 27.3618 19.4548 27.2125C19.4032 27.0149 19.3532 26.8657 19.254 26.7165Z" fill="#3F0803"/>
</svg>
