<svg width="14" height="16" viewBox="0 0 14 16" fill="none" xmlns="http://www.w3.org/2000/svg">
<path d="M11.5 11.3086C10.9141 11.332 10.4219 11.5195 10.0234 11.8711L4.67969 8.77734C4.72656 8.61328 4.75 8.4375 4.75 8.25C4.75 8.0625 4.72656 7.88672 4.67969 7.72266L9.95312 4.62891C10.375 5.02734 10.8906 5.22656 11.5 5.22656C12.1328 5.22656 12.6602 5.01562 13.082 4.59375C13.5039 4.17188 13.7148 3.64453 13.7148 3.01172C13.7148 2.35547 13.5039 1.81641 13.082 1.39453C12.6602 0.972656 12.1328 0.761719 11.5 0.761719C10.8672 0.761719 10.3398 0.972656 9.91797 1.39453C9.49609 1.81641 9.27344 2.35547 9.25 3.01172C9.25 3.17578 9.27344 3.35156 9.32031 3.53906L4.04688 6.59766C3.625 6.22266 3.09766 6.03516 2.46484 6.03516C1.85547 6.03516 1.33984 6.24609 0.917969 6.66797C0.496094 7.08984 0.285156 7.61719 0.285156 8.25C0.285156 8.88281 0.496094 9.41016 0.917969 9.83203C1.33984 10.2539 1.85547 10.4648 2.46484 10.4648C3.09766 10.4648 3.625 10.2773 4.04688 9.90234L9.35547 12.9961C9.33203 13.1602 9.32031 13.3242 9.32031 13.4883C9.32031 14.1211 9.53125 14.6367 9.95312 15.0352C10.375 15.457 10.8906 15.668 11.5 15.668C12.1094 15.668 12.625 15.457 13.0469 15.0352C13.4688 14.6367 13.6797 14.1328 13.6797 13.5234C13.6797 12.8906 13.4688 12.375 13.0469 11.9766C12.625 11.5547 12.1094 11.332 11.5 11.3086Z" fill="#CCCCCC"/>
</svg>
