<svg width="40" height="40" viewBox="0 0 40 40" fill="none" xmlns="http://www.w3.org/2000/svg">
<path d="M14.8533 40C14.6127 40 14.3861 39.8914 14.2322 39.7016L10.958 35.6602L5.81818 34.843C5.47599 34.7883 5.2088 34.5219 5.1549 34.1789L4.33771 29.0391L0.296303 25.7648C0.0267722 25.5469 -0.0701028 25.182 0.0533347 24.857L1.91583 20L0.0533347 15.1414C-0.0701028 14.8172 0.0275534 14.4523 0.296303 14.2352L4.33771 10.9602L5.1549 5.82031C5.20958 5.47813 5.47599 5.21094 5.81896 5.15625L10.9588 4.33906L14.233 0.297656C14.3854 0.108594 14.6104 0.00078125 14.8518 0.00078125C14.9502 0.00078125 15.0463 0.01875 15.1385 0.0546875L19.9986 1.91797L24.8549 0.0523438C24.9455 0.0179688 25.0424 0 25.1408 0C25.3846 0 25.6111 0.107812 25.7627 0.295312L29.0377 4.33672L34.1776 5.15391C34.5197 5.20859 34.7869 5.475 34.8408 5.81797L35.658 10.9578L39.6994 14.232C39.9705 14.4516 40.0682 14.8164 39.9432 15.1398L38.0799 20L39.9455 24.8563C40.069 25.1812 39.9721 25.5469 39.7025 25.7648L35.6611 29.0391L34.844 34.1797C34.7893 34.5219 34.5229 34.7891 34.1799 34.8438L29.04 35.6609L25.7658 39.7023C25.6158 39.8875 25.383 39.9984 25.1432 39.9984C25.0463 39.9984 24.9471 39.9797 24.8557 39.9453L19.9986 38.0828L15.1424 39.9453C15.0471 39.982 14.951 40 14.8533 40ZM24.8869 38.243L27.9838 34.4109C28.1088 34.257 28.2846 34.1555 28.4776 34.125L33.3463 33.3508L34.1205 28.4836C34.151 28.2883 34.2525 28.1133 34.4072 27.9875L38.2385 24.8859L36.4729 20.2859C36.4025 20.1016 36.4025 19.8977 36.4729 19.7133L38.2385 15.1133L34.4072 12.0117C34.2533 11.8867 34.1518 11.7109 34.1213 11.5172L33.3471 6.64844L28.4799 5.87422C28.2854 5.84375 28.1096 5.74219 27.9838 5.5875L24.883 1.75625L20.2815 3.52344C20.1908 3.55859 20.094 3.57578 19.9955 3.57578C19.8971 3.57578 19.8002 3.55781 19.7088 3.52266L15.1088 1.75703L12.0096 5.58594C11.8846 5.73984 11.7088 5.84141 11.5151 5.87188L6.6463 6.64609L5.87208 11.5133C5.84162 11.7086 5.74005 11.8836 5.58536 12.0094L1.7549 15.1102L3.5174 19.7125C3.59005 19.8984 3.59005 20.1023 3.51974 20.2898L1.7549 24.8883L5.58693 27.9875C5.74083 28.1125 5.8424 28.2883 5.87287 28.482L6.64708 33.3508L11.5143 34.125C11.7096 34.1555 11.8846 34.257 12.0104 34.4117L15.1111 38.243L19.7111 36.4773C19.8002 36.443 19.8994 36.425 19.9971 36.425C20.0908 36.425 20.1893 36.443 20.2908 36.4797L24.8869 38.243Z" fill="black"/>
<path d="M16.1587 16.9602C14.3063 16.9602 12.7993 15.4532 12.7993 13.6008C12.7993 11.7485 14.3063 10.2415 16.1587 10.2415C18.011 10.2415 19.5181 11.7485 19.5181 13.6008C19.5181 15.4532 18.011 16.9602 16.1587 16.9602ZM16.1587 11.8407C15.1884 11.8407 14.3985 12.6297 14.3985 13.6008C14.3985 14.5719 15.1876 15.361 16.1587 15.361C17.1298 15.361 17.9189 14.5719 17.9189 13.6008C17.9189 12.6297 17.129 11.8407 16.1587 11.8407Z" fill="black"/>
<path d="M23.8374 29.7585C21.9851 29.7585 20.478 28.2515 20.478 26.3992C20.478 24.5468 21.9851 23.0398 23.8374 23.0398C25.6897 23.0398 27.1968 24.5468 27.1968 26.3992C27.1968 28.2515 25.6897 29.7585 23.8374 29.7585ZM23.8374 24.639C22.8671 24.639 22.0772 25.4281 22.0772 26.3992C22.0772 27.3695 22.8663 28.1593 23.8374 28.1593C24.8077 28.1593 25.5976 27.3703 25.5976 26.3992C25.5968 25.4289 24.8077 24.639 23.8374 24.639Z" fill="black"/>
<path d="M13.5984 29.7585C13.4297 29.7585 13.2687 29.7069 13.1328 29.6101C12.9594 29.4866 12.8453 29.3022 12.8101 29.0913C12.775 28.8804 12.8242 28.6694 12.9484 28.496L25.7476 10.5772C25.8969 10.3687 26.1406 10.2437 26.3992 10.2437C26.5664 10.2437 26.7266 10.2952 26.8617 10.3921C27.0351 10.5163 27.15 10.6999 27.1851 10.9108C27.2203 11.1218 27.1711 11.3327 27.0469 11.5069L14.25 29.4249C14.1008 29.6343 13.857 29.7585 13.5984 29.7585Z" fill="black"/>
</svg>
