<svg width="48" height="48" viewBox="0 0 48 48" fill="none" xmlns="http://www.w3.org/2000/svg">
<circle cx="24" cy="24" r="24" fill="white"/>
<path d="M20.8359 16.7617H27.1641C28.3828 16.7852 29.4023 17.207 30.2227 18.0273C31.043 18.8477 31.4648 19.8672 31.4883 21.0859V27.4141C31.4648 28.6328 31.043 29.6523 30.2227 30.4727C29.4023 31.293 28.3828 31.7148 27.1641 31.7383H20.8359C19.6172 31.7148 18.5977 31.293 17.7773 30.4727C16.957 29.6523 16.5352 28.6328 16.5117 27.4141V21.0859C16.5352 19.8672 16.957 18.8477 17.7773 18.0273C18.5977 17.207 19.6172 16.7852 20.8359 16.7617ZM20.6953 18.2383C19.9219 18.2617 19.2773 18.5312 18.7617 19.0469C18.2695 19.5391 18.0117 20.1719 17.9883 20.9453V27.5547C18.0117 28.3281 18.2695 28.9727 18.7617 29.4883C19.2773 29.9805 19.9219 30.2383 20.6953 30.2617H27.3047C28.0781 30.2383 28.7109 29.9805 29.2031 29.4883C29.7188 28.9727 29.9883 28.3281 30.0117 27.5547V20.9453C29.9883 20.1719 29.7188 19.5391 29.2031 19.0469C28.7109 18.5312 28.0781 18.2617 27.3047 18.2383H20.6953ZM27.9375 19.3633C28.1953 19.3867 28.4062 19.4922 28.5703 19.6797C28.7578 19.8438 28.8516 20.0547 28.8516 20.3125C28.8516 20.5703 28.7578 20.793 28.5703 20.9805C28.4062 21.1445 28.1953 21.2266 27.9375 21.2266C27.6797 21.2266 27.457 21.1445 27.2695 20.9805C27.1055 20.793 27.0234 20.5703 27.0234 20.3125C27.0234 20.0547 27.1055 19.8438 27.2695 19.6797C27.457 19.4922 27.6797 19.3867 27.9375 19.3633ZM24 20.4883C25.0547 20.5117 25.9336 20.8867 26.6367 21.6133C27.3633 22.3164 27.7383 23.1953 27.7617 24.25C27.7383 25.3047 27.3633 26.1953 26.6367 26.9219C25.9336 27.625 25.0547 27.9883 24 28.0117C22.9453 27.9883 22.0547 27.625 21.3281 26.9219C20.625 26.1953 20.2617 25.3047 20.2383 24.25C20.2617 23.1953 20.625 22.3164 21.3281 21.6133C22.0547 20.8867 22.9453 20.5117 24 20.4883ZM24 22C23.3672 22.0234 22.8398 22.2461 22.418 22.668C21.9961 23.0898 21.7852 23.6172 21.7852 24.25C21.7852 24.8828 21.9961 25.4102 22.418 25.832C22.8398 26.2539 23.3672 26.4648 24 26.4648C24.6328 26.4648 25.1602 26.2539 25.582 25.832C26.0039 25.4102 26.2148 24.8828 26.2148 24.25C26.2148 23.6172 26.0039 23.0898 25.582 22.668C25.1602 22.2461 24.6328 22.0234 24 22Z" fill="#ADA5A5"/>
</svg>
