<svg width="66" height="80" viewBox="0 0 66 80" fill="none" xmlns="http://www.w3.org/2000/svg">
<path d="M62.0903 70.4482C61.7919 69.2545 61.5934 66.07 61.4934 63.184C60.9965 50.5463 60.0996 25.4724 40.0992 20.7957C40.2977 20.4973 40.3977 20.1988 40.3977 19.9004C40.3977 19.1051 39.8008 18.4082 38.9055 18.3082C42.1883 15.1237 45.1743 9.95019 46.4681 3.28288C46.6666 2.48755 46.4681 1.79066 45.9712 1.19377C45.0759 0.100002 43.3837 0 41.9915 0C39.9024 0 37.0164 0.398445 33.9319 0.795328C30.549 1.29221 26.9662 1.69066 24.1802 1.69066C22.688 1.69066 21.5926 1.59066 20.7973 1.29221C20.3004 1.09377 19.802 1.19221 19.4035 1.49065C19.0051 1.7891 18.7066 2.28598 18.7066 2.78443C18.7066 8.35641 22.1895 14.5253 26.0693 18.3066C25.3724 18.505 24.8755 19.1019 24.8755 19.7988C24.8755 20.1973 24.9755 20.4957 25.2739 20.7942C5.47198 25.7708 4.57665 50.5463 4.07977 63.184C3.97977 66.07 3.88133 69.3529 3.48288 70.4482C1.49222 70.7467 0 72.4374 0 74.528V75.8218C0 78.1093 1.89066 80 4.17977 80H61.295C63.5841 80 65.4747 78.1093 65.4747 75.8202V74.5265C65.5732 72.5374 64.081 70.7467 62.0903 70.4482ZM22.1895 4.77509C25.2739 5.07354 30.0506 4.47665 34.4288 3.87976C37.4132 3.48132 40.1008 3.08444 42.0899 3.08444C42.6868 3.08444 43.0852 3.08444 43.3837 3.18444C41.493 11.6424 36.8164 16.816 33.7319 18.2097H31.4428C28.1599 16.716 23.0848 10.6455 22.1895 4.77509ZM62.3887 75.9202C62.3887 76.4171 61.9903 76.9156 61.3934 76.9156H4.27821C3.78133 76.9156 3.28288 76.5171 3.28288 75.9202V74.6265C3.28288 74.1296 3.68132 73.6311 4.27821 73.6311C7.0642 73.6311 7.16421 70.1482 7.36265 63.2825C7.85953 49.2525 8.85486 23.0833 32.835 23.0833C56.8152 23.0833 57.8105 49.2525 58.3074 63.2825C58.6059 70.1482 58.7059 73.6311 61.3919 73.6311C61.8887 73.6311 62.3872 74.0296 62.3872 74.6265V75.9202H62.3887Z" fill="black"/>
<path d="M38.5087 53.4181C38.3103 53.1196 38.2103 52.8212 38.0118 52.5227C37.8134 52.2243 37.515 52.0258 37.315 51.7274C37.0165 51.429 36.7181 51.2305 36.4196 51.0305C36.1212 50.8321 35.8227 50.6321 35.4243 50.4336C35.0258 50.2352 34.7274 50.0352 34.3305 49.9367C33.9321 49.7383 33.5352 49.6383 33.2368 49.4399C33.0383 49.3399 32.8383 49.3399 32.6399 49.2414C32.4414 49.1414 32.2414 49.043 32.043 48.943C31.8445 48.843 31.7445 48.7445 31.5461 48.6445C31.4461 48.5445 31.2476 48.3461 31.1476 48.2461C31.0476 48.0476 30.9492 47.9476 30.8492 47.7492C30.7492 47.5508 30.7492 47.3508 30.6508 47.1523C30.6508 46.9539 30.6508 46.7539 30.6508 46.5554C30.6508 46.357 30.7508 46.157 30.8492 45.9585C30.9492 45.7601 31.0476 45.5601 31.1476 45.4617C31.2476 45.2632 31.4461 45.1632 31.6445 45.0632C31.843 44.9632 32.043 44.8648 32.2414 44.7648C32.4399 44.6648 32.7383 44.6648 32.9383 44.6648C33.1383 44.6648 33.2368 44.6648 33.3368 44.6648C33.4368 44.6648 33.6352 44.6648 33.8336 44.6648C34.0321 44.6648 34.3305 44.6648 34.5305 44.7648C34.729 44.7648 35.0274 44.8648 35.2274 44.8648C35.4274 44.8648 35.6259 44.9648 35.7243 44.9648C35.9227 45.0648 36.1227 45.0648 36.2212 45.1632L36.9181 45.3617L37.0181 44.5663L37.3165 42.3772L37.4165 41.8803L36.9196 41.6819C36.7212 41.5819 36.5212 41.5819 36.4228 41.5819C36.3243 41.5819 36.1243 41.4819 35.9259 41.4819C35.7274 41.3819 35.5274 41.3819 35.329 41.3819C35.1305 41.3819 34.8321 41.2819 34.6321 41.2819H34.4336V39.2912V38.6943H33.8368H31.9461H31.3492V39.2912V41.3803L31.1508 41.4803C30.7523 41.5803 30.3554 41.7788 29.957 41.9772C29.5586 42.1757 29.2601 42.3757 28.9617 42.6741C28.6632 42.9725 28.3648 43.271 28.1663 43.5694C27.9679 43.8679 27.7679 44.2663 27.5694 44.6632C27.371 45.0616 27.271 45.4585 27.171 45.857C27.071 46.2554 27.071 46.7523 27.071 47.2508C27.071 47.6492 27.071 47.9476 27.171 48.3445C27.271 48.743 27.3694 49.0414 27.5694 49.4383C27.7679 49.7367 27.9679 50.0352 28.1663 50.3336C28.3648 50.6321 28.6632 50.8305 28.8632 51.129C29.1617 51.3274 29.4601 51.6258 29.7586 51.8258C30.057 52.0243 30.4554 52.2243 30.7539 52.4227C31.1523 52.6212 31.5492 52.8212 31.8477 52.9196C32.2461 53.1181 32.643 53.2181 33.0414 53.4165C33.2399 53.5165 33.4399 53.5165 33.6383 53.6149C33.8368 53.7149 34.0368 53.8134 34.1352 53.9134C34.3336 54.0134 34.4336 54.1118 34.6321 54.2118C34.7321 54.3118 34.9305 54.5103 35.0305 54.6103C35.1305 54.8087 35.229 54.9087 35.329 55.1072C35.429 55.3056 35.429 55.5056 35.429 55.704C35.429 55.9025 35.429 56.1025 35.429 56.3009C35.429 56.4994 35.329 56.6994 35.2305 56.8978C35.1305 57.0963 35.0321 57.1963 34.8321 57.3947C34.7321 57.4947 34.5337 57.6931 34.3352 57.7931C34.1368 57.8932 33.9368 57.9916 33.7383 57.9916C33.5399 58.0916 33.3399 58.0916 33.1414 58.0916C32.943 58.0916 32.843 58.0916 32.6446 58.0916C32.4461 58.0916 32.2461 58.0916 32.1477 58.0916C31.9492 58.0916 31.6508 58.0916 31.4508 57.9916C31.2523 57.9916 30.9539 57.8916 30.7539 57.8916C30.4554 57.7916 30.157 57.7916 29.8586 57.6931C29.5601 57.5931 29.2617 57.4947 28.9632 57.3947C28.8632 57.3947 28.7648 57.2947 28.5648 57.1963C28.4648 57.0963 28.3663 57.0963 28.1663 56.9978L27.371 56.5994L27.271 57.4947L26.9726 59.8823L26.8726 60.3791L27.271 60.5776C27.5694 60.6776 27.8679 60.876 28.1663 60.976C28.4648 61.076 28.7632 61.1745 29.1617 61.2745C29.4601 61.3745 29.8586 61.4729 30.157 61.5729C30.5554 61.6729 30.8539 61.6729 31.2508 61.7714H31.4492V63.762V64.3589H32.0461H33.8368H34.4336V63.762V61.6729H34.6321C35.0305 61.5729 35.5274 61.3745 35.9259 61.176C36.3243 60.9776 36.6228 60.7776 37.0196 60.4791C37.3181 60.1807 37.6165 59.8823 37.915 59.5838C38.1134 59.2854 38.4119 58.8869 38.5119 58.49C38.7103 58.0916 38.8103 57.6947 38.9103 57.1963C39.0103 56.7978 39.0103 56.3009 39.0103 55.9025C39.0103 55.1072 38.9103 54.7087 38.9103 54.4103C38.8072 54.015 38.7072 53.7165 38.5087 53.4181Z" fill="#3F0803"/>
</svg>
