<svg width="75" height="80" viewBox="0 0 75 80" fill="none" xmlns="http://www.w3.org/2000/svg">
<path d="M55.6336 72.0687C54.7375 72.0687 54.0079 71.3359 54.0079 70.4359V62.8078H46.4129C45.5169 62.8078 44.7872 62.075 44.7872 61.175C44.7872 60.275 45.5169 59.5422 46.4129 59.5422H54.0079V51.9141C54.0079 51.0141 54.7375 50.2812 55.6336 50.2812C56.5297 50.2812 57.2593 51.0141 57.2593 51.9141V59.5422H64.8542C65.7503 59.5422 66.4799 60.275 66.4799 61.175C66.4799 62.075 65.7503 62.8078 64.8542 62.8078H57.2593V70.4359C57.2593 71.3359 56.5297 72.0687 55.6336 72.0687Z" fill="black"/>
<path d="M55.6459 80C50.2243 80 45.0889 77.6578 41.5279 73.5672C37.942 74.3125 34.269 74.6984 30.6069 74.7141C15.8697 74.7141 1.45303 66.9094 0.847858 66.5766C0.325142 66.2906 0 65.7422 0 65.1438C0 55.0172 3.15652 45.8031 8.88773 39.2C12.6401 34.875 17.3772 31.7937 22.6246 30.2531C19.8788 28.6844 17.6806 26.3719 16.24 23.5266C12.2123 15.5703 15.3812 5.80781 23.3029 1.7625C25.5913 0.592188 28.0431 0 30.5929 0C36.6975 0 42.2062 3.39219 44.9723 8.85469C46.9231 12.7094 47.2623 17.0953 45.929 21.2062C44.6751 25.0688 42.0849 28.2547 38.5923 30.25C45.1138 32.1594 50.6817 36.3328 54.7421 42.3656C55.0454 42.3516 55.3441 42.3438 55.6335 42.3438C61.1142 42.3438 66.301 44.7391 69.8666 48.9141C73.1258 52.7312 74.7111 57.5953 74.3284 62.6109C73.9457 67.625 71.6417 72.1906 67.8411 75.4641C64.445 78.3891 60.1139 80 55.6459 80ZM55.6335 45.6078C47.0974 45.6172 40.1449 52.6 40.134 61.175C40.134 69.7578 47.0865 76.7406 55.6319 76.7406C64.1774 76.7406 71.1299 69.7578 71.1299 61.175C71.1314 52.5906 64.179 45.6078 55.6335 45.6078ZM3.26231 64.1531C6.9011 65.9797 18.7944 71.4484 30.6053 71.4484C33.5565 71.4375 36.5232 71.1672 39.4309 70.6438C38.4508 68.9562 37.7429 67.1359 37.3229 65.225C35.1293 55.2453 41.2992 45.3328 51.122 42.8953C48.6484 39.6109 45.6474 37.0297 42.1953 35.2188C38.6032 33.3344 34.7046 32.3797 30.6053 32.3797C23.2002 32.3797 16.3582 35.5641 11.3395 41.3469C6.32393 47.125 3.45833 55.2187 3.26231 64.1531ZM30.6053 3.27188C23.5129 3.27188 17.7412 9.06719 17.7412 16.1922C17.749 23.3078 23.5207 29.1047 30.6053 29.1125C37.6978 29.1125 43.4695 23.3172 43.4695 16.1922C43.4695 9.06719 37.6994 3.27188 30.6053 3.27188Z" fill="black"/>
</svg>
