<svg width="48" height="48" viewBox="0 0 48 48" fill="none" xmlns="http://www.w3.org/2000/svg">
<circle cx="24" cy="24" r="24" fill="white"/>
<path d="M22.4883 27.625V20.875L26.9883 24.25L22.4883 27.625ZM30.0117 18.5547C29.7305 18.4844 29.0156 18.4141 27.8672 18.3438C26.7188 18.2734 25.4297 18.2383 24 18.2383C22.5703 18.2383 21.2812 18.2734 20.1328 18.3438C18.9844 18.3906 18.2695 18.4492 17.9883 18.5195C17.4258 18.7773 17.0273 19.4453 16.793 20.5234C16.582 21.6016 16.4766 22.8438 16.4766 24.25C16.4766 25.6328 16.582 26.875 16.793 27.9766C17.0273 29.0547 17.4258 29.7109 17.9883 29.9453C18.2695 30.0391 18.9844 30.1211 20.1328 30.1914C21.2812 30.2383 22.5703 30.2617 24 30.2617C25.4297 30.2617 26.7188 30.2383 27.8672 30.1914C29.0156 30.1211 29.7305 30.0391 30.0117 29.9453C30.5742 29.7109 30.9609 29.0547 31.1719 27.9766C31.4062 26.875 31.5234 25.6328 31.5234 24.25C31.5234 22.8438 31.4062 21.6016 31.1719 20.5234C30.9609 19.4453 30.5742 18.7891 30.0117 18.5547Z" fill="#ADA5A5"/>
</svg>
