<svg width="16" height="20" viewBox="0 0 16 20" fill="none" xmlns="http://www.w3.org/2000/svg">
<path d="M15.9896 16.493L15.0883 5.23828C15.0323 4.51328 14.4135 3.94531 13.6797 3.94531H11.8998V3.86602C11.8998 1.73438 10.1498 0 7.99909 0C5.84834 0 4.09841 1.73438 4.09841 3.86602V3.94531H2.31854C1.58467 3.94531 0.96589 4.51328 0.909923 5.23672L0.00855381 16.4945C-0.0612068 17.3961 0.254489 18.2934 0.874058 18.9566C1.49363 19.6199 2.37253 20 3.28454 20H12.7136C13.6257 20 14.5046 19.6195 15.1241 18.9562C15.7437 18.293 16.0594 17.3957 15.9896 16.493ZM5.2804 3.86602C5.2804 2.38047 6.50023 1.17148 7.99909 1.17148C9.49796 1.17148 10.7178 2.38008 10.7178 3.86602V3.94531H5.2804V3.86602ZM14.2571 18.1602C13.8543 18.591 13.3064 18.8285 12.7136 18.8285H3.28494C2.69217 18.8285 2.14433 18.591 1.74153 18.1602C1.33873 17.7293 1.14206 17.1695 1.18739 16.5852L2.08876 5.32734C2.09782 5.20898 2.19911 5.11602 2.31893 5.11602H4.09881V6.55859C4.09881 6.88203 4.36327 7.14414 4.68961 7.14414C5.01594 7.14414 5.2804 6.88203 5.2804 6.55859V5.11602H10.7178V6.55859C10.7178 6.88203 10.9822 7.14414 11.3086 7.14414C11.6349 7.14414 11.8994 6.88203 11.8994 6.55859V5.11602H13.6793C13.7991 5.11602 13.9 5.20898 13.9094 5.32891L14.8104 16.5832C14.8565 17.1695 14.6595 17.7293 14.2571 18.1602Z" fill="black"/>
</svg>
