<svg width="46" height="130" viewBox="0 0 46 130" fill="none" xmlns="http://www.w3.org/2000/svg">
<path fill-rule="evenodd" clip-rule="evenodd" d="M2.98539 49.6745C0.798479 57.6411 -0.433831 67.2566 0.138933 76.525C1.31917 95.3914 8.92131 109.728 10.5875 127.605C11.6289 127.952 12.1843 128.803 12.3579 130C15.7945 114.553 21.1923 98.533 28.725 86.2272C29.1763 85.6892 30.7731 86.2966 30.5128 85.047C31.0161 84.561 30.7558 83.294 30.8252 82.3567C38.5488 69.1658 43.9987 53.6665 44.8319 33.4983C45.5435 33.3768 44.6583 34.8521 45.717 34.4008C46.4807 21.9736 34.8172 19.2486 32.4393 8.95621C31.9881 7.63712 32.1616 6.26595 32.1616 6.26595L31.2938 2.67316C31.2938 2.67316 30.721 0.92016 30.4086 -0.0170898L26.8158 1.14579C25.3926 4.99893 23.3966 8.29666 24.4033 6.804C20.3245 16.1939 9.73706 21.0363 6.64761 31.7626L2.98539 49.6745Z" fill="#3F150A"/>
<path fill-rule="evenodd" clip-rule="evenodd" d="M25.5836 13.6947C26.7291 13.0525 28.2217 11.1607 27.7011 9.82422C27.3192 11.2648 25.2191 12.5318 25.5836 13.6947Z" fill="#56AF40"/>
<path fill-rule="evenodd" clip-rule="evenodd" d="M14.458 27.9614C20.446 25.1149 26.6943 20.932 28.2564 14.6143C24.7678 19.9948 15.6903 21.2965 14.458 27.9614Z" fill="#56AF40"/>
<path fill-rule="evenodd" clip-rule="evenodd" d="M32.4048 20.6025C32.3007 34.8001 28.8467 45.6132 25.3234 56.3742C28.1525 61.0952 31.0684 65.7294 32.0924 72.2207C33.9148 70.3983 34.2099 67.6733 35.1124 65.0698C35.9455 62.6573 37.6291 59.8282 37.5423 57.3288C37.3861 52.0178 32.023 46.4463 31.9709 41.7774C34.7826 45.3355 35.8414 50.6119 38.4622 54.3435C39.6598 47.4009 41.3955 39.5558 40.9789 31.971C36.9522 29.3676 34.6785 24.9764 32.4048 20.6025Z" fill="#56AF40"/>
<path fill-rule="evenodd" clip-rule="evenodd" d="M15.2738 41.6907C11.5596 44.138 7.48078 46.863 5.67571 51.1847C10.8306 47.5919 16.3499 40.1807 25.1323 40.2501C21.9734 42.2114 17.9641 44.1901 14.354 47.0539C11.3513 49.4144 6.52618 52.122 5.05088 55.3503C3.50615 58.7521 4.00949 63.5252 4.07892 68.4718C9.89333 64.2541 16.5756 60.9043 22.0602 56.3396C22.876 53.2675 23.8479 50.3516 24.8025 47.401C20.2551 49.3276 16.5235 52.8683 13.1216 55.68C12.0455 56.5652 10.8132 58.405 9.21643 58.0405C12.6877 51.4451 19.179 47.9043 25.7051 44.4157C25.8266 41.2221 28.1003 37.0739 27.2498 34.8696C23.5702 37.5425 19.0923 39.174 15.2738 41.6907Z" fill="#56AF40"/>
<path fill-rule="evenodd" clip-rule="evenodd" d="M27.8573 82.0448C28.135 75.2237 25.0629 69.201 22.2859 64.4106C21.9387 69.0795 18.2071 73.436 18.3286 78.1223C18.4327 82.4614 21.5222 86.0889 23.0322 89.7858C24.2298 87.7898 25.3059 85.6723 26.6423 83.8325C24.9067 79.4761 21.0709 74.165 21.6437 69.4787C25.3927 72.0301 25.8439 77.8272 27.8573 82.0448Z" fill="#56AF40"/>
<path fill-rule="evenodd" clip-rule="evenodd" d="M23.5006 61.737C26.6074 66.2844 28.2736 72.2377 30.2696 77.8959C30.5126 70.5194 27.1281 64.219 24.4205 58.769C24.4205 60.0014 23.8651 60.2791 23.5006 61.737Z" fill="#95D98B"/>
<path fill-rule="evenodd" clip-rule="evenodd" d="M9.94514 33.8973C9.80629 34.8519 9.35502 35.5114 9.32031 36.5875C15.2215 34.7477 20.3417 32.3178 24.2816 28.9159C25.6354 27.7531 26.7289 25.9306 28.7769 25.6529C24.7676 32.9947 18.1548 37.7157 8.40042 39.2604C7.63673 40.6836 7.56731 42.8185 6.87305 44.3285C7.6888 45.1269 8.29628 43.4607 8.67812 43.1483C14.1454 38.462 22.3377 35.98 28.1347 31.9186C29.0373 29.5234 29.2803 24.8719 29.0893 22.3726C24.6461 28.1523 19.4391 33.203 9.94514 33.8973Z" fill="#95D98B"/>
<path fill-rule="evenodd" clip-rule="evenodd" d="M13.6944 104.642C14.6664 97.7865 17.9121 90.1323 16.8013 83.1724C14.8053 89.1603 13.087 97.0228 13.6944 104.642Z" fill="#95D98B"/>
<path fill-rule="evenodd" clip-rule="evenodd" d="M11.1428 31.8146C17.2002 30.2352 23.6221 25.8266 26.1215 22.6504C24.0213 24.5075 21.8865 26.2432 19.2309 27.6838C16.5754 29.1244 13.2082 29.5409 11.1428 31.8146Z" fill="#95D98B"/>
<path fill-rule="evenodd" clip-rule="evenodd" d="M17.5302 62.8997C18.1897 61.9798 19.7518 61.9277 20.2205 60.8169C19.2485 61.2334 17.2351 62.1881 17.5302 62.8997Z" fill="#95D98B"/>
<path fill-rule="evenodd" clip-rule="evenodd" d="M3.74902 72.6543C6.42192 70.45 12.4273 65.8332 14.8398 64.3579C10.952 66.2324 7.49802 68.5408 3.76638 70.5542C3.74902 71.2658 3.74902 71.96 3.74902 72.6543Z" fill="#95D98B"/>
<path fill-rule="evenodd" clip-rule="evenodd" d="M4.58218 82.5128C5.91863 79.7184 8.0014 77.948 10.2925 75.6743C12.6356 73.3485 17.1483 70.3632 17.4954 67.9507C15.0828 69.912 12.1322 71.908 9.70234 74.1817C7.49807 76.2471 4.20034 78.8158 4.58218 82.5128Z" fill="#95D98B"/>
<path fill-rule="evenodd" clip-rule="evenodd" d="M3.71436 76.8376C6.42197 74.9804 10.6396 70.433 13.0174 68.2461C9.92797 71.1099 4.98138 72.0992 3.71436 76.8376Z" fill="#95D98B"/>
<path fill-rule="evenodd" clip-rule="evenodd" d="M15.6728 73.626C11.5767 78.1907 5.77966 81.0198 4.84241 88.7782C7.96657 83.4324 13.781 79.2148 15.6728 73.626Z" fill="#95D98B"/>
</svg>
