<svg width="29" height="80" viewBox="0 0 29 80" fill="none" xmlns="http://www.w3.org/2000/svg">
<path fill-rule="evenodd" clip-rule="evenodd" d="M1.83716 30.5694C0.491362 35.472 -0.266982 41.3892 0.0854875 47.0928C0.811789 58.7029 5.49003 67.5254 6.51539 78.5267C7.15625 78.7403 7.49804 79.2637 7.60485 80.0007C9.71967 70.4947 13.0414 60.6362 17.6769 53.0634C17.9546 52.7323 18.9373 53.1061 18.7771 52.3371C19.0868 52.0381 18.9266 51.2583 18.9693 50.6816C23.7223 42.5641 27.0761 33.026 27.5888 20.6148C28.0267 20.5401 27.482 21.4479 28.1336 21.1702C28.6035 13.5227 21.4259 11.8458 19.9627 5.51202C19.685 4.70027 19.7918 3.85648 19.7918 3.85648L19.2577 1.64553C19.2577 1.64553 18.9052 0.566759 18.713 -0.0100098L16.502 0.705611C15.6262 3.07677 14.3979 5.10615 15.0174 4.18759C12.5074 9.96596 5.99203 12.9459 4.09083 19.5467L1.83716 30.5694Z" fill="#3F150A"/>
<path fill-rule="evenodd" clip-rule="evenodd" d="M15.7436 8.42725C16.4485 8.03206 17.3671 6.86784 17.0466 6.04541C16.8117 6.93193 15.5193 7.71163 15.7436 8.42725Z" fill="#56AF40"/>
<path fill-rule="evenodd" clip-rule="evenodd" d="M8.89709 17.207C12.582 15.4554 16.4271 12.8813 17.3884 8.99341C15.2416 12.3045 9.65544 13.1056 8.89709 17.207Z" fill="#56AF40"/>
<path fill-rule="evenodd" clip-rule="evenodd" d="M19.9412 12.6782C19.8771 21.4152 17.7516 28.0694 15.5834 34.6916C17.3244 37.5968 19.1188 40.4486 19.7489 44.4432C20.8704 43.3217 21.052 41.6448 21.6074 40.0427C22.1201 38.5581 23.1561 36.8171 23.1027 35.279C23.0066 32.0107 19.7062 28.5821 19.6742 25.7089C21.4045 27.8985 22.056 31.1455 23.6688 33.4419C24.4058 29.1695 25.4739 24.3418 25.2176 19.6742C22.7396 18.0721 21.3404 15.3698 19.9412 12.6782Z" fill="#56AF40"/>
<path fill-rule="evenodd" clip-rule="evenodd" d="M9.39916 25.6556C7.11344 27.1616 4.60343 28.8385 3.49261 31.4981C6.66484 29.2871 10.0614 24.7264 15.4659 24.7691C13.522 25.976 11.0547 27.1937 8.83307 28.956C6.98527 30.4086 4.01598 32.0748 3.1081 34.0615C2.1575 36.1549 2.46725 39.0922 2.50997 42.1362C6.08807 39.5408 10.2002 37.4794 13.5754 34.6703C14.0774 32.7798 14.6755 30.9854 15.263 29.1696C12.4646 30.3552 10.1682 32.5341 8.07472 34.2644C7.41251 34.8091 6.65416 35.9413 5.67152 35.717C7.8077 31.6583 11.8024 29.4794 15.8184 27.3325C15.8931 25.3672 17.2923 22.8145 16.769 21.458C14.5046 23.1029 11.749 24.1069 9.39916 25.6556Z" fill="#56AF40"/>
<path fill-rule="evenodd" clip-rule="evenodd" d="M17.1428 50.4888C17.3137 46.2912 15.4232 42.5849 13.7143 39.637C13.5006 42.5101 11.2042 45.191 11.279 48.0749C11.3431 50.7451 13.2443 52.9774 14.1735 55.2524C14.9105 54.0241 15.5727 52.7211 16.3952 51.5889C15.3271 48.908 12.9666 45.6396 13.3191 42.7558C15.6261 44.3259 15.9038 47.8933 17.1428 50.4888Z" fill="#56AF40"/>
<path fill-rule="evenodd" clip-rule="evenodd" d="M14.462 37.992C16.3739 40.7904 17.3993 44.4539 18.6276 47.9359C18.7771 43.3965 16.6943 39.5193 15.0281 36.1655C15.0281 36.9239 14.6863 37.0948 14.462 37.992Z" fill="#95D98B"/>
<path fill-rule="evenodd" clip-rule="evenodd" d="M6.12026 20.8597C6.03481 21.4472 5.75711 21.853 5.73574 22.5152C9.36725 21.3831 12.5181 19.8877 14.9427 17.7943C15.7758 17.0787 16.4487 15.9572 17.709 15.7863C15.2418 20.3043 11.1723 23.2095 5.16966 24.1601C4.6997 25.0359 4.65697 26.3497 4.22974 27.2789C4.73174 27.7702 5.10557 26.7449 5.34055 26.5526C8.70504 23.6688 13.7464 22.1414 17.3138 19.6421C17.8693 18.1681 18.0188 15.3056 17.9013 13.7676C15.167 17.3243 11.9627 20.4325 6.12026 20.8597Z" fill="#95D98B"/>
<path fill-rule="evenodd" clip-rule="evenodd" d="M8.42727 64.3951C9.0254 60.1762 11.0227 55.4659 10.3391 51.1829C9.11084 54.8678 8.05343 59.7062 8.42727 64.3951Z" fill="#95D98B"/>
<path fill-rule="evenodd" clip-rule="evenodd" d="M6.85718 19.578C10.5848 18.606 14.5367 15.8931 16.0748 13.9385C14.7824 15.0813 13.4687 16.1494 11.8345 17.0359C10.2003 17.9225 8.12821 18.1788 6.85718 19.578Z" fill="#95D98B"/>
<path fill-rule="evenodd" clip-rule="evenodd" d="M10.7878 38.7075C11.1936 38.1414 12.1549 38.1094 12.4433 37.4258C11.8452 37.6821 10.6062 38.2696 10.7878 38.7075Z" fill="#95D98B"/>
<path fill-rule="evenodd" clip-rule="evenodd" d="M2.30713 44.7102C3.95199 43.3537 7.64758 40.5126 9.13223 39.6047C6.73971 40.7583 4.6142 42.1788 2.31781 43.4178C2.30713 43.8557 2.30713 44.283 2.30713 44.7102Z" fill="#95D98B"/>
<path fill-rule="evenodd" clip-rule="evenodd" d="M2.81987 50.777C3.6423 49.0573 4.92401 47.9679 6.33389 46.5687C7.77581 45.1374 10.5528 43.3003 10.7665 41.8157C9.28182 43.0226 7.46606 44.2509 5.97074 45.6501C4.61426 46.9212 2.58489 48.5019 2.81987 50.777Z" fill="#95D98B"/>
<path fill-rule="evenodd" clip-rule="evenodd" d="M2.28577 47.2844C3.95199 46.1415 6.54745 43.3431 8.01073 41.9973C6.10953 43.7597 3.06547 44.3685 2.28577 47.2844Z" fill="#95D98B"/>
<path fill-rule="evenodd" clip-rule="evenodd" d="M9.64487 45.3083C7.12417 48.1174 3.55675 49.8584 2.97998 54.6328C4.90254 51.3431 8.48065 48.7476 9.64487 45.3083Z" fill="#95D98B"/>
</svg>
