<svg width="180" height="120" viewBox="0 0 180 120" fill="none" xmlns="http://www.w3.org/2000/svg">
<path d="M90.3975 12.1627L92.3536 10.6958L97.0322 8.27015L102.666 6.02711L112.16 2.69394L113.619 2.36861L115.392 1.9805L126.414 0.536504L126.356 1.54673L128.953 0.839001L133.008 0.188347L135.033 0L136.938 0.119857L133.912 3.99524L130.629 6.8547L139.225 2.00904L139.614 3.71558L141.885 1.42687L144.424 1.98621L146.072 2.23163L148.039 2.283L150.51 2.2088L153.232 2.19738L155.709 2.4371L153.816 4.85137L151.797 6.88323L150.664 8.34435L154.148 7.44257L156.681 7.11153L159.473 7.22568L161.629 7.65945C161.629 7.65945 162.899 8.41284 163.093 8.53841C163.282 8.66397 163.728 9.10345 163.728 9.10345L160.691 10.3819L159.867 10.7643L161.263 10.6958L165.644 12.254L173.325 15.3189L178.404 17.3222L179.994 18.2012L177.672 23.7146L177.232 24.7306L176.225 26.6312L174.595 29.9929L172.267 33.9881L170.254 37.1615L167.743 40.5232L167.554 40.9684L162.487 41.6247L161.663 42.0071L163.888 42.7548L165.918 43.3769L167.188 43.7479L166.05 44.8266L164.34 45.5914L161.554 46.2992L158.071 46.8243L152.306 47.4863L154.657 48.4851L157.196 49.2956L154.737 51.6471L150.756 54.4495L147.278 56.6183L146.14 57.0692L144.933 57.2633L143.664 57.3317L138.402 57.229C138.402 57.229 138.911 57.7313 139.231 57.9196C139.551 58.108 139.803 58.3591 139.803 58.3591L137.458 59.004L133.466 59.9743L130.869 60.9332L128.272 61.892L125.619 63.2333L121.003 65.2766L119.733 65.4078L119.796 65.9158L114.923 67.902L110.748 69.5686L107.396 71.4178L104.107 73.3298L100.378 76.0067L94.1839 79.9562L88.7503 83.3351L84.5121 85.4411L80.6514 87.1648L78.9413 87.6785L77.0424 87.8155L74.5715 87.7013L75.7269 90.9203L75.9842 91.3598L73.5763 91.7479L71.5516 92.2616L68.8291 93.4145L67.2505 94.6873L65.8606 95.7717L65.1628 95.903L63.8302 95.8459L63.1324 95.7831H62.6863L62.3088 96.2911L59.6549 97.7579L59.4033 98.0147L55.4682 96.6392L51.0241 94.8243L48.5476 94.2649L50.2005 95.7146L51.2872 97.1643L52.311 98.7396L53.3348 101.011L53.7867 103.288L53.4721 104.173L51.5046 103.425L49.211 101.285L47.2378 99.082L44.95 97.5753L41.7756 96.137L39.299 95.1382L37.4573 94.7044L39.3048 96.3425L40.6431 97.7922L41.4096 99.3674L41.7985 100.76L41.8042 102.529L41.5583 104.618L40.8033 106.331L39.2247 108.237L35.9989 109.961L32.9561 109.721L34.2773 107.814L35.4155 106.673L36.485 105.275L36.7939 103.882L36.7882 102.741L36.4621 100.783L35.1867 98.8252L32.6415 97.3184L28.6435 95.9429L26.4243 95.4464L25.6007 96.0171L27.9514 96.7648L30.3022 98.2088L32.0238 100.035L32.9789 101.422L33.6195 103.129L33.6252 104.647L33.3793 106.228L32.3097 107.814L31.8064 108.134L31.1029 106.239L30.0791 104.344L28.8666 102.581L27.0192 100.88L25.4291 99.8754L24.0965 99.4359L25.2461 101.011L25.635 102.404L25.961 103.922L25.6693 105.589L24.474 107.683C24.474 107.683 22.5808 109.144 21.9459 109.276C21.311 109.407 20.8077 109.407 20.8077 109.407L21.9345 106.998L22.3692 105.48L22.2319 103.585L21.7171 102.13L21.0765 101.308L20.6933 100.806L13.8756 107.546L14.8937 108.049L16.1005 109.184L16.5524 110.446L16.4323 111.393L15.4885 112.283L14.602 112.478L14.3446 111.342L13.5782 110.269L12.5029 110.212L10.7299 110.851L8.45922 113.328L3.47749 118.413L0.63487 120.006L0 119.812L0.120111 117.974L3.14575 114.098L5.66808 111.051L10.2723 105.84L12.2284 103.551L12.6631 102.033L12.7832 100.389L12.583 99.1334L12.1312 97.8721L12.0625 96.605L12.5659 95.7831L13.1378 95.7774L13.8985 96.0913L14.9166 97.4155L15.2369 98.4885L15.3684 99.7555L18.2682 96.8333L17.948 95.6975L17.5018 94.6873L16.867 93.9339L15.8489 92.8609L14.7679 91.7879L13.6869 91.3484L12.4171 90.7206L11.0845 90.03L8.99113 89.5334L7.33818 88.8428L9.80331 87.1876L11.2618 86.9251L13.2293 86.9137L15.1968 87.7926L17.3588 88.7971L18.6972 89.8017L20.4817 91.3769L20.7277 89.9215L20.2758 88.3405L19.6352 86.4457L18.7372 84.6763L17.273 83.4835L15.6201 82.5417L13.1435 81.7941L12.2513 81.229L15.8603 80.1389L17.5075 80.4471L20.1729 81.5715L21.5112 82.576L22.6609 83.9629L23.6217 85.5382L24.3253 86.5484L23.5417 83.9001L22.6437 81.5658L21.4312 79.9277L20.1557 78.6036L17.8679 76.8457L14.8823 75.5957L11.7708 74.5969L13.0349 73.3241L14.3618 72.8732L16.3922 72.9246L19.0575 73.6723L20.9622 74.7396C20.9622 74.7396 23.1871 75.9952 23.25 76.1836L24.6513 77.6333L25.6064 78.9574L26.3729 80.2188L27.0134 81.6685L27.2079 82.6787L27.4653 83.1182L27.8371 81.0293L27.6998 78.5636L27.6254 76.6687L27.1679 73.8264L26.9048 71.2352L26.7675 68.5812L27.0706 65.6704L27.757 62.7596L28.9524 60.4138L30.6511 57.4973L32.4756 55.083L33.3564 54.2554L33.8025 55.2029L35.0608 52.8571L37.2629 49.7465L40.3514 46.1907L43.5715 42.9489L45.7164 40.9798L49.5656 37.4183L51.5217 35.5748L52.1509 35.0668L52.4712 36.077L53.6666 34.1765L54.9878 31.8307L56.309 29.736L57.1326 29.3536L58.3966 29.0968L61.3708 28.2578L63.8988 27.1734L67.2505 25.4497L69.3953 23.7317L71.0997 22.2078L73.1874 20.741L73.3189 22.0081L75.275 19.8507L76.7221 18.0071L77.4771 16.546L79.1872 16.0323L80.577 15.3931L82.4759 14.3087L84.3062 13.1615L86.0735 11.7004L86.9601 10.9356L87.9267 14.1546L88.001 16.0495L88.0067 17.191L88.8876 15.5415L89.7054 14.0804L90.3975 12.1627Z" fill="white"/>
<path d="M28.3633 72.9645L28.1173 70.3391L28.0144 68.5127L28.1002 66.8689L28.2832 65.4135L28.7007 63.7698L29.2097 62.3144L29.999 60.6192L31.2574 58.5018L32.2869 57.1377L33.1276 55.6822L33.2706 55.8706L32.8131 57.9367L32.4013 59.8601L32.2697 61.4069L32.1839 62.9079L32.2354 63.9867L33.4365 59.4777L34.5061 56.4699L35.5299 54.0271L36.9311 51.5786L38.75 49.0387L40.3858 47.2979L42.7708 44.8494L45.6249 42.3495L48.0099 40.2264L49.7429 38.5312L50.9612 37.3555L51.6647 36.5051L51.8077 36.7391L51.4417 38.3828L50.9383 41.5733L53.3119 36.9674L54.8505 33.9139L56.2518 31.7051L57.1383 30.6207L57.7961 30.3809L59.4891 29.9529L62.1143 29.0968L64.3678 28.195L66.9474 26.8708L68.8234 25.4554L70.7909 23.8516L72.7584 22.0138L72.2494 23.5662L71.5058 25.3526L70.8595 27.3274L78.5695 17.3964L80.1652 16.8256L82.556 15.6899L84.5235 14.3657L85.7876 13.424L86.6741 12.4822L87.0687 16.2777L87.0344 19.1372L86.9029 20.5926L86.8628 22.0937L86.6341 23.0811L89.6654 17.3907L90.6892 15.0906L91.7645 13.5381L92.5595 12.7847L93.6348 11.843L98.4163 9.14907L107.19 5.77594L112.915 3.58997L124.755 1.84348L124.898 1.98617L124.852 2.17452L123.262 4.48034L124.904 3.48724L126.871 2.63111L128.89 1.96334L131.378 1.43825L133.443 1.10151L135.416 0.810425L133.775 2.18022L131.104 4.4461L129.142 6.56358L126.854 9.53147L125.27 11.9286L124.149 13.8121L123.359 15.5985L126.585 12.1569L129.908 9.18902L132.482 7.20852L134.123 6.02707L136.417 4.56025L138.482 3.47012L136.245 7.51673L139.105 5.53052L140.695 4.25775L141.633 3.50436L142.24 2.98498L143.744 3.25894L145.528 3.43587L147.736 3.6128L149.709 3.51007L151.402 3.40733L152.906 3.35597L153.707 3.35026L149.778 7.07154L146.924 10.2734L145.9 11.9229L148.337 10.5988L151.62 9.41161L154.296 8.69818L157.065 8.16738L159.181 8.11031L160.17 8.15026L160.925 8.42993L161.303 8.75525L161.023 9.04063C161.023 9.04063 158.883 9.7084 158.769 9.85109C158.655 9.99378 155.44 11.5576 155.44 11.5576L153.335 13.1614L152.117 14.3885L155.686 13.1044L157.797 12.3909L159.438 12.0542L160.851 11.9514L162.218 12.2711L163.865 12.9674L166.502 13.755L170.271 15.3303L178.467 18.4352L176.608 23.2295L173.302 29.7189L169.711 35.5519L167.937 38.0461L166.725 39.6956L162.778 40.3691L158.552 41.6532L161.234 43.0002L164.763 44.1588L161.291 45.209L156.784 45.8882C156.784 45.8882 149.641 46.6245 149.503 46.5788C149.36 46.5331 147.153 46.5446 147.153 46.5446L152.335 48.7248L155.44 49.6494L149.44 54.0385L145.974 56.0704L144.567 56.3557L141.181 56.1845L133.42 55.5167L137.612 57.8397L135.079 58.2734L131.698 59.1353L128.181 60.5564L124.526 62.5427L121.666 63.8211L120.305 64.3405C120.305 64.3405 119.504 64.1579 119.27 64.1122C119.035 64.0666 113.996 62.4456 113.996 62.4456L118.475 65.054L111.674 67.902L106.841 70.3163L103.375 72.4908L99.3429 75.2304L95.9226 77.5419L94.0008 78.7691L89.7855 81.5087L86.268 83.4492L82.1385 85.3897L79.9307 86.2002L78.7125 86.4856L75.8927 86.4513L73.542 86.2287L70.8138 85.9605L72.8442 87.8725L73.8394 89.4649L74.4571 90.5436L73.2846 90.7377L71.5001 91.0287L69.6241 91.7422L68.1256 92.4043L66.3468 93.4887L65.0828 94.2934L64.3793 94.4361L63.7215 94.4418L62.9723 94.4475L61.794 94.1222L62.08 94.8699L62.0343 95.2009L61.4223 95.3893L60.204 96.0513L59.266 96.6164L58.797 96.7591L58.2308 96.4794L56.063 95.5491L52.6256 94.2535L49.7086 93.4202L46.5057 92.4956L43.4972 91.8506L42.462 91.8107L43.9204 92.507L45.1959 93.249L46.4656 93.8996L47.5009 94.6473C47.5009 94.6473 48.3531 95.532 48.4904 95.532C48.6333 95.532 49.5771 96.4623 49.5771 96.4623L50.4293 97.5867L51.4245 99.0364L52.2309 100.532L52.6599 101.799L52.7114 102.643L51.6247 101.525L50.2062 100.126L48.9308 98.9622L47.375 97.7008L45.5848 96.4908L44.0749 95.6061L41.6269 94.4932C41.6269 94.4932 39.6022 94.0309 39.4134 93.9396C39.2247 93.8482 37.2972 93.6199 37.2972 93.6199C37.2972 93.6199 36.3077 93.483 35.9359 93.483C35.5585 93.483 33.9627 93.7284 33.9627 93.7284L35.2839 94.4704L36.9311 95.355L37.8291 96.1027L38.8186 96.896L39.8138 98.2031L40.2885 99.4188L40.8147 100.823L41.0092 102.415L40.8319 104.105L40.1341 105.703L38.5441 107.586L37.3258 108.248L35.8273 108.91L34.9808 108.682L36.3878 107.598L37.6518 106.422L38.1609 105.058L38.4411 104.116L38.4811 103.083L38.1494 101.913L37.7204 100.555L36.7767 99.1962L35.833 98.2145L34.5575 97.0501L33.0476 96.1198C33.0476 96.1198 31.3489 95.1895 31.2116 95.1895C31.0686 95.1895 28.9524 94.5446 28.9524 94.5446L27.7284 94.3163L26.5502 94.0423L23.7876 96.3995L25.8581 96.6735L27.6483 97.3698L29.5358 98.5341L30.7655 99.7955L31.9037 101.434L32.5214 102.929L32.8131 104.618L32.5385 106.262L30.3136 102.381L28.2832 100.281C28.2832 100.281 26.4472 99.2589 26.3957 99.1163C26.35 98.9736 24.371 98.283 24.371 98.283L23.1985 98.3343C23.1985 98.3343 21.8372 98.1517 22.209 98.3857C22.5865 98.6197 24.005 100.206 24.005 100.206L24.6227 101.468L25.0516 102.826L25.0116 104.139L24.9201 105.218L24.4568 106.296L23.8963 107.238L23.29 107.757L22.2147 108.511L23.147 106.913L23.4216 105.457L23.4158 104.236L23.2214 103.014L22.9354 102.221L22.5579 101.565C22.5579 101.565 22.2719 101.051 22.1804 100.908C22.0832 100.766 21.3797 100.115 21.3797 100.115L20.5904 99.6471L12.4057 107.986L13.3952 108.265L14.2874 108.591L14.8537 108.962L15.2769 109.521L15.4714 110.366L15.4256 110.976L15.1454 111.21L15.0481 110.976V110.554L14.9051 109.995L14.5277 109.572L14.0072 109.247L12.9719 109.207L12.0797 109.258L11.3762 109.544L10.4382 110.063L2.62527 118.208L1.64151 118.773L0.938004 119.058V118.636L1.12103 118.071L1.53856 117.363L2.05332 116.752L3.45461 115.012L12.9891 104.036L13.5039 103.14L13.6869 102.387L13.9157 101.308L14.0529 100.275L13.8585 99.1505L13.664 98.2145L13.3323 97.4211L13.4238 97.0901H13.6583L14.1788 97.9291L14.4647 99.0991L14.6135 100.269L14.5677 101.023L14.4304 102.01L14.4819 102.524L19.6753 97.0559L19.4465 96.2739L18.6858 94.3562L17.6448 92.9065L16.7011 91.9248L15.7574 91.1315L14.6249 90.4352L13.0692 89.5962L11.5649 89.0882L10.4325 88.7172L9.63172 88.6259L9.35146 88.5346L10.381 88.1065L11.931 87.9125L13.3437 87.9981L14.6135 88.3691L16.1692 89.0654L17.5819 89.853L19.0919 90.8803L20.0928 91.999L20.9393 93.1691L21.6027 94.8071L21.8773 93.774L21.8716 91.9419L21.7686 90.3496L21.2882 87.9581L20.8592 86.4114L20.3387 85.521L19.4408 84.1626L18.3026 83.004L17.1701 82.2107L15.7574 81.56L14.9109 81.3317L16.1349 81.1377L17.7363 81.5543L19.0575 82.0623L20.19 82.6673L21.2767 83.5519L22.1747 84.722L22.9297 85.8463L23.6389 87.1077L24.1651 88.5117L24.4568 90.1041L24.5083 91.4169L24.514 92.3529L25.1145 90.5208L25.5264 88.4547L25.5664 86.9079L25.4634 85.4982L25.0345 83.9058L24.5083 82.3591L23.4158 80.5327L22.6094 79.4083L21.6657 78.3353L20.6247 77.4506L19.069 76.3776L17.5133 75.493L16.2435 74.9336L14.6421 74.4257L13.6526 74.1517L13.8413 73.8207L14.7793 73.678L16.3808 73.8606L18.028 74.3229L19.6753 75.0192L21.1337 75.8582L22.5465 76.9312L23.8219 78.1469L24.8171 79.5053L25.9553 81.423L26.6703 83.4834L27.0992 85.1215L27.3452 86.9479L26.9791 89.3393L26.8876 90.184L27.7799 89.4306L28.1459 87.5529L28.2374 86.7253L28.3289 85.9148L28.4662 84.4594L28.5978 83.0497L28.7808 82.3876L28.8323 81.4344L28.8494 79.0544L28.8437 77.2394L28.6778 76.3719L28.5634 74.5569L28.3633 72.9645Z" fill="#3E142C"/>
<path d="M87.0458 47.6176V47.8231L87.1316 48.0914L87.3833 48.2569L87.6064 48.2341L87.8523 48.0685L87.9553 47.7775L87.8752 47.5149L87.7265 47.3266L87.4176 47.3094L87.2117 47.3494L87.0458 47.6176Z" fill="#3E142C"/>
<path d="M85.8276 47.1895L85.8505 47.435L85.9763 47.6176C85.9763 47.6176 86.1422 47.6975 86.2051 47.6975C86.268 47.6975 86.451 47.7146 86.5139 47.6747C86.5769 47.6347 86.697 47.4464 86.697 47.4464L86.7141 47.1382L86.6283 46.9327L86.4625 46.8071H86.1708L85.9248 46.9099L85.8276 47.1895Z" fill="#3E142C"/>
<path d="M84.8381 47.5035L85.187 47.4578L85.4158 47.2295L85.4959 47.0012L85.4329 46.6702L85.1641 46.5503L84.8324 46.5332L84.5464 46.6987C84.5464 46.6987 84.5464 46.8871 84.5464 46.9441C84.5464 47.0069 84.5864 47.1896 84.5864 47.1896L84.8381 47.5035Z" fill="#3E142C"/>
<path d="M83.2023 46.8528C83.2023 46.9155 83.2424 47.1381 83.2424 47.1381L83.5741 47.3836L83.9687 47.4235L84.1746 47.2181L84.2376 46.9897L84.1518 46.6815L83.9058 46.516L83.597 46.4989L83.351 46.6016L83.2023 46.8528Z" fill="#3E142C"/>
<path d="M82.0298 47.2295C82.0298 47.2295 82.1327 47.435 82.1327 47.4977C82.1327 47.5605 82.3215 47.6633 82.3215 47.6633L82.6704 47.6233L82.9163 47.3722V47.1439L82.8134 46.8985L82.6704 46.8186L82.3787 46.7386L82.1327 46.8813L82.0298 46.9841V47.2295Z" fill="#3E142C"/>
<path d="M42.3533 46.4419L45.1502 47.943L43.1712 50.1004L42.3762 51.1392L42.0616 52.2521L45.7393 54.2269L43.6745 55.5853L42.4048 57.4231L46.1682 60.6707L43.5487 62.8281L42.9138 63.6271L43.2341 64.4205L45.7965 66.5608L42.3018 69.1235L45.1044 71.8117L41.1293 73.7408L43.1369 76.5946L39.3219 79.7965L34.8721 83.3979L31.223 86.5199L28.9181 88.6773L29.7817 85.1729L31.8522 85.0816L30.5653 82.5418L33.5109 82.2906L31.9837 79.5111L34.6948 78.9461L32.8474 76.4861L35.793 75.8355L33.8712 73.4554L36.9769 72.7249L35.1295 70.5047L37.6747 69.1406L35.3583 67.4797L37.9836 65.9558L35.5813 64.2207L38.281 62.4571L35.8845 60.7962L38.2695 59.2723L35.9474 57.6115L38.4125 56.0076L36.1762 54.6664L36.7252 53.6333L38.9559 52.3491L37.8348 51.7156L39.5793 49.4783L41.0835 47.6405L42.3533 46.4419Z" fill="#2887B0"/>
<path d="M61.6568 64.1465L63.0867 63.0278L62.183 57.5429L61.8455 54.0442L61.5938 51.4187L61.6625 48.7933L61.9713 46.7215L62.7606 44.6497L64.099 41.6989L66.3983 38.8223L68.2228 36.8247L70.5278 34.2677L72.5067 31.8706L73.7765 29.873L75.1206 27.5614L75.5038 25.2499L75.5724 22.5446L74.5429 23.823L74.7088 25.0958L74.3141 26.2944L73.3647 28.2863L71.7003 30.2839L69.1665 33.4801L66.0723 37.0758L63.8531 40.0266L62.3488 42.3438L61.6396 44.4157L60.5472 48.4794L60.0038 52.4575L60.1811 55.7222L60.5129 58.1079L61.1649 61.7607L61.6568 64.1465Z" fill="#2887B0"/>
<path d="M70.2361 57.6628L71.7461 57.0178L71.6488 53.1196C71.6488 53.1196 71.8033 51.7669 71.8033 51.5272C71.8033 51.2875 72.1922 49.3755 72.1922 49.3755L72.8957 46.1907L73.9195 43.16L75.6525 39.2504L78.1863 35.4207L80.4055 32.2302L83.0193 28.4005L84.678 25.2899L85.7818 22.6587L86.0049 19.3141L85.29 20.1931L84.392 15.4216L82.802 17.0197L83.4425 17.014L83.6027 17.4877L83.4425 17.8873L82.1671 18.3724L82.413 19.6452L83.2881 19.3998L84.0831 19.3141L84.3233 19.7879L84.2433 20.1874L83.6084 20.507L82.7333 20.5926L82.739 21.2319L84.575 21.0663L84.8953 21.4602V21.9396L84.4206 22.1793L82.7505 22.5845L82.4359 23.5434L83.7114 23.6176L84.1117 24.0913L83.7972 24.7305L82.2014 24.6563L82.047 25.3755L83.0079 25.7693L83.0879 26.3286L82.7676 26.5684L81.4121 26.4143L80.9374 27.3731L82.1385 27.9267L81.904 28.6459L81.3492 28.8856L80.3082 28.332L79.6734 29.2908L80.4741 29.7646L80.5542 30.244L80.2339 30.4837L79.5933 30.4095L79.1929 30.0956L78.6381 30.9745L79.1986 31.1286L79.4389 31.5225L79.2044 32.0818L78.8841 32.2416L78.3235 32.0875L78.0833 31.7679L77.4485 32.7267L77.9289 33.2005L78.0147 33.9139L77.7745 34.0737H77.294L76.8136 33.6799L76.4189 34.0794L77.0595 34.7928L76.9051 35.4321L76.3446 35.512L75.704 35.3579L74.909 36.3967L75.8699 37.0302L75.6354 37.8292H75.235L74.2798 37.5952L73.645 38.2345L74.6058 38.868L74.6859 39.2675L74.3713 39.747L73.256 39.433L72.8614 40.312L73.6621 40.7857L73.8223 41.4192L73.1874 41.8188L72.2265 41.5848L72.0721 42.458L72.8728 42.7719L72.9529 43.4055L72.4782 43.7251H71.9977L71.3571 43.6509L71.1226 44.37L72.1636 44.6839L72.2437 45.1634L71.9291 45.5629L71.2885 45.5686H70.8881L70.3333 46.7672L71.2084 46.8414L71.6889 47.1553V47.7146L71.054 48.0342L69.9387 47.96L69.9444 48.6735L70.9796 48.8276L71.2999 49.3812L71.1455 49.9405L70.6651 50.0204L69.79 50.0261L69.7957 51.0592L70.5907 50.9736L71.1512 51.1277V51.5272L70.9167 52.0066L70.2018 52.1665L69.8014 52.2464L69.8071 53.3593L70.5221 53.3536L71.0025 53.4335L71.1627 54.067L70.9225 54.2269L69.8872 54.4723L69.8929 55.5852L70.768 55.4996L71.0082 55.7393V56.059L70.768 56.2987L69.973 56.6183L70.2361 57.6628Z" fill="#2887B0"/>
<path d="M84.0888 35.7974L85.3586 33.9596L86.7141 33.5544L88.1497 33.309L89.265 33.4631L90.4661 34.2507L91.6672 35.1981L92.3078 36.3111C92.3078 36.3111 92.5538 37.1044 92.5538 37.3442C92.5538 37.5839 92.6396 39.1763 92.6396 39.1763L92.2506 40.6088L91.6215 41.8873L90.5862 42.6864L89.1564 43.2514L86.6855 43.7423C86.6855 43.7423 84.1346 43.5939 83.8143 43.5197C83.494 43.4398 81.658 42.4181 81.658 42.4181L80.8516 40.9912L82.7504 37.8807L83.0021 39.9468L83.963 40.9741L85.084 41.9216L86.5196 42.2355L88.1955 42.2298L89.3851 41.3508L90.2545 39.9125L90.0886 38.3201L89.1278 36.9732C89.1278 36.9732 88.0868 36.6593 87.8523 36.6593C87.6121 36.6593 86.3423 37.2243 86.3423 37.2243C86.3423 37.2243 85.9477 37.9434 85.8676 38.1832C85.7875 38.4229 86.1936 39.0564 86.1936 39.0564L87.0744 39.3703L87.8695 39.1249L87.9438 38.4857L88.0182 37.8464L88.5787 38.4799L88.9047 39.6728L88.653 40.312L87.6178 41.0312L86.4224 41.0369L85.2213 40.2493L84.6608 39.1363L84.1746 37.7037L83.9287 36.7506L84.0888 35.7974Z" fill="#2887B0"/>
<path d="M77.9518 53.5705L78.7411 51.8925L79.6905 50.6939L80.8859 49.815L82.4759 49.17L83.7514 48.9246L84.9468 49.2385L85.7475 49.6323L90.203 47.3037L88.9219 46.2763L88.0411 45.9624L86.6855 45.4887L85.4901 45.3346L84.2948 45.2604L82.6189 45.7512L80.7887 46.8699L79.7592 47.9087L79.0499 49.1072L78.6496 49.9063L78.1005 51.179L77.7916 53.4906L77.8717 53.7303L77.9518 53.5705Z" fill="#2887B0"/>
<path d="M92.3421 49.6552L93.4803 49.9405L94.487 53.3137L96.7233 50.6026L98.0674 51.0307L98.9482 54.2611L100.962 51.7555L102.637 52.2635L103.192 55.4368L105.6 53.2851L107.07 53.873L107.562 56.9208L109.867 54.8718L111.543 55.6651L111.474 58.5531L114.151 56.8923L115.621 57.7313L115.615 60.7619L118.252 59.181L119.682 60.0999L119.676 63.1077L121.672 61.7379L122.627 62.537L120.711 63.433L120.339 63.5187L120.03 63.5415L119.699 63.5244L119.35 63.4216L118.583 63.1762L110.479 60.6592L116.49 65.0597L110.639 67.4568L108.311 68.6212L106.95 69.3289L105.857 69.991L104.542 70.7158L103.432 71.4407L101.808 72.5194L101.207 72.3367L100.693 72.1313L100.115 71.8231L99.6174 71.5377L99.1827 71.2124L98.708 70.8642L98.2905 70.4133L97.8329 69.8825L97.5183 69.3688L97.3296 68.7296L97.1637 68.1931L97.118 67.6166L97.0951 67.0002L97.0722 66.5265L97.2152 65.7217L97.4783 64.9569L97.9073 64.3805L98.2962 63.9467L98.9139 63.5129L99.6346 63.1363L100.315 62.9251L101.122 62.7767L101.699 62.7538L102.403 62.8338L103.043 62.9764L103.455 63.1191L103.913 63.3874L104.285 63.7127L104.616 64.2492L104.039 64.1465L103.461 64.1065L102.883 64.2321L102.288 64.4204L101.814 64.7914L101.591 65.1225L101.425 65.5562L101.305 66.0699L101.328 66.5665L101.373 67.1829L101.562 67.7764L101.854 68.3757L102.123 68.8894L102.7 69.3631L103.301 69.6085C103.301 69.6085 103.65 69.7512 103.798 69.7512C103.941 69.7512 104.502 69.7455 104.502 69.7455L105.205 69.6827L106.012 69.4088L106.527 69.1405L107.207 68.7068L107.659 68.313L108.031 67.8392L108.397 67.2628L108.54 66.7662L108.723 65.9843L108.883 65.2823L108.94 64.5175L108.895 63.5929L108.786 62.8338L108.597 62.0918L108.283 61.3498L107.865 60.5051L107.43 59.8659L106.664 59.0269L105.835 58.4561L105.045 57.9653L104.302 57.6399L103.472 57.2518L102.58 56.9664C102.58 56.9664 101.814 56.7838 101.751 56.7838C101.688 56.7838 100.738 56.5612 100.738 56.5612L100.018 56.4414L99.2514 56.4471L98.1589 56.4528L97.2895 56.5612L96.3172 56.7724L95.3907 57.189L94.567 57.6685L93.8235 58.205L93.1657 58.8271L92.6567 59.3579L92.1648 60.1227L92.1419 59.3008L91.9704 58.4561L91.6958 57.7541L91.3412 57.0121L90.9466 56.4185L90.5748 55.9676L90.0772 55.5167L89.4366 55.0031L88.8132 54.5522L88.1097 54.1869L87.3833 53.8387L86.8857 53.6561L86.1421 53.4563L85.6903 53.4164L84.7408 53.3365L89.4595 50.7567L89.9399 52.4461L92.3421 49.6552Z" fill="#2887B0"/>
<path d="M120.871 27.3161L116.931 34.5132L111.508 36.5964L110.193 35.1467L111.989 31.7222L113.133 29.0055L114.076 26.243L115.318 22.5218L116.404 18.401L116.896 16.6887L117.697 15.0278L118.641 13.2642L119.79 11.552L120.843 10.0908L121.838 8.48134L123.594 6.71772L125.647 5.35363L127.803 3.93818L131.121 2.66541L128.667 5.28514L126.917 7.10012L125.613 8.71534L123.668 12.0371L121.826 15.9125L120.831 18.7263L118.04 24.2625L118.292 24.4623L120.871 27.3161Z" fill="#2887B0"/>
<path d="M128.799 11.3123L130.297 9.84546L130.617 13.0588L129.165 14.9765L128.799 11.3123Z" fill="#2887B0"/>
<path d="M124.24 16.1521L125.092 14.9422L125.939 14.0347L126.665 17.8986L125.613 19.5081L124.24 16.1521Z" fill="#2887B0"/>
<path d="M121.289 19.6281L120.139 21.2433L122.118 24.8961L123.268 23.0868L121.289 19.6281Z" fill="#2887B0"/>
<path d="M133.506 7.67657L135.462 6.26111L133.466 9.88537L133.506 7.67657Z" fill="#2887B0"/>
<path d="M133.923 10.3305L133.123 11.4435L135.536 11.5804L137.349 11.8259L139.317 12.214L141.279 12.6078L143.446 13.0016L144.047 13.15L144.647 11.8887L142.382 11.3464L139.26 10.7072L136.743 10.2677L134.575 9.82825L133.923 10.3305Z" fill="#2887B0"/>
<path d="M145.557 13.3384L150.796 14.5712L151.448 13.5154L146.861 12.1798L145.757 12.7391L145.105 13.2928L145.557 13.3384Z" fill="#2887B0"/>
<path d="M153.112 15.0107C153.261 14.8566 154.313 14.2516 154.313 14.2516L159.249 15.7355L163.03 17.0711L166.862 18.6121L170.237 20.1018L171.649 20.6953L170.145 22.0594L152.403 15.2618L153.112 15.0107Z" fill="#2887B0"/>
<path d="M136.806 21.1805L137.647 20.7068L138.911 20.41L139.751 20.1703L140.752 20.0504L142.228 20.1018L143.441 20.3301L144.865 20.6725L146.552 21.483L147.77 22.3562L149.149 23.5206L150.207 25.0388L150.956 26.791L151.225 28.0181L151.391 29.3023L151.231 30.8205L151.025 32.2245L150.556 33.5715L149.824 34.6844L149.2 35.4721L148.48 36.2711L147.93 36.7677L146.152 37.8578L144.836 38.5084L142.892 38.9879C142.892 38.9879 141.891 39.1077 141.679 39.1134C141.467 39.1134 139.832 38.8281 139.832 38.8281L138.036 38.3715L135.553 37.3327L134.284 36.4024L133.065 34.947L132.122 33.3089L131.533 31.4996L131.367 30.1527L131.464 28.2235L132.139 26.0547L133.025 24.3539L134.175 22.9441L135.433 21.8882L136.806 21.1805Z" fill="#2887B0"/>
<path d="M71.523 60.7334L72.8271 59.8716L77.0195 63.3189L77.6772 64.2721L78.0833 64.8713L78.6381 65.4193L79.4446 65.8702L80.6056 66.3153L82.4759 67.8621L86.2623 70.7044L88.8361 72.097L90.9008 73.0388L93.1658 73.8321L94.8816 74.477L96.5918 74.8195L98.1017 75.0135L96.9464 75.921L96.6433 75.4188L96.1399 75.219L95.791 75.3217L95.6938 75.6756L95.6423 75.9781L95.894 76.2806L96.3458 76.4804L94.0351 77.6961L91.2612 76.6573C91.2612 76.6573 89.3451 75.864 88.9905 75.6642C88.6359 75.4644 87.2232 74.7681 86.6684 74.4713C86.1136 74.1745 83.3396 72.4281 83.3396 72.4281L81.4235 70.9783L79.2501 69.2319L76.6248 67.0858L75.0062 65.8359L73.0902 64.3919L71.4258 63.1933L69.3095 61.8977L70.3105 61.2927L70.5106 61.5439L70.7623 61.892L71.1169 62.0404H71.4715L71.8719 61.6866V61.287L71.7689 61.0359L71.523 60.7334Z" fill="#2887B0"/>
<path d="M67.0904 69.6885L65.832 69.5458L64.7739 69.6485L63.4699 69.9054L62.6691 70.2592L61.5138 70.9156L60.6616 71.7717L59.9123 72.7306L59.2145 74.1917L58.9171 75.6471L58.9228 76.5032V77.1082L59.2317 78.1584C59.2317 78.1584 59.6378 79.1115 59.7407 79.2599C59.8437 79.4083 60.7016 80.3615 60.7016 80.3615L61.6625 81.2119L62.6691 81.7598L64.1791 82.3077L65.0828 82.4047L65.9407 82.399L66.6957 82.2963L67.5994 82.0908L68.4516 81.5315L69.1036 80.7781L69.7042 79.922L70.2018 79.0145L70.6593 79.7679L70.6136 80.624L72.1236 80.9151L72.4782 81.1662L72.5811 81.6171L72.3809 82.068L71.9806 82.3191L70.3677 81.7255L69.9673 82.7301L71.7346 83.8259L71.8376 84.3282L71.6889 84.7277L71.3857 84.8304H70.9854L69.1665 83.5862L68.4173 84.3909L68.9263 85.1443L71.8433 85.1786L74.7145 85.464L77.0824 85.8064L79.599 85.5952L69.544 76.1037L68.3372 75.6071L67.7309 75.3103L66.976 75.2133L66.2725 75.4701L66.0265 76.2235L66.1295 76.8742L66.6328 77.171C66.6328 77.171 66.1295 77.6732 65.9808 77.776C65.832 77.8787 65.3802 78.0785 65.3802 78.0785C65.3802 78.0785 64.6252 78.0842 64.4765 78.0842C64.3278 78.0842 63.9217 77.9872 63.7215 77.8844C63.5214 77.7874 63.2182 77.4335 63.2182 77.4335L62.7607 76.7829L62.5547 75.8297L62.652 74.9279L63.0009 73.8207L63.6014 73.2157L64.5051 72.8618L65.8606 72.5536L67.3706 72.5993L69.1837 72.8447L70.9968 73.4383C70.9968 73.4383 72.2551 74.0376 72.4095 74.1346C72.5582 74.2373 74.3256 75.3788 74.3256 75.3788L76.5962 77.0739L78.2663 78.7234L81.2462 81.5201L83.3682 83.6661L87.8866 81.5886L86.5768 81.2461L84.8667 80.7496L82.9507 79.9562L81.189 79.2599L79.5246 78.3638L78.2149 77.5191L76.6477 76.1722L74.4285 74.6254L71.952 72.5765L70.1332 71.2295L68.1141 70.0366L67.0904 69.6885Z" fill="#2887B0"/>
<path d="M80.8344 47.9144L80.8973 48.1199L81.2462 48.2854L81.4979 48.1827L81.618 47.9943L81.7209 47.7489L81.618 47.4807L81.4693 47.3779H81.2005L80.9774 47.4635L80.8744 47.6291L80.8344 47.8345" fill="#3E142C"/>
<path d="M80.0108 48.7648L80.0737 49.0102C80.0737 49.0102 80.2625 49.1928 80.3425 49.2156C80.4226 49.2385 80.6114 49.2556 80.6114 49.2556L80.8401 49.0901L80.8802 48.8218L80.7543 48.5764L80.5256 48.4109L80.1938 48.4337L80.0909 48.5992L80.0108 48.7648Z" fill="#3E142C"/>
<path d="M79.13 49.8207V50.0033L79.3588 50.2316H79.5876L79.8564 50.1061C79.8564 50.1061 79.8735 49.9006 79.9193 49.8378C79.9593 49.775 79.8564 49.5696 79.8564 49.5696L79.7706 49.4269L79.5246 49.4497L79.3817 49.4897L79.3016 49.5753L79.1586 49.7408L79.13 49.8207Z" fill="#3E142C"/>
<path d="M111.182 62.1375L110.936 62.2231L110.668 62.3886L110.548 62.5941L110.507 62.8623L110.525 63.1306L110.633 63.3989L110.942 63.6215L111.188 63.6842L111.52 63.6785L111.892 63.513L112.057 63.2448L112.115 62.9765L112.052 62.6055L111.863 62.343L111.657 62.1946L111.411 62.0975L111.182 62.1375Z" fill="#3E142C"/>
<path d="M112.544 64.3462L112.481 64.4946L112.441 64.7001L112.486 64.9684L112.629 65.1738L112.858 65.3964L113.104 65.4592L113.413 65.4763L113.705 65.3964L113.911 65.248L114.031 65.0026L114.094 64.7515L114.071 64.4033L113.945 64.175L113.676 63.9924L113.43 63.9125H113.138L112.892 63.9753L112.664 64.1008L112.607 64.3063" fill="#3E142C"/>
<path d="M115.14 28.5945L115.146 29.1481L115.501 29.5476L115.85 29.696H116.307L116.805 29.4906L117.108 29.1367L117.308 28.6344L117.205 28.0352L116.799 27.5843L116.193 27.3331L115.741 27.3388L115.289 27.6413L115.14 28.0409V28.5945Z" fill="#3E142C"/>
<path d="M113.699 31.5167L113.647 32.0647L113.853 32.5669L114.208 32.9664L114.608 33.1148L115.112 33.0121L115.615 32.6126L115.964 31.9049L115.809 31.1001L115.552 30.6035L115.1 30.3524L114.648 30.3581L114.145 30.5065L113.893 30.8604L113.699 31.5167Z" fill="#3E142C"/>
<path d="M72.8785 62.0576L72.6269 62.3087L72.6841 62.7596L72.8842 63.1135L73.1359 63.2105H73.542L73.8909 63.005L73.9881 62.5541L73.8337 62.1546L73.5363 61.9548L73.1816 61.8578L72.8785 62.0576Z" fill="#3E142C"/>
<path d="M74.44 63.7184L74.3885 64.0209L74.5429 64.3691L74.7431 64.5232L75.0977 64.6202L75.4466 64.4661L75.6983 64.1123V63.7127L75.3951 63.4159L74.989 63.2618L74.6859 63.3189L74.44 63.7184Z" fill="#3E142C"/>
<path d="M80.0794 68.3986L80.1824 68.0447L80.3826 67.8963L80.7315 67.845L81.2348 68.0904L81.4407 68.3415L81.3892 68.7924L81.1948 69.0949L80.8916 69.249H80.537L80.2853 69.1006L80.1366 68.8495L80.0852 68.547L80.0794 68.3986Z" fill="#3E142C"/>
<path d="M91.1067 75.1106L91.1582 75.4131L91.3641 75.6642L91.6158 75.7156L91.9647 75.8126L92.2678 75.7612L92.5195 75.4587L92.6167 75.0078L92.4108 74.6026L92.0619 74.4028L91.6101 74.4599L91.3069 74.6083L91.0553 74.9622" fill="#3E142C"/>
<path d="M88.9219 74.0662L88.9276 74.3173L89.1278 74.6141L89.328 74.8138L89.7855 74.9622L90.1344 74.9109L90.3346 74.6597L90.4833 74.2602L90.3346 73.855L90.1802 73.6096L89.7798 73.4612L89.3222 73.5125L89.0763 73.6609L88.9219 74.0662Z" fill="#3E142C"/>
<path d="M63.7616 79.6423L63.5156 80.8523L64.9283 81.3489L65.1228 79.8364L63.7616 79.6423Z" fill="#3E142C"/>
<path d="M65.8263 79.7337L66.1351 81.2405L67.2905 80.5841L66.7815 79.2771L65.8263 79.7337Z" fill="#3E142C"/>
<path d="M67.5765 77.719L67.2333 78.7235L68.5431 79.2201L68.789 77.8617L67.5765 77.719Z" fill="#3E142C"/>
<path d="M62.7549 78.9973L62.406 80.253L61.2964 79.3055L62.1944 78.0442L62.7549 78.9973Z" fill="#3E142C"/>
<path d="M61.4337 76.7429L61.5824 75.3903L60.2212 75.4416L59.9295 76.9541L61.4337 76.7429Z" fill="#3E142C"/>
<path d="M60.6673 74.2887L61.7769 74.3344L62.0228 73.0787L60.7645 73.1815L60.2155 74.3401L60.6673 74.2887Z" fill="#3E142C"/>
<path d="M61.8169 71.9201L62.7778 72.6735L63.8817 72.1142L63.018 71.1154L61.8169 71.9201Z" fill="#3E142C"/>
<path d="M65.5804 70.5503L65.283 71.6062L66.4955 71.6518L66.8387 70.6416L65.5804 70.5503Z" fill="#3E142C"/>
<path d="M66.7186 76.3149L66.9188 76.9713L68.1771 76.7144L67.3706 75.864L66.7186 76.3149Z" fill="#3E142C"/>
<path d="M23.1413 96.9075L22.4435 97.7122L23.902 97.7579L24.9601 97.9519L26.2184 98.3971L27.4824 99.0421L28.592 99.7898L27.6312 98.6426L26.573 98.0946L25.2575 97.4954L24.0507 97.2043L23.1413 96.9075Z" fill="#E52528"/>
<path d="M21.5398 98.8195L20.8363 99.4758L21.6943 99.921L22.3063 100.623L22.7123 101.422L23.2729 102.626L23.7304 104.03L24.0278 103.425L23.5188 101.873C23.5188 101.873 23.0612 100.771 22.9125 100.771C22.7638 100.771 22.1518 99.6185 22.1518 99.6185L21.5398 98.8195Z" fill="#E52528"/>
<path d="M27.4767 93.4716L28.981 92.8096L30.1878 92.5527L31.6463 92.2445L33.3049 92.039L35.1638 91.9306L36.4736 91.8735L37.9321 92.119L39.1389 92.2616L40.2485 92.6555L41.7642 93.055L43.1712 93.5972L44.4867 94.2935L45.642 94.7901L46.4999 95.3893L47.5123 96.0857L48.1701 96.6393L49.1252 97.484L49.9374 98.4885L50.7953 99.4873L51.3558 100.338L51.9164 101.742L50.6981 100.241L49.8916 99.493L48.7306 98.6426L47.4665 97.6952L46.357 96.8961L45.1444 96.0971L43.4343 95.3037L41.2666 94.459L39.2476 93.7684L36.9311 93.426L34.8206 93.2376L32.6072 93.6999L32.8588 93.9967L34.7291 95.0412L36.1418 95.943L37.3544 96.9418L38.5154 98.089L39.3276 99.2362L39.8309 100.189L40.0883 101.245L40.197 102.752L39.9511 103.905L39.7051 105.064L39.1046 106.268L37.5546 107.483L38.3038 106.422L38.9501 105.366L39.1446 103.808L38.687 102.255L37.8691 100.401L37.057 98.8994L36.0503 97.7979L34.6833 96.7534L33.2706 95.903L31.406 94.9099L29.1869 94.2136L27.5282 93.62" fill="#E52528"/>
<path d="M34.8836 57.5372L34.8778 57.6913L34.7978 60.956L34.6605 63.6671L34.2716 66.9831L33.7854 70.2478L33.0419 73.3127L32.4013 75.8754L31.7092 78.0385L30.8627 80.2987L30.1134 81.5087L30.1535 79.2999L29.8961 77.4449L30.9885 74.1746L32.0238 70.556L32.6644 67.24L33.1562 64.5746L33.5967 62.166L34.3345 59.3522" fill="#E52528"/>
<path d="M23.107 78.7291L24.5769 80.4813L25.2861 81.834L25.8467 82.8841L26.2013 83.8373L26.5101 85.0929L26.716 86.2458L26.7732 87.5015L26.676 88.8028L25.8352 91.1714L25.7323 90.515L26.0754 89.111L26.0697 87.9524L25.961 86.7481L25.8066 85.5952L25.5492 84.3909L25.3433 83.4378L24.8343 82.3362L24.3253 81.286L23.616 80.1331L21.4941 77.4335L23.107 78.7291Z" fill="#E52528"/>
<path d="M57.5044 32.0818C57.6531 32.0818 60.8217 31.4141 60.8217 31.4141L62.732 30.8034L64.894 30.1927L66.953 28.977L70.0588 26.2488L68.463 28.8685L67.6108 29.9758L67.1132 30.9803L65.4031 31.1915L64.099 31.551L63.1953 32.0076L62.1429 32.7667L56.0116 34.5018L57.5044 32.0818Z" fill="#E52528"/>
<path d="M53.4092 38.4742L58.8828 36.9959L59.4319 36.0885L59.9809 35.4321L61.285 34.0223L55.1079 36.2083L53.4092 38.4742Z" fill="#E52528"/>
<path d="M53.0603 39.5301L57.8819 38.2516L57.287 39.6613L56.9381 40.7172L52.5169 41.9957L52.414 41.2937L52.4082 40.4889L53.0603 39.5301Z" fill="#E52528"/>
<path d="M56.1431 42.4295L55.8457 43.4854L55.7999 44.587L52.5856 45.3061L52.4712 43.2L56.2404 42.3782" fill="#E52528"/>
<path d="M55.8057 45.9453L52.8944 46.7101L52.9058 49.0217L55.514 48.2055L55.8057 45.9453Z" fill="#E52528"/>
<path d="M53.1118 50.3743L55.5197 49.6095L55.5311 51.5672L53.1175 52.1836L53.1118 50.3743Z" fill="#E52528"/>
<path d="M53.3291 53.3365L55.5883 52.623L55.697 54.0271L53.2834 54.7405L53.3291 53.3365Z" fill="#E52528"/>
<path d="M55.8514 55.2314L56.0059 56.1332L53.7981 56.898L53.5407 55.6938L55.8514 55.2314Z" fill="#E52528"/>
<path d="M56.0116 57.1377L54.004 57.7484L54.2614 59.2552L56.3204 58.6445L56.0116 57.1377Z" fill="#E52528"/>
<path d="M54.5188 60.311L56.6293 59.6946L56.6808 60.9502L54.7247 61.5153L54.5188 60.408" fill="#E52528"/>
<path d="M56.8409 62.0061L54.8791 62.6168L55.0907 64.1692L56.8981 63.4101L56.8409 62.0061Z" fill="#E52528"/>
<path d="M55.3481 65.5277L57.0525 64.5631L57.1612 66.1726L55.3538 67.2856L55.3481 65.5277Z" fill="#E52528"/>
<path d="M79.3874 53.3136L85.1584 50.3229L84.6036 50.0775L84.0488 49.9805L83.1966 49.9348L82.4416 50.1859L81.6867 50.4941L80.9831 50.8994L80.4341 51.3503L80.0852 51.8525L79.7363 52.4575L79.3874 53.3136Z" fill="#E52528"/>
<path d="M93.3888 14.1089L94.5442 13.2527L95.4936 12.4936L96.2486 11.9343L96.9006 11.4834L97.6042 11.0268L99.1084 10.3647L100.676 11.7631L100.43 12.6706L97.0608 13.4411L99.8863 15.7355L99.789 16.5916L96.7291 17.9101L99.503 19.5538L99.5088 20.6554L96.7005 22.0765L99.3715 23.7203L99.3257 24.8732L96.5174 26.2944L99.1885 27.9381L99.1942 28.8913L96.4374 30.4608L99.2628 32.0532L99.3143 32.9607L96.3516 34.4789L99.28 36.174L99.1828 37.1272L96.3744 38.6967L99.097 40.3405L98.954 41.5962L95.9912 42.8119L97.301 43.6109L91.3298 46.75L90.775 46.0537L90.2202 45.6028L89.7112 45.2547L90.8208 44.8951L91.7702 44.3415L92.6739 43.6851L93.4746 42.7776L94.1267 41.6704L94.5728 40.5631L94.8702 39.2561L94.9102 38.0975L94.9045 36.9959L94.447 35.4891L93.6863 34.1878L93.0285 33.189L91.9189 32.4413L91.1125 31.9448L90.2545 31.648L88.8933 31.3512L87.2861 31.3055L89.0305 28.9426L90.3289 26.6768L90.878 25.6152L91.6272 23.8059L92.0733 22.6986L92.6682 20.9921L93.1658 19.531L93.406 17.6247L93.4975 16.0665L93.446 14.7139L93.3888 14.1089Z" fill="#E52528"/>
<path d="M105.566 65.3108L105.863 64.7572L105.76 64.0551C105.76 64.0551 105.709 63.6556 105.554 63.5015C105.4 63.3531 105.051 62.9992 105.051 62.9992L104.496 62.4513C104.496 62.4513 103.941 61.9491 103.787 61.9548C103.638 61.9548 102.677 61.7094 102.677 61.7094L101.774 61.7151L100.464 61.8692L99.5603 62.0746L98.7595 62.4799L97.9588 63.1876L97.2095 63.8953L96.6604 65.1053L96.4145 66.1098L96.3173 67.3141L96.4202 68.37L96.8263 69.5229L97.2324 70.4761L97.8387 71.2238L98.6451 71.823L99.5545 72.4223L100.258 72.7705L101.167 73.0673L99.7604 73.9748C99.7604 73.9748 97.3925 73.4839 97.2438 73.3869C97.0951 73.2899 95.6767 72.3881 95.6767 72.3881L94.7673 71.589L94.0066 70.6416L93.2459 69.7398L92.7883 68.2844L92.4795 67.1315L92.1706 66.0813L92.3136 64.5745L92.3593 63.5186L92.7082 62.4627L92.9542 61.7094L93.6005 60.4994L94.3497 59.7403L95.202 59.0325L96.2029 58.4275L97.8615 57.8168L98.7652 57.7141L99.8748 57.7598L101.282 57.8511L102.34 58.0451L103.65 58.5931L104.656 59.2437L106.172 60.5907L106.933 61.7893L107.39 62.8394L107.802 64.4432L107.911 65.6989L107.516 66.9545C107.516 66.9545 107.116 67.5082 106.967 67.5595C106.818 67.6109 106.115 68.1645 106.115 68.1645L105.314 68.467L104.41 68.4727L103.455 68.2273L102.9 67.628L102.643 66.926L102.637 66.1212L102.935 65.4192L103.638 64.9626L104.393 64.9113L104.897 64.9569L105.566 65.3108Z" fill="#E52528"/>
<path d="M76.9623 61.6066L76.8536 60.4537L76.9509 59.7517L77.0996 59.0497L77.2997 58.3933L77.6486 57.4915L78.0948 56.7838L73.7822 59.2666L75.2407 60.0599L76.1501 60.7106L76.9623 61.6066Z" fill="#E52528"/>
<path d="M114.637 38.537L117.011 40.1351L111.388 42.7719L111.777 39.7584L114.637 38.537Z" fill="#E52528"/>
<path d="M117.914 40.7344L120.643 42.1784L122.204 42.9203L124.12 43.8678L118.898 46.653L117.914 40.7344Z" fill="#E52528"/>
<path d="M125.029 44.4156L127.649 45.7055L130.526 47.0011L125.859 49.8834L125.029 44.4156Z" fill="#E52528"/>
<path d="M131.481 47.3494L133.346 48.0913L135.01 48.7363L137.075 49.581L132.31 52.4633L131.481 47.3494Z" fill="#E52528"/>
<path d="M137.881 49.9291L140.203 50.7167L141.565 51.1676L143.275 51.51L139.466 54.438L137.881 49.9291Z" fill="#E52528"/>
<path d="M144.178 51.8583L146.398 52.4461L147.604 52.7429L149.12 53.0397L148.314 53.6961L147.113 54.3011L146.054 54.7063L145.151 55.0659L144.35 55.1686L144.178 51.8583Z" fill="#E52528"/>
<path d="M77.3512 22.9669L77.4599 22.887L77.6029 22.7672L77.9518 22.6644L78.2549 22.7615L78.3579 23.1153L78.2606 23.3664L78.1062 23.5148L77.906 23.6176H77.6086L77.3569 23.5662L77.1567 23.2694L77.2025 23.0183" fill="#3E142C"/>
<path d="M77.1624 24.6678L77.0137 24.9703L77.1167 25.3698L77.3169 25.4668H77.6143L77.8145 25.1643L77.8659 24.8675L77.763 24.6164L77.5628 24.5194L77.3112 24.468L77.1624 24.6678Z" fill="#3E142C"/>
<path d="M46.7573 41.9614L48.1529 40.8028L48.4103 41.1509L48.7077 41.2993H49.0623L49.457 40.9968L49.6057 40.4946L49.4055 40.1978L49.0566 40.0494L50.2005 38.9421L49.5199 42.8974L49.1195 42.8004L48.7649 42.749L48.416 42.9031L48.2673 43.354L48.3188 43.7022L48.5704 44.0503L49.0738 44.3471L48.7306 45.8539V46.4532L48.9365 46.8014L49.2396 47.0981L49.5885 47.1495L50.0404 46.9954L50.2348 46.5445L50.2863 46.145L49.9832 45.7968L49.6343 45.6484L51.1214 42.3381L51.5103 50.1916L51.9736 53.7417L52.597 57.9367L53.3691 62.0347L53.9868 65.5847L54.1012 68.5355L49.7029 71.6061L50.0918 69.0549L50.2291 66.555L50.2177 64.1008L50.109 61.6523L49.8459 59.004L49.4341 56.4527L48.9651 53.2052L48.702 50.7053L47.9813 46.9555L47.2206 44.1074L46.8603 43.1086L46.7573 41.9614Z" fill="#F2BA20"/>
<path d="M58.408 66.2754L60.5586 64.7629L60.0438 61.6637L59.6835 59.6147L59.3747 57.9139L59.163 56.019L58.9514 53.9643L58.9457 52.4689L59.1916 50.6654L59.4319 48.662L59.6263 47.4121L59.8723 46.2078L60.3127 44.9065L60.6616 43.6052L61.4051 42.2012L62.1486 40.7971L63.1438 39.1419L64.2878 37.6352L65.5861 35.98L67.1304 34.4218L68.9778 32.5098L70.2761 30.906L71.1226 29.9985L72.2665 28.4461L73.113 27.1391L73.8108 26.0889L73.8566 24.8333L68.8234 31.1115L69.7556 27.8069L67.7195 31.6651L66.873 31.9733L65.9693 32.2245L65.1686 32.6811L64.1676 32.9836L63.4184 33.5885L62.6691 34.2906L61.9713 35.3465L60.6787 36.9046L59.7807 38.2573L58.8885 39.5129L58.1907 40.6658L57.8933 41.8187L57.4529 44.37L57.0697 47.6746L57.1326 50.7224L57.2985 53.6732L57.6645 56.5212L58.082 59.8715L58.3451 62.5712L58.551 64.2207L58.5053 65.4249L58.408 66.2754Z" fill="#F2BA20"/>
<path d="M76.1959 22.0252L76.7964 21.3174L76.9451 21.7683L77.2997 22.0708L77.7001 22.0651L78.1519 21.9167L78.2492 21.4658L78.1977 21.0663L77.946 20.7638L77.3912 20.6668L78.2892 19.7136L78.947 21.1576L79.0499 21.7112L79.1071 22.3619L78.9584 23.0125L78.7125 23.7602L78.415 24.565L78.0662 25.5638L77.1739 26.9222L74.4342 31.2827L75.9213 27.9781L76.2702 26.9735L76.5162 25.4211L76.5562 24.1712L76.4532 22.9212L76.1959 22.0252Z" fill="#F2BA20"/>
<path d="M109.278 32.9208L109.524 31.1686L109.467 29.6676L109.306 27.67L109.295 25.1701L109.335 23.4179L109.529 21.5173L109.918 20.0162L110.319 19.0117L110.862 17.9101L111.657 16.6545L112.406 15.9011L113.356 15.045L114.454 14.1889L115.358 13.6352L116.095 11.8317L114.545 12.4424L113.098 13.2985L112.052 14.303L111.051 15.1591L110.456 16.0609L109.655 17.1625L109.009 18.3667L108.563 19.3199L108.22 20.5242L108.077 21.7741L108.082 23.2752L108.088 24.976L108.448 27.1734L108.866 29.8217L109.278 32.9208Z" fill="#F2BA20"/>
<path d="M119.905 22.2192L121.775 25.4611L121.232 26.3629L119.11 23.823L119.905 22.2192Z" fill="#F2BA20"/>
<path d="M121.998 19.006L123.817 22.4019L125.109 20.3929L123.737 16.5004L121.998 19.006Z" fill="#F2BA20"/>
<path d="M126.831 13.2814L128.227 11.8773L128.45 15.8269L127.449 16.9798L126.831 13.2814Z" fill="#F2BA20"/>
<path d="M131.287 12.4138L132.837 10.7016L132.871 8.00195L131.075 9.46307L131.287 12.4138Z" fill="#F2BA20"/>
<path d="M142.325 4.15503L150.007 5.71888L148.657 7.18L140.93 5.26228L142.325 4.15503Z" fill="#F2BA20"/>
<path d="M146.81 8.88656L146.112 9.83972L136.634 8.33294L138.282 7.17432L146.81 8.88656Z" fill="#F2BA20"/>
<path d="M150.081 10.8727L153.49 12.1055L155.343 10.9983L153.284 9.80542L151.831 10.2164L150.779 10.6216L150.081 10.8727Z" fill="#F2BA20"/>
<path d="M160.365 13.2756L172.319 17.6704L171.518 18.6749L157.459 13.7379L158.809 13.3327L159.564 13.1786L160.365 13.2756Z" fill="#F2BA20"/>
<path d="M148.691 45.9909L152.335 42.9717L157.522 37.2471L162.756 30.8718L167.737 24.9474L169.533 22.6873L169.939 23.2865L169.888 23.8858L169.739 24.3881L160.571 35.181L156.533 39.804L154.988 41.7103L154.039 42.8689L153.29 43.4226L152.741 44.0219L152.243 44.5241L151.843 44.9293L151.494 45.3289L151.093 45.7798L148.691 45.9909Z" fill="#F2BA20"/>
<path d="M158.54 40.7458L163.671 34.3705L166.759 30.2497L169.15 27.0878L169.161 28.8913L168.315 30.3467L167.417 31.551L166.719 32.5042L165.627 34.108L164.929 34.9127L163.882 36.4652L162.933 37.4697L162.086 38.6283L161.44 39.5815L161.246 40.1808L158.54 40.7458Z" fill="#F2BA20"/>
<path d="M157.494 42.2526L158.603 42.9945L159.004 43.1943L157.963 45.1463L157.356 45.249L156.458 45.3574L155.555 45.5115L154.651 45.5173L157.494 42.2526Z" fill="#F2BA20"/>
<path d="M124.555 61.561L127.906 59.8944L129.657 59.0839L131.309 58.576L132.162 58.1707L132.556 57.4174V56.8694L132.505 56.5669L132.202 56.3672L128.587 54.5807L138.362 54.9346L134.747 53.9986L132.339 53.2623L129.931 52.2749L127.472 51.3389L124.309 50.0033C124.309 50.0033 119.939 48.0228 119.739 48.0228C119.539 48.0228 115.872 46.2421 115.872 46.2421L112.755 44.507L110.09 42.9203L107.825 41.4307L97.6728 46.3791L102.088 47.9087L104.954 49.347L108.019 50.8309L110.479 51.9724L114.654 54.6036L117.571 56.5384L120.185 58.3248L124.36 61.5039" fill="#F2BA20"/>
<path d="M79.0671 59.4435L78.9355 60.0771V60.6193L78.9413 61.2985L78.987 61.932L79.1701 62.6511L79.3531 63.239C79.3531 63.239 79.5361 63.7356 79.6734 63.8726C79.8106 64.0095 80.3082 64.5917 80.3082 64.5917L80.9889 65.0426L81.8525 65.3108L82.985 65.5334L84.5693 65.1624L85.656 64.8428L86.3767 64.3406L87.0973 63.6614L87.5034 63.0278L87.635 62.3943L87.7208 61.5781L87.492 60.859L86.9029 60.1855L86.2223 59.8716L85.5874 59.786L84.7752 59.883L84.1861 60.2483L83.963 60.9275L84.0088 61.5154L84.5064 61.3327L85.004 61.3784L85.37 61.9206L85.4616 62.4171L85.2385 62.9594C85.2385 62.9594 84.9697 63.3246 84.8324 63.3703C84.6951 63.416 84.106 63.416 84.106 63.416L83.4712 62.9651L83.1051 62.4229L82.7848 61.2528L82.8248 60.5736L83.0937 59.4892L83.8143 58.9869L84.9868 58.6217C84.9868 58.6217 85.3472 58.6217 85.6217 58.616C85.8905 58.616 86.4796 58.7472 86.4796 58.7472C86.4796 58.7472 87.023 58.8785 87.1603 59.0155C87.2975 59.1525 87.9782 59.5976 87.9782 59.5976C87.9782 59.5976 88.5673 60.3168 88.613 60.4538C88.6588 60.5907 88.9333 61.7608 88.9333 61.7608L88.9848 62.9365L88.6245 63.7984L88.1783 64.7058L87.4119 65.4764L86.3767 66.1613L84.9296 66.6635L83.7571 66.9831L85.2557 68.1075L87.063 67.5995L88.0125 66.9204L88.9562 65.8759L89.7169 64.6088C89.7169 64.6088 90.0772 63.707 90.1173 63.5701C90.163 63.4331 90.3346 62.2573 90.3346 62.2573L90.1916 61.0873L89.7798 59.9173L89.185 58.4733L88.5501 57.6171L87.778 56.898L87.0058 56.4072L86.2337 56.0019L85.4616 55.825L84.2376 55.7394L82.7905 56.196L81.7953 56.4699L80.8916 57.1035L80.1252 57.8283L79.5876 58.5532L79.0671 59.4435Z" fill="#F2BA20"/>
<path d="M50.5894 74.2545L51.1442 76.4633L51.3787 78.1756L51.659 79.4369L50.6581 77.9073L50.109 77.1425L49.4284 76.469L48.702 75.7955L45.7278 78.0215L48.4103 80.6755L50.2749 82.2907L51.4131 83.592L52.4597 84.5337L53.821 85.6581L54.9134 86.5085L55.7313 87.0907L56.4119 87.5815L57.1841 87.9867L58.0477 88.4319L59.3175 88.7858L60.856 89.1397L62.8464 89.3109L64.2935 89.3052L66.1466 89.1168L67.4564 89.2024L69.0407 89.1967L70.3105 89.2367L72.7127 89.6762L71.8948 88.4148L71.1684 87.5587L70.3047 86.7026L69.3953 86.0291L69.3496 86.4343L69.0808 86.6169H68.6289H68.3601L67.3592 85.0417L66.4555 85.407L66.9188 87.3019L66.7872 87.7071L66.3811 87.9354L65.792 87.8954L65.4717 87.5815L65.1 85.5953L63.9675 85.738L63.9789 87.6329L63.7101 87.9925L63.3955 88.0381C63.3955 88.0381 63.1267 88.1294 62.9894 87.9925C62.8522 87.8555 62.6691 87.6785 62.6691 87.6785L62.5776 87.2277L62.6177 85.601L61.3937 85.3385L60.9476 86.8281L60.7245 87.279L60.5014 87.416H60.2726L59.9581 87.3247L59.6378 87.0108L59.592 86.6055L60.0839 84.8419L59.0429 84.2598L57.8704 85.3042L57.5101 85.4869H57.2413L56.8809 85.3556L56.7437 85.0417L56.7894 84.5908L56.9667 84.2312L57.8247 83.5064L56.8695 82.5646L55.5197 83.6091L55.0678 83.7004H54.8391L54.5188 83.4322L54.4273 83.0726L54.473 82.713L54.8333 82.2621L55.8686 81.309L55.188 80.3159L53.2433 80.5499L52.7457 80.4186L52.5627 79.9677L52.6542 79.6081L52.8773 79.3342L53.2834 79.2429L54.6389 79.0089L54.3186 77.7475L53.1003 77.9359L52.74 77.7589L52.557 77.445V77.0398L52.8258 76.7202L53.3234 76.5832L54.1356 76.4861L54.1298 75.2191L52.5455 74.9109L52.0937 74.597V74.2374L52.1852 73.9235L52.3625 73.6495L52.8143 73.5582L54.3071 73.8207L54.3929 73.0502L54.616 72.371L54.9306 71.7375L55.4682 70.5161L50.5894 74.2545Z" fill="#F2BA20"/>
<path d="M105.972 43.5425L107.39 47.0355L110.084 43.9249L105.972 43.5425Z" fill="#3E142C"/>
<path d="M110.999 46.5217L112.772 50.1117L115.461 46.8014L110.999 46.5217Z" fill="#3E142C"/>
<path d="M117.445 52.7943L120.391 50.0261L115.621 48.9988L117.445 52.7943Z" fill="#3E142C"/>
<path d="M120.597 52.1265L121.821 56.0247L125.516 52.7543L123.308 52.1664L121.249 51.6242L120.397 51.4758L120.597 52.1265Z" fill="#3E142C"/>
<path d="M125.647 60.3053L128.347 58.5417L129.845 57.6342L130.795 56.8294L125.275 55.0031L125.647 60.3053Z" fill="#3E142C"/>
<path d="M100.922 45.6657L101.625 46.0652L102.369 45.1577L101.568 44.7639L100.922 45.6657Z" fill="#3E142C"/>
<path d="M102.975 45.5059L102.323 46.1622L103.026 46.6074L103.827 45.7513L102.975 45.5059Z" fill="#3E142C"/>
<path d="M104.33 46.2535L103.833 46.8015L104.736 47.298L105.234 46.596L104.33 46.2535Z" fill="#3E142C"/>
<path d="M105.789 46.9441L105.388 47.395L106.04 47.9943L106.59 47.3893L105.789 46.9441Z" fill="#3E142C"/>
<path d="M107.196 47.6862L106.698 48.2911L107.499 48.8847L107.951 48.137L107.196 47.6862Z" fill="#3E142C"/>
<path d="M108.5 48.4794L109.306 48.9303L108.757 49.5296L108.054 49.1357L108.5 48.4794Z" fill="#3E142C"/>
<path d="M109.409 49.7807L110.164 50.2773L110.811 49.4725L110.056 48.976L109.409 49.7807Z" fill="#3E142C"/>
<path d="M111.268 50.0204L110.668 50.6254L111.423 51.1676L112.017 50.4656L111.268 50.0204Z" fill="#3E142C"/>
<path d="M112.126 51.4187L112.681 52.0123L113.379 51.3103L112.624 50.8137L112.126 51.4187Z" fill="#3E142C"/>
<path d="M113.779 51.8583L114.483 52.4062L113.785 53.0569L113.184 52.4119L113.779 51.8583Z" fill="#3E142C"/>
<path d="M114.54 53.4564L115.146 53.9529L115.792 53.3023L115.037 52.703L114.54 53.4564Z" fill="#3E142C"/>
<path d="M115.895 54.3011L116.399 54.7976L116.948 54.244L116.296 53.7474L115.895 54.3011Z" fill="#3E142C"/>
<path d="M117.056 55.1972L117.857 55.8421L118.406 55.1858L117.651 54.6436L117.056 55.1972Z" fill="#3E142C"/>
<path d="M118.864 56.3843L119.516 56.9836L119.968 56.2816L119.264 55.7336L118.864 56.3843Z" fill="#3E142C"/>
<path d="M120.374 57.3773L120.768 56.7781L121.375 57.1776L121.026 57.9253L120.374 57.3773Z" fill="#3E142C"/>
<path d="M122.381 57.9709L121.981 58.5246L122.587 59.1695L123.182 58.4161L122.381 57.9709Z" fill="#3E142C"/>
<path d="M123.142 59.5691L123.788 58.9127L124.24 59.4606L123.691 59.9629L123.142 59.5691Z" fill="#3E142C"/>
<path d="M124.194 60.4138L124.549 60.8133L125.047 60.4081L124.646 59.9115L124.143 60.2654" fill="#3E142C"/>
<path d="M71.4429 34.6901L72.1636 33.7827L73.7365 32.019L72.4782 34.2792L71.9005 35.4549L71.4429 34.6901Z" fill="#67B548"/>
<path d="M29.6444 74.9393L30.3994 72.7647L30.9771 70.5959L31.3317 69.0606L31.9094 66.5721L31.4518 65.716L31.2688 65.1338L31.1773 64.4546L31.1716 63.6898L31.3031 62.3314L31.4747 60.2539L30.3994 62.3371L30.2164 62.8337L30.7197 63.3759L30.6339 64.4546L29.8618 64.0551L29.593 64.8713L30.4566 65.3165L30.4623 66.4009L29.4671 66.2696L29.5586 67.1257L29.4729 68.3928L29.6616 69.6541L29.7588 70.8299L29.7188 71.7773L29.816 72.8618L29.6444 74.9393Z" fill="#67B548"/>
<path d="M47.621 78.1469L47.6667 78.3753L47.8955 78.5978H48.1643L48.3931 78.5522L48.6619 78.3695V78.1013L48.6162 77.8273L48.4332 77.6047L48.2044 77.5134H47.8898L47.7068 77.6961L47.621 77.9244V78.1469Z" fill="#3E142C"/>
<path d="M48.7134 79.0944L48.8049 79.4084L48.9365 79.631L49.2568 79.6766L49.4798 79.631L49.7086 79.494L49.8402 79.22L49.7487 78.9061L49.6114 78.6835L49.3426 78.5465L49.068 78.5922L48.8907 78.7748L48.7134 79.0944Z" fill="#3E142C"/>
<path d="M49.9374 79.9905L50.2062 79.8535H50.6123L50.7953 80.0761V80.2987L50.8011 80.4813L50.618 80.7096L50.4407 80.801H50.1662L49.9374 80.6697L49.7601 80.487L49.7086 80.1731L49.9374 79.9905Z" fill="#3E142C"/>
<path d="M52.7743 86.5712L53.8152 87.2847L54.7704 88.0038L53.0546 88.4661L52.3625 86.166L52.7743 86.5712Z" fill="#67B548"/>
<path d="M43.3771 80.1103L45.0072 80.2359L44.3666 79.3855L43.3771 80.1103Z" fill="#3E142C"/>
<path d="M48.5075 84.4194L49.6858 84.4594L48.4618 83.5177L48.5075 84.4194Z" fill="#3E142C"/>
<path d="M110.742 29.9472L111.411 28.1379L111.857 26.6026L112.83 22.7101L114.076 18.5094V18.1441L113.808 18.1955L113.442 18.0585L113.259 17.6989L113.304 17.385L113.619 17.111H113.893L114.254 17.288L115.1 14.5312L113.522 15.804L112.486 16.8884L111.726 18.1098L111.234 19.3313L110.874 20.467L110.61 21.6827L110.57 22.9041L110.49 24.6221L110.547 27.7327L110.559 30.3068L110.742 29.9472Z" fill="#EF8323"/>
<path d="M112.584 18.5608L112.315 18.7434L112.229 19.0573L112.321 19.4169L112.458 19.5539L112.818 19.6452L113.133 19.3713L113.178 18.966L113.041 18.6921L112.858 18.6064L112.584 18.5608Z" fill="#3E142C"/>
<path d="M111.554 20.5527L111.691 20.9123L112.057 21.1349L112.372 21.0892L112.595 20.9522L112.687 20.547L112.504 20.2331L112.321 20.0505L112.006 20.0105L111.686 20.1018L111.6 20.3701" fill="#3E142C"/>
<path d="M111.291 22.0423V22.3162L111.383 22.5845L111.703 22.7158L112.017 22.6244L112.286 22.3562L112.332 22.0366L112.149 21.814L111.829 21.677L111.56 21.6827L111.291 21.8197" fill="#3E142C"/>
<path d="M111.114 23.532L111.028 23.8973L111.257 24.2112L111.709 24.2968L112.023 23.9829L111.932 23.5777L111.749 23.3494L111.434 23.3037L111.114 23.4007" fill="#3E142C"/>
<path d="M111.171 25.0216L110.942 25.1586V25.4326L110.948 25.7008L111.262 25.9234L111.531 25.7465L111.76 25.3812L111.669 25.0673L111.486 24.976L111.171 25.0216Z" fill="#3E142C"/>
<path d="M70.8137 35.3693L71.2656 36.2254L70.5106 38.3999L70.0645 39.9809L69.6241 42.2411L68.9148 46.3048L68.8405 49.4211L68.9034 52.7657L69.0064 55.6537L69.3839 58.4047L68.749 59.0839L68.423 56.3786L68.1827 54.1698L68.2171 51.0078L68.1999 47.4863L68.7318 44.9521L69.0807 42.652L69.2123 41.6989L68.177 43.1942L67.5936 44.4613L67.2848 45.5457L67.1075 46.6758L66.9759 47.7602L66.8501 49.2956L66.5927 51.961L66.6499 54.3124L66.8387 56.6126L67.1647 58.5531L67.668 59.9058L64.425 62.223L64.0532 60.9617L64.9627 61.1386L65.4031 59.6432L63.7272 59.0211L63.4012 57.3032L64.4021 57.6627L64.9341 56.0361L63.0809 55.4539L62.9837 54.2382L64.2935 54.5008L64.5165 53.0568L62.8407 52.6573L62.7435 51.2589L64.3278 51.5671L64.3221 50.2145L62.7778 49.7236L63.0466 48.234L64.3564 48.4508L64.5337 47.1381L63.2639 46.7386L63.6643 45.5628L64.7968 46.008L65.2486 44.9693L64.1562 44.3871L64.6481 43.257L65.6948 43.8848L66.3239 42.8004L65.323 42.1269L65.9521 41.1281L67.1304 41.7103L67.7137 40.8028L66.8043 40.0837L67.4335 39.2732L68.2056 39.8554L69.1093 38.9022L68.3372 38.32L68.9663 37.2756L69.83 38.1317L70.4134 37.0872L69.8243 36.6877L70.3161 36.1398L70.8137 35.3693Z" fill="#67B548"/>
<path d="M45.1387 79.785L46.2769 80.8181L42.5191 80.8808V80.4299L44.5038 78.8889L45.1387 79.785Z" fill="#67B548"/>
<path d="M50.9097 84.9959L49.457 83.7403L47.8212 82.2107L47.8326 84.8761L50.9097 84.9959Z" fill="#67B548"/>
<path d="M40.9863 81.6571L47.0719 86.1889L48.9765 87.4902L49.8859 88.0723L50.6581 88.5632L51.2472 89.0141L52.923 89.8188C52.923 89.8188 54.33 90.1727 54.4616 90.2184C54.5988 90.264 57.2241 90.7035 57.2241 90.7035L60.1697 91.1886L62.0686 91.3142L60.5243 90.5551L58.2594 89.8873L56.9439 89.5335L56.0344 88.9969L55.3538 88.5917L52.2367 89.1511L51.6819 86.1717L47.1577 85.7437L46.8202 81.5487L41.7985 81.5715L41.8385 80.9836L40.9863 81.6571Z" fill="#67B548"/>
<path d="M68.7204 62.5655L70.8996 63.8212L72.2151 64.8086L74.0797 66.3781L76.8022 68.6212L79.0271 70.1907L81.3892 72.1199L84.5693 74.3629L86.3366 75.4359C86.3366 75.4359 87.7437 76.1494 87.9267 76.2407C88.1097 76.332 89.5568 76.9541 89.694 76.9998C89.8313 77.0454 91.3241 77.5819 91.3241 77.5819L93.1829 78.1584L93.8178 78.381L91.1983 79.8821L91.244 79.3855L91.0152 79.0259H90.5176L90.2488 79.1172L89.8885 79.5681V79.9734L88.939 79.7964L89.2536 78.849V78.3981L88.9333 78.2212L88.573 78.1755L88.2584 78.2212L88.0754 78.4038L87.8066 79.1743L86.9029 78.9517L87.1717 77.9586L87.0802 77.5534L86.7599 77.2851L86.1708 77.1995L85.9477 77.2908L85.5474 78.284L84.1861 77.7018L84.7695 76.3891L84.678 75.8469L84.3176 75.6699L83.8658 75.63L83.597 75.7669L83.0593 76.9427L82.3787 76.4918L82.7333 75.3617L82.8649 74.9108L82.6819 74.5969L82.4073 74.42L82.1328 74.3287L81.7724 74.283L81.0575 75.6414L80.3769 75.1505L79.9651 74.654L80.5942 73.5239L80.7715 73.1643L80.68 72.9417L80.4055 72.7191L80.0909 72.5822L79.7763 72.6735L78.9241 73.9406L78.0147 73.2214L79.0042 72.1313V71.726L78.8212 71.4578L78.5466 71.3208H78.2778L77.151 72.4109L76.4704 71.8288L77.1911 70.6987L77.1453 70.2478L77.0081 70.0252L76.6477 69.8026H76.2874L75.2979 70.8014L74.663 70.3505L75.1549 69.2661L75.1092 68.8152L74.8804 68.5926L74.5658 68.507H74.337L73.5306 69.6371L72.7584 68.918L73.2503 67.9249L73.3819 67.5653L73.3361 67.2057L73.1988 66.9831L72.8843 66.8518L72.5239 66.9888L71.666 67.8963L70.7566 67.3142L71.34 66.0928L71.4258 65.5505L71.1512 65.191L70.7909 65.014H70.4306L70.116 65.4193L69.3496 66.4637L68.5774 66.1498L69.1608 64.6545L69.0693 64.2492L68.749 63.981L68.3429 63.9353L67.9826 64.118V64.3862L67.445 65.7446L66.5413 65.5677L66.6728 64.6202L66.5813 64.3976L66.221 64.352L65.7691 64.6259L65.5003 65.0312L65.4088 65.3451L64.2763 65.2138L65.8549 64.1237L67.8396 62.9422L68.6518 62.3486L68.7204 62.5655Z" fill="#67B548"/>
<path d="M90.815 66.1042L90.8322 66.2469L90.958 67.3199L91.1868 68.1304L91.4614 69.1235L91.7359 69.934L91.9647 70.5218L91.9189 71.0184C91.9189 71.0184 91.6501 71.338 91.5128 71.338C91.3756 71.338 90.7864 71.3837 90.7864 71.3837L90.0601 71.2524C90.0601 71.2524 89.4709 71.2124 89.2879 71.0755C89.1049 70.9385 88.47 70.6303 88.47 70.6303L88.0125 70.0024L87.8294 69.3232L87.9152 68.781L88.8189 68.0105L89.4938 67.5083L90.0772 66.9204L90.8837 65.6533" fill="#67B548"/>
<path d="M100.298 42.458L106.441 39.2675L106.801 38.6796L107.07 38.0918L107.202 37.6409L107.333 36.6934L106.384 36.6021L106.063 36.3339L106.018 36.0656V35.746L106.241 35.5691L107.642 35.4264L107.773 34.3876L105.92 34.2164L105.646 34.1251L105.554 33.8111L105.732 33.4459L106.138 33.3089L107.676 33.1205L107.579 31.7679L105.497 31.9106L105.137 31.5966L105 31.1914L105.131 30.8775L105.491 30.6492L107.442 30.5065L107.293 28.9255L105.348 29.1139L104.805 28.9369L104.622 28.4861L104.668 28.1265L105.074 27.9438L107.064 27.7498L106.921 26.6711L104.977 26.5855L104.479 26.4085L104.159 26.1403L104.204 25.8264L104.428 25.4154L104.925 25.3241L106.778 25.2727L106.458 23.8744L104.376 23.7431L103.878 23.5662L103.741 23.2979L103.65 22.984L103.827 22.7101H104.102L106.59 22.7443L106.675 21.7912L104.816 21.1234L104.45 20.8095V20.4499L104.588 20.1759L104.948 19.9534L106.938 20.5298L107.253 19.2628L105.938 18.7719L105.709 18.5037V18.184L105.795 17.9158L106.069 17.7788L106.338 17.7331L107.699 18.1327L108.328 17.0425L108.506 16.5916L107.144 15.7869L106.692 15.61L106.641 15.199L106.778 14.9308L107.047 14.7481L107.407 14.6568L109.135 15.5529L109.987 14.5541L108.626 13.0701L108.534 12.7106L108.849 12.4366L109.301 12.254L109.615 12.2996L110.891 13.8292L111.789 13.0073L110.605 11.3921L110.513 10.9412L110.736 10.6673L111.102 10.5303L111.371 10.6216L112.692 12.2825L113.55 11.8716L112.504 10.2506L112.498 9.93671L112.864 9.70841L113.178 9.57143H113.402L114.591 11.4606L115.403 11.141L114.671 9.70271V9.33743L114.94 9.11483L115.346 8.93219L115.615 9.01781L116.484 10.867L116.976 9.55431L116.021 8.42994L116.113 8.0247L116.29 7.75074L116.604 7.70508H116.925L117.514 8.15027L118.052 7.15716L117.102 6.79759L116.919 6.43802L116.959 6.12411L117.234 5.80449L117.64 5.71317L118.635 5.98142L118.858 5.43921L117.954 5.21662L117.634 5.1253V4.67441L117.766 4.49177L118.132 4.35479L119.081 4.39474L119.167 3.94385L116.456 4.45181L113.424 5.01115L110.399 5.83873L108.048 6.52363L105.789 7.39688L103.535 8.35574V8.66965V9.02922L103.266 9.21186L103.038 9.1662L102.723 8.98927L102.809 8.66965L102.271 8.81234L101.087 16.8085L100.481 23.2694L100.367 27.1505L100.475 31.6195L100.584 35.5006L100.464 38.3943L100.424 40.1122L100.298 42.458Z" fill="#67B548"/>
<path d="M105.388 8.88651L105.44 9.20043L105.669 9.56L105.938 9.65132H106.212L106.435 9.46868L106.567 9.19472V8.92647L106.298 8.61255L105.978 8.56689L105.617 8.65821L105.388 8.88651Z" fill="#3E142C"/>
<path d="M108.872 7.69367L108.963 8.3272L109.369 8.45847L109.775 8.36715L110.004 8.00758L109.913 7.64801L109.684 7.51103L109.324 7.42542L109.049 7.51673L108.872 7.69367Z" fill="#3E142C"/>
<path d="M112.349 6.72915L112.258 7.04877L112.395 7.36268L112.715 7.54532L113.167 7.49396L113.344 7.26566L113.299 6.90609L113.161 6.63783L112.847 6.50085L112.572 6.55222L112.349 6.72915Z" fill="#3E142C"/>
<path d="M115.375 5.99289L115.381 6.31251L115.518 6.48944L115.832 6.58076L116.238 6.57505L116.376 6.44378L116.553 6.16982L116.507 5.90157L116.324 5.58195L115.964 5.49634L115.604 5.542L115.421 5.7703" fill="#3E142C"/>
<path d="M107.299 10.7758L107.167 11.044L107.304 11.4949L107.533 11.7632L107.802 11.8088L108.345 11.5805L108.431 11.2666L108.34 10.9071L108.071 10.6331L107.705 10.5931L107.345 10.6388" fill="#3E142C"/>
<path d="M109.375 9.41166L109.335 9.90821L109.695 10.2221L109.924 10.2621L110.376 10.0794L110.462 9.76552L110.37 9.40595L110.096 9.17765L109.781 9.1377L109.604 9.18336L109.375 9.41166Z" fill="#3E142C"/>
<path d="M111.497 8.7667L111.634 9.12627L111.817 9.26325L112.178 9.3032L112.452 9.12627L112.629 8.80665V8.58406L112.492 8.3101L112.218 8.22449L111.903 8.31581L111.68 8.45279L111.497 8.7667Z" fill="#3E142C"/>
<path d="M114.345 7.67081L114.162 7.89911L114.168 8.25868L114.437 8.52693H114.849L115.255 8.29863L115.249 7.93906L115.157 7.61944L114.934 7.48817L114.614 7.39685L114.391 7.53383" fill="#3E142C"/>
<path d="M105.772 12.4994L106.086 12.3624L106.361 12.4024L106.63 12.585L106.721 12.8989L106.727 13.2128L106.544 13.4411L106.092 13.5325L105.686 13.3555L105.549 12.9503L105.589 12.6307L105.772 12.4994Z" fill="#3E142C"/>
<path d="M104.559 14.8509L104.736 14.5313L105.011 14.4399L105.371 14.4856L105.692 14.7539L105.6 15.2047L105.285 15.3874H104.971L104.696 15.2561L104.559 14.8509Z" fill="#3E142C"/>
<path d="M104.21 17.1111L104.073 17.425L104.164 17.7389L104.393 18.0129L104.622 18.1442H104.937L105.205 17.9615L105.343 17.6019L105.251 17.2823L104.931 17.0597L104.571 16.9285L104.21 17.1111Z" fill="#3E142C"/>
<path d="M103.45 10.1594L103.404 9.79982L103.135 9.66284L102.86 9.66855L102.683 9.89114L102.546 10.2564L102.683 10.479L103.003 10.616L103.226 10.6103L103.455 10.3877L103.45 10.1594Z" fill="#3E142C"/>
<path d="M102.414 11.3407L102.42 11.5633L102.643 11.746L102.918 11.8316L103.232 11.7403L103.364 11.335L103.186 11.0611L102.958 10.9755L102.729 10.9298L102.552 10.9755L102.414 11.3407Z" fill="#3E142C"/>
<path d="M102.334 12.6478V12.8761L102.471 13.053L102.609 13.0987H102.969L103.238 12.916V12.6421L103.146 12.4651L102.918 12.2825L102.649 12.2426L102.466 12.2882L102.334 12.6478Z" fill="#3E142C"/>
<path d="M102.248 14.0004V14.3201L102.386 14.497L102.66 14.5426L102.975 14.4513L103.106 14.223L103.061 13.9548L102.923 13.7265L102.655 13.6409H102.471L102.248 14.0004Z" fill="#3E142C"/>
<path d="M102.031 15.5871L102.168 15.8097C102.168 15.8097 102.26 15.8553 102.397 15.8553C102.534 15.8553 102.757 15.8553 102.757 15.8553L102.895 15.627L102.849 15.2218L102.62 15.1305H102.214L102.123 15.3131L102.031 15.5871Z" fill="#3E142C"/>
<path d="M101.945 16.8028L102.037 17.2537H102.351L102.672 17.1624L102.803 16.8428L102.757 16.5289L102.574 16.3919L102.214 16.3519L101.991 16.5346L101.945 16.8028Z" fill="#3E142C"/>
<path d="M101.859 18.1613L101.905 18.3839L102.134 18.5209L102.494 18.6065L102.815 18.3782L102.9 18.1099L102.717 17.796L102.494 17.7047L102.174 17.7504L101.951 17.8874L101.859 18.1613Z" fill="#3E142C"/>
<path d="M101.819 19.4683L101.825 19.7423L101.957 19.9649L102.323 20.0505L102.683 19.9135L102.82 19.5996L102.723 19.24L102.409 19.0574L102.134 19.1487L101.819 19.4683Z" fill="#3E142C"/>
<path d="M101.825 20.6897L101.785 21.0036L101.922 21.1863L102.145 21.2719L102.466 21.1806L102.735 20.821L102.597 20.547L102.323 20.4158L102.054 20.4614L101.825 20.6897Z" fill="#3E142C"/>
<path d="M101.877 21.9966L101.837 22.3562L102.06 22.4932H102.426L102.649 22.2649L102.695 21.9053L102.512 21.7227L102.191 21.677L102.014 21.7227L101.877 21.9966Z" fill="#3E142C"/>
<path d="M101.751 23.3094V23.6689L101.98 23.8915H102.34L102.609 23.6176V23.2123L102.426 23.121L102.157 23.0354L101.928 23.0811L101.751 23.3094Z" fill="#3E142C"/>
<path d="M101.665 24.799V25.0672L101.94 25.2898L102.214 25.3812L102.529 25.1529L102.614 24.8389L102.523 24.6106L102.254 24.525L101.888 24.4794L101.619 24.5707" fill="#3E142C"/>
<path d="M101.625 26.1974C101.579 26.3344 101.671 26.5113 101.671 26.5113L101.991 26.7339H102.306L102.529 26.46L102.574 26.1461L102.483 25.9235L102.123 25.8322L101.854 25.9691L101.625 26.1974Z" fill="#3E142C"/>
<path d="M101.676 27.5044L101.682 27.7327L101.814 28.0009L102.088 28.0466H102.403L102.586 27.6813L102.58 27.3674L102.403 27.1847L102.128 27.0991L101.905 27.1904L101.676 27.5044Z" fill="#3E142C"/>
<path d="M101.596 28.8172L101.642 29.1311L101.825 29.3594L102.185 29.445L102.454 29.2624L102.592 28.9028L102.454 28.6288L102.134 28.4519L101.774 28.5432L101.596 28.8172Z" fill="#3E142C"/>
<path d="M101.602 30.1242V30.4438L101.785 30.712L102.1 30.8433L102.374 30.7063L102.552 30.3924L102.506 30.1185L102.277 29.9415L101.962 29.8959L101.734 29.9872L101.602 30.1242Z" fill="#3E142C"/>
<path d="M101.608 31.5682V31.8421L101.837 32.0191L102.197 32.1104L102.512 31.9734L102.557 31.6081L102.374 31.3855L102.014 31.2999H101.785L101.608 31.5682Z" fill="#3E142C"/>
<path d="M101.614 32.6526L101.522 32.8809L101.614 33.1948L101.888 33.3775L102.248 33.3261L102.426 33.0578V32.7382L102.288 32.5613L102.065 32.5156L101.837 32.47L101.568 32.5213" fill="#3E142C"/>
<path d="M101.436 34.0109L101.35 34.3248L101.488 34.5531L101.665 34.6387L101.94 34.6844L102.254 34.5017L102.346 34.1878L102.254 33.9139L101.934 33.8283L101.665 33.7826L101.436 34.0109Z" fill="#3E142C"/>
<path d="M101.356 35.455V35.7689L101.493 35.9972L101.717 36.1285L102.128 35.9915L102.306 35.7232L102.26 35.4949L102.077 35.2723H101.808H101.579L101.356 35.455Z" fill="#3E142C"/>
<path d="M101.27 36.899L101.316 37.3042L101.545 37.4869L101.905 37.4812L102.088 37.3042L102.128 36.9846L101.991 36.762L101.768 36.625L101.539 36.5851L101.27 36.899Z" fill="#3E142C"/>
<path d="M101.099 38.5712L101.322 38.8394L101.551 38.9307L101.819 38.7938L102.048 38.4741L102.043 38.1602L101.865 37.9376L101.591 37.8463L101.276 37.9833L101.139 38.2972L101.099 38.5712Z" fill="#3E142C"/>
<path d="M101.15 39.7927L101.288 40.0609L101.648 40.1465L101.917 39.9239L102.054 39.7413L101.962 39.4274L101.779 39.2448L101.465 39.1991L101.19 39.2505L101.059 39.5187L101.15 39.7927Z" fill="#3E142C"/>
<path d="M100.881 40.877L100.927 41.2366L101.293 41.3678L101.608 41.1395L101.648 40.78L101.425 40.5574H101.15L100.973 40.6944L100.881 40.877Z" fill="#3E142C"/>
<path d="M74.3428 35.3123L77.7573 30.5123L79.3302 28.2464L80.0909 26.6597L80.6285 25.484L81.3435 23.9429L81.6123 22.9042L81.8354 22.0024L81.6523 21.0093L81.4636 19.8335L80.863 17.7617L79.1014 18.6293C79.1014 18.6293 79.5132 19.3941 79.5132 19.531C79.5132 19.668 79.925 20.7467 79.925 20.7467L80.1538 21.8768L80.1595 22.9612L79.9422 24.4052L79.4046 25.444L78.5981 26.8024L77.071 29.0226L75.99 30.518L75.092 32.0133L74.4171 33.0977L72.8042 36.3111L74.3428 35.3123Z" fill="#EF8323"/>
<path d="M92.2106 15.1762L92.079 16.8942L91.9075 18.5208L91.1982 21.3232L90.4833 23.629L89.591 25.6209L88.6473 27.3846L87.4348 29.3365L85.7246 31.825L85.0497 32.1446L84.3291 32.5099L83.923 33.0521L83.3796 33.7313L82.8877 34.4561L82.5732 35.318L82.5789 36.0828L80.6914 38.8909L79.1643 41.6076L78.5409 43.1943L78.0032 44.4157L77.6029 45.6828L77.2025 46.9898L76.8021 48.4395L76.4933 50.5627L76.2759 52.6402L76.4246 54.5351L73.0387 56.3101L73.0673 52.9256L73.1473 51.4359L73.3704 50.0319L73.5877 48.6336L74.0796 46.733L74.9719 44.0219L76.0014 41.6248L77.6143 38.5484L80.2167 34.5589L82.556 31.0716L84.8495 27.7213L86.0163 25.9063L88.1268 22.556L88.8933 21.6086L89.0706 21.3803L89.2993 21.7855L89.6597 21.9168L89.98 21.7798L90.2488 21.4659L90.1973 20.9693L89.9285 20.6954L89.6082 20.6098L89.2936 20.7011L89.9228 19.2514L90.815 17.4421L92.2049 14.6797L92.2106 15.1762Z" fill="#EF8323"/>
<path d="M89.0706 21.3802L89.1621 21.8768L89.4366 22.0537L89.797 22.0994L90.0715 22.008L90.3403 21.7341L90.3804 21.3745L90.1973 20.9693L89.9285 20.6953L89.2936 20.701L89.0706 21.0206V21.3802Z" fill="#3E142C"/>
<path d="M88.7617 22.8242L88.4014 23.0982V23.4578L88.5844 23.8173L88.9447 23.9087L89.3966 23.8173L89.5796 23.4977L89.6654 23.0012L89.4366 22.7786L89.2136 22.7329L88.7617 22.8242Z" fill="#3E142C"/>
<path d="M87.6864 24.9531L87.5949 25.267L87.6407 25.5866L87.961 25.7179L88.3671 25.7636L88.5958 25.6266L88.7274 25.1757L88.6359 24.8104L88.4986 24.5878L88.1783 24.4565L87.8637 24.5935L87.6864 24.9531Z" fill="#3E142C"/>
<path d="M86.6512 26.8538L86.6112 27.2133L86.9715 27.4416L87.3776 27.4359L87.7379 27.1677V26.6255L87.6007 26.3972L87.1946 26.1289L86.8285 26.1746L86.5597 26.4942L86.6512 26.8538Z" fill="#3E142C"/>
<path d="M85.7075 28.3948L85.5759 28.6631L85.6674 29.0283L85.8047 29.2053L86.2108 29.2966L86.6169 29.1996L86.9315 28.7943L86.8857 28.3891L86.6112 28.0752L86.2508 28.0295L85.8905 28.1209L85.7075 28.3948Z" fill="#3E142C"/>
<path d="M84.4092 30.2497V30.5694L84.6379 30.7919L85.1355 30.9689L85.4501 30.7406L85.5817 30.381V30.1128L85.2614 29.7931L84.901 29.6619L84.6322 29.7075L84.4034 29.8902L84.4092 30.2497Z" fill="#3E142C"/>
<path d="M83.2366 31.7907L83.2423 32.196L83.4654 32.4243L83.7857 32.4642L84.146 32.3729L84.4148 32.059V31.6937L84.2776 31.4255L83.9115 31.2485H83.597L83.4139 31.3855L83.2366 31.7907Z" fill="#3E142C"/>
<path d="M82.0241 33.3774L81.9326 33.737L82.0698 34.0109L82.4816 34.0966H82.8877L83.2481 33.7769L83.2881 33.1891L82.9735 32.9665L82.6075 32.8352H82.2471L82.0241 33.2404" fill="#3E142C"/>
<path d="M80.8116 35.1868L80.9946 35.5977L81.2634 35.7746H81.6294L81.8983 35.729L82.0756 35.4093L82.0298 35.0041L81.7553 34.6445L81.3034 34.5532L80.9889 34.7359L80.7658 34.9642L80.8116 35.1868Z" fill="#3E142C"/>
<path d="M79.6905 37.0474L79.6448 37.2243L79.782 37.3613L80.0051 37.4526L80.2796 37.5839L80.64 37.4926L80.9545 37.2643V36.7677L80.9088 36.4538L80.5885 36.2769L80.2282 36.2312L79.7763 36.3682L79.639 36.7734L79.6905 37.0474Z" fill="#3E142C"/>
<path d="M78.6095 39.0849L78.3807 38.8167L78.5123 38.4571L78.7811 38.1375L79.0042 38.0005C79.0042 38.0005 79.1414 38.0461 79.3187 38.0461C79.5018 38.0461 79.6391 38.2687 79.6391 38.2687L79.7306 38.5826L79.599 38.8966L79.4217 39.1249L78.9699 39.1705L78.6095 39.0849Z" fill="#3E142C"/>
<path d="M77.5743 40.3064L77.6258 40.6203L77.8488 40.9399L78.2606 40.9799L78.5752 40.9342L78.8898 40.529V40.2093L78.6152 39.8954L78.1176 39.7642L77.8888 39.9011L77.7115 40.1237L77.5743 40.3064Z" fill="#3E142C"/>
<path d="M76.7735 42.1156L76.865 42.4751L77.1796 42.7491L77.4999 42.8347L77.8145 42.6977L78.0376 42.3382L77.9918 41.8416L77.6258 41.659L77.2654 41.619L76.9966 41.7103L76.7735 42.1156Z" fill="#3E142C"/>
<path d="M76.2816 43.5652L76.0529 43.9704L76.0586 44.2901L76.2416 44.5583L76.5104 44.6896L76.9165 44.7352L77.1911 44.6439L77.3226 44.3243L77.3684 43.8277L77.1396 43.6052L76.7335 43.4282L76.2816 43.5652Z" fill="#3E142C"/>
<path d="M75.4295 45.7342L75.3437 46.0994L75.5267 46.459L75.887 46.6816H76.2016L76.5676 46.5446L76.6992 46.1337L76.5619 45.7285L76.2416 45.4602H75.8813L75.4295 45.5972" fill="#3E142C"/>
<path d="M74.989 47.6804L74.7603 47.9487L74.8117 48.3596L75.0348 48.5822L75.4008 48.7135H75.7612L76.0757 48.5765L76.213 48.2626L76.1615 47.766L75.847 47.4921L75.3951 47.4978L74.989 47.6804Z" fill="#3E142C"/>
<path d="M74.6344 49.6665L74.5029 49.9862L74.5486 50.3457L74.8174 50.5683L75.275 50.6996L75.7669 50.5626L75.8127 50.1117L75.7211 49.7065L75.4466 49.4382H75.0863L74.7717 49.5752" fill="#3E142C"/>
<path d="M74.4628 51.5215L74.1025 51.7041L73.9652 52.018L74.1025 52.3319L74.377 52.6059L74.7374 52.6915H75.235L75.5095 52.4175L75.5953 51.9666L75.3665 51.6927L75.052 51.5157H74.7317L74.4628 51.5215Z" fill="#3E142C"/>
<path d="M74.2455 53.8217L74.0224 54.05L73.9309 54.3639L74.0224 54.5922L74.4342 54.8148L74.7946 54.8604L75.2464 54.7234L75.5152 54.4495L75.4695 53.9073L75.2865 53.6847L74.8804 53.639H74.6058L74.2455 53.8217Z" fill="#3E142C"/>
<path d="M93.3602 48.6734L93.4861 48.6106L96.1171 47.1724L100.784 48.9131L102.323 49.6266L103.959 50.3857L106.046 51.5043L107.539 52.2235L104.599 51.3788L102.328 50.848L99.2971 50.0946L96.077 49.2499" fill="#EF8323"/>
<path d="M65.4717 73.3241L66.6442 73.2727L67.5536 73.3583L68.5031 73.5352L69.8186 73.7978L71.0826 74.2487L72.4896 75.0534L73.9881 76.0408L76.0357 77.5647L77.58 79.18L80.3997 81.9253L82.7161 84.3966L81.046 85.2185L80.823 85.3098L77.2254 81.3488L75.5438 79.4653L74.4972 78.4722L73.5877 77.5761L72.0892 76.4061L71.1855 75.7783L70.1389 75.1562L68.7376 74.711L67.3763 74.4884L66.1981 74.6311L65.3916 75.219L65.0313 75.9895L65.0828 77.0739L65.3116 77.5704L64.4479 77.3022L63.7673 76.4917L63.4927 75.6356L63.6243 74.9108L63.8473 74.3685L64.385 73.9176L64.8368 73.5524L65.3802 73.3241" fill="#EF8323"/>
<path d="M47.1463 73.8607L48.6791 72.7249L49.2053 69.3803L49.1481 66.7663L49.0966 64.78L49.0337 61.6638L48.662 58.5475L47.8155 52.3663L47.255 48.7135L46.9804 47.4921L46.9976 51.7841L47.2835 54.3125L47.438 58.2393L47.5466 62.1204L47.4265 66.0471L47.0376 69.6657L46.3341 74.4086L47.1463 73.8607Z" fill="#EF8323"/>
<path d="M45.6478 43.571L43.8918 45.0721L43.1712 45.8883L45.7107 47.2295L45.7965 46.459L44.1664 45.6999L45.8308 44.2046L45.6478 43.571Z" fill="#EF8323"/>
<path d="M45.7621 48.9019L45.8136 49.9406L44.1035 51.7499L46.0538 52.509L46.0596 53.5478L43.154 51.8926L44.2751 50.1233L44.9957 49.2671L45.7621 48.9019Z" fill="#EF8323"/>
<path d="M46.1968 55.083L46.2025 56.1218L44.4466 57.3032L46.397 58.4219L46.357 59.6433L43.5429 57.2633L44.3952 56.2645L45.2988 55.494L46.1968 54.9004V55.083Z" fill="#EF8323"/>
<path d="M44.1606 63.8098L46.3684 61.6752L46.5057 62.7596L45.0186 63.941L46.2883 64.8828L46.2483 65.7846L44.1606 63.8098Z" fill="#EF8323"/>
<path d="M39.6765 83.2551L44.0691 86.3942L47.3064 88.7115L50.4808 90.458L50.6123 90.7547C50.6123 90.7547 49.4856 90.4637 49.4226 90.4637C49.3597 90.4637 47.192 90.0299 47.192 90.0299L46.1282 89.8872C46.1282 89.8872 44.5553 89.6817 44.4924 89.6817C44.4295 89.6817 42.9424 89.6018 42.9424 89.6018L41.0721 89.4192L39.5221 89.3222L38.2238 89.2879L36.5651 89.2765L33.9112 89.482L32.4871 89.6817L31.2173 90.0699L39.6822 83.1866" fill="#EF8323"/>
<path d="M116.862 26.6483L117.171 26.7339L117.48 26.7568L117.76 26.6711L118.069 26.3915L118.235 25.9691L118.286 25.5468L118.172 25.1587L117.977 24.9361L117.697 24.742L117.216 24.6849L116.742 24.7705L116.319 25.0559L116.21 25.6153L116.267 26.0661L116.467 26.3686L116.862 26.6483Z" fill="#3E142C"/>
<path d="M113.241 33.5087L113.356 33.7598L113.413 34.0966V34.4561L113.19 34.7415L112.772 34.9641L112.212 35.0269L111.817 34.8043L111.646 34.2449L111.892 33.6514L112.286 33.3717L112.933 33.3945L113.241 33.5087Z" fill="#3E142C"/>
<path d="M92.4794 24.1313L94.5842 22.2135L94.3326 21.814L94.2811 21.3118L94.3783 20.9122L94.7787 20.6097H95.1333L95.5337 20.8038L95.8883 21.2033V21.5058L95.894 21.911L95.5909 22.2135L95.242 22.3619L95.7053 25.4725L92.5309 24.234" fill="#3E142C"/>
<path d="M92.0848 24.9418L95.5623 26.0776L93.2058 27.8983V28.4462L93.0571 28.6516L92.7025 28.7544H92.2507L91.7473 28.4576L91.8446 27.8526L92.1992 27.6471L92.5995 27.5501L92.0848 24.9418Z" fill="#3E142C"/>
<path d="M95.3335 20.507L96.4316 18.692L94.3669 18.5037L95.3335 20.507Z" fill="#3E142C"/>
<path d="M92.0047 29.308L90.4947 30.1698L92.4108 30.9118L92.0047 29.308Z" fill="#3E142C"/>
<path d="M49.3597 49.4612L49.5599 49.8093L49.9145 50.0091L50.2634 50.0547L50.5666 49.952L50.8125 49.5525L50.8583 48.9018L50.6066 48.6051L50.3549 48.5023L49.8573 48.508L49.5027 48.6564L49.354 49.0616L49.3597 49.4612Z" fill="#3E142C"/>
<path d="M50.1261 52.76L50.5265 52.8057L50.9269 52.703L51.1785 52.3548L51.2758 51.9496L51.2243 51.7041L50.9726 51.3503L50.5208 51.1049L50.1204 51.2076L49.7201 51.5101L49.6686 51.9096L49.7258 52.3091L49.8745 52.5603L50.1261 52.76Z" fill="#3E142C"/>
<path d="M50.0861 54.7577L50.1376 55.1059L50.3892 55.357L50.7896 55.454H51.0928L51.4416 55.3513L51.6418 55.0488L51.7391 54.5523L51.5846 54.1014L51.3844 53.9016L50.9841 53.8046H50.5837L50.2348 54.01L50.0346 54.3582L50.0861 54.7577Z" fill="#3E142C"/>
<path d="M50.6009 57.657L50.8011 58.0052L51.2529 58.205L51.556 58.1536L51.8535 57.9538L52.0536 57.6513V57.2518L51.9507 56.8009L51.5961 56.5041L51.0985 56.4528L50.6466 56.6069L50.395 56.955L50.3492 57.4059L50.6009 57.657Z" fill="#3E142C"/>
<path d="M50.8125 59.8088V60.1056L50.9155 60.4594L51.2186 60.7049L51.6647 60.7505H52.0193L52.3168 60.4024L52.414 59.8488L52.311 59.5006L52.0594 59.2038L51.659 59.0554L51.2586 59.1524L50.9612 59.3065L50.8125 59.5063V59.8088Z" fill="#3E142C"/>
<path d="M51.1785 63.1077L51.4302 63.3531L51.8306 63.5015L52.2309 63.4501L52.5798 63.2504L52.78 62.8965L52.7285 62.497L52.6256 62.1488L52.4254 61.9491L52.1223 61.852L51.8248 61.8007L51.5217 61.852L51.2243 62.1545L51.0756 62.4057V62.8052L51.1785 63.1077Z" fill="#3E142C"/>
<path d="M51.3902 65.4592L51.4931 65.8587L51.7905 66.1555H52.1452L52.4941 66.1498L52.7972 65.95L52.9917 65.7503L53.0431 65.2994L52.9917 64.8485L52.74 64.5517L52.3854 64.449L52.088 64.4547L51.6361 64.5574L51.4874 64.7572L51.3387 65.0597L51.3902 65.4592Z" fill="#3E142C"/>
<path d="M51.7048 68.3072L51.9049 68.604L52.1566 68.7524L52.6084 68.8038L52.9059 68.798L53.209 68.5469L53.3062 68.096L53.2033 67.6509L52.9516 67.3997L52.4998 67.2513L51.9965 67.3027L51.7505 67.6052L51.6018 68.0047L51.7048 68.3072Z" fill="#3E142C"/>
<path d="M78.4437 66.5037L78.2149 66.6235L78.0776 66.8062L78.0547 67.0345L78.1062 67.3141L78.2664 67.4511L78.518 67.5653L78.844 67.6338L79.1414 67.5596L79.3302 67.3313L79.3702 67.0059L79.233 66.6863L79.0442 66.5265L78.7239 66.4352L78.4437 66.5037Z" fill="#3E142C"/>
<path d="M84.9582 71.1096L84.7466 71.1324L84.5178 71.2694L84.3806 71.4578V71.6632L84.432 71.9372L84.5922 72.194L84.9411 72.4452L85.1241 72.468L85.3815 72.4166L85.6103 72.2568L85.7018 71.9543L85.7475 71.726L85.6045 71.4292L85.3986 71.2637L85.187 71.1496L84.9582 71.1096Z" fill="#3E142C"/>
<path d="M93.8235 75.1219L93.5204 75.1904L93.3145 75.4473L93.2687 75.7669L93.2916 76.0694L93.4117 76.2977L93.6405 76.5032L93.8521 76.5945L94.058 76.6173H94.2182L94.4985 76.5032L94.6815 76.2235L94.7501 75.9667V75.7384L94.63 75.5101L94.5156 75.3046L94.2582 75.1676L94.0752 75.1448L93.8235 75.1219Z" fill="#3E142C"/>
<path d="M76.2473 65.0198L76.1101 65.1796L76.0643 65.4535L76.1101 65.659L76.3903 65.9329L76.5962 66.0243L76.8021 66.0471L77.1739 66.0243C77.1739 66.0243 77.3112 65.8873 77.4027 65.8873C77.4942 65.8873 77.5628 65.562 77.5628 65.562L77.4713 65.1967L77.2139 64.8999L76.865 64.8086L76.5676 64.8542L76.316 64.9227" fill="#3E142C"/>
<path d="M82.2529 70.7043L82.4874 70.8641C82.4874 70.8641 82.7162 70.9098 82.7905 70.9098C82.8591 70.9098 83.1108 70.8185 83.1108 70.8185L83.4082 70.5845L83.4768 70.3276L83.454 70.008L83.3396 69.734L83.1794 69.5971L83.128 69.5514L82.8477 69.4829L82.7619 69.4601L82.5102 69.5057L82.2815 69.6427L82.1442 69.8482V70.0993L82.1671 70.3505L82.2357 70.5331L82.2529 70.7043Z" fill="#3E142C"/>
<path d="M86.7198 72.5708L86.5368 72.7135L86.4682 72.9875V73.153L86.5139 73.3813L86.7027 73.6096L86.9543 73.7237L87.2575 73.7694L87.6235 73.7009L87.8523 73.5582L87.9724 73.3071L87.9438 72.9361L87.7837 72.5936L87.5721 72.4567L87.2289 72.4338H86.9715L86.7198 72.5708Z" fill="#3E142C"/>
<path d="M89.6997 68.1989L89.2021 68.3358L88.8875 68.5641L88.573 69.0607V69.5116L89.1163 69.9625L89.5281 70.1394L89.98 70.2307L90.4318 70.3163H90.8837L90.9752 69.9511L90.6091 69.2319L90.5176 68.7354L90.3289 68.1532L90.2374 67.474L89.9685 67.9249L89.6997 68.1989Z" fill="#3E142C"/>
<path d="M104.479 65.9158L104.227 66.0014L103.959 66.1669L103.838 66.3724L103.798 66.6407L103.821 66.9089L103.924 67.1771L104.233 67.3997L104.485 67.4625H104.816L105.183 67.297L105.348 67.0288L105.411 66.7605L105.348 66.3895L105.16 66.1213L104.954 65.9786L104.702 65.8759L104.479 65.9158Z" fill="#3E142C"/>
<path d="M106.498 65.1682L106.309 65.231L106.109 65.3565L106.018 65.5106L105.989 65.7104L106.006 65.9102L106.081 66.1156L106.315 66.2812L106.504 66.3268H106.75L107.024 66.2013L107.15 66.0015L107.196 65.8017L107.15 65.5221L107.007 65.3223L106.853 65.2138L106.664 65.1396L106.498 65.1682Z" fill="#3E142C"/>
<path d="M106.584 63.2733L106.401 63.3361L106.195 63.4616L106.103 63.6157L106.075 63.8155L106.092 64.0153L106.172 64.2207L106.401 64.3862L106.59 64.4319H106.836L107.116 64.3063L107.236 64.1066L107.282 63.9068L107.236 63.6272L107.093 63.4274L106.938 63.319L106.755 63.2448L106.584 63.2733Z" fill="#3E142C"/>
<path d="M105.8 61.7037L105.617 61.7608L105.417 61.8863L105.326 62.0404L105.297 62.2459L105.308 62.4457L105.388 62.6454L105.623 62.8109L105.806 62.8566H106.058L106.332 62.731L106.458 62.5313L106.504 62.3315L106.452 62.0518L106.315 61.8521L106.161 61.7436L105.972 61.6694L105.8 61.7037Z" fill="#3E142C"/>
<path d="M104.519 60.3967L104.33 60.4595L104.13 60.585L104.039 60.7391L104.01 60.9389L104.027 61.1444L104.107 61.3441L104.336 61.5096L104.525 61.5553H104.771L105.051 61.4297L105.171 61.23L105.217 61.0302L105.171 60.7506L105.028 60.5508L104.874 60.4424L104.691 60.3682L104.519 60.3967Z" fill="#3E142C"/>
<path d="M102.735 59.6033L102.546 59.6661L102.346 59.786L102.254 59.9458L102.226 60.1456L102.243 60.3453L102.317 60.5451L102.552 60.7163L102.74 60.762L102.986 60.7563L103.261 60.6364L103.387 60.4309L103.432 60.2312L103.387 59.9515L103.244 59.7517L103.089 59.6433L102.9 59.5691L102.735 59.6033Z" fill="#3E142C"/>
<path d="M100.744 59.2723L100.561 59.3351L100.361 59.4607L100.269 59.6148L100.241 59.8202L100.252 60.02L100.332 60.2198L100.567 60.3853L100.75 60.4309H101.002L101.276 60.3054L101.402 60.1056L101.448 59.9058L101.396 59.6262L101.259 59.4264L101.105 59.318L100.916 59.2438L100.744 59.2723Z" fill="#3E142C"/>
<path d="M98.5593 59.4549L98.3763 59.5177L98.1761 59.6375L98.0846 59.7973L98.056 59.9971L98.0674 60.1969L98.1475 60.3966L98.382 60.5679L98.565 60.6135L98.8167 60.6078L99.0912 60.4879L99.2171 60.2825L99.2628 60.0827L99.2113 59.8031L99.0741 59.6033L98.9196 59.4948L98.7309 59.4207L98.5593 59.4549Z" fill="#3E142C"/>
<path d="M96.5517 60.5051L96.363 60.5679L96.1628 60.6877L96.0713 60.8418L96.0427 61.0473L96.0599 61.247L96.1342 61.4468L96.3687 61.618L96.5575 61.6637L96.8034 61.658L97.0779 61.5324L97.2038 61.3327L97.2495 61.1329L97.2038 60.8532L97.0608 60.6535L96.9064 60.545L96.7176 60.4708L96.5517 60.5051Z" fill="#3E142C"/>
<path d="M95.2134 62.1546L95.0246 62.2174L94.8245 62.343L94.7329 62.4971L94.7043 62.6968L94.7215 62.8966L94.7959 63.0964L95.0304 63.2676L95.2191 63.3133L95.465 63.3075L95.7453 63.1877L95.8654 62.9822L95.9112 62.7824L95.8654 62.5028L95.7224 62.303L95.568 62.2003L95.3792 62.1204L95.2134 62.1546Z" fill="#3E142C"/>
<path d="M94.5499 64.3691L94.3669 64.4319L94.1667 64.5575L94.0695 64.7116L94.0409 64.917L94.058 65.1168L94.1381 65.3166L94.3669 65.4821L94.5556 65.5277H94.8016L95.0818 65.4022L95.2019 65.2024L95.2477 65.0027L95.2019 64.723L95.059 64.5232L94.9045 64.4148L94.7215 64.3406L94.5499 64.3691Z" fill="#3E142C"/>
<path d="M94.4584 66.6864L94.2754 66.7492L94.0752 66.8747L93.9837 67.0288L93.9493 67.2286L93.9665 67.4284L94.0466 67.6338L94.2811 67.7993L94.4641 67.845H94.71L94.9903 67.7194L95.1161 67.5197L95.1619 67.3142L95.1104 67.0402L94.9731 66.8405L94.8187 66.732L94.63 66.6578L94.4584 66.6864Z" fill="#3E142C"/>
<path d="M95.1447 68.8665L94.956 68.9293L94.7558 69.0549L94.6643 69.209L94.6357 69.4087L94.6529 69.6085L94.7272 69.8083L94.9617 69.9795L95.1505 70.0252L95.3964 70.0194L95.6709 69.8996L95.7968 69.6941L95.8425 69.4944L95.7968 69.2147L95.6538 69.0149L95.4994 68.9122L95.3106 68.8323L95.1447 68.8665Z" fill="#3E142C"/>
<path d="M96.3287 70.8072L96.1457 70.87L95.9455 70.9955L95.8482 71.1497L95.8196 71.3494L95.8368 71.5492L95.9169 71.7489L96.1457 71.9202L96.3344 71.9658L96.5803 71.9601L96.8606 71.8403L96.9807 71.6348L97.0265 71.435L96.9807 71.1554L96.8377 70.9556L96.6833 70.8529L96.5003 70.7729L96.3287 70.8072Z" fill="#3E142C"/>
<path d="M98.2161 72.1712L98.0331 72.234L97.8329 72.3596L97.7414 72.5137L97.7128 72.7134L97.7243 72.9132L97.8043 73.1187L98.0388 73.2842L98.2219 73.3298H98.4735L98.7481 73.2043L98.8739 73.0045L98.9196 72.8048L98.8682 72.5251L98.7309 72.3253L98.5765 72.2169L98.3877 72.1427L98.2161 72.1712Z" fill="#3E142C"/>
<path fill-rule="evenodd" clip-rule="evenodd" d="M129.182 19.4569L131.492 21.8483L132.03 22.2364L132.545 22.3506L133.014 22.3563C133.014 22.3563 133.369 22.225 133.506 22.1508C133.592 22.1052 133.803 21.9339 133.803 21.9339L134.015 21.483L134.186 20.8952L134.066 20.3073L130.989 17.5677L130.343 17.3965L129.697 17.4022L129.17 17.7561L128.936 18.2298L128.879 18.9318L129.182 19.4569Z" fill="#E52528"/>
<path fill-rule="evenodd" clip-rule="evenodd" d="M137.212 15.005L138.23 17.99L138.413 18.869L138.179 19.1658L137.83 19.4625L137.418 19.6966L136.886 19.7023L136.297 19.531L135.822 19.24C135.822 19.24 135.485 18.3496 135.147 17.4706C134.821 16.6202 134.409 15.376 134.409 15.376L134.438 14.9023L134.787 14.3715L135.313 14.1318L135.845 14.069L136.434 14.1831L136.966 14.5884L137.212 15.005Z" fill="#E52528"/>
<path fill-rule="evenodd" clip-rule="evenodd" d="M141.33 14.2173L140.941 17.8017L141.004 18.3895L141.181 18.7377L141.593 19.0288L142.125 19.1429L142.594 19.1372L143.149 19.0744L143.475 18.6007L143.709 18.3039C143.709 18.3039 143.818 17.1282 143.91 16.1465C143.973 15.4445 144.03 14.8452 144.03 14.8452L143.864 14.1831C143.864 14.1831 143.755 13.8407 143.727 13.8064C143.647 13.6923 143.429 13.5496 143.429 13.5496L142.863 13.2699L142.308 13.2471L141.822 13.3841L141.502 13.8578L141.33 14.2173Z" fill="#E52528"/>
<path fill-rule="evenodd" clip-rule="evenodd" d="M148.108 15.7013L148.577 15.4045L149.223 15.2275L149.755 15.4558L150.344 15.9809L150.464 16.4489L150.413 17.1567L148.663 20.4556L147.959 20.7524L147.313 20.6953L146.724 20.3472L146.363 19.8791L146.186 19.4111L146.18 18.886L148.108 15.7013Z" fill="#E52528"/>
<path fill-rule="evenodd" clip-rule="evenodd" d="M150.676 21.8939L154.016 19.8906L154.662 19.7136L155.314 19.8848L155.606 20.2273L155.789 20.6725L155.864 21.1747L155.738 21.7227C155.738 21.7227 155.4 22.2249 155.263 22.3162C155.229 22.3391 155.211 22.3505 155.211 22.3505L152.031 24.2796L151.574 24.2511L150.807 23.8515L150.436 23.2066L150.453 22.7272L150.487 22.2592L150.676 21.8939Z" fill="#E52528"/>
<path fill-rule="evenodd" clip-rule="evenodd" d="M152.998 26.3515C152.998 26.3515 155.789 25.8892 156.864 25.7865C157.162 25.7579 157.528 25.7865 157.528 25.7865L157.9 26.0319L158.26 26.4257L158.334 27.1962L158.106 27.7841L157.78 28.1893L157.19 28.4861C157.19 28.4861 156.464 28.6003 155.658 28.7258C154.657 28.8857 153.536 28.9541 153.536 28.9541C153.536 28.9541 153.324 28.9713 153.124 28.8857C152.941 28.8058 152.718 28.6516 152.718 28.6516L152.397 28.1323L152.363 27.5273L152.426 27.0022L152.598 26.6711L152.998 26.3515Z" fill="#E52528"/>
<path fill-rule="evenodd" clip-rule="evenodd" d="M153.564 30.3925C153.564 30.3925 154.742 30.5466 155.818 30.7406C156.796 30.9175 157.551 31.0831 157.551 31.0831L158.031 31.494L158.214 31.962V32.43L157.98 32.9608L157.631 33.4345L156.933 33.6628L156.201 33.6058L153.181 33.1834L152.798 32.9951L152.443 32.5271L152.352 32.0419L152.317 31.454L152.638 30.9689L153.015 30.5808L153.564 30.3925Z" fill="#E52528"/>
<path fill-rule="evenodd" clip-rule="evenodd" d="M151.614 35.0098C151.614 35.0098 152.037 35.1297 152.214 35.2495C153.004 35.8031 155.183 37.3213 155.183 37.3213L155.48 37.7893L155.6 38.3772L155.32 38.8509L154.84 39.2048C154.84 39.2048 154.359 39.4046 154.193 39.4788C154.159 39.4959 153.816 39.5073 153.816 39.5073L153.404 39.4388L153.072 39.1934L150.19 37.2186L150.035 36.5166L150.173 35.8488L150.361 35.4322L150.756 35.1525L151.191 34.9927L151.614 35.0098Z" fill="#E52528"/>
<path fill-rule="evenodd" clip-rule="evenodd" d="M146.255 40.1465L148.274 43.2913L148.623 43.668C148.623 43.668 148.937 43.7536 149.086 43.7536C149.28 43.7536 149.509 43.7536 149.509 43.7536L150.035 43.5767L150.504 43.2799L150.739 42.7491L150.619 42.224L148.891 38.9479L148.474 38.537L147.942 38.303L147.296 38.3658L146.827 38.5427L146.42 38.9593L146.186 39.4901L146.255 40.1465Z" fill="#E52528"/>
<path fill-rule="evenodd" clip-rule="evenodd" d="M141.141 41.0482L141.273 43.571L141.456 44.8609L141.811 45.1519L142.108 45.3859L142.697 45.5572L143.052 45.4944C143.052 45.4944 143.063 45.4944 143.086 45.4944C143.195 45.4944 143.521 45.4944 143.521 45.4944C143.521 45.4944 143.521 45.4944 143.526 45.4887C143.601 45.4487 143.938 45.1862 143.938 45.1862L144.127 44.6554L143.898 40.7343L143.481 40.0894C143.481 40.0894 143.475 40.0894 143.463 40.0837C143.355 40.0437 142.834 39.8611 142.834 39.8611L142.125 39.8668L141.656 39.9866L141.244 40.4604L141.141 41.0482Z" fill="#E52528"/>
<path fill-rule="evenodd" clip-rule="evenodd" d="M135.799 39.6385L134.667 43.0973L134.873 43.7936L135.285 44.136L135.639 44.2502L136.108 44.3643L136.52 44.3073L136.932 44.079L137.103 43.7365L138.436 40.82L138.51 40.2036L138.253 39.6214L137.778 39.279L137.132 39.0507C137.132 39.0507 136.743 39.0507 136.629 39.0507C136.611 39.0507 136.6 39.0507 136.6 39.0507L136.142 39.3018L135.799 39.6385Z" fill="#E52528"/>
<path fill-rule="evenodd" clip-rule="evenodd" d="M130.72 41.2309C130.72 41.2309 130.966 40.9284 131.401 40.5574C131.487 40.4889 131.841 40.2321 131.933 40.1522C132.276 39.8554 132.287 39.8554 132.602 39.5757C133.065 39.1705 133.42 38.8566 133.42 38.8566L133.677 38.4228L133.706 37.561L133.466 37.013L133.231 36.7391L132.819 36.5051L132.287 36.448L131.676 36.6135C131.676 36.6135 131.235 36.9959 130.789 37.3897C130.314 37.8064 129.822 38.2344 129.822 38.2344L128.673 39.3702L128.638 39.9524L128.696 40.506L128.959 41.0539L129.456 41.3793L130.103 41.442L130.72 41.2309Z" fill="#E52528"/>
<path fill-rule="evenodd" clip-rule="evenodd" d="M127.174 35.6833C127.174 35.6833 127.758 35.5577 128.661 35.2838C128.77 35.2495 128.879 35.221 128.982 35.1868C129.656 34.9927 130.268 34.8272 130.268 34.8272L130.68 34.4162L130.909 33.7713L131.023 33.1834L130.783 32.7154L130.486 32.3673L129.662 32.0762L128.638 32.3387L127.78 32.6184C127.78 32.6184 127.689 32.6469 127.563 32.6812C127.352 32.7439 126.516 33.0579 126.471 33.075C125.973 33.2633 125.584 33.5544 125.584 33.5544L125.378 34.0453L125.207 34.519L125.212 35.0498L125.453 35.4607L125.864 35.7518L126.408 35.9401L127.174 35.6833Z" fill="#E52528"/>
<path fill-rule="evenodd" clip-rule="evenodd" d="M127.386 22.3277C127.386 22.3277 128.209 22.5788 128.93 22.8071C129.205 22.8927 129.468 22.9784 129.656 23.0411C129.845 23.1039 130.566 23.4178 130.566 23.4178L130.915 23.7146L131.166 24.1484L131.264 24.8847L131.029 25.4725L130.749 25.7979L130.354 25.9691L129.868 26.0147C129.868 26.0147 128.581 25.5924 127.5 25.2328C126.711 24.9703 125.733 24.6278 125.733 24.6278L125.43 24.2226L125.355 23.726L125.481 23.1268L125.784 22.7615L126.299 22.3905L126.751 22.2706L127.386 22.3277Z" fill="#E52528"/>
<path fill-rule="evenodd" clip-rule="evenodd" d="M129.188 30.1413L125.59 29.9872L124.892 29.816L124.538 29.405L124.297 28.8799L124.412 28.2921L124.583 27.824L124.932 27.4702L125.521 27.2305L129.308 27.3732L129.8 27.6015L130.154 27.9439L130.291 28.5375C130.291 28.5375 130.343 28.9142 130.309 29.0683C130.286 29.1653 130.183 29.4279 130.183 29.4279L130.005 29.7817L129.714 29.9586C129.714 29.9586 129.571 30.0043 129.433 30.0557C129.308 30.1013 129.188 30.1413 129.188 30.1413Z" fill="#E52528"/>
<path fill-rule="evenodd" clip-rule="evenodd" d="M136.972 34.7244L137.658 35.2209L138.528 35.7175L139.168 36.0314L139.9 36.254L140.947 36.3852L141.811 36.4252L142.628 36.3282L143.812 36.0485L144.722 35.6775L145.631 35.1296L146.535 34.399L147.256 33.3945L147.799 32.527L148.297 31.4311L148.497 30.2211L148.508 29.2908C148.508 29.2908 148.44 28.9084 148.388 28.6002C148.348 28.3833 148.319 28.2007 148.319 28.2007L147.948 26.9736L147.439 26.0661L146.93 25.2499C146.93 25.2499 146.907 25.2214 146.861 25.1757C146.672 24.9703 146.146 24.3881 146.146 24.3881L145.185 23.7603L144.27 23.2181L143.172 22.9041L141.896 22.6873L140.804 22.693L139.483 23.0183L138.259 23.5719L137.309 24.2112L136.268 25.17L135.771 26.0376L135.182 26.9508L135.004 27.6813L134.741 29.0911L134.701 30.2725L135.027 31.4996L135.399 32.5898L135.902 33.4059L136.497 34.1764L136.972 34.7244Z" fill="#3E142C"/>
<path fill-rule="evenodd" clip-rule="evenodd" d="M140.072 32.0533L140.112 31.6652L140.203 31.1743L140.352 30.7292L140.632 30.1926L140.901 29.7532L141.324 29.3308L141.776 28.9884L142.159 28.7201L142.668 28.4747L143.166 28.292L143.681 28.1665L144.178 28.1494L144.785 28.1893L145.551 28.4404L145.494 28.1494L145.339 27.6756L144.865 27.0364L144.522 26.6597L144.207 26.3515L143.807 26.0376L143.246 25.7522L142.794 25.5639L142.085 25.4212L141.633 25.3812L141.05 25.4326L140.386 25.541L139.746 25.8093L139.099 26.2202L138.533 26.6597L138.121 27.122L137.738 27.8012L137.469 28.5204L137.378 29.1767L137.344 29.8844L137.407 30.5237L137.532 31.0716L137.807 31.6252L138.139 32.1789L138.453 32.6297L138.979 32.995L139.626 33.3489L140.232 33.6L140.1 32.9893L140.055 32.527L140.072 32.0533Z" fill="#F2BA20"/>
<path d="M116.765 37.9948L118.154 37.2985L124.223 40.5803L129.845 43.6909L134.924 45.2661L142.543 47.7089L147.044 48.6564L150.058 48.936L150.647 49.4155L150.579 51.0763L150.081 52.1151L146.466 51.6585C146.466 51.6585 141.833 50.2545 141.387 50.0832C140.941 49.912 134.678 47.6804 134.678 47.6804L126.963 44.0276L121.621 41.5334L118.36 39.884L116.319 38.1375" fill="#2887B0"/>
</svg>
