<svg width="24" height="80" viewBox="0 0 24 80" fill="none" xmlns="http://www.w3.org/2000/svg">
<path fill-rule="evenodd" clip-rule="evenodd" d="M12.8697 0C11.2722 5.87627 5.88745 13.0261 4.02178 18.8242C2.13378 24.7116 0.558581 31.7162 0.0558582 38.9666C-0.0223432 40.1843 -0.0335148 41.2903 0.0335149 42.4187C0.34632 47.1666 0.96076 51.9034 2.25667 57.0311C3.50789 61.9467 8.01005 63.399 8.52395 68.7837C9.33948 68.9624 8.54629 67.5101 9.30596 67.633C9.46237 68.1804 9.51822 68.8172 9.67463 69.3646C11.4397 70.1355 11.8866 71.7889 13.1043 73.0289C15.3722 75.3526 19.0364 77.0395 21.5277 78.0785C21.7847 78.3242 21.7176 78.9163 21.7065 79.4191C22.2539 80.0558 22.1645 78.6371 22.6672 79.2291C22.7789 79.4749 23.561 80.5251 23.628 79.6202C22.1198 74.8499 21.0809 68.5267 21.6283 61.1646C22.1086 54.6963 22.589 47.8816 23.0806 41.5808C24.2648 26.5438 20.6005 15.3163 15.4168 5.41824C14.9253 5.08309 14.2438 2.62533 13.9645 2.21198L12.8697 0Z" fill="#3F150A"/>
<path fill-rule="evenodd" clip-rule="evenodd" d="M13.2831 14.0762C13.4283 14.9252 13.0149 15.2268 13.082 15.9977C16.2771 16.4669 18.0757 18.3214 19.7849 20.2653C19.0364 16.7797 15.9084 15.6737 13.2831 14.0762Z" fill="#3695B3"/>
<path fill-rule="evenodd" clip-rule="evenodd" d="M13.2607 17.1484C13.0261 17.1708 12.8027 17.2043 12.8697 17.5283C12.8697 17.6623 12.8697 17.7852 12.8697 17.9193C17.5394 19.3604 19.137 23.8291 21.2596 27.7615C20.5893 22.2539 17.9863 18.6454 13.2607 17.1484Z" fill="#3695B3"/>
<path fill-rule="evenodd" clip-rule="evenodd" d="M2.96048 36.4864C4.74794 33.5929 8.72504 31.8725 8.7809 27.873C7.41796 31.2022 2.39073 31.839 2.96048 36.4864Z" fill="#3695B3"/>
<path fill-rule="evenodd" clip-rule="evenodd" d="M11.7414 46.3398C14.8583 45.4014 18.0422 47.4235 20.3771 48.5071C20.5223 46.0829 20.9245 43.9044 21.5724 41.9829C18.8242 39.1006 15.9531 36.3301 10.8477 35.7715C10.803 39.6257 11.0599 43.1894 11.7414 46.3398Z" fill="#3695B3"/>
<path fill-rule="evenodd" clip-rule="evenodd" d="M14.7466 58.6508C16.4893 62.2034 17.9305 66.08 19.8743 69.4426C18.7795 65.8119 17.6512 62.2146 16.4782 58.662C15.9419 58.7179 15.1264 58.1034 14.7466 58.6508Z" fill="#3695B3"/>
<path fill-rule="evenodd" clip-rule="evenodd" d="M14.0092 20.8014C15.7743 21.4717 17.0926 23.6167 18.2098 24.287C16.8021 22.1085 15.294 20.0418 12.6686 19.0698C12.4787 20.0418 12.2665 20.9802 12.0765 21.9521C15.2828 24.5774 18.6678 27.024 21.4384 30.0739C19.5168 26.5548 15.8079 23.7954 14.0092 20.8014Z" fill="#3695B3"/>
<path fill-rule="evenodd" clip-rule="evenodd" d="M12.1659 7.92065C10.4455 13.0708 6.21143 16.7127 5.55231 22.2874C7.26157 19.4386 9.31714 16.9473 11.3616 14.4449C11.0934 12.434 12.6239 10.0768 12.1659 7.92065Z" fill="#74C0D6"/>
<path fill-rule="evenodd" clip-rule="evenodd" d="M8.05474 20.1871C6.21142 22.1309 3.99944 23.2481 4.55802 26.7001C6.52423 23.4045 10.1773 21.8293 10.9482 17.3271C9.75283 17.5059 9.14956 19.0252 8.05474 20.1871Z" fill="#74C0D6"/>
<path fill-rule="evenodd" clip-rule="evenodd" d="M3.76484 32.0738C5.51879 28.8229 9.90924 27.2142 9.58526 22.4998C7.96537 25.8959 3.21743 27.1472 3.76484 32.0738Z" fill="#74C0D6"/>
<path fill-rule="evenodd" clip-rule="evenodd" d="M11.6855 24.0525C11.4621 24.6111 11.328 25.2479 11.2945 25.974C15.1264 29.5042 19.5504 32.4536 21.4048 37.9388C17.6065 34.6879 14.7912 29.4596 10.5125 27.3146C11.3727 28.9457 10.6354 32.1631 10.8588 34.4198C16.467 34.6097 19.1147 37.7266 21.7735 40.8211C22.6449 34.5203 19.9525 31.9843 17.4166 29.0797C15.6291 27.0353 13.7746 25.0356 11.6855 24.0525Z" fill="#74C0D6"/>
<path fill-rule="evenodd" clip-rule="evenodd" d="M8.36756 32.1072C6.89291 35.8944 1.22889 36.4753 2.16731 42.0611C4.26757 39.3576 6.43487 36.7099 8.55748 34.0287C8.43459 33.4366 8.80325 32.3753 8.36756 32.1072Z" fill="#74C0D6"/>
<path fill-rule="evenodd" clip-rule="evenodd" d="M1.96622 43.9714C2.70354 47.3788 3.2733 50.9537 4.59155 53.7801C5.1613 51.9703 5.70871 50.5292 6.54658 48.7976C7.21688 47.4234 8.84794 45.6918 9.07137 44.3959C9.46238 42.0834 7.99889 39.324 8.1553 36.3188C6.46838 39.257 4.31226 41.7147 1.96622 43.9714Z" fill="#74C0D6"/>
<path fill-rule="evenodd" clip-rule="evenodd" d="M9.0602 45.9377C7.78664 49.2557 4.05532 53.4339 5.92098 57.4445C6.92642 54.026 8.25585 50.9203 10.0098 48.2503C9.4177 47.7475 9.95393 46.1277 9.0602 45.9377Z" fill="#74C0D6"/>
<path fill-rule="evenodd" clip-rule="evenodd" d="M11.7414 47.0996C12.2776 50.4623 13.1043 53.5233 13.9981 56.5285C15.1599 56.5508 16.5117 56.7519 16.6904 55.7688C17.1038 56.696 18.5561 56.6067 19.7626 56.7519C19.9414 54.4841 20.1201 52.2162 20.1871 49.8367C17.5953 48.7083 14.7912 47.7923 11.7414 47.0996Z" fill="#74C0D6"/>
<path fill-rule="evenodd" clip-rule="evenodd" d="M8.37873 62.8405C8.84794 58.1596 12.6575 54.54 10.1885 50.1719C8.69153 53.7691 4.9267 59.3214 8.37873 62.8405Z" fill="#74C0D6"/>
<path fill-rule="evenodd" clip-rule="evenodd" d="M13.473 12.9256C15.0594 13.4618 16.601 15.0594 17.6847 15.4504C16.1318 13.1602 15.3498 10.1215 13.8863 7.74194C13.9645 9.68581 13.5959 11.1828 13.473 12.9256Z" fill="#74C0D6"/>
<path fill-rule="evenodd" clip-rule="evenodd" d="M19.7179 29.8618C20.7122 30.4651 20.8574 31.9174 21.8182 32.5653C21.8182 31.1019 20.5111 29.9177 19.7179 29.8618Z" fill="#74C0D6"/>
</svg>
