<svg width="26" height="80" viewBox="0 0 26 80" fill="none" xmlns="http://www.w3.org/2000/svg">
<path fill-rule="evenodd" clip-rule="evenodd" d="M14.8133 1.55385C15.0469 3.50479 15.4091 5.78282 13.9021 7.06787C12.6637 6.47208 9.88337 5.3389 8.28291 6.42535C8.84365 7.85058 11.4722 7.68703 13.096 7.46507C11.367 9.416 8.21281 9.93002 6.03992 11.437C9.52122 12.8739 12.3717 9.45105 14.4862 8.87862C13.2128 11.2968 10.6194 12.3716 8.43478 13.8669C7.87403 14.194 5.93478 13.9253 6.62403 14.8599C9.94179 16.0398 11.8109 13.201 13.4231 12.4067C13.4932 12.3482 13.5516 12.2898 13.6684 12.3015C13.5866 12.3249 13.5049 12.3716 13.4231 12.4067C13.3764 12.4417 13.3296 12.4767 13.2712 12.5001C10.2338 16.3319 6.20347 18.3996 3.97216 22.687C2.83898 24.8716 2.37169 27.3015 1.71749 30.1053C1.08664 32.7922 0.245522 35.4207 0.0586064 38.3296C-0.291861 43.8669 1.00487 49.2992 1.16842 54.2057C1.20347 54.7665 2.12636 54.4627 1.97449 55.2104C3.42309 59.451 5.26889 63.3529 7.12636 67.0912C9.05394 70.9931 11.4722 74.2291 13.6918 77.7688C15.2689 78.1543 15.9815 79.3576 17.3016 80.0001C15.4208 75.6894 15.853 65.5609 18.2128 61.7291C20.6544 54.5796 24.6497 46.5655 25.3857 37.2665C26.1451 27.5819 24.2993 19.6964 20.7011 12.9324C19.9184 12.5118 19.4278 12.6286 19.3109 11.3202C20.8413 11.3903 22.0563 11.1333 22.3366 9.93002C20.8296 9.75479 18.4815 10.409 18.1194 9.10058C21.3203 9.31086 23.2011 8.17768 24.5563 6.53049C22.5119 6.23843 20.853 8.02581 18.1194 7.69871C17.9208 5.31553 17.8039 2.8389 17.2899 0.759458C17.138 0.163664 16.5072 -0.163439 15.9465 0.081888L15.596 0.233757C15.0586 0.444038 14.7432 0.993103 14.8133 1.55385Z" fill="#3F150A"/>
<path fill-rule="evenodd" clip-rule="evenodd" d="M5.15186 27.1028C9.35746 24.6963 14.1121 21.0865 16.4603 16.1215C16.4019 14.5094 16.6939 12.5584 16.0864 11.4954C14.3107 18.5865 6.61214 19.6963 5.15186 27.1028Z" fill="#F1E26F"/>
<path fill-rule="evenodd" clip-rule="evenodd" d="M8.97197 25.9114C7.40655 26.9161 4.47431 27.2899 4.53272 29.9067C8.23599 26.9862 16.7523 25.1754 16.0397 18.7268C14.3575 21.9628 11.8809 24.0539 8.97197 25.9114Z" fill="#F1E26F"/>
<path fill-rule="evenodd" clip-rule="evenodd" d="M18.0023 27.7805C17.8738 28.5165 17.7804 29.3109 17.3832 29.7899C19.8832 33.1076 21.3551 37.4534 22.535 42.0679C24.4042 35.7712 21.0514 31.0282 18.0023 27.7805Z" fill="#F1E26F"/>
<path fill-rule="evenodd" clip-rule="evenodd" d="M2.87384 37.9323C6.1215 34.965 13.8668 33.7034 14.5794 28.1543C11.3551 32.1029 4.11216 31.9861 2.87384 37.9323Z" fill="#F1E26F"/>
<path fill-rule="evenodd" clip-rule="evenodd" d="M16.764 31.9861C15.7243 33.9954 17.0794 34.7548 17.9439 36.2034C19.6262 39.0422 20.7944 41.9978 21.2967 45.4674C22.5584 42.6286 20.9813 40.5959 19.743 37.43C18.7967 35.0235 17.6869 32.7454 16.764 31.9861Z" fill="#F1E26F"/>
<path fill-rule="evenodd" clip-rule="evenodd" d="M2.66354 39.7431C2.81541 41.3202 2.03269 43.0024 2.64017 44.3692C5.45559 40.6893 8.86681 37.5935 13.1425 35.3856C13.0958 34.3225 14.0654 33.2361 13.5631 32.3716C10.5841 35.5024 5.95793 36.951 2.66354 39.7431Z" fill="#F1E26F"/>
<path fill-rule="evenodd" clip-rule="evenodd" d="M6.65888 42.5818C5.03505 44.2874 2.61682 46.0865 2.80374 48.9837C5.54907 46.1098 7.71028 42.6402 11.6822 40.993C11.7991 39.8949 12.6636 38.493 12.3014 37.5818C10.4439 39.1355 8.4229 40.7243 6.65888 42.5818Z" fill="#F1E26F"/>
<path fill-rule="evenodd" clip-rule="evenodd" d="M15.2804 45.035C16.8458 47.9089 17.3832 51.1565 18.6449 53.8902C19.2757 48.7734 16.1565 43.9836 14.3107 40C12.8855 42.4416 14.3692 43.3411 15.2804 45.035Z" fill="#F1E26F"/>
<path fill-rule="evenodd" clip-rule="evenodd" d="M14.264 48.0492C15.6893 50.888 16.4136 54.0773 17.6285 56.7058C16.7523 51.9745 15.3972 47.7338 13.0841 44.4277C12.6051 46.0749 13.5631 46.6474 14.264 48.0492Z" fill="#F1E26F"/>
<path fill-rule="evenodd" clip-rule="evenodd" d="M11.8224 53.8553C13.6682 55.5609 14.0771 58.6801 15.3972 60.8997C17.1845 56.7525 13.6448 51.8226 12.4649 48.0259C12.021 49.7432 12.1612 52.0563 11.8224 53.8553Z" fill="#F1E26F"/>
<path fill-rule="evenodd" clip-rule="evenodd" d="M9.63787 49.8247C8.64488 52.3598 4.22899 57.3714 6.16825 59.8481C6.78741 58.528 8.90189 57.827 9.40423 56.0513C9.94161 54.1238 9.31077 51.764 9.63787 49.8247Z" fill="#F1E26F"/>
<path fill-rule="evenodd" clip-rule="evenodd" d="M18.6215 23.3645C18.75 24.3692 18.4229 24.9182 18.4112 25.771C20.736 27.5351 22.0677 30.2804 23.5864 32.8388C24.0888 28.1542 20.9229 25.8995 18.6215 23.3645Z" fill="#EFA424"/>
<path fill-rule="evenodd" clip-rule="evenodd" d="M5.12851 31.1216C4.60281 31.5539 3.53972 32.3599 3.90187 33.3296C7.42991 30.0235 14.4509 29.1824 15.4089 23.9487C13.2126 27.3833 8.11916 28.6333 5.12851 31.1216Z" fill="#EFA424"/>
<path fill-rule="evenodd" clip-rule="evenodd" d="M14.9299 38.201C17.2546 41.6939 18.6916 46.0631 20.0817 50.4907C22.1612 44.743 17.8504 39.5561 15.7476 35.3972C15.3972 36.2617 15.0584 37.1379 14.9299 38.201Z" fill="#EFA424"/>
<path fill-rule="evenodd" clip-rule="evenodd" d="M4.18223 54.8132C6.15653 51.8926 7.40653 48.2477 10.4556 46.4136C10.4205 45.0351 11.3551 43.5515 11.0864 42.6052C8.65653 46.3669 3.16587 48.8786 4.18223 54.8132Z" fill="#EFA424"/>
<path fill-rule="evenodd" clip-rule="evenodd" d="M18.6332 21.1565C20.3388 22.535 22.0561 24.9532 23.4229 26.0046C22.6519 21.2383 21.0748 17.2897 18.6682 14.1238C18.5047 16.7406 18.9953 18.9252 18.6332 21.1565Z" fill="#EFA424"/>
</svg>
