<svg width="43" height="130" viewBox="0 0 43 130" fill="none" xmlns="http://www.w3.org/2000/svg">
<path fill-rule="evenodd" clip-rule="evenodd" d="M24.5257 2.52443C24.9126 5.6947 25.5122 9.39651 23.017 11.4847C20.9667 10.5165 16.3633 8.67513 13.7134 10.4406C14.6418 12.7566 18.9938 12.4908 21.6824 12.1302C18.8197 15.3004 13.5973 16.1357 9.99965 18.5846C15.7637 20.9196 20.4832 15.3574 23.9841 14.4272C21.8758 18.3568 17.5818 20.1033 13.9648 22.5332C13.0364 23.0647 9.82557 22.6281 10.9668 24.1468C16.46 26.0642 19.5547 21.4511 22.224 20.1602C22.34 20.0653 22.4367 19.9704 22.6302 19.9894C22.4948 20.0274 22.3594 20.1033 22.224 20.1602C22.1466 20.2172 22.0692 20.2741 21.9725 20.3121C16.9435 26.5387 10.2704 29.8988 6.57607 36.8658C4.69986 40.4158 3.92617 44.3644 2.84301 48.9205C1.79852 53.2867 0.405877 57.558 0.0964007 62.285C-0.483868 71.2832 1.66313 80.1106 1.93392 88.0837C1.99194 88.9949 3.51999 88.5014 3.26854 89.7163C5.66698 96.6074 8.72306 102.948 11.7985 109.023C14.99 115.363 18.9938 120.622 22.6688 126.374C25.2801 127 26.4599 128.956 28.6456 130C25.5315 122.995 26.2472 106.536 30.1543 100.309C34.1968 88.6912 40.8119 75.6684 42.0305 60.5574C43.2877 44.82 40.2316 32.006 34.2742 21.0145C32.9783 20.3311 32.1659 20.5209 31.9725 18.3948C34.5063 18.5087 36.5179 18.091 36.9821 16.1357C34.487 15.8509 30.5992 16.914 29.9996 14.7879C35.2994 15.1296 38.4135 13.2882 40.6572 10.6115C37.2723 10.1369 34.5257 13.0414 29.9996 12.5098C29.6708 8.63716 29.4773 4.61263 28.6263 1.23354C28.3748 0.265374 27.3303 -0.266168 26.4019 0.132488L25.8216 0.379276C24.9319 0.720981 24.4097 1.61321 24.5257 2.52443Z" fill="#3F150A"/>
<path fill-rule="evenodd" clip-rule="evenodd" d="M8.52972 44.0418C15.4929 40.1312 23.3653 34.2653 27.2531 26.1972C27.1564 23.5775 27.6399 20.4072 26.6341 18.6797C23.6941 30.2028 10.9475 32.0062 8.52972 44.0418Z" fill="#FF846C"/>
<path fill-rule="evenodd" clip-rule="evenodd" d="M14.8547 42.1051C12.2628 43.7377 7.40789 44.3452 7.5046 48.5975C13.6361 43.8516 27.7366 40.9091 26.5567 30.4302C23.7715 35.6886 19.6709 39.0867 14.8547 42.1051Z" fill="#FF846C"/>
<path fill-rule="evenodd" clip-rule="evenodd" d="M29.8063 45.1426C29.5935 46.3385 29.4388 47.6294 28.7811 48.4078C32.9204 53.7991 35.3575 60.861 37.3111 68.3596C40.4058 58.1274 34.8546 50.42 29.8063 45.1426Z" fill="#FF846C"/>
<path fill-rule="evenodd" clip-rule="evenodd" d="M4.75809 61.6393C10.1352 56.8175 22.9592 54.7672 24.1391 45.75C18.8006 52.1665 6.80837 51.9766 4.75809 61.6393Z" fill="#FF846C"/>
<path fill-rule="evenodd" clip-rule="evenodd" d="M27.7562 51.9771C26.0347 55.2422 28.2784 56.4762 29.7097 58.8301C32.495 63.4432 34.4293 68.246 35.261 73.8842C37.3499 69.2712 34.7387 65.968 32.6885 60.8234C31.1217 56.9128 29.2842 53.211 27.7562 51.9771Z" fill="#FF846C"/>
<path fill-rule="evenodd" clip-rule="evenodd" d="M4.41002 64.5822C4.66147 67.145 3.36554 69.8786 4.37134 72.0997C9.03283 66.1199 14.6808 61.0892 21.7601 57.5013C21.6827 55.7738 23.2881 54.0083 22.4564 52.6035C17.5241 57.6911 9.86455 60.0451 4.41002 64.5822Z" fill="#FF846C"/>
<path fill-rule="evenodd" clip-rule="evenodd" d="M11.0252 69.1953C8.33657 71.9669 4.33272 74.8904 4.6422 79.5984C9.18763 74.9284 12.766 69.2902 19.3423 66.6135C19.5358 64.8291 20.9671 62.551 20.3675 61.0703C17.2921 63.5951 13.9458 66.1769 11.0252 69.1953Z" fill="#FF846C"/>
<path fill-rule="evenodd" clip-rule="evenodd" d="M25.2998 73.1815C27.8917 77.8514 28.7814 83.1289 30.8704 87.5711C31.9149 79.2562 26.7505 71.4729 23.6944 64.9995C21.3346 68.9671 23.7911 70.4288 25.2998 73.1815Z" fill="#FF846C"/>
<path fill-rule="evenodd" clip-rule="evenodd" d="M23.617 78.0793C25.9768 82.6923 27.176 87.8748 29.1876 92.1461C27.7369 84.4578 25.4932 77.5667 21.6634 72.1943C20.8704 74.871 22.4565 75.8012 23.617 78.0793Z" fill="#FF846C"/>
<path fill-rule="evenodd" clip-rule="evenodd" d="M19.5742 87.5143C22.6302 90.2859 23.3072 95.3546 25.4929 98.9615C28.4523 92.2223 22.5916 84.2112 20.638 78.0415C19.903 80.8321 20.1351 84.5909 19.5742 87.5143Z" fill="#FF846C"/>
<path fill-rule="evenodd" clip-rule="evenodd" d="M15.9575 80.9648C14.3134 85.0843 7.00206 93.2283 10.2129 97.2528C11.238 95.1077 14.739 93.9687 15.5707 91.0831C16.4604 87.9508 15.416 84.1161 15.9575 80.9648Z" fill="#FF846C"/>
<path fill-rule="evenodd" clip-rule="evenodd" d="M30.8316 37.9673C31.0444 39.5999 30.5028 40.4921 30.4835 41.8779C34.3326 44.7444 36.5376 49.2056 39.0521 53.363C39.8838 45.7506 34.642 42.0867 30.8316 37.9673Z" fill="#EB390E"/>
<path fill-rule="evenodd" clip-rule="evenodd" d="M8.49108 50.5725C7.62067 51.2749 5.86053 52.5847 6.46014 54.1604C12.3015 48.788 23.9262 47.4212 25.5123 38.9165C21.8759 44.4977 13.4427 46.5289 8.49108 50.5725Z" fill="#EB390E"/>
<path fill-rule="evenodd" clip-rule="evenodd" d="M24.7194 62.0761C28.5685 67.7522 30.9476 74.8521 33.2494 82.0469C36.6923 72.7069 29.555 64.2782 26.0734 57.52C25.4931 58.9248 24.9322 60.3486 24.7194 62.0761Z" fill="#EB390E"/>
<path fill-rule="evenodd" clip-rule="evenodd" d="M6.92459 89.0708C10.1934 84.3249 12.2631 78.402 17.3114 75.4216C17.2534 73.1815 18.8008 70.7706 18.3559 69.2329C14.3327 75.3456 5.24181 79.4271 6.92459 89.0708Z" fill="#EB390E"/>
<path fill-rule="evenodd" clip-rule="evenodd" d="M30.8509 34.3788C33.6748 36.6189 36.5182 40.5485 38.7812 42.2571C37.5046 34.5117 34.8934 28.0953 30.9089 22.9507C30.6381 27.203 31.4505 30.753 30.8509 34.3788Z" fill="#EB390E"/>
</svg>
