<svg width="20" height="20" viewBox="0 0 20 20" fill="none" xmlns="http://www.w3.org/2000/svg">
<g clip-path="url(#clip0)">
<path d="M2.18516 20C0.980078 20 0 19.0199 0 17.8148V16.3398C0 15.0234 0.564453 13.7723 1.54883 12.9074C2.41914 12.1426 3.97578 11.1168 6.45 10.573L6.88438 10.4777L6.53203 10.2066C5.11758 9.1168 4.30625 7.47227 4.30625 5.69414C4.30625 2.5543 6.86055 0 10 0C13.1395 0 15.6938 2.5543 15.6938 5.69375C15.6938 8.8332 13.1395 11.3875 10 11.3875C5.54688 11.3875 3.15117 13.0703 2.32773 13.7937C1.59844 14.4348 1.18008 15.3625 1.18008 16.3395V17.8148C1.18008 18.3687 1.63086 18.8195 2.18477 18.8195H17.8148C18.3687 18.8195 18.8195 18.3687 18.8195 17.8148V16.3398C18.8195 15.3629 18.4012 14.4352 17.6719 13.7941C17.1012 13.2926 16.3992 12.8547 15.5855 12.4934C15.2883 12.3613 15.1539 12.0117 15.2859 11.7145C15.3805 11.5016 15.5926 11.3637 15.8258 11.3637C15.9082 11.3637 15.9887 11.3809 16.0652 11.4148C16.9875 11.8246 17.7906 12.327 18.4516 12.9078C19.4355 13.7723 20 15.0234 20 16.3398V17.8152C20 19.0199 19.0199 20.0004 17.8148 20.0004H2.18516V20ZM10 1.18008C7.51133 1.18008 5.48633 3.20469 5.48633 5.69375C5.48633 8.18281 7.51133 10.2074 10 10.2074C12.4887 10.2074 14.5137 8.18281 14.5137 5.69375C14.5137 3.20469 12.4887 1.18008 10 1.18008Z" fill="black"/>
</g>
<defs>
<clipPath id="clip0">
<rect width="20" height="20" fill="white"/>
</clipPath>
</defs>
</svg>
