<svg width="73" height="13" viewBox="0 0 73 13" fill="none" xmlns="http://www.w3.org/2000/svg">
<path d="M6.5 8.96875L9.85156 11L8.96289 7.19141L11.9082 4.62695L8.02344 4.29688L6.5 0.716797L4.97656 4.29688L1.0918 4.62695L4.03711 7.19141L3.14844 11L6.5 8.96875Z" fill="#FFCD05"/>
<path d="M21.5 8.96875L24.8516 11L23.9629 7.19141L26.9082 4.62695L23.0234 4.29688L21.5 0.716797L19.9766 4.29688L16.0918 4.62695L19.0371 7.19141L18.1484 11L21.5 8.96875Z" fill="#FFCD05"/>
<path d="M36.5 8.96875L39.8516 11L38.9629 7.19141L41.9082 4.62695L38.0234 4.29688L36.5 0.716797L34.9766 4.29688L31.0918 4.62695L34.0371 7.19141L33.1484 11L36.5 8.96875Z" fill="#FFCD05"/>
<path d="M51.5 7.97852V2.92578L52.4141 5.10938L54.8008 5.3125L52.998 6.88672L53.5312 9.19727L51.5 7.97852ZM56.9082 4.62695L53.0234 4.29688L51.5 0.716797L49.9766 4.29688L46.0918 4.62695L49.0371 7.19141L48.1484 11L51.5 8.96875L54.8516 11L53.9629 7.19141L56.9082 4.62695Z" fill="#FFCD05"/>
<path d="M66.5 7.95312L64.4688 9.19727L65.002 6.86133L63.1992 5.3125L65.5859 5.10938L66.5 2.92578L67.4141 5.10938L69.8008 5.3125L67.998 6.86133L68.5312 9.19727L66.5 7.95312ZM71.9082 4.62695L68.0234 4.29688L66.5 0.716797L64.9766 4.29688L61.0918 4.62695L64.0371 7.19141L63.1484 11L66.5 8.96875L69.8516 11L68.9629 7.19141L71.9082 4.62695Z" fill="#FFCD05"/>
</svg>
