<svg width="20" height="20" viewBox="0 0 20 20" fill="none" xmlns="http://www.w3.org/2000/svg">
<path d="M19.4246 20C19.2715 20 19.1273 19.9405 19.0184 19.832L14.5922 15.417L14.4809 15.511C12.8941 16.8549 10.877 17.595 8.80078 17.595C3.94805 17.595 0 13.6487 0 8.79748C0 3.94667 3.94805 0 8.80078 0C13.6535 0 17.6016 3.94667 17.6016 8.79748C17.6016 10.8803 16.8566 12.902 15.5039 14.491L15.4086 14.6029L19.8309 19.0136C20.0559 19.238 20.0566 19.6041 19.8328 19.8297C19.7242 19.9393 19.5793 20 19.4246 20ZM8.80078 1.15397C4.58281 1.15397 1.15156 4.58297 1.15156 8.79748C1.15156 13.012 4.5832 16.441 8.80078 16.441C10.8098 16.441 12.7086 15.6653 14.1484 14.2572L14.1543 14.2513L14.1594 14.245C14.1727 14.229 14.1836 14.2165 14.1941 14.2063C14.2078 14.1926 14.223 14.1789 14.2391 14.1656L14.2457 14.1601L14.252 14.1538C15.6691 12.7136 16.45 10.8113 16.45 8.79748C16.45 4.58297 13.0184 1.15397 8.80078 1.15397Z" fill="black"/>
</svg>
