<svg width="33" height="10" viewBox="0 0 33 10" fill="none" xmlns="http://www.w3.org/2000/svg">
<path fill-rule="evenodd" clip-rule="evenodd" d="M13.075 8.40856C13.1433 8.20735 13.4187 8.23275 13.6864 8.24838C13.6181 8.44763 13.3427 8.42419 13.075 8.40856Z" fill="white"/>
<path fill-rule="evenodd" clip-rule="evenodd" d="M12.1388 7.84598C11.8521 7.91435 11.4837 7.89677 11.2255 7.9964C11.1134 7.9964 11.1742 7.96124 11.1837 7.90654C11.4344 7.76784 11.8654 7.82449 12.2262 7.803C12.4692 7.80105 12.2756 7.88505 12.1388 7.84598Z" fill="white"/>
<path fill-rule="evenodd" clip-rule="evenodd" d="M10.783 8.34216C11.3641 8.223 12.2186 8.41639 12.3857 8.30114C12.3382 8.33435 12.097 8.40467 11.9926 8.42226C11.6964 8.46914 10.9824 8.53947 10.783 8.34216Z" fill="white"/>
<path fill-rule="evenodd" clip-rule="evenodd" d="M17.3645 9.3697C17.4253 9.27007 17.6665 9.36188 17.7975 9.33844C17.7348 9.43807 17.4956 9.3443 17.3645 9.3697Z" fill="white"/>
<path fill-rule="evenodd" clip-rule="evenodd" d="M18.4336 8.24253C18.4734 8.15853 18.6254 8.12923 18.6937 8.20737C18.6899 8.32849 18.4867 8.30505 18.4336 8.24253Z" fill="white"/>
<path fill-rule="evenodd" clip-rule="evenodd" d="M21.3142 7.39276C21.3275 7.17592 21.5819 7.22476 21.7946 7.22867C21.7281 7.38495 21.5231 7.39081 21.3142 7.39276Z" fill="white"/>
<path fill-rule="evenodd" clip-rule="evenodd" d="M22.8314 7.25792C22.8143 7.31848 22.387 7.32239 22.1801 7.32825C22.2579 7.15243 22.6244 7.29113 22.8314 7.25792Z" fill="white"/>
<path fill-rule="evenodd" clip-rule="evenodd" d="M23.1447 5.35331C23.4789 5.39043 24.1511 5.32792 24.2688 5.43145C23.8739 5.32987 23.3839 5.58969 23.1447 5.35331Z" fill="white"/>
<path fill-rule="evenodd" clip-rule="evenodd" d="M22.4953 5.37868C22.5162 5.28101 22.7251 5.34938 22.7535 5.38649C22.7346 5.48417 22.5238 5.41384 22.4953 5.37868Z" fill="white"/>
<path fill-rule="evenodd" clip-rule="evenodd" d="M15.365 0.272178C15.4258 0.158873 15.6308 0.270224 15.7106 0.281945C15.6764 0.321016 15.6612 0.379622 15.6631 0.457764C15.5131 0.446042 15.5017 0.297574 15.365 0.272178Z" fill="white"/>
<path fill-rule="evenodd" clip-rule="evenodd" d="M16.924 8.02178C16.7759 8.42029 16.3961 8.77192 16.0714 9.10988C15.76 9.43221 15.4733 9.92058 14.9663 9.96747C14.8694 9.75649 15.0593 9.62365 15.1941 9.52988C15.0631 9.46542 14.9416 9.80337 14.7118 9.78189C14.8751 9.24076 15.3669 8.92234 15.6973 8.51992C16.6696 7.33805 17.7861 6.22455 18.7811 5.00361C17.488 3.38806 16.1303 1.83502 15.0232 0.0417013C15.2188 0.121795 15.4828 -0.0520668 15.7163 0.0163059C16.0486 0.113981 16.5272 0.955942 16.7645 1.24897C17.7671 2.48944 18.8248 3.9116 19.8654 4.945C18.8628 5.93152 17.9399 7.19154 16.924 8.02178Z" fill="#74BFD5"/>
<path fill-rule="evenodd" clip-rule="evenodd" d="M23.665 9.99872C23.3916 9.9909 23.1181 9.98309 22.8428 9.97528C22.7877 9.8776 22.9795 9.63341 23.1181 9.44783C24.0068 8.26596 25.0949 6.97078 25.9892 5.74789C25.9873 5.5877 26.1013 5.7557 26.2076 5.66389C26.1753 5.43533 26.1431 5.34547 26.1355 5.1716C26.1601 5.0329 25.938 5.13253 25.9247 5.0329C24.9676 3.56777 24.3201 1.79985 23.3707 0.32886C23.4903 0.229232 23.7884 0.324954 23.9764 0.301512C24.9847 1.93464 26.0177 3.54043 27.1343 5.07002C27.0317 5.30835 27.1172 5.48221 27.2482 5.60724C26.0709 7.08799 24.9544 8.63712 23.665 9.99872Z" fill="#EFA424"/>
<path fill-rule="evenodd" clip-rule="evenodd" d="M24.7037 9.98505C24.6448 9.82095 24.9505 9.65295 25.1081 9.46151C25.881 8.52578 26.6158 7.44353 27.4399 6.50194C27.7608 6.13469 28.1729 5.79087 28.2944 5.32398C27.1342 3.6381 25.7063 1.98153 24.7112 0.276119C25.1689 0.258537 25.5316 0.323004 25.9645 0.358167C26.5797 0.405051 27.326 0.223374 27.8672 0.412865C28.1748 0.520308 28.6799 1.32125 28.9571 1.64748C30.0091 2.8821 31.1617 4.12648 32.1909 5.25951C30.9491 6.88679 29.4603 8.24447 28.2944 9.95379C27.0526 9.91472 25.8658 9.93621 24.7037 9.98505Z" fill="#EFA424"/>
<path fill-rule="evenodd" clip-rule="evenodd" d="M18.6824 8.65082C18.2703 9.1177 17.9057 9.48692 17.5221 9.90887C17.1519 9.87566 16.6961 9.93036 16.398 9.83073C16.8594 9.39901 17.2449 8.88914 17.6911 8.44374C17.9418 8.51798 18.1754 8.60784 18.4203 8.68793C18.4868 8.49454 17.9551 8.50626 17.8241 8.35779C17.788 8.24058 17.9266 8.10383 18.0064 8.00616C18.2893 7.66625 18.6216 7.3068 18.9444 6.92196C19.3754 6.40819 20.2964 5.72056 20.0837 4.86297C19.9926 4.49571 19.5862 4.17533 19.3356 3.77291C19.0754 3.35486 18.9026 2.92118 18.6748 2.59494C17.9437 1.80573 17.338 0.89344 16.5784 0.12962C16.7835 0.0338974 17.1689 0.131573 17.4443 0.112038C17.8753 0.832882 18.6634 1.30172 19.1229 1.98545C19.4951 2.53829 19.7115 3.16146 20.0268 3.70454C20.2091 4.01905 20.4996 4.50547 20.8167 4.88641C21.1984 5.34158 21.1509 5.17357 20.7483 5.77525C20.0799 6.77936 19.4153 7.82058 18.6824 8.65082Z" fill="#EFA424"/>
<path fill-rule="evenodd" clip-rule="evenodd" d="M5.81177 9.70764C5.56492 9.70178 5.31996 9.69397 5.0769 9.68811C5.05981 9.47322 5.29527 9.36578 5.43579 9.2095C6.45549 8.06865 7.63469 6.78324 8.56703 5.51542C7.45049 3.91745 6.63968 2.01864 5.54972 0.395277C5.69594 0.297602 6.02634 0.393324 6.24281 0.371836C7.30049 2.15539 8.43032 3.87447 9.56015 5.58965C8.22714 6.87115 7.06503 8.34019 5.81177 9.70764Z" fill="#984217"/>
<path fill-rule="evenodd" clip-rule="evenodd" d="M16.3657 6.85748C15.929 7.27749 15.6537 7.88112 15.1049 8.28354C14.6112 8.64494 14.3092 9.26811 13.7757 9.55527C12.906 10.0261 10.5552 9.4869 9.31899 9.6803C9.23544 9.55723 9.49748 9.4029 9.6342 9.24467C10.3064 8.45936 10.8875 7.508 11.6109 6.63088C11.8369 6.35934 12.3439 5.88854 12.3743 5.58575C12.4161 5.1677 11.854 4.57188 11.5901 4.22806C11.2596 3.79438 10.9653 3.3275 10.7166 2.95633C10.1032 2.04013 9.50128 1.21185 9.05695 0.414817C9.97031 0.563284 12.7313 0.280025 13.5915 0.373794C13.7358 0.455841 13.7662 0.67268 13.9276 0.782077C14.1345 0.924683 14.5257 0.909055 14.6966 1.11808C15.91 2.59884 15.9708 3.12628 17.3456 4.26323C17.4006 4.32378 17.3968 4.42927 17.3399 4.48593C17.5601 4.4742 17.6532 4.58555 17.7671 4.67737C17.6646 5.57012 16.9107 6.33199 16.3657 6.85748Z" fill="#984217"/>
<path fill-rule="evenodd" clip-rule="evenodd" d="M18.6899 9.94207C19.1096 9.30327 19.3792 8.76606 19.8672 8.06279C19.8426 7.87916 20.0192 8.11358 20.0856 7.98075C20.1046 7.87526 19.8881 8.00028 19.9603 7.844C20.3534 7.38688 20.7502 6.93171 21.2079 6.54492C21.2003 6.46678 21.1357 6.44138 21.037 6.45115C21.3009 6.00966 21.8953 5.63263 21.8972 5.09542C21.8991 4.67346 21.0465 3.74554 20.8186 3.37242C20.4027 2.6887 20.1692 2.05771 19.8274 1.60645C19.8236 1.50878 19.8672 1.4658 19.9622 1.47752C19.4172 1.28608 19.3546 0.623841 18.9995 0.246815C20.1445 0.149139 21.5762 0.365978 22.7213 0.266349C23.8074 1.85455 24.3714 3.9448 25.6987 5.29663C24.5366 6.90436 23.384 8.51991 22.106 10.0007C20.9458 9.95574 19.8008 9.93035 18.6899 9.94207Z" fill="#984217"/>
<path fill-rule="evenodd" clip-rule="evenodd" d="M0.00692563 9.85223C-0.0424451 9.73502 0.183518 9.49865 0.324034 9.32869C1.31904 8.12143 2.5742 6.86141 3.45907 5.50177C2.41659 3.75925 1.2298 2.15542 0.136048 0.461727C1.60957 0.506658 3.13817 0.371865 4.46548 0.410935C5.57822 2.10072 6.50677 3.96827 7.69926 5.58187C6.47259 6.89072 5.34656 8.30506 4.20913 9.70963C2.78498 9.72916 1.41399 9.8073 0.00692563 9.85223Z" fill="#EA390E"/>
<path fill-rule="evenodd" clip-rule="evenodd" d="M6.59029 9.73305C6.50484 9.63538 6.76878 9.43026 6.9055 9.29547C7.64416 8.57853 8.36004 7.70531 9.09301 6.8653C9.49557 6.40623 9.87725 6.08585 10.0842 5.4705C9.10061 3.81393 8.21573 2.06358 7.19413 0.444127C7.45618 0.457802 7.95368 0.444126 8.31827 0.432405C9.59431 1.9913 10.5779 3.83541 11.6831 5.56231C10.7014 6.98447 9.57152 8.24448 8.62588 9.70179C7.95938 9.72524 7.31756 9.77603 6.59029 9.73305Z" fill="#EA390E"/>
</svg>
