<svg width="34" height="10" viewBox="0 0 34 10" fill="none" xmlns="http://www.w3.org/2000/svg">
<g clip-path="url(#clip0)">
<path fill-rule="evenodd" clip-rule="evenodd" d="M13.5339 1.59015C13.6042 1.79136 13.8875 1.76597 14.1629 1.75034C14.0926 1.55108 13.8093 1.57453 13.5339 1.59015Z" fill="white"/>
<path fill-rule="evenodd" clip-rule="evenodd" d="M0.279352 2.10197C0.396563 2.10588 0.416098 2.17034 0.636844 2.13713C0.353586 1.98085 -0.408282 2.07853 0.279352 2.10197Z" fill="white"/>
<path fill-rule="evenodd" clip-rule="evenodd" d="M12.5708 2.15274C12.2759 2.08437 11.8969 2.10195 11.6312 2.00232C11.5159 2.00232 11.5784 2.03748 11.5882 2.09218C11.8461 2.23088 12.2895 2.17423 12.6607 2.19572C12.9107 2.19767 12.7115 2.11367 12.5708 2.15274Z" fill="white"/>
<path fill-rule="evenodd" clip-rule="evenodd" d="M11.176 1.65656C11.7738 1.77572 12.6528 1.58232 12.8248 1.69758C12.7759 1.66437 12.5278 1.59404 12.4204 1.57646C12.1156 1.52958 11.3811 1.45925 11.176 1.65656Z" fill="white"/>
<path fill-rule="evenodd" clip-rule="evenodd" d="M17.9469 0.629022C18.0094 0.72865 18.2575 0.636836 18.3923 0.660278C18.3278 0.560649 18.0817 0.654417 17.9469 0.629022Z" fill="white"/>
<path fill-rule="evenodd" clip-rule="evenodd" d="M19.0467 1.75618C19.0877 1.84018 19.244 1.86949 19.3143 1.79135C19.3104 1.67023 19.1014 1.69367 19.0467 1.75618Z" fill="white"/>
<path fill-rule="evenodd" clip-rule="evenodd" d="M22.0102 2.60596C22.0239 2.8228 22.2856 2.77396 22.5044 2.77005C22.436 2.61377 22.2251 2.60791 22.0102 2.60596Z" fill="white"/>
<path fill-rule="evenodd" clip-rule="evenodd" d="M23.571 2.74074C23.5535 2.68018 23.1139 2.67627 22.901 2.67041C22.9811 2.84622 23.3581 2.70753 23.571 2.74074Z" fill="white"/>
<path fill-rule="evenodd" clip-rule="evenodd" d="M23.8933 4.64547C24.2372 4.60835 24.9287 4.67086 25.0498 4.56733C24.6435 4.66891 24.1395 4.40909 23.8933 4.64547Z" fill="white"/>
<path fill-rule="evenodd" clip-rule="evenodd" d="M23.2252 4.62004C23.2467 4.71771 23.4616 4.64934 23.4909 4.61222C23.4714 4.51455 23.2545 4.58487 23.2252 4.62004Z" fill="white"/>
<path fill-rule="evenodd" clip-rule="evenodd" d="M15.8898 9.72648C15.9523 9.83978 16.1633 9.72843 16.2453 9.71671C16.2102 9.67764 16.1946 9.61903 16.1965 9.54089C16.0422 9.55261 16.0305 9.70108 15.8898 9.72648Z" fill="white"/>
<path fill-rule="evenodd" clip-rule="evenodd" d="M17.4936 1.97694C17.3413 1.57843 16.9506 1.2268 16.6165 0.888839C16.2961 0.566511 16.0012 0.0781342 15.4796 0.03125C15.3799 0.242229 15.5753 0.375067 15.714 0.468835C15.5792 0.533301 15.4542 0.195345 15.2178 0.216833C15.3858 0.757954 15.8918 1.07638 16.2317 1.4788C17.2319 2.66067 18.3805 3.77417 19.4042 4.99511C18.0738 6.61066 16.6771 8.1637 15.5382 9.95702C15.7394 9.87692 16.0109 10.0508 16.2512 9.98241C16.5931 9.88474 17.0854 9.04278 17.3295 8.74975C18.361 7.50927 19.4491 6.08712 20.5196 5.05372C19.4882 4.06719 18.5388 2.80718 17.4936 1.97694Z" fill="#74BFD5"/>
<path fill-rule="evenodd" clip-rule="evenodd" d="M24.4286 0C24.1473 0.00781403 23.866 0.0156281 23.5827 0.0234421C23.5261 0.121117 23.7234 0.365306 23.866 0.550889C24.7802 1.73276 25.8996 3.02794 26.8197 4.25083C26.8177 4.41102 26.9349 4.24302 27.0443 4.33483C27.0111 4.56339 26.9779 4.65325 26.9701 4.82711C26.9955 4.96581 26.7669 4.86619 26.7533 4.96581C25.7687 6.43094 25.1025 8.19887 24.1258 9.66986C24.2489 9.76949 24.5556 9.67376 24.749 9.69721C25.7863 8.06408 26.849 6.45829 27.9976 4.9287C27.8922 4.69037 27.9801 4.51651 28.1149 4.39148C26.9037 2.91072 25.755 1.36159 24.4286 0Z" fill="#EFA424"/>
<path fill-rule="evenodd" clip-rule="evenodd" d="M25.4991 0.0136719C25.4385 0.177766 25.753 0.345768 25.9152 0.537212C26.7103 1.47294 27.4663 2.55518 28.3141 3.49677C28.6442 3.86403 29.0681 4.20785 29.1932 4.67474C27.9996 6.36061 26.5305 8.01719 25.5069 9.7226C25.9777 9.74018 26.3508 9.67571 26.7962 9.64055C27.4291 9.59367 28.1969 9.77534 28.7536 9.58585C29.0701 9.47841 29.5897 8.67747 29.8749 8.35124C30.9572 7.11662 32.143 5.87224 33.2018 4.7392C31.9242 3.11193 30.3926 1.75425 29.1932 0.044928C27.9136 0.0839981 26.6927 0.0625095 25.4991 0.0136719Z" fill="#EFA424"/>
<path fill-rule="evenodd" clip-rule="evenodd" d="M19.3026 1.3479C18.8787 0.881014 18.5036 0.511801 18.109 0.0898438C17.7281 0.123053 17.2592 0.0683552 16.9525 0.167984C17.4272 0.599709 17.8238 1.10957 18.2829 1.55497C18.5407 1.48074 18.781 1.39088 19.033 1.31079C19.1014 1.50418 18.5544 1.49246 18.4196 1.64093C18.3825 1.75814 18.5251 1.89488 18.6071 1.99256C18.8982 2.33247 19.2401 2.69191 19.5722 3.07676C20.0156 3.59053 20.9631 4.27816 20.7443 5.13575C20.6505 5.50301 20.2324 5.82339 19.9746 6.22581C19.707 6.64386 19.5292 7.07754 19.2948 7.40377C18.5427 8.19299 17.9195 9.10528 17.1381 9.8691C17.3491 9.96482 17.7456 9.86714 18.0289 9.88668C18.4723 9.16584 19.283 8.69699 19.7558 8.01327C20.1387 7.46042 20.3614 6.83726 20.6857 6.29418C20.8732 5.97967 21.1721 5.49324 21.4983 5.11231C21.891 4.65714 21.8421 4.82514 21.428 4.22346C20.7404 3.21936 20.0566 2.17814 19.3026 1.3479Z" fill="#EFA424"/>
<path fill-rule="evenodd" clip-rule="evenodd" d="M6.06171 0.291016C5.80775 0.296876 5.55575 0.30469 5.3057 0.310551C5.28812 0.525436 5.53035 0.632879 5.67491 0.78916C6.72395 1.93001 7.93707 3.21542 8.89624 4.48324C7.74758 6.08121 6.91344 7.98002 5.79212 9.60338C5.94254 9.70106 6.28245 9.60533 6.50515 9.62682C7.59326 7.84327 8.75559 6.12419 9.91793 4.40901C8.54657 3.12751 7.35102 1.65847 6.06171 0.291016Z" fill="#984217"/>
<path fill-rule="evenodd" clip-rule="evenodd" d="M16.9193 3.14116C16.47 2.72115 16.1867 2.11752 15.6222 1.7151C15.1142 1.3537 14.8036 0.730531 14.2547 0.443365C13.36 -0.0254762 10.9416 0.511738 9.66982 0.320294C9.58387 0.443365 9.85345 0.597692 9.9941 0.755926C10.6856 1.54124 11.2834 2.49259 12.0277 3.36972C12.2602 3.64126 12.7818 4.11205 12.813 4.41484C12.856 4.83289 12.2778 5.42871 12.0062 5.77253C11.6663 6.20621 11.3635 6.6731 11.1076 7.04426C10.4766 7.96046 9.85736 8.78874 9.40024 9.58578C10.3399 9.43731 13.1803 9.72057 14.0652 9.6268C14.2137 9.54475 14.2449 9.32791 14.411 9.21852C14.6239 9.07591 15.0263 9.09154 15.2022 8.88251C16.4504 7.40176 16.513 6.87431 17.9273 5.73737C17.9839 5.67681 17.98 5.57132 17.9214 5.51467C18.148 5.52639 18.2438 5.41504 18.361 5.32322C18.2555 4.42852 17.4799 3.66665 16.9193 3.14116Z" fill="#984217"/>
<path fill-rule="evenodd" clip-rule="evenodd" d="M19.3104 0.0566521C19.7421 0.695449 20.0195 1.23266 20.5216 1.93593C20.4962 2.11955 20.6779 1.88513 20.7462 2.01797C20.7658 2.12346 20.5431 1.99844 20.6173 2.15472C21.0217 2.61184 21.43 3.06701 21.9007 3.4538C21.8929 3.53194 21.8265 3.55734 21.7249 3.54757C21.9965 3.98906 22.6079 4.36609 22.6099 4.9033C22.6118 5.32526 21.7347 6.25317 21.5003 6.62629C21.0725 7.31002 20.8322 7.941 20.4805 8.39226C20.4766 8.48994 20.5216 8.53292 20.6192 8.5212C20.0586 8.71264 19.9941 9.37488 19.6288 9.7519C20.8068 9.84958 22.2797 9.63274 23.4577 9.73237C24.5751 8.14417 25.1553 6.05392 26.5208 4.70209C25.3252 3.09435 24.1395 1.4788 22.8248 -0.00195312C21.6312 0.0429775 20.4532 0.0683731 19.3104 0.0566521Z" fill="#984217"/>
<path fill-rule="evenodd" clip-rule="evenodd" d="M0.0898759 0.146484C0.0410382 0.263695 0.273506 0.502023 0.418065 0.671978C1.4417 1.87924 2.73297 3.13926 3.6433 4.4989C2.57083 6.24143 1.34989 7.84525 0.224668 9.53895C1.74059 9.49401 3.31316 9.62881 4.67866 9.58974C5.82342 7.89995 6.77868 6.0324 8.00549 4.4188C6.74352 3.10995 5.58509 1.69562 4.41494 0.291044C2.94786 0.269555 1.53742 0.191415 0.0898759 0.146484Z" fill="#EA390E"/>
<path fill-rule="evenodd" clip-rule="evenodd" d="M6.86268 0.265607C6.77477 0.363282 7.04631 0.5684 7.18696 0.703192C7.94687 1.42013 8.68334 2.29335 9.4374 3.13335C9.85154 3.59243 10.2442 3.9128 10.4571 4.52816C9.44521 6.18473 8.53488 7.93507 7.48389 9.55453C7.75348 9.54086 8.26529 9.55453 8.64037 9.56625C9.95312 8.00735 10.965 6.16324 12.102 4.43634C11.092 3.01419 9.92968 1.75418 8.95683 0.296863C8.27115 0.273421 7.61087 0.22263 6.86268 0.265607Z" fill="#EA390E"/>
</g>
<defs>
<clipPath id="clip0">
<rect width="33.2018" height="10" fill="white"/>
</clipPath>
</defs>
</svg>
